<svg xmlns="http://www.w3.org/2000/svg" xmlns:xlink="http://www.w3.org/1999/xlink" width="64" height="75" viewBox="0 0 81 95">
    <defs>
        <path id="a" d="M0 0h81v101H0z"/>
    </defs>
    <g fill="none" fill-rule="evenodd" transform="translate(0 -6)">
        <mask id="b" fill="#fff">
            <use xlink:href="#a"/>
        </mask>
        <path fill="#E9ECF0" d="M32.81 7.883c-18.001 4.332-10.035 21.5-8.086 30.462.331 1.525-3.329-.915-5.44.544-1.407.972-1.84 2.128-1.3 3.466.462 1.148 1.243 3.839 2.698 5.549.69.812 2.038 1.752 4.042 2.82.265 2.986.61 4.95 1.037 5.89 1.133 2.5 5.579 2.602 3.854 4.558l.583 5.737c-1.356 1.537-5.57 1.509-7.423 2.384-3.53 1.67-7.396 2.846-10.06 5.701-2.465 2.641-2.895 6.657-4.873 9.68-1.676 2.56-8.581 5.285-6.008 6.941l-.281 2.98c15.567 10.023 60.923 14.552 76.47 1.34 4.362-3.705-5.743-20.787-6.344-20.94-3.716-.954-8.992-3.935-13.273-5.702-2.56-1.056-3.536-1.302-6.29-1.836s-1.315 1-1.315-1.31c0-.675-.677-3.29 0-4.975.701-1.745 2.778-2.582 4.07-4.558 1.813-2.776 1.754-6.438 1.173-6.438-.588 0 3.743-.732 4.159-1.57 1.024-2.061 1.658-2.68 2.145-3.922 1.378-3.518.642-5.519-1.386-5.795-.641-.088-1.85.181-3.628.806 1.333-4.47 2.085-7.714 2.256-9.732.539-6.349.485-12.381-1.184-15.503-2.464-4.61-12.81-10.64-29.855-5.55" mask="url(#b)"/>
        <path fill="#7B8896" fill-rule="nonzero" d="M43.25 30.027c-.656.192-1.015-.437-.507-.898.277-.254.554-.523.824-.813a54.16 54.16 0 0 0-1.203-.07c-.317.184-.637.36-.961.527 0 0-.805.395-2.16.887a32.451 32.451 0 0 1-5.477 1.446c-.691.117-.965-.614-.363-.977a27.188 27.188 0 0 0 2.484-1.672c-4.637.523-7.832 1.785-9.98 2.887.11.773.172 1.547.078 2.27-.102.769-.36 1.491-.59 2.23-.203.648-.395 1.37-.43 2.39-.027 1.067.114 2.457.614 4.418.171.684-.54 1.012-.946.438-.722-1.02-1.11-1.524-1.328-1.852-1.258-1.922-2.855-2.351-3.8-2.043-3.149 1.035 1.48 11.43 5.327 10.27.375-.113.739.172.762.555.035.723.356 5.215 2.574 8.227 1.688 2.289 4.149 3.48 6.516 4.875.148.09.29.18.422.273.215-.273.691-.34.902.07.23.45.34.645.461.797.242.305.695.653 1.121.84.157.059.324.105.508.145.777.171 1.563.23 2.285.23.73 0 1.602-.062 2.38-.23.183-.04.347-.09.503-.145.426-.187.879-.531 1.121-.84.121-.152.23-.347.461-.797.211-.41.692-.347.902-.07.133-.094.27-.188.422-.273 2.364-1.399 4.82-2.586 6.512-4.875 2.227-3.012 2.54-7.504 2.574-8.227.02-.383.383-.668.758-.555 3.848 1.16 8.48-9.234 5.328-10.27-.828-.273-2.16.028-3.293 1.36l-.332.43c-.043.062-.086.124-.129.19a.489.489 0 0 1-.125.141l-.187.243c-.29.386-.633.906-1.102 1.472 0 0-.215.395-.7.274-.398-.196-.374-.524-.245-1.032.476-1.875.55-2.832.539-3.87-.008-.137-.02-.27-.027-.403-.012-.09-.02-.176-.032-.262-.105-.851-.347-1.746-.699-2.945a7.088 7.088 0 0 1-.297-2.512c.028-.386.07-.718.133-1.054-1.887-.942-4.54-1.977-8.203-2.559a19.994 19.994 0 0 1-3.395 1.36zM31.165 70.13c.313 2.25 4.871 3.98 9.336 3.98s9.024-1.73 9.336-3.98l.871-8.133c-.57.426-1.195.836-1.875 1.234-.785.461-2.808 1.465-3.37 2.125-1.212 1.414-3.356 1.59-5.079 1.59-1.727.004-3.777-.176-4.992-1.59-.563-.66-2.59-1.66-3.371-2.125a19.384 19.384 0 0 1-1.715-1.113l.86 8.012zM58.457 28.03c-3.105-2.703-9.77-4.856-18.062-4.856-8.262 0-14.805 2.137-17.922 4.828-.191.23-.223.25-.328.504-.559 1.574.355 2.563 2.07 1.672 2.774-1.59 7.758-3.473 16.277-3.473 8.532 0 13.52 1.887 16.29 3.477 1.577.82 2.456-.055 2.097-1.5-.102-.246-.223-.477-.422-.652zm-35.91-1.438v-2.625c.028-12.984 9.309-16.66 17.82-14.164.989.164.215.352.024.43-1.637.652-14.352 3.703 4.12.387 8.75-1.57 13.603 1.086 13.63 13.348v2.48c.258.18.5.36.73.547l-.004-4.266c-.027-13.723-8.75-14.699-18.46-14.699-9.465 0-18.349.977-18.376 14.695v4.262c.188-.149.352-.274.516-.395zm31.09 32.531c-.242 1.852-.32 4.106-.32 4.106-.028.844-.711.703-.918-.008l-.551-1.879-.578 5.496c.883.239 1.722.727 1.77 1.578.019.078.519 17.81.519 17.81.086.617-.492.898-1.055.898h-.172l.281-3.602a1.302 1.302 0 0 0-1.05-1.383l-1.618-.316a1.305 1.305 0 0 0-1.488.89l-1.402 4.434-2.68.012c-.226-2.629-1.933-5.059-4.844-6.102-1.379-.437-2.914.77-2.464 2.356l1.074 3.75h-.27l-3.73-.012-.77-2.68c-.457-1.578-2.398-1.789-3.34-.691-.828 1.047-1.328 2.195-1.53 3.355-.571-.003-1.15-.28-1.063-.898l.246-8.496.082-2.766c.101-3.523.187-6.52.195-6.554.05-.852.89-1.34 1.77-1.579l-.61-5.78-.633 2.16c-.21.714-.89.855-.921.007 0 0-.075-2.25-.32-4.105-.012-.078-.036-.262-.071-.465a9.223 9.223 0 0 1-.324-.473c-.305 1.266-.535 2.778-.535 2.778-.125.812-.7.629-.922-.07-.188-.579-.77-3.235-1.258-5.696a15.5 15.5 0 0 0-.129.613c-.066.352-.383.344-.434-.011a22.486 22.486 0 0 1-.18-4.707c.02-.262.032-.434.044-.559-4.368-1.07-8.504-10.953-4.278-12.344 1.094-.36 2.438-.066 3.621.89a29.95 29.95 0 0 0-.402-1.852l-.18.18a4.128 4.128 0 0 1-.234.216c-.254.218-.422.12-.355-.207.046-.22.078-.434.105-.653.102-1.047-.144-2.105-.379-2.781a38.85 38.85 0 0 0-.367-.938c-.195-.64-.234-1.226-.234-1.765 0-.578.086-1.063.23-1.477a3.017 3.017 0 0 1-.004-.957v-6.113c.04-13.82 8.758-15.578 17.63-15.746.32-.512 1.015-.863 1.816-.863.8 0 1.496.351 1.816.863 9.078.16 17.676 1.902 17.707 15.738v5.8c.117.524.113 1.009.012 1.427.113.378.183.812.183 1.32 0 .375-.02.77-.097 1.195-.028.16-.067.324-.118.488-.253.66-.793 2.141-.742 3.688.008.254.031.512.074.77.059.328-.105.43-.355.207-.078-.07-.156-.141-.23-.215l-.18-.176c-.031.133-.067.266-.102.402-.047.2-.093.399-.136.606-.079.363-.125.617-.165.84.883-.707 1.86-1.051 2.754-1.028a3 3 0 0 1 .863.148c4.22 1.383.114 11.216-4.238 12.333.012.125.024.3.043.566.106 1.59.047 3.164-.18 4.707-.05.356-.359.36-.43.012-.038-.203-.081-.41-.128-.613-.488 2.46-1.062 5.117-1.258 5.695-.222.7-.797.883-.922.07 0 0-.23-1.515-.535-2.777-.117.101-.222.25-.324.398-.035.23-.07.45-.082.535zM39.336 40.41c-.02-.035-.02-.035-.016-.031.032.02.04.016.051.016l-.035.015zm.203.278c-.047.003-.055.011-.058.02l-.063.007.008-.04c.055-.007.062-.01.07-.003.031-.02.031-.02.04-.016l.003.032zm-.047-.293c-.004-.051 0-.051 0-.055l.063-.008c.035.024.035.027.035.031l-.098.032zm.082.285l.02-.04c.039.024.05.024.054.016l.07-.02c.02.024.02.032.032.036l-.082.008c-.043 0-.047.004-.05.004-.032-.004-.036-.004-.044-.004zm-.336.054c.04.02.055.02.063.02l-.031-.047.046-.02.036.055.011.043c-.035-.008-.039-.008-.047-.008l-.097.012-.063.008c-.02-.024-.023-.031-.03-.035.01-.04.01-.04.019-.04.023-.003.03 0 .039.009l.043-.008.011.011zm3.118 19.875l-.004.04-.059-.016.063-.024zm.09-.824c-.024-.004-.032-.02.003-.062.024.004.032.02-.004.062zm.257.106l-.078-.055c.02.004.04.012.063.016l.062-.036c.012-.007.02-.007.008.047l-.055.028zm-3.418-.957l-.105-.063.18.067-.075-.004zm2.676.714l-.145-.039-.066.012c-.012-.004-.012-.023.02-.055l.191.082zm.184.727c.011-.008.02-.012.027.05.012.013.027.016.055.005.023-.016.039-.008.078.039.011.004.02.008.082-.008l.027.05c.004.009.004.02-.023.044l-.145-.04c-.012-.023-.023-.042-.055-.046-.015-.008-.043-.016-.066-.024-.02-.03-.02-.05.02-.07zm.011-.64l-.027-.051c-.004-.008-.004-.02.023-.047.036.004.036.004.067-.012l.14.04c.004 0 .008.007.004.054-.007.02-.007.031-.02.07l-.187-.055zm-.113.687c-.012-.008-.02-.004-.055.016-.007.003-.02-.004-.058-.016-.008-.008-.012-.016-.04-.04-.011-.003-.019-.003-.066.013l-.156-.02a.09.09 0 0 1 .004-.074l.055-.031.156.066c.012.016.031.02.05.012l.079-.028.043.043c-.004.012 0 .02-.012.059zm.883.246c.02-.016.043-.023.097-.004.02.008.02.008.04.035.007.008.015.012.046.035-.02.012-.03.02-.05.028-.02.008-.028.023-.032.043l-.054.031-.145-.04-.215-.062c-.02-.007-.027 0-.066.012l-.047-.008-.012-.066.055-.031.035-.094.067-.02.101.063-.015.058c-.004.02-.02.024-.079.04.024.007.051.011.07.02.024.01.048.003.079-.044l.125.004zm-4.582-.812l.039.039c-.02 0-.027-.008-.04-.04zm.308-1.137c.016-.02.024-.02.051.004-.008.008-.015.008-.05-.004zm-3.117 1.133c.031.02.031.023-.015.043.007-.024.007-.032.007-.036l.008-.007zm8.227 2.054l.035.012c.012.012.012.016-.05.04-.005-.005-.009-.013.015-.052zm-.32.035l.035-.02v.063l-.035-.043zm.054-.05l-.035-.035c.059-.028.04-.032.035.035zm-3.285-1.293c.023.023.02.027-.031.054l-.024-.058c.008-.008.016-.008.055.004zm.11.086v-.059l.062.031-.063.028zm-4.192-1.414c.02.007.039.007.05.046l-.05-.046zm5.004 1.308c.02-.008.031.004.055.035l-.055-.035zm-4.934-1.851l-.05-.024c-.004-.008.003-.012.05-.039v.063zm-.093-.211a.157.157 0 0 1-.036-.067c.008-.008.016-.008.051.012-.004.012-.004.02-.015.055zm4.671 1.554l.036-.02.027.052c.004.011-.004.027-.055.035l-.008-.067zm-2.722-.199l-.063.008a.157.157 0 0 0 .016-.05l.047.042zm1.812.602l-.054-.075.085.024.024.062c-.008 0-.016 0-.055-.011zm2.059 1.078c.015.027.027.039.047.07-.035-.012-.035-.008-.121-.027l.074-.043zm-2.2-.88l.212.071-.102-.027-.11-.043zm-2.667-1.804c-.02.004-.036-.008-.059-.012-.016-.004-.023.008-.035.036-.004.007-.024.011-.05-.047.01-.04.019-.043.05-.032l.094.055zm.968-.082c-.02.012-.039.008-.054-.031l.015-.047.051-.023c.008-.004.027.003.04.039l-.052.062zm2.875 1.727c.04.007.051 0 .102-.004.004.004.008.011-.004.05l-.05.028-.09-.047.042-.027zm2.176 1.23l.07.02c.008.008.012.015.036.039.02.004.027.02.011.054l-.12-.054.003-.059zm9.176-15.496l.023-.039c-.007.035-.011.04-.023.04zm-.406.54c-.02-.028.011-.048.023-.036l-.023.035zm-1.676.714c.004-.031.012-.047.023-.05l-.015.042-.008.008zm.61 1.008c.027-.02.034-.02.05-.016-.02.032-.027.035-.035.035l-.016-.02zm2.417-1.531c.004.035-.015.047-.031.054.02-.043.023-.05.031-.054zm-.05-2.047l.019.07-.027-.066.008-.004zm.07.058c.05-.03.062-.039.074-.047l-.062.07-.012-.023zm-1.457 1.286c-.031.02-.04.023-.051.02l.008-.063c.055.011.062.015.062.023l-.02.02zm.086-.118l.062.008-.05.047-.012-.055zm-3.645 2.52l.035-.059c0 .04-.015.047-.035.059zm4.45-2.64v-.06c.05-.019.05-.019.039.012-.004.036-.012.047-.04.047zm1.167-.364l-.062-.008.05-.031.012.039zm-5.394 3.504l.02.058c-.055-.011-.063-.015-.063-.023l.043-.035zm-.035.226c.02.032.023.04.023.051-.023.028-.031.031-.043.024 0-.028.008-.047-.008-.063l.028-.012zm5.746-2.964c.05.03.039.05.02.058-.051-.031-.044-.05-.02-.058zm-1.684.183l-.004-.066c.051-.008.063.012.063.02l-.016.058-.043-.012zm-2.398.563l.105-.055-.117.027-.043.043.055-.015zm-.082.742l-.106.062c.024.012.028.02.04.02.019-.043.03-.059.054-.055l.012-.027zm.203-.172l-.031.043c.004-.004.004-.012.031-.043zm.23-.121l-.062.039c-.023-.008-.031-.004-.035 0h.035c.05 0 .05-.012.047-.02l.015-.019zm-.55.293c-.004-.035-.016-.04-.02-.035-.023.05-.02.054-.015.054l.035-.02zm.215-.121l-.008-.047-.04-.008c-.038.047-.038.047-.062.063.031.007.043.011.05.011.024-.011.028-.007.036-.007l.024-.012zm-1.047.277c-.051.047-.059.047-.063.047l-.137.074c-.05.067-.05.067-.058.07l-.047.012-.055.07c-.035.012-.039.016-.039.02.043.008.043-.008.047-.02l.152-.093.067-.008.11-.066c.003-.028.01-.051.038-.059.016-.008.024-.016.035-.023 0-.028 0-.043-.003-.055-.016.031-.024.035-.047.031zm-.188.059l.106-.063c-.036-.004-.043-.004-.051 0l-.078.047.023.016zm-.433.265l.132-.082-.062.016-.059.05-.011.016zm2.46-1.668l.036-.015c.035 0 .039-.004.05-.004.04-.05.047-.055.055-.055l-.043-.086c-.043.004-.062.016-.078.024a.051.051 0 0 0-.027.047l.02.066-.013.023zm-.554.36c.011.043.02.047.02.047.038.011.077.015.113.027l.023.04.063-.009c.023-.015.023-.015.011-.047l.051-.058c.05-.008.055-.004.063.008.058 0 .058-.004.078.004l.105-.055c.02-.047.02-.047.04-.043l.116-.055c.02-.047.02-.047.036-.058l.039-.059.066-.008.102-.062c.02-.059.015-.067.003-.067l-.207.121c-.02-.027-.023-.062.012-.074a.288.288 0 0 0 .016-.055l-.02.036-.058-.004-.125.09-.04-.012c-.027-.047-.019-.051-.015-.051l-.012-.055c-.086.032-.152.078-.222.121a.331.331 0 0 0 .058.13l-.004.085-.101.063c-.063-.016-.063-.016-.059-.028l.086-.18c-.027-.034-.031-.038-.035-.034l-.074.046a.171.171 0 0 1-.063-.023l-.07.063-.063.082c.004.05.008.054.02.054l.035-.039c.023-.031.031-.035.04-.031.046.012.05.016.05.02l-.078.07zm1.586-1.742l-.02.046-.066.086c.008.04.008.04.004.032l-.04.03-.05.032.035-.055.023-.039-.058.028-.102.097c-.02.036-.023.04-.035.04l-.047.027.004.086-.191.117-.024.05-.054-.011c-.028.04-.028.04-.036.047l-.05.015c-.032.036-.036.036-.036.036l-.074.054-.039.032c-.035.035-.035.039-.031.039l.047-.02-.02.043c.043-.02.051-.023.059-.031l-.02.047-.07.058-.066.063-.051.031c-.031-.008-.035-.004-.035-.004l-.04.04-.035.038-.019.059c-.02.031-.02.035-.02.039.028.031.028.031.028.039l-.028.04.102-.024c.016-.036.02-.047.023-.051l.114-.07c.05.003.05.003.066-.008l.04-.024c.019-.047.027-.054.034-.058l.086.011c.055-.015.059-.007.055.004-.02.082-.016.09.027.106-.011.02-.02.031-.02.039l.012.043c.008.054.004.07.02.09-.008.05.004.062.012.066l.054-.012.102.008.258-.152-.082.086c-.012.047-.028.05-.035.062-.02.047-.024.047-.028.051-.05-.031-.062-.031-.086-.02-.05.028-.062.043-.066.07-.05.02-.063.009-.078.02l-.153.094c-.023.05-.03.063-.023.078-.039.004-.047 0-.066.016-.055.02-.067.008-.082.015-.063 0-.063.004-.067.028l-.078.062-.035.059-.281.172c-.012.039-.016.047-.024.054-.039-.003-.054-.003-.066.008l-.04.024c-.019.011-.019.011-.027.047l-.078-.086c-.031-.055-.023-.059-.09-.016-.02.043-.02.043-.039.04-.027 0-.039.015-.058.01l-.04-.019-.09.059c.013.043.02.039.02.035.004.02-.004.031-.004.047-.03.016-.035.012-.039.004-.062-.012-.062-.012-.082.004l-.007.066-.051.04c-.031-.009-.035.003-.047.003-.02-.039-.031-.023-.05-.016-.028-.023-.028-.03-.02-.035l.402-.273c.027.008.031 0 .043-.027l.062-.106-.003-.055a.167.167 0 0 0-.06.012l-.148.094c0 .02 0 .023-.003.035-.012.047 0 .04-.047.027l-.02-.043c-.031.028-.035.043-.05.047l-.044.051-.07.043c-.05.063-.05.07-.05.074l-.008.043-.024.04c-.035.015-.035.019-.039.019l-.07.031c-.035-.016-.035-.016-.035-.008l-.043.004c.015.031.03.043.05.035.016-.004.024-.015.04-.023l-.02.039c.05.016.047.023.035.027-.047.024-.055.04-.055.059l-.047.004-.046.054-.141.086c.027.043.055.047.074.028.074-.004.09-.024.11-.016.027-.027.03-.035.039-.043l.074-.047c.023-.015.047-.004.05.028-.027.039-.03.039-.035.058l-.058.047-.05.031.343-.183c.062-.04.074-.051.094-.055l.14-.11c.02.008.031.008.051-.003l.105-.063.122-.101c.023-.016.023-.016.058-.004-.015.031-.02.035-.015.043.035.02.062.027.082.031l.02-.05c.046-.04.046-.04.07-.032l-.036.062c.016.016.024.032.035.043.055-.011.067-.003.086-.003l.063-.04c-.004-.066-.008-.07-.05-.09.026-.035.05-.05.054-.058.015-.039.015-.039.027-.047l.242-.148c.02-.055.035-.059.051-.067l.05.047-.046.055c.047.012.055.004.062.004l.098-.024c-.015-.043-.02-.05-.02-.054l.012-.04.11-.07c.02.02.02.032.023.04l.055-.02c-.028-.02-.02-.031-.008-.035l.191-.078-.05-.012.043-.02.058-.004c.02-.011.024-.027.028-.047l.05-.015.059.015c.031-.019.039-.027.05-.027l.118-.039.043-.031.078-.04.187-.077c.024-.04.024-.047.024-.051.062.012.062.012.082.043-.02.031-.035.027-.05.039-.044-.004-.06-.004-.071.008l-.27.168c-.066 0-.09.015-.09.027-.003.02-.011.04-.03.047l-.063.074-.102.063c-.012.039-.015.047-.023.05-.04 0-.055-.003-.067.008l-.074.047c-.023.059-.039.063-.066.059-.032-.008-.047 0-.055.03-.039.013-.047.013-.059.017l-.062.039c-.012.027-.008.047-.024.05l-.476.29c-.008.039-.016.046-.024.05-.054-.004-.054-.004-.07.008l-.367.23-.07.008-.14.086c-.017.035-.02.047-.024.051l-.282.172-.144-.02-.387.239c-.023-.012-.05-.012-.07.007-.043.028-.043.028-.055.063l-.07.05c-.035-.003-.047-.003-.055 0l-.387.235c-.05 0-.062 0-.066.008-.035.023-.078.047-.113.07-.024.016-.047.02-.07.008l-.13.078.004-.097c.004-.02.024-.024.047-.02.028.004.047-.008.051-.02.012-.035.016-.035.043-.054.055 0 .063 0 .066-.008l.024-.05.258-.157.066-.008.106-.062c.054-.043.062-.051.097-.043l.348-.196.094-.023c.035-.055.058-.066.074-.082.047 0 .055.004.058 0l.153-.098-.043.016h-.04l-.03.008c-.04-.063-.051-.067-.055-.063-.02.04-.024.04-.035.035-.04.043-.051.051-.063.051-.039 0-.043 0-.05.004l-.227.164c-.047.031-.055.031-.063.04l-.12.077c-.016.012-.028.016-.048.008-.035.008-.035.004-.03-.008.026-.043.05-.054.065-.066h.036l.37-.227-.128.063c-.055 0-.063 0-.07.008l-.024.05c-.062.012-.078.004-.101 0l-.516.309c-.04-.004-.05-.008-.059 0l-.129.078c-.023.016-.03.012-.05-.008-.051-.02-.051-.02-.043-.039l-.004-.035-.04.016-.019.039-.039.011.055-.054-.094.054-.012.04c-.03.015-.03.015-.035.02l-.004-.048c.024-.039.024-.039.028-.043l.14-.097a.133.133 0 0 1 .024-.04l-.075.028c-.039.008-.046.012-.05.015l-.032.04c-.039.015-.039.02-.046.02l-.036.003.02-.04.047-.019.035-.03.035-.036-.047.008-.058.02-.016.038-.055.036.004-.047-.05-.008c-.024-.004-.032-.004-.036 0l-.265.16c-.036 0-.043 0-.051.004-.024.016-.055.031-.078.05-.02.012-.032.012-.051.005l-.09.054.004-.066c.05-.012.063-.02.063-.027.007-.024.007-.024.027-.04.035 0 .039 0 .047-.003l.148-.11-.117.059-.02-.063c.036-.023.051-.03.055-.05-.023-.004-.031-.004-.039 0l-.086.062c-.066-.02-.066-.02-.062-.031l.011-.04c.036-.011.047-.019.055-.023.035-.004.043 0 .05-.004l.098-.058c.036-.004.036-.016.04-.024l.05-.03-.02-.048c-.019-.047-.019-.047-.023-.05l.008-.044-.05.02-.075.047c-.004-.035.012-.043.024-.05l-.036-.06c-.046.004-.058 0-.062.008l-.05.059a.77.77 0 0 1 .003.058c.05.008.055.012.047.024-.035.059-.05.062-.066.062-.024-.007-.024-.003-.04-.023-.03.008-.039.004-.066-.004-.02-.023-.027-.023-.039-.02-.039.028-.059.028-.074.02l-.27.168-.011-.039c.035-.047.039-.063.046-.074l.157-.102c.035.004.035.004.047-.004.027-.02.039-.023.039-.039.011-.039.011-.043.02-.035.019.024.023.024.038.016l.047-.028c.024-.043.035-.05.055-.047l.082-.039c-.004-.039-.004-.039 0-.054l.113-.012.05.012c.016-.008.028-.02.044-.024l.023-.062a.3.3 0 0 1 .035-.051c-.02-.035-.015-.039-.011-.047.035-.039.035-.035.035-.043l-.004-.047-.04.024-.062.062c-.035.004-.039.004-.046.008l-.114.07c.016-.03.024-.039.024-.054l.058-.043.055-.032.023-.039.063-.039c-.012-.062-.016-.066-.016-.07l-.011-.039.035.023.027.047c.035-.008.05-.015.05-.023l.11-.086c.051-.004.051-.004.055-.008l-.024-.039-.046-.055c-.036-.015-.04-.02-.04-.02l-.027-.042c.031.02.04.02.043.023.031-.02.031-.02.035-.02l-.011.044c.039.02.046.015.054.015.04.032.043.032.047.035.04.012.04.008.043.004l.04-.015c.015-.035.015-.035.019-.035l.043-.02-.032-.055c-.03-.027-.03-.027-.039-.03l-.023-.04c.039.012.047.016.055.016l.02.043.038.023c.035.016.035.012.04.008-.036-.035-.036-.04-.032-.04.035-.038.035-.038.035-.042l-.039-.008-.035.012c.031-.031.031-.031.035-.031.035-.024.035-.024.04-.024l.038-.012.051-.011c.04-.032.04-.032.047-.028-.004-.035-.004-.039-.004-.047l.02-.035h.042l.04-.015.039.004c.039-.008.039-.008.043-.012l.054-.024.051-.02.035-.015c.031-.023.031-.027.04-.031l.038-.016.035-.03.094-.067.051-.051c.043-.016.047-.02.047-.023l.004-.036c.027-.023.035-.02.043-.027h.054l.047-.055c.02-.039.016-.047.016-.05.027 0 .031-.004.039 0l.008-.04.043-.054c.012-.043.012-.043.015-.047.02-.04.02-.04.024-.035.043.027.043.027.05.023l.048-.02.046-.015.04-.012.042.008c.024-.035.028-.043.032-.043l.039-.035.047-.031c.027.015.03.015.039.02l.039-.028c.027-.016.031-.02.039-.016l.039-.02-.027.052.042-.008c.036-.028.036-.028.047-.028l.07-.066.083-.059.035-.039.039-.035.05-.047.102-.078.04-.058h.038l.051-.04.063-.05.058-.031.106-.086.062-.051.063-.031c.027-.024.027-.024.039-.024l.07-.047.02-.043.039-.023.043-.024.039-.023c.039-.004.039-.004.039-.012.035-.031.039-.031.043-.031l.02-.047.085-.058c.02-.012.031-.02.047-.028l.098-.066c.02-.035.023-.035.031-.035l-.02-.036c-.03-.02-.035-.02-.039-.015l-.039.031c.047 0 .051.004.051.008-.004.035-.008.039-.012.039-.03-.023-.039-.02-.05-.012-.036.008-.036.004-.032.004l-.046.004c-.032.027-.032.027-.043.027-.032.016-.036.016-.036.016.012-.035.012-.035.016-.035l.04-.008c.034-.02.034-.02.034-.023l.035-.02c.036.008.036.004.036.004l.058-.047.04.012c.027.02.03.015.038.012.012-.032.016-.036.02-.04l.039.024c.039-.031.043-.035.047-.043l.015-.04c.04.032.04.028.04.024.035-.015.035-.015.038-.015l.063-.04.148-.1c.004.03.008.034.004.038l-.047.02-.054.05.039-.007c.039-.016.047-.016.055-.016l.039-.023.05-.028.04-.023.035-.02.074-.054c.047 0 .05-.004.054-.008l.051-.031c.035-.016.043-.016.047-.02.031-.027.035-.027.035-.031l.059-.043.043-.035.039-.016-.063.059-.027.039-.035.015-.059.035-.039.032-.043.023-.015.047c-.035.02-.04.02-.04.023-.038.036-.038.036-.05.04-.035.019-.04.019-.047.027l-.043.035c-.043.016-.043.016-.05.02l-.063.015c.035.02.039.024.039.028l-.016.039c-.027.023-.027.023-.039.023l-.05.047-.06.027c-.023.004-.03.012-.038.016l-.063.043-.078.062-.098.067-.132.097c-.04.024-.04.028-.043.032l.039-.012.058-.04.043-.007.035-.023.141-.11.047-.035c.039-.008.043-.008.047-.012l.039-.035.062-.043.094-.054.04-.024.038-.031c.035-.004.04 0 .04 0 .011-.04.011-.043.015-.047l.027-.047.047-.027-.078.035c-.043.035-.047.035-.055.039l-.039.02.035-.043c.032-.028.036-.024.04-.024l.058-.039c.031-.027.035-.031.04-.027l.042-.028.055-.027.058-.035.102-.07-.07.082c-.032.035-.032.03-.036.03a.179.179 0 0 1-.043.028h.051c.031-.02.035-.02.04-.02l.05-.015c.024-.04.027-.04.031-.035l.04-.028-.028.04-.039.023-.012.043-.047.035c-.004.04-.011.043-.015.047-.035.02-.035.02-.051.023l-.043.016-.039.016c-.035.015-.04.015-.047.02l-.039.01-.035.032-.043.043-.043.004-.047.031-.035.028-.04-.02-.07.067-.097.093c-.031.016-.05.032-.07.047l-.004.035-.036.032-.046.039-.032.05c-.027.04-.03.04-.03.04h-.036c-.008.039-.008.039-.012.039l-.047.02c-.027.038-.027.042-.027.046l.055.02c-.032.035-.032.035-.032.039l.012.05.04-.004.222-.171c.031-.008.05-.008.062-.008l.04-.032.019-.043.04-.023.038-.031.035-.04.102-.09c.031-.034.035-.034.035-.038l.05-.05c.028-.005.036-.005.04 0 .07-.032.07-.028.066-.028l-.027.039.047-.016.039-.02-.102.079-.043.023.004-.035-.02-.023zm-.422 1.132c.031-.023.039-.023.05-.02l-.007.063-.074.047.015-.066.016-.024zm1.676-1.601l-.09-.02.113-.058c-.008.035-.02.05-.02.07l-.003.008zm1.207 1.379l.054.015c.024.047.02.051.008.047l-.066-.02c-.02.012-.035.024-.055.032l.059-.074zm-3.079.07l.094-.066.09-.055-.16.137-.024-.016zm.055 1.793l.067-.027-.153.117.086-.09zm-2.12.676l-.075.074c-.027.02-.035.016-.059-.02.008-.062.028-.062.035-.058.02.027.032.031.043.027.02-.008.032-.023.055-.023zm4.491-2.102l-.156.133c-.035-.02-.039-.043-.031-.047l.066-.008.121-.078zm-3.539 1.914l.063.047c0 .04-.02.05-.028.047l-.054-.012-.024-.039c.004-.039.02-.05.028-.05l.015.007zm2.29-2.453l-.055-.015.074-.07.055.011c.019.039.019.047.019.047-.05.012-.059.008-.066.008l-.028.02zm1.75-1.781l-.02-.059.074-.046c.008-.043.012-.047.023-.04.028.028.024.047.004.055-.015.031-.02.04-.02.05l-.062.04zm-.532.21c-.047-.01-.05-.015-.05-.019l.144-.101c.02-.051.02-.051.039-.043.039.015.039.02.035.023a.1.1 0 0 1-.047.032c-.023.011-.035.03-.039.058l-.074.047-.008.004zm-3.176 4.005l-.105.004-.012-.067.055-.03c.066.015.078.03.074.05l-.012.043zm1.418-2.172c.035-.02.063-.047.106-.059l-.047.059c-.028.059-.047.07-.063.066-.07.016-.09.028-.105.035-.008-.03.012-.035.012-.054 0-.024.015-.035.03-.043.02-.016.02-.016.06-.008l.007.004zm1.39-1.703l.032-.059.066-.008c.063-.003.07-.007.079-.015l-.043.062c.004.051.015.063.02.075l-.06-.036-.093-.02zm-2.573 3.808l-.086.086-.035.059-.09.055c-.04-.008-.051-.02-.047-.036.012-.05.012-.05.043-.07.066 0 .086-.015.09-.027l.05-.024.075-.043zm2.914-2.64c.02-.012.039-.028.062-.04.024-.011.031-.03.035-.058l.13-.078c.03.016.038.023.034.031l-.015.059c-.063.004-.07.008-.082.016-.02.058-.035.066-.063.058-.027-.008-.039.004-.05.016.007.062-.004.058-.016.054-.047-.011-.05-.023-.055-.039l.02-.02zm.39.574c.024.031.028.047.036.059.019.043.019.05.015.054l-.129.078c-.035-.007-.035-.003-.066.008-.031-.02-.035-.027-.035-.035l.015-.055.164-.109zm-5.156 2.574c-.02.012-.031.024-.055.024l-.105.035c-.035-.012-.035-.02-.043-.027l.016-.06c.035-.015.054-.007.066-.007.055-.008.062-.004.082-.016l.11-.07c.011-.047.023-.055.038-.055.036.032.051.036.067.036l-.176.14zm2.82-3.047l.07.008-.23.2-.02-.055c.032-.051.044-.067.04-.09-.032-.055-.028-.063-.016-.074.035-.004.063-.004.082.011.02.024.027.024.047.016l.027-.016zm1.899-.007l-.028.054-.085-.004a.045.045 0 0 0-.047.024l-.137.11-.059-.016c-.011-.016-.02-.032-.047-.032.004-.035.016-.039.02-.039l.145-.062c.054 0 .062-.004.066-.008.02-.031.02-.043.023-.05.032-.02.04-.028.051-.032.059.016.063.012.07.004.02.035.02.043.028.05zm-2.39 1.675l-.243.13c-.023-.036-.023-.036-.035-.067l.101-.078c.02-.016.02-.012.067-.012l.066-.008.051-.097c.035-.024.05-.036.062-.028.036.016.055-.011.079-.027.007-.035.011-.04.027-.031l.094-.04c.047.032.043.048.027.055-.012.008-.023.02-.039.024a.06.06 0 0 0-.035.058l-.067.008-.105.063c-.008.039-.016.047-.024.05h-.027zm.816-.562c.015.062.023.059.03.05.005.028-.003.048-.007.067-.047.024-.055.02-.059.008-.007-.016-.015-.027-.023-.04-.008.04-.008.052-.016.06-.054-.036-.054-.036-.082-.016l-.062.039c.023.043.035.062.035.074l-.059.043c-.046-.012-.058.004-.07.004-.008-.031.012-.031.02-.047-.04-.008-.063.012-.09.024-.047-.036-.043-.043-.024-.055l.035-.024.551-.37c.028.007.035.019.035.035l-.214.148zm2.21-1.606c-.043-.03-.062-.035-.09-.02a.337.337 0 0 1-.062.04c.063-.004.074 0 .086.016l.031.05-.078.086h-.066l-.063-.078-.062-.015-.008-.067.039-.023c.04 0 .055.004.066-.008l.192-.117.125-.078.062.015c.012.016.02.031.047.031.02.004.035.008.059.016-.024.027-.028.035-.031.047-.016.035-.016.035-.032.047-.047.035-.07.031-.093.023l-.09.055-.032-.02zm-4.011 2.754c-.02.043-.02.051-.024.051l-.308.188c-.063.004-.063.004-.07.007l-.114.07c-.015.036-.02.048-.023.052l-.102.062c-.055.004-.062.004-.066.008l-.13.078c-.019.012-.038.012-.046-.012l.215-.16c.02-.05.027-.055.035-.059h.059l.984-.605.023-.05.102-.063c.066-.016.094 0 .113.004l-.148.12c-.028.063-.047.071-.078.063-.036.008-.047.016-.047.024-.028.043-.035.047-.051.039l-.324.183zm2.77-1.117l-.438.281c-.04-.011-.047-.007-.059 0-.02.04-.02.051-.035.059l-.039.023-.07.008-.063.04c-.015.035-.02.046-.023.05l-.18.11c-.023.046-.027.054-.035.058l-.387.234h-.058l-.063.04c-.023-.028-.023-.04-.027-.047-.024-.043-.04-.051-.055-.047-.027.054-.031.054-.055.05l-.054.016c-.024.047-.028.055-.04.059-.054 0-.062 0-.066.008l-.023.054-.309.188c-.008.039-.015.047-.023.05-.043-.003-.059-.003-.07.008l-.18.11a.076.076 0 0 1-.07.011c-.055.012-.055.008-.047-.007.039-.063.07-.078.101-.102h.059l.535-.332c.004-.027.012-.047.039-.058.043-.028.047-.028.078-.02.04-.04.047-.055.063-.066l.5-.309c.023-.04.023-.047.027-.05.062-.009.082-.02.105-.032l.024-.05.18-.11c.023.011.05.011.07-.008l.152-.094c.02-.015.02-.023.031-.047l.145-.097c.035-.02.035-.02.086-.008-.02.047-.024.055-.02.062a.31.31 0 0 0 .118.047l.035-.074c.062-.055.062-.055.101-.043.028.008.035.02.04.035zm-2.098-1.777c0-.035.004-.035.007-.035l-.007.035zm1.195-.66c.012-.024.02-.032.023-.04l-.023.04zm-4 3.96c-.035-.011-.035-.015-.035-.015l.039.004-.004.012zm-.102-1.218c-.035-.008-.039-.012-.039-.012l.04-.004v.016zm.27-.266c-.035.016-.043.012-.05.012l.038-.016.012.004zm4.023-2.305l-.027.04c.02-.036.02-.043.027-.04zm-4.523 2.704l-.063-.008c.036-.02.036-.02.04-.016l.023.024zm3.172-2.258l.035-.047-.02.039-.015.008zm1.219-.598c.023-.031.023-.031.027-.043-.016.035-.02.04-.02.043h-.007zm-2.653 1.637l.02-.055c-.004.035-.004.035-.008.04l-.012.015zm.055-.043l.02-.043c.035.008.035.012.035.012-.028 0-.035.007-.047.011l-.008.02zm-1.5 2.281l.035-.023-.039.035.004-.012zm4.27-3.855l-.04.035.04-.04v.005zm-1.051 1.035l.047-.032c.027-.03.035-.035.039-.03l.054-.036c-.023.035-.023.035-.03.035l-.04.04-.039.03-.031-.007zm-.18.453l-.02.035c-.03.035-.03.04-.03.043l-.052.039-.035.02.024-.047.039-.024.047-.043.027-.023zm-4.117 8.27c-.02.019-.031.035-.055.054-2.308 2.133-2.656 3.738-6.527 3.742-3.871 0-4.219-1.61-6.52-3.742a.803.803 0 0 1-.054-.059 11.381 11.381 0 0 1-1.164-.394c-.653-.266-.262-1.246.394-.984 1.402.562 2.48.699 4.617.77 0 0 1.11.05 2.73.058 1.626-.012 2.735-.059 2.735-.059 2.14-.07 3.219-.203 4.617-.77.66-.261 1.059.72.399.985-.407.164-.79.297-1.172.398zm-3.797.445c-.094.004-1.191.05-2.77.062-1.648-.012-2.777-.062-2.777-.062a29.467 29.467 0 0 1-2.008-.117c.34.37.641.714.953 1.015.434.465 1.551.899 3.817.899 2.383 0 3.383-.524 3.906-.973.281-.285.559-.602.875-.942-.586.063-1.23.094-1.996.118zm-11.988-1.754c-.063.555-.891.465-.828-.09.117-1.074 1.269-2.227 2.414-1.906.535.152.312.957-.227.804-.617-.175-1.3.622-1.36 1.192zm16.745-1.996c1.145-.32 2.301.832 2.415 1.906.062.555-.77.644-.829.09-.058-.57-.742-1.367-1.359-1.192-.535.149-.762-.652-.227-.804zm12.383-8.52c-.476-.117-1.351.437-2.035 1.695.172.211.223.574.105.98-.183.637-.699 1.16-1.152 1.125-.996-.078-.36-1.558-.3-1.699.738-1.863 2.171-3.496 3.64-3.129.688.168.434 1.2-.258 1.028zm-36.578 2.101c.062.145.695 1.621-.301 1.7-.453.035-.973-.489-1.152-1.125-.118-.407-.067-.77.105-.981-.687-1.258-1.562-1.812-2.035-1.695-.692.164-.95-.864-.258-1.031 1.469-.364 2.902 1.269 3.64 3.132zM36.57 47.3c-.657.262-1.047-.726-.391-.984.289-.113.605-.34.894-.676.45-.543 1.266.137.809.68-.383.453-.836.79-1.312.98zm7.585-.988c.657.262.27 1.246-.39.985a3.308 3.308 0 0 1-1.313-.98c-.457-.54.356-1.22.813-.68.285.34.601.562.89.675zm-7.304 2.797c.625-.457 1.39-.367 2.008.098.273.207.574.351 1.523.351.953 0 1.27-.144 1.543-.351.644-.485 1.633-.575 2.191.066.48.52-.304 1.238-.78.715-.274-.2-.544-.11-.774.066l-.075.055a.392.392 0 0 1-.086.074c-.625.477-1.117.969-1.992.965-.875.004-1.379-.488-2.004-.965-.07-.05-.129-.09-.187-.129-.27-.207-.512-.261-.774-.066-.476.52-1.257-.195-.78-.719 0 0 .062-.074.187-.16zm1-12.281c.066 1.43-.137.988-1.297.504-1.524-.637-2.848-.883-3.98-.895-1.184-.066-2.587.118-4.212.73-1.16.438-1.363.872-1.3-.554.039-.86 2.539-2.27 5.523-2.21 2.84.058 5.227 1.589 5.266 2.425zm-4.18 2.93a1.562 1.562 0 1 1-2.578 1.188c0-.485.223-.919.562-1.204-1.035.227-1.875.809-2.351 1.55-.43.665-1.426.024-.996-.64.855-1.336 2.48-2.199 4.312-2.199 1.832 0 3.473.863 4.328 2.2.426.663-.57 1.304-.996.64-.465-.727-1.277-1.297-2.281-1.535zm11.235 1.53c-.426.665-1.422.024-.996-.64.855-1.336 2.496-2.199 4.328-2.199 1.836 0 3.46.863 4.316 2.2.426.663-.57 1.304-.996.64-.476-.742-1.312-1.324-2.351-1.55a1.562 1.562 0 1 1-2.559 1.203c-.004-.473.21-.9.543-1.184-1.004.238-1.82.812-2.285 1.53zm5.152-7.269c-.027-.046-.047-.058-.074-.05-.023.007-.05.007-.074.011.062.02.07.032.074.047l.012.059-.106.05-.062-.023-.024-.097-.05-.036.02-.066.046-.008c.035.02.05.024.066.02l.223-.035.145-.024.05.035c.004.02.012.035.028.047.02.008.03.024.05.035-.03.02-.039.02-.05.028-.02.027-.02.027-.047.03-.059.016-.074.005-.098-.015l-.11.024-.019-.032zm-6.27-.093c.04-.035.06-.04.063-.063l.098-.027.09-.016.058-.039.164-.027c.036-.035.036-.035.055-.024.024.016.047.012.055.004.023-.027.023-.027.047-.031l.148-.023c.02.039.035.05.055.062l.277-.074-.004.058c-.05.036-.062.051-.066.067.012.062.004.07-.016.074-.035-.012-.058-.02-.07-.039-.008-.027-.02-.031-.035-.031l-.086-.024c-.02.059-.02.059-.055.063-.059-.016-.062-.02-.066-.02l-.325.055c-.02.004-.03.016-.046.031l-.07.02c-.052-.02-.06-.02-.067-.02l-.203.024zm5.497.316l-.047.04-.074-.036c-.02-.012-.04-.012-.055.004l-.164.05-.05-.034c-.009-.02-.009-.04-.028-.047l.191-.028c.051.02.059.02.067.02.027-.024.03-.031.039-.04.039-.007.054-.011.062-.011.035.027.043.027.051.023.008.04.004.047.008.06zm-1.766-.707l.063.031-.29.098.005-.059c.05-.03.062-.047.066-.066-.012-.063-.004-.07.02-.074.035.011.058.02.07.043.008.03.02.035.035.03l.031-.003zM43.765 35.3c-.02.004-.039.011-.058.004l-.11-.008c-.027-.02-.027-.032-.027-.043l.035-.051c.04 0 .055.012.063.016.054.015.062.023.078.02l.133-.024c.027-.04.043-.04.058-.035.016.043.031.05.043.058l-.215.063zm5.598-1.13c.023-.003.05-.011.074-.011.027-.004.043-.016.059-.039l.144-.023c.02.027.024.039.02.046l-.031.051c-.063-.02-.07-.02-.079-.02-.043.044-.062.048-.086.032-.019-.016-.035-.016-.054-.004-.02.059-.024.055-.031.047-.04-.027-.036-.043-.036-.055l.02-.023zm-6.188-.144c-.035-.02-.039-.035-.03-.047l.034-.047c.02 0 .032-.015.047-.03.047-.005.051 0 .051.003l.02.086c-.028.035-.032.05-.051.055-.051-.02-.059-.024-.07-.02zm6.305-1.066l.055-.04.066.02c.063.02.07.02.078.016l-.062.039c-.02.047-.012.062-.012.074l-.039-.055-.086-.054zm-2.035 1.062l.102-.015c.054 0 .093-.012.132-.012l-.062.035c-.05.043-.067.05-.086.04-.078-.005-.098 0-.117 0 .008-.032.023-.028.031-.048zm3.7-1.293c-.016-.039-.012-.054.003-.058l.059-.012c.027-.004.043-.012.058-.004.02.008.032.024.051.031l-.07.059c-.031.008-.031.008-.047-.035-.04.02-.047.023-.055.02zm-1.274.246c-.04-.027-.04-.035-.035-.035l.172-.039c.035-.035.039-.035.054-.023.031.031.028.035.024.039-.02.012-.035.012-.059.012-.027 0-.047.015-.059.039l-.09.015-.007-.008zm-6.492.973c-.012-.031-.012-.031-.028-.047l.043-.031.043-.035c.055.035.055.035.035.058-.027.07-.05.067-.066.07l-.027-.015zm-.52.102c.012-.035.027-.035.04-.035.034-.036.034-.036.054-.024.027.02.039.016.062-.012l.059.016-.121.043-.094.012zm7.586-1.07l.004-.063.09-.016c.023-.035.027-.039.035-.027.016.035.008.05-.02.055-.027.023-.03.03-.039.039l-.07.011zm-2.293.996l-.043-.032.098-.035.047.031c.007.043.003.051-.004.051-.047-.008-.055-.015-.063-.02l-.035.005zm-4.094 1.277c-.031.004-.035 0-.047-.035.028-.055.051-.051.055-.04.004.032.02.044.027.04.028-.004.047-.016.063-.008l-.098.043zm3.121-1.348l-.027.055a.642.642 0 0 1-.09.02l.035-.055c.063-.028.074-.024.082-.02zm-4.004 1.551c.012.04.008.047.008.055-.035.015-.043.02-.05.008.011-.024.019-.04.015-.063h.027zm.118-.195l-.004.062c-.047-.031-.051-.035-.051-.043l.055-.02zm6.312-1.23l-.059-.032.06-.012v.043zm-1.215-.098l.02-.055c.055 0 .055 0 .031.023-.016.032-.031.04-.05.032zm-5.117.78l.059-.038c-.016.035-.035.035-.059.039zm4.32-.972l.059.031-.063.024.004-.055zm-.117.078c-.039.008-.047.008-.054 0l.027-.058c.047.03.05.035.05.043l-.023.015zm3.403-.945c-.004.066.015.066-.04.031l.04-.031zm-1.575.297c.059-.012.07-.016.086-.016l-.074.04c-.012.027-.023.03-.039.03-.035.04-.035.036-.055.028-.027-.02-.039-.016-.062.012l-.059-.016.121-.043.078-.016.004-.02zm-.039-.078l-.008.07-.003-.07h.011zm1.563-.274l.043-.035-.008.063-.035-.028zm.316.067c-.02-.04-.012-.047-.008-.051.059.027.059.031.047.043l-.039.008zm-8.394 1.183c-.028-.023-.036-.039-.024-.05.063.027.063.03.051.039l-.027.011zm.882-.125c-.02-.039-.015-.047-.011-.05.058.027.062.035.05.042l-.039.008zm2.723-.36l.02.067c-.035-.03-.04-.043-.04-.054l.02-.012zm-1.183 1.122c.011 0 .02-.004.054.012l.063-.008.12.015c.005.012.005.02-.01.055-.052.004-.063.016-.071.031l-.082.012-.047-.015-.121.015c-.008.008-.012.016-.047.008l-.11.016c-.007 0-.015-.004-.046-.016-.012 0-.02.008-.059 0l-.437.098c-.02-.02-.04-.028-.067-.02-.05.008-.05.008-.07.035l-.086.02c-.031-.02-.043-.024-.055-.02l-.441.074c-.05-.02-.059-.02-.067-.02-.043.009-.09.017-.132.024-.028.008-.051 0-.067-.02l-.144.024.035-.09c.012-.015.031-.015.055 0 .02.016.042.012.05 0 .024-.027.024-.027.063-.035.05.02.058.02.062.02l.043-.04.297-.05.067.02.117-.02c.062-.02.078-.023.105-.004l.395-.055.097.016c.051-.04.075-.043.102-.047.043.02.047.024.05.02l.18-.032c.012-.023.028-.039.059-.039.016 0 .027-.004.047-.007.02.039.023.042.031.05.031-.035.055-.039.067-.027zm.3-.14l.051-.016.043-.008c.02.02.027.031.031.035-.035.004-.039-.004-.035.043l.016.043-.051-.004c-.012-.012-.023-.008-.062-.016l-.024-.039.031-.039zm.211.019l.04-.004-.048.05-.046-.03c.05.003.054-.004.054-.016zm.942-.113l-.04.043c-.035.015-.035.015 0 .039l.083-.012.023-.05.012-.052.168-.03c.015.019.023.019.039-.005l.101-.02a.264.264 0 0 0 .024.06c-.05.03-.059.054-.055.077l.16-.02c.012.005.008.009-.02.04l-.077.012-.043-.012-.04.023c-.015.004-.015.004-.038.024l-.09.004c-.012-.008-.012-.008-.035.015l-.079.004-.05-.023-.082.004-.063.015c-.023-.05-.05-.062-.066-.082l.062-.05c-.027-.032-.035-.032-.058-.02-.04.012-.043.004-.032-.027l.063-.02c0-.016-.004-.027-.004-.039.027-.023.035-.023.05-.027l.028.062-.07.035c.047.024.058.02.066.024l.063.008zm.535-.114c-.004.016-.016.012-.02.043l-.02.04-.062-.008-.008-.055.11-.02zm-1.621 0c.015-.027.027-.035.043-.039l-.043.04zm6.87-.836c-.019-.039-.01-.054 0-.05.016.05.013.054 0 .05zm-5.046.801c-.008-.035.027-.039.035-.023l-.035.023zm4.176-.957c-.028-.031-.028-.039-.02-.047.031.031.031.04.02.047zm-6.364 1.067c.032-.016.04-.02.051-.008-.031.027-.039.027-.047.02l-.004-.012zm.887-1.079c.063-.039.067-.043.078-.043l.047-.007.113-.051.063.004c.004-.047 0-.051-.004-.051-.031-.023-.066-.043-.098-.066l-.007-.047-.063-.016c-.023.004-.027.008-.023.04l-.067.038c-.047-.008-.05-.02-.054-.027-.055-.02-.055-.02-.075-.031l-.113.015c-.035.035-.035.035-.055.024l-.132.011c-.036.036-.036.036-.055.04l-.059.039-.066-.02-.113.023c-.036.051-.04.055-.024.059l.235-.035c.007.031.003.066-.036.066-.015.016-.023.032-.035.047l.028.05.109-.023.066-.011.04.039c.113.02.187.004.257-.008a.317.317 0 0 0-.008-.14l.032-.079.113-.02c.059.036.059.036.047.048-.012.011-.024.011-.04.015l-.1.117zm.352.094l-.055.004-.05-.004c-.044.028-.063.024-.083.028-.035.019-.039.023-.05.027l-.118.02-.066.074c-.05-.028-.059-.04-.07-.047-.043.031-.055.043-.07.047-.048.007-.06.004-.063-.02l-.102-.016a.16.16 0 0 1-.039.04l-.133.023c-.05-.02-.05-.02-.066-.02l-.043.008c-.04.035-.047.04-.059.043l-.07-.035c-.02.016-.023.02-.039.02l-.012.062-.078.043-.047-.055c.02-.035.028-.05.035-.066l-.066.02-.105.019.183-.062c-.012-.06-.004-.07.016-.075.047-.008.047-.008.062-.031.04-.043.051-.055.047-.066l-.008-.047c.016-.028.024-.047.02-.067.023-.047.02-.058.02-.066l-.055-.008-.094-.043-.297.055.106-.05c.023-.04.046-.036.058-.044.031-.035.035-.035.043-.035.035.047.047.055.07.047.059-.008.075-.02.09-.043.055 0 .063.015.078.012l.176-.032c.04-.039.055-.05.055-.062.039.012.043.015.066.012.059 0 .067.015.082.015.059.02.063.02.07 0l.098-.031.059-.04.324-.062c.02-.035.027-.039.04-.039.038.016.05.024.066.02l.046-.008c.02-.004.02-.004.047-.031l.04.11c.015.062.003.062.077.046.032-.035.032-.035.055-.02.027.012.04 0 .059.012l.031.035-.066.02c-.02.004-.02.004-.047.031-.012.012-.024.012-.04.016l-.058.058c-.02.063-.02.063-.016.082.004.016.004.028.012.043l.223-.03c.004-.079.004-.079.015-.099.028-.039.02-.035.055-.011.004.047 0 .05.004.054l.156-.02.067.02.09-.015a.254.254 0 0 0 .07.015l.062-.066a.29.29 0 0 1 .086-.02c.028-.003.047-.015.059-.039l-.063-.074c-.015-.012-.027-.027-.05-.027-.016 0-.028.008-.047.008l.039-.04c.031-.035.031-.035.054-.038l.063-.012.187-.067c-.011-.05-.027-.062-.058-.05-.07-.024-.09-.008-.106-.024-.035.02-.043.024-.054.024l-.09.015c-.027.008-.047-.011-.04-.043.044-.023.044-.023.055-.043l.067-.023.058-.012.032-.05c-.004-.04.004-.047.027-.055.027-.008.05-.004.066.015.012.012.024.016.04.028l.132-.024c.051.02.059.02.067.02l.039-.035c.062.011.074.023.094.035l.59-.106c.03.02.042.024.05.02l.149-.028c.027-.003.035 0 .039.024.039.035.039.035.027.055l-.035.05c-.059-.004-.07.004-.086.004-.05-.015-.059-.02-.066-.02l-.16.032c-.051-.012-.06 0-.063.012l-.18.031-.066-.02-.117.024c-.012.023-.028.039-.059.039-.016 0-.027.008-.047.008-.02.047-.02.062-.012.074l.13-.008c.03.02.042.02.054.02l.09-.02c.055.024.066.02.082.016l.035.09.094.007c.023-.003.031.004.039.032l.012.039c.066.02.078.027.097.023.02-.008.04 0 .051-.023l.047-.031c-.031-.04-.031-.043-.016-.051.035-.012.04-.02.04-.032-.012-.054-.012-.054.003-.07.028-.039.051-.043.067-.031.03.023.035.02.047.055.05.011.058.015.09.039.019.043.027.05.046.047.016-.004.031-.004.047-.008.027-.012.05 0 .067.02l.46-.087-.007.063c-.047.008-.063.012-.067.023l-.035.051c-.012.016-.02.023-.023.04l-.055-.024-.184.039c-.05-.02-.05-.02-.066-.02-.05.008-.066.012-.074.031-.032.051-.035.051-.047.04-.02-.043-.02-.047-.047-.04l-.07.016c-.024.004-.024.004-.047.031-.016.016-.031.016-.055 0l-.133.012c-.02.059-.02.059-.027.074-.023.028-.035.028-.047.032l-.11-.075-.062-.043c-.023 0-.05.008-.074.012l-.063.074-.09.016c-.062-.016-.074-.024-.093-.035l-.113.015c-.036-.02-.043-.023-.055-.02l-.09.016c-.05-.02-.059-.02-.066-.02l-.133.024-.027.07-.223.04-.04.035-.05-.035-.008-.043-.168.031c-.043.043-.062.035-.07.047l-.059.039-.039-.027c-.023.004-.043.007-.062.007l-.051-.007c-.012.004-.02.011-.055.035l-.07.02c-.04.034-.047.038-.059.042a.182.182 0 0 0-.058-.015l-.04.02zm-.93.07l-.02-.085.016-.051-.094-.008-.02.059c-.003.027-.015.039-.019.043.035.035.028.046.02.058-.035.016-.035.024-.035.035l.14-.02.012-.03zm.875-.449c.004-.035.004-.047-.008-.05-.05.015-.05.019-.047.03l.055.02zm1.465-.07l-.035-.055c-.063-.004-.078.004-.098-.015h-.07c.015.035.02.047.023.062.016.063.004.055-.05.063l-.114-.063-.062.074c.011.051.02.051.027.047.039.012.05.028.066.02l.254-.047.059-.086zm-3.309-.023l-.176.015c-.035.027-.039.035-.042.035-.06-.031-.06-.031-.063-.066.031-.02.043-.012.063-.02.035.02.05.02.062.02l.313-.059c.062.024.085.02.093.008.012-.016.02-.031.047-.031l.086-.047.117-.023c.02-.036.028-.036.04-.04.038.016.05.024.066.02l.09-.02c.043-.042.062-.046.082-.03.027.019.043.015.062-.012.04.003.05.007.059.003l.074-.015c.02-.02.02-.04.039-.04l.547-.105c.023-.035.031-.035.039-.039.05.024.05.02.066.02l.43-.082.066.02.16-.032c.024-.031.032-.035.04-.04l.324-.062.129.067.441-.082c.02.02.04.027.067.02.05-.008.05-.012.074-.04l.086-.023c.031.02.043.023.054.02l.442-.083c.05.016.058.02.066.02l.133-.024c.027-.007.05 0 .066.02l.145-.027-.031.093c-.012.016-.032.016-.055.004-.02-.015-.047-.011-.055 0-.023.028-.023.028-.058.035-.051-.02-.059-.02-.067-.02l-.039.04-.297.055-.066-.02-.113.02c-.063.02-.078.023-.106.007l-.394.063-.098-.012c-.055.04-.074.043-.101.051-.043-.016-.051-.02-.055-.02l-.18.036c-.012.023-.027.039-.058.039-.016 0-.028.008-.047.008-.028-.036-.032-.043-.043-.047-.032.035-.055.039-.067.03-.035.04-.039.048-.062.052-.028.023-.031.03-.04.039-.038.008-.05.011-.058.011-.066-.015-.086-.02-.098-.007a.138.138 0 0 0-.03.05l-.098.032c-.04-.047-.04-.047-.059-.059-.063-.008-.063.004-.063.016l-.085.054c-.051-.02-.075-.02-.079-.011l-.043.062c-.027-.039-.027-.07-.039-.097-.058-.012-.066-.02-.078-.028l-.07.016c-.02.062-.02.066.016.101-.04.024-.063.028-.07.035-.024.032-.024.032-.048.036l-.277.05c-.039.04-.059.043-.07.043l-.032-.062.067-.04c-.047-.023-.055-.019-.063-.019l-.097-.011c-.016.003-.016.003-.047.03l-.453.09c-.024.005-.032.02-.047.036l-.055-.004-.05-.035c-.036.008-.051.011-.06.011l-.124-.007-.055.015-.086.012-.004-.02zm-.648-.708l.512-.105c.03.023.039.023.054.02.028-.028.04-.04.059-.043l.047-.008.066.02.07-.016c.024-.028.032-.036.043-.04l.207-.038a.24.24 0 0 1 .055-.043l.442-.082.054.02.07-.017c.016.036.012.047.012.055.012.047.02.063.031.063.051-.04.051-.04.067-.028l.058.004c.04-.031.047-.039.055-.039.05.02.059.02.067.02l.039-.04.355-.066c.024-.035.031-.039.043-.039.035.02.05.02.066.02l.208-.04c.023-.007.05-.003.066.016.055.008.055.016.043.024-.063.043-.098.05-.129.058l-.055-.02-.62.118c-.013.023-.024.039-.055.039-.055.008-.055.008-.086-.012-.051.024-.063.035-.086.04l-.575.105c-.035.027-.039.035-.043.035a.225.225 0 0 0-.109-.008l-.039.04-.207.038c-.02-.02-.04-.027-.066-.02l-.176.032c-.024.008-.028.016-.047.031l-.172.04c-.039.007-.039.007-.082-.024.035-.035.043-.043.043-.055a.276.276 0 0 0-.098-.086l-.062.059c-.07.043-.07.043-.102.02-.023-.016-.027-.032-.023-.048zm1.297-.195c-.016.05-.004.063.011.059.028-.008.043-.008.055-.016.004-.039.004-.047-.012-.05l-.054.007zm-.352.05l-.016.067.051.035c.074-.042.074-.042.114-.05-.047-.028-.055-.035-.063-.043-.035 0-.047-.004-.055-.012l-.03.004zm2.043.095l.04-.04.355-.066c.058.016.062.02.062.02l.133-.024c.023-.027.031-.035.039-.035l.117-.023c.051.02.059.02.067.02l.144-.028c.02-.004.04.004.04.027l-.263.074c-.035.036-.043.04-.054.043-.035-.011-.047-.015-.055-.02l-1.137.216-.039.039-.117.02c-.066-.012-.086-.032-.105-.048l.187-.062c.05-.047.067-.05.098-.027.039.004.047.004.05-.008.044-.031.051-.028.063-.02l.375-.058zm-4.734 1.129c.027.046.047.058.074.046.023-.007.05-.011.07-.015-.058-.02-.07-.028-.07-.047l-.012-.059.106-.05.062.023.028.098.05.035-.02.066-.042.008c-.04-.016-.051-.023-.067-.02l-.222.043-.145.028-.05-.035c-.008-.02-.012-.035-.032-.047-.015-.008-.027-.024-.047-.031.032-.02.04-.024.047-.032.02-.027.02-.027.047-.03.055-.017.074-.009.098.01l.105-.019.02.028zm6.27-.008c-.04.035-.055.039-.063.062l-.098.028-.09.015-.058.04-.16.03c-.036.04-.036.04-.055.028-.024-.016-.047-.012-.055 0-.023.027-.023.027-.047.031l-.144.027c-.024-.039-.036-.05-.055-.058l.008-.063c.015-.023.015-.023.047-.027.058.016.062.02.066.02l.324-.063c.024-.004.035-.016.047-.035l.07-.02c.051.016.06.02.067.02l.195-.035zm-3.634-.7c.008-.062 0-.062-.011-.058.007-.027.02-.043.027-.063.055-.007.055.004.059.016a.14.14 0 0 0 .007.043c.02-.031.024-.043.032-.047.035.051.035.051.07.043l.074-.012c-.012-.05-.012-.07-.008-.082l.067-.02c.039.028.054.016.066.02-.008.032-.02.028-.031.04.035.023.062.011.098.007.027.051.02.055.004.063l-.047.008-.645.152c-.02-.016-.027-.027-.02-.047l.258-.062zm.965-.23l.274-.031c.011.039.011.039.011.074l-.12.04c-.024.003-.024.003-.067-.017l-.067-.019-.082.074c-.043.008-.058.016-.07 0-.027-.023-.058-.008-.082 0-.02.031-.023.031-.039.02l-.102.004c-.027-.047-.023-.055-.007-.059.015-.004.03-.008.047-.008.027 0 .046-.015.058-.039l.067.02.117-.02c.02-.035.027-.035.039-.039h.023zm-2.836.707l.047-.039.078.035c.02.012.04.008.051-.008l.164-.054.05.035c.009.02.013.039.032.047l-.191.031c-.051-.02-.059-.02-.067-.02-.027.024-.03.032-.039.04-.039.007-.05.011-.058.011-.04-.023-.047-.027-.059-.02-.008-.038-.004-.046-.008-.058zm5.504-1.156c.02-.004.04-.012.059-.008l.11.004c.026.02.026.031.026.04l-.035.05c-.039 0-.05-.012-.062-.016-.055-.012-.063-.02-.078-.015l-.133.023c-.024.04-.043.04-.059.04-.02-.04-.03-.048-.043-.052l.215-.066zm-5.738.555c-.012-.04-.012-.055-.016-.067-.004-.047.004-.055.008-.055l.145-.027c.03.02.03.02.066.02.023.027.023.039.02.047l-.032.046-.191.036zm.16.671c-.023.004-.05.012-.07.016-.028 0-.047.02-.059.04l-.144.026c-.024-.027-.024-.035-.02-.046l.031-.051c.063.02.07.02.082.015.04-.046.059-.05.082-.03.02.015.04.01.051.003.02-.058.024-.055.035-.047.04.028.04.04.036.055l-.024.02zm3.668-1.421l.11-.051.058-.043.106-.02c.03.02.039.035.027.047-.027.047-.027.043-.063.05-.062-.023-.086-.015-.093-.007l-.055.004-.09.02zm2.523 1.457c.036.02.04.035.032.046l-.035.047c-.024 0-.032.016-.047.032-.043.007-.051.003-.051 0l-.016-.09c.024-.035.028-.051.047-.055.047.02.055.023.07.02zm-6.289 1.175l-.05.043-.067-.02c-.062-.019-.07-.019-.078-.015l.063-.039c.02-.047.011-.062.011-.078l.04.05.081.06zm1.903-1.09c-.04.004-.078.02-.118.02l.063-.039c.05-.043.066-.05.086-.039.074.012.094.004.113.004-.008.031-.023.027-.031.047s-.023.027-.043.027c-.027.004-.027.004-.059-.012l-.011-.007zM41.05 34.71l-.058.012c-.028.004-.043.011-.059.007-.02-.007-.031-.02-.05-.03l.07-.06c.03-.003.03-.003.047.036.039-.016.046-.02.054-.02.016.04.012.055-.004.055zm5.672-2.922l.102.031-.016.067-.062.011c-.059-.039-.063-.058-.055-.074l.031-.035zm-4.398 2.602c.039.027.039.03.035.035l-.172.043c-.035.039-.035.039-.055.027-.03-.031-.027-.035-.023-.039.02-.012.035-.012.059-.016a.08.08 0 0 0 .058-.039l.09-.02.008.009zm6.48-1.086c.016.031.012.031.032.047l-.043.03-.04.04c-.054-.035-.054-.035-.039-.055.024-.07.047-.066.067-.07l.023.008zm-7.054 1.094l-.004.062-.086.016c-.024.035-.028.039-.035.027-.016-.031-.008-.05.015-.055a.16.16 0 0 0 .04-.039l.07-.011zm2.273-1.04l.047.032-.098.035-.047-.031c-.007-.043-.004-.051 0-.051.051.008.059.015.063.015h.035zm3.012-1.468l-.043-.067c.015-.035.035-.039.043-.035l.05.031.008.047c-.015.035-.035.04-.043.035l-.015-.011zm-3.985.52l.196-.067c.027.031.023.054.015.058l-.062-.02-.149.028zm4.946-.352l.097-.043c.031-.008.04-.004.047.035-.027.055-.05.05-.055.043-.007-.031-.02-.043-.03-.04-.02 0-.036.009-.06.005zm-2.223-.13h-.074l.187-.05-.113.05zm-3.492.657l-.047-.031c-.008-.055 0-.055.012-.043l.058.039c.024-.004.043-.012.063-.012l-.086.047zm2.777.824c-.04.008-.047.008-.055 0l.028-.058c.027-.008.058-.012.086-.016l-.036.059-.023.015zm1.898-.476c.02-.008.036.007.036.03l-.032.063c-.02-.035-.023-.046-.039-.054l.035-.04zm-2.77-.004l-.019.066c-.05-.015-.054-.035-.05-.039l.03-.05.04.023zm-1.632-.426c-.031-.047-.02-.063.004-.063.031.047.016.063-.004.063zm6.426-.711c-.012-.04-.012-.047-.008-.059.035-.015.043-.02.05-.007-.01.027-.019.039-.015.062l-.027.004zm-.117.2l.004-.063c.046.031.05.035.05.043l-.054.02zM42.57 33.33l.058.027-.062.012.004-.039zm1.218.078l-.019.055c-.055.004-.055.004-.035-.024.023-.035.035-.039.054-.03zm5.102-.87l-.055.038c.016-.031.032-.035.055-.039zm-4.3 1.046l-.06-.031.063-.028-.004.059zm.12-.078c.036-.012.047-.008.055 0l-.031.058c-.047-.03-.051-.035-.047-.043l.023-.015zm-3.39 1.004c.004-.067-.016-.067.039-.032l-.04.032zm1.57-.328c-.059.011-.07.015-.086.015l.078-.047.008.032zm-1.523.379l-.04.039.008-.063.032.024zm-.309-.06c.02.04.012.048.008.052-.059-.028-.059-.032-.047-.043l.04-.008zm8.371-1.327c.028.023.035.035.024.05-.059-.027-.063-.03-.051-.038l.027-.012zm-.879.137c.02.039.016.046.012.05-.059-.027-.062-.03-.05-.043l.038-.007zm-2.722.41l-.02-.067c.035.032.04.043.04.051l-.02.016zm-2.215-1.387c.015-.031.031-.04.05-.04-.027.036-.038.04-.05.04zm2.812-.562c-.035.011-.047.007-.05 0 .027-.024.035-.024.046-.02l.004.02zm.211 1.156c-.02.031-.027.039-.043.039l.043-.04zm-1.824.07c.008.035-.023.04-.035.027l.035-.027zm2.184-.148c-.032.02-.04.02-.051.011.031-.027.039-.027.047-.02l.004.009zm-.192 1.113l-.082.031c-.035.004-.043.008-.062.027-.008.004-.016.004-.04.008-.03-.004-.027-.039.012-.039.016-.015.024-.031.036-.047l-.036-.066-.093.02-.067.011c-.015.02-.027.02-.035.016l-.02-.067c-.093 0-.171.016-.246.028-.011.062-.003.101.004.14l-.027.067-.074.015-.047.016c-.055-.04-.055-.04-.043-.047.012-.012.023-.012.039-.012l.105-.117c-.046.04-.054.043-.062.043l-.047.008-.113.05c-.031-.007-.051-.015-.059-.015-.02.05-.02.055-.015.055.03.023.066.047.097.07l.008.047.063.02.02.054.054-.027.011-.043c.012-.004.02-.004.04-.027.078.015.078.015.101.027l.117-.012c.035-.035.035-.035.055-.023l.133-.008c.035-.035.035-.035.058-.04l.059-.038.062.02.063.011c.016-.004.027 0 .059-.02l.05.004c.008-.003.016-.003.043-.007l.114.011.296-.047-.105.047c-.027.04-.047.036-.059.043-.03.035-.035.035-.043.035-.035-.05-.046-.054-.07-.05-.058.008-.074.015-.09.039-.054-.004-.062-.016-.078-.012l-.18.027c-.039.036-.054.047-.054.063-.035-.012-.04-.016-.067-.012-.054-.004-.062-.015-.078-.015-.058-.02-.062-.02-.07 0l-.098.027-.058.039-.325.055c-.023.035-.03.039-.042.039-.04-.02-.051-.024-.067-.02l-.043.008c-.023.004-.023.004-.05.031l-.04-.11c-.011-.058-.004-.062-.058-.05-.012-.008-.024-.016-.035-.043l-.125.02.046-.016c.02-.004.02-.004.047-.031.012-.012.028-.012.04-.016l.062-.058c.02-.063.02-.063.02-.082-.005-.016-.005-.032-.012-.043l-.203.027c-.024.082-.024.086-.036.098-.027.039-.015.035-.05.011-.047-.039-.059-.047-.063-.047-.027.004-.031.012-.039.024l-.047-.016-.078-.02-.09.016-.137.047c-.023.012-.046.016-.062.02l-.066.02.046.097c.02.012.028.027.051.027.016 0 .028-.004.047-.008l-.039.04c-.031.035-.031.035-.059.039-.011-.036-.011-.036-.046-.059l-.063.047-.039.055-.008-.051c-.047.008-.05.02-.066.02-.031.034-.031.046-.012.062-.012.058.012.066.04.058.066.024.093.012.105.028.035-.02.039-.024.054-.024l.09-.015c.024-.004.043.011.035.035l-.082.004c-.054.02-.054.02-.066.02l-.055.007c-.035-.039-.039-.039-.062-.004-.008.016-.02.016-.055.02-.012.004-.012.004-.047-.016l-.183.027c-.032.043-.04.043-.07.047l-.009.043.313-.043c.016.016.027.02.047.016.035-.008.043-.004.05.004-.003.047-.011.054-.035.058-.023.008-.05.004-.066-.015a.14.14 0 0 0-.04-.028l-.132.024c-.047-.02-.055-.024-.066-.02l-.04.035c-.062-.015-.074-.023-.093-.035l-.594.094c-.031-.02-.039-.023-.05-.02l-.15.024c-.026.004-.034 0-.038-.027-.04-.036-.035-.036-.024-.055l.036-.05c.058.007.07 0 .086-.005.05.016.058.02.066.02l.16-.028c.05.016.059 0 .063-.011l.18-.032.062.02.117-.02c.016-.023.027-.039.059-.039.015 0 .027-.003.046-.007.02-.047.02-.063.016-.075l-.129.004c-.031-.02-.043-.023-.055-.02l-.09.016c-.054-.023-.066-.02-.081-.015l-.032-.09-.093-.012c-.02.004-.028-.004-.036-.031l-.011-.04c-.063-.019-.078-.03-.094-.023-.02.008-.04 0-.055.02l-.047.031c.032.04.032.043.016.051-.035.012-.043.02-.043.031.012.055.012.055-.004.07-.027.04-.05.044-.066.032-.032-.024-.032-.02-.047-.055-.05-.012-.055-.015-.09-.039-.016-.047-.023-.05-.043-.047-.016.004-.031.004-.047.008a.061.061 0 0 1-.066-.02l-.242.04c-.063.027-.063.027-.102.035l-.113.004.008-.063c.046-.008.058-.008.066-.023.012-.02.023-.032.035-.051l.074-.016.188-.035c.05.024.05.024.066.02.051-.008.067-.012.078-.032.032-.05.04-.05.051-.039.016.043.02.047.047.043l.074-.011c.02-.004.02-.004.047-.032.012-.015.031-.015.05 0l.134-.007c.02-.055.02-.055.031-.075.023-.027.035-.027.047-.03l.11.077.062.043c.023 0 .047-.008.07-.012l.066-.07.09-.016c.063.016.074.024.094.04l.117-.012c.031.02.04.023.051.02l.09-.016c.047.02.058.02.066.02l.16-.028.13-.04.077-.015.067-.043.05.035.165-.02c.043-.042.062-.034.07-.042l.059-.04.062.044.07-.008c.032-.008.04-.016.075-.039l.07-.02c.039-.03.047-.035.059-.039.039.016.05.02.062.02.035-.024.04-.035.05-.04l.06.024c.07-.027.093-.023.109-.031.027-.023.035-.027.047-.031l.117-.02.066-.07c.055.031.059.043.07.05.047-.03.055-.042.07-.042.048-.008.056 0 .06.02l.105.015a.16.16 0 0 1 .039-.04l.137-.023c.047.024.047.024.066.02l.043-.008c.04-.035.047-.039.059-.039l.054.027c.028-.03.04-.039.055-.043l.012-.062.074-.047.05.055c-.023.054-.042.07-.046.09l.078-.008.106-.02-.18.059c.004.031-.008.039-.02.043-.047.008-.047.008-.062.031-.031.02-.024.031-.008.047-.035.027-.047.039-.047.055l.008.046c-.008.012-.016.032-.008.051-.043-.011-.05-.008-.09-.023zm.008-.086c.008-.047.023-.04.043-.047l-.04-.016c-.01-.039-.003-.054.009-.062l-.106.008.008.093-.023.07.093.009.016-.055zm-1 .348c-.004.039-.004.046.008.05.05-.011.05-.02.047-.03l-.055-.02zm-1.465.043l.04.054c.058.008.077 0 .097.016l.07.004c-.011-.035-.02-.047-.02-.063-.011-.062-.003-.054.052-.062l.109.066.062-.074c-.007-.05-.02-.05-.027-.047-.039-.012-.05-.027-.066-.02l-.254.044-.063.082zm.078.16l.063-.008.086-.024-.04-.011c-.015.02-.023.02-.042.008-.012-.008-.012-.008-.035.015l-.032.02zm.235.863l.254-.121c-.063-.016-.067-.02-.07-.02l-.137.02c-.024.027-.032.035-.04.035l-.117.02c-.05-.02-.058-.02-.066-.02l-.149.023c-.02.004-.039-.007-.039-.027l.262-.07c.04-.035.047-.04.059-.04.03.012.043.016.05.024l.114-.02c.066 0 .097-.003.129-.007.007 0 .011.004.047.015l.308-.039.098.004c.02-.02.02-.02.054-.023.02-.008.032.004.047.015l.309-.039.086.051.226-.027.145-.04.047.016.3-.039c.012 0 .012-.004.047.016l.407-.074.078-.032c.012-.003.015 0 .039.008.016-.02.023-.02.043-.008.016.012.023.012.058-.02l.063-.007c.016-.004.02.004.047.016l.11-.035.062-.028c.035-.027.054-.031.097-.011l.215-.032c.012 0 .02 0 .047.016.012-.004.02.004.043-.012-.004-.023-.004-.023-.039-.05l-.148.027-.079-.004h-.12c-.008-.004-.016 0-.04.004l-.066-.028-.348.067-.101.012c-.008-.004-.012 0-.043-.016l.05-.024-.019-.043c-.012 0-.02.004-.05.028l-.196.023c-.035.028-.055.028-.082.043.02.024.023.028.008.07l-.051.008c-.012-.007-.02-.015-.055-.023-.008-.02-.008-.04-.023-.066l-.028.039c-.004.003-.02.007-.058-.012l-.059.031c0 .008-.004.016-.047.008l-.035-.043-.062.02c-.032.039-.047.035-.094.023-.008-.004-.016 0-.04.004-.042.023-.046.031-.07.058-.011-.007-.023-.003-.05.02-.04-.031-.051-.031-.063-.031-.02 0-.031.011-.039.023l-.12.016c-.052-.012-.067-.012-.106.015l-.063-.011-.207.02c.09-.036.184-.067.274-.102.023.023.039.023.062.02l.035-.056c.102-.035.203-.066.313-.097-.035-.012-.04-.012-.051-.012l-.129.02-.082.004c-.008 0-.012.003-.035.015-.012-.012-.024-.004-.074-.02-.02.005-.032-.003-.036-.035l.11-.015.062-.027c.016-.004.016-.004.04-.024-.02-.023-.024-.035-.036-.043l-.043-.055c.063-.003.086-.003.094-.011l.043-.063c.027.04.027.07.04.098.054.012.062.02.077.027l.07-.012c.02-.062.02-.066-.015-.101l.101-.008c.024.055.016.059.036.031.007-.011.007-.011.004-.066l.16-.016c.011.043.011.043-.008.086l-.043.04c-.047.027-.047.027-.063.027l-.05.011c.03.036.039.028.062.036.09-.02.082-.02.09.02l.023.073.063-.023c.012-.004.02.004.047.015l.254-.054.039-.028.066-.02c.008-.015.012-.015.05.005.013 0 .02.012.06.012.019-.004.019 0 .046.011 0-.011.012-.02.04-.043l.12-.015c.012 0 .02.007.055.011.012-.015.024-.023.063-.027.02-.004.023.004.05.035.036-.027.051-.023.067-.05l.074-.032-.203.024-.062-.032c-.04-.011-.04-.02-.02-.05-.004-.016.004-.028.016-.047-.008-.04.004-.047.027-.067-.02-.015-.02-.023-.012-.043l.086.035c.035-.007.051-.011.059-.007l.125.007.054-.015c.02.035.024.035.051.031l.035-.039h.047l.04.012.113-.016a.45.45 0 0 0 .043-.035c.054.031.054.031.062.07-.031.02-.047.012-.062.02-.04-.02-.051-.024-.067-.02l-.347.067c-.063-.024-.086-.02-.094-.008-.02.012-.024.012-.055.016l-.035.039h.055c.207-.028.418-.047.632-.059l.008-.074c.051.015.055.035.051.043a.524.524 0 0 0 .227.02c2.98-.06 5.48 1.35 5.52 2.21.062 1.43-.142.992-1.302.555-1.629-.613-3.023-.797-4.21-.73-1.137.015-2.458.257-3.981.894-1.164.48-1.367.926-1.3-.504.019-.43.652-1.035 1.644-1.535zm1.414-.555l.113-.031-.105.02-.008.011zm2.148-.258c.016.008.02.004.035-.019l-.035.02zm-3.617.918a.11.11 0 0 0-.031.043c.035-.007.035-.011.031-.043zm4.43-.253c-.016 0-.024.007-.004.043.02 0 .027-.008.004-.043zm-3.004-.454c.02-.027.015-.039 0-.062l-.024.039.024.023zm3.191.407l-.062.027c.015 0 .027-.004.043-.004l.035.031-.016-.054zm-2.414.324l-.078.031.129-.027-.05-.004zm-1.562-.164c-.02-.035-.036-.04-.059-.004l.059.004zm3.445-.067l-.102.012-.043-.015c-.007 0-.011.015.008.039l.137-.036zm-2.754.211c-.016-.011-.027-.007-.04.016l.036.055.004-.07zm2.121-.898c.027 0 .031.004.066.012l-.027-.059-.066.023.027.024zm-1.906.98c.027-.035.023-.05-.016-.078l-.043.008-.011.047.07.023zm1.496-.968c-.027-.016-.027-.016-.047-.016-.039.027-.05.023-.055.047.016 0 .024-.004.075.008.011.008.023.004.062-.024l.047-.023c-.031 0-.055.008-.082.008zm-1.332.992l-.059.008h-.039c-.004.007-.02.011-.062-.008-.024.004-.024.004-.047.031l.09.024.039-.028.078-.027zm2.574-.793c.035-.035.047-.04.063-.027.02.011.027.011.058-.02.008 0 .016 0 .059.016.027-.036.027-.047.012-.063l-.102.016c-.008.015-.02.023-.039.027-.027-.004-.043 0-.059 0-.02.02-.02.031.008.05zm.078.418l-.133.02c-.027.035-.027.042-.011.062.023.004.023 0 .047.015l.101-.015c.004 0 .008-.004.008-.035-.008-.012-.008-.02-.012-.047zm-3.804.137c-.008-.004-.02-.012-.028-.04-.011 0-.02-.003-.039.024l-.094.012c-.011.004-.02-.004-.054-.016-.012-.004-.02-.012-.047-.012-.024.04-.024.047-.008.063l.074.008c.016.004.024 0 .04-.004l.156-.035zm3.586-.61c-.036.024-.043.024-.075.012l-.105-.004c-.012.023-.008.04-.008.05l.149-.003.09.023c.023-.03.023-.039.023-.066-.043-.016-.051-.016-.074-.012zm-1.891.434c.023.004.031.004.047-.02l.082-.011.047.015c.012-.015.02-.027.039-.027.043-.008.05-.012.027-.047h-.066c-.047.016-.067.027-.086.008-.008-.012-.02-.008-.047-.004l-.059.05-.046-.015c-.028-.016-.028-.016-.051-.012l-.086.024c-.004.023-.004.023.004.05l.195-.011zm.668-.121l.18-.032-.461.051c-.047.008-.051.012-.032.047.02 0 .04-.008.063.012-.016.027-.004.02.02.039l.046-.012c.004-.008.004-.023-.004-.058l.051-.008c.024-.004.024-.004.047.031.027.008.031.012.067.012.007-.012.02-.02.023-.04 0 0-.008 0 0-.042zm1.918-.383c.012.012.023.02.062.012l.063-.04c-.047-.03-.05-.046-.05-.058l-.138-.012-.152.02c-.012 0-.02-.004-.047-.016l-.047.05.051.095.043.02.074-.032-.008-.04c0-.01-.007-.019-.05-.034l.05-.008c.036-.008.047 0 .063.031l.086.012zm-3.371.598l.25-.02c.008.008.011.008.043-.012.054.012.062.012.101-.02l.133-.034c-.016-.008-.023-.024-.07-.036l-.078.012-.813.13c-.043-.017-.05-.013-.074.01l-.18.044.13.008c.007 0 .01.003.046.015l.082-.012.121-.035c.004 0 .008.004.047.016l.242-.031.02-.035zm2.039.035c-.02-.016-.02-.016-.07 0l-.043.035a.186.186 0 0 1-.063-.063c.004-.058.004-.058-.023-.054l-.121.02-.153.034c-.02.008-.031-.004-.047-.015l-.144.02c-.047.023-.063.027-.106.015l-.43.074c-.019.004-.023.012-.062.024-.02-.016-.02-.016-.058-.008-.02 0-.032.011-.04.027l-.43.059c-.058-.012-.081-.008-.124.02.039.03.058.03.074.03l.145-.02c.011-.003.02 0 .046.017l.274-.06c.035-.026.043-.026.074-.01.008-.005.012-.005.04-.028l.038.004c.012.012.012.012.047-.016.008 0 .016.012.02.043 0 .008-.004.012.007.035l.051-.008.344-.023c.008 0 .012-.004.039-.027l.145-.02.078-.031.047.016c.043-.004.05-.012.07-.032l.39-.039-.015-.02zm-.64.101c-.028-.004-.032-.008-.063-.008a.282.282 0 0 0-.04-.03c.024-.005.024-.005.079-.032l.023.07zm-.282.024c.004-.04.016-.04.031-.043.008 0 .016.004.008.039l-.039.004zm-.746-.73l.035.015c-.039.015-.039.012-.035-.016zm-6.684 5.292l.254-.058c.04-.004.047-.012.055-.012l.055.015c.05-.027.054-.035.058-.035l.102-.02.246-.073.062.011a.293.293 0 0 1 .004.047c.004.04.008.05.012.05l.062-.01c.055-.012.059-.012.063-.012l.195-.063c.04-.012.047-.008.055-.012l.105-.02c.059.024.059.032.055.04-.031.031-.05.035-.066.039l-.332.039c-.055.035-.055.035-.067.02-.023.015-.027.027-.039.027l-.285.055c-.055.011-.062.015-.074.015l-.13.047-.12-.004-.106.047c-.02.004-.02.004-.039-.023.02-.024.02-.032.02-.04-.02-.039-.028-.062-.047-.074l-.031.043c-.04.024-.04.024-.055 0-.012-.015-.012-.027-.012-.039zm.645-.082c-.008.04-.004.05.004.05.031-.038.027-.046.023-.05h-.027zm-.172.02l-.012.05c.063 0 .063 0 .082-.003-.02-.024-.023-.032-.027-.036l-.043-.011zm.992.191l.195-.062.098.007.078-.039.106.004-.11.07c-.047.02-.05.016-.054.012l-.563.11-.078.039c-.031-.012-.04-.032-.05-.043l.093-.04c.027-.034.035-.034.05-.019.048-.023.052-.023.055-.02l.18-.019zm-2.348.649c.012.039.02.046.036.042.007-.027.003-.035.003-.05l-.003-.047.054-.035.04.105.011.082c-.039-.012-.047-.015-.055-.015l-.109.02-.07.015c-.024-.047-.024-.063-.035-.07-.008-.044-.004-.047.003-.051.051-.032.063-.024.067-.008l.055-.012.003.024zm3.059.343c-.02.024-.027.028-.031.047l-.051.02-.043.007-.11.047c-.035.004-.05.008-.054.016l-.098.039c-.011-.031-.02-.043-.023-.05l.008-.052.054-.003.16-.032.06-.035.128-.004zm-1.102.309l-.011.055c-.04.03-.047.035-.051.035l-.078.039c-.028-.02-.031-.02-.04-.02-.027-.058-.034-.062-.042-.07l.015-.07h.067c.02-.02.031-.016.039-.02l.055.055.046-.004zm-.168-1.207l.137-.012a.336.336 0 0 1 .004.063l-.062.023-.067-.035-.039.055c-.047-.024-.062-.012-.074-.008l-.067.012c-.015-.04-.011-.047-.003-.051.035-.004.046-.016.054-.035l.09.007.027-.02zm-.406 1.223l.028.09-.137.05c-.028-.012-.035-.02-.043-.031l.02-.063.109-.02.023-.026zm.68-.043c.047-.016.05-.028.062-.024l.024-.062.055.047c.023.023.023.035.03.042l-.007.047-.094.024c-.05-.028-.058-.035-.062-.04l-.008-.034zm.328-.2l.02.047a.675.675 0 0 0-.024.07c.004.051-.004.06-.012.06l-.101.042c-.004-.031 0-.043.008-.05.02-.051.02-.051.03-.06l.036-.081.043-.028zm-2.012-.57l.063.004.105-.035c.024.047.024.062.035.07l-.097.016c-.047-.004-.051.008-.055.011-.039-.023-.039-.023-.047-.02-.004-.03 0-.038-.004-.046zm.848.645l.113-.098-.004.047c-.023.023-.03.035-.035.05.004.051 0 .06-.012.06-.02-.013-.027-.02-.03-.036l-.032-.023zm1.879-1.27l.086.008-.008.074c-.055-.031-.063-.039-.074-.035l-.063.012c-.035-.004-.039-.012-.047-.016l.106-.043zm-2.82.125c-.004-.031-.004-.043-.004-.055 0-.035.004-.043.004-.043l.07-.015c.039.043.039.05.039.058l-.11.055zm1.324 1.328l.02.047c-.02.02-.028.016-.036.023-.047 0-.055 0-.062.024-.028-.055-.024-.059-.024-.059.04-.054.04-.054.055-.039.02.004.035-.004.05-.004l-.003.008zm-1.266-.773c-.05.007-.062.02-.066.035l-.07.015c-.012-.023-.016-.03-.012-.039l.02-.035c.027.02.03.02.038.02.02-.035.028-.035.04-.02.035-.043.038-.039.046-.031.02.023.016.035.016.047l-.012.008zm1.836-.946l.059-.035.078-.039c.015.02.02.027.015.04-.02.034-.02.03-.035.038-.027-.023-.039-.02-.047-.011l-.07.007zm1.18 1.32c.02.02.02.032.015.04-.03.031-.035.047-.043.058l-.027-.074c.016-.027.02-.039.024-.043l.03.02zm-3.106.598l-.058.012c-.028-.02-.032-.02-.04-.016.04-.066.04-.078.04-.093l.02.047.038.05zm.965-.773l-.07.027c.07-.078.078-.082.09-.074.035.012.047.008.054.008-.02.05-.027.058-.039.055l-.035-.016zm-1.785.887c.008.03.004.046-.004.046-.043.008-.05.016-.059.008l.016-.07c.04.02.043.016.047.016zm2.863-2l.051.03-.008.056c-.058-.028-.062-.047-.055-.059l.012-.027zm-2.234 1.859l-.067.055c-.043-.008-.039-.012-.039-.016.043-.008.051-.02.059-.035l.043-.012.004.008zm3.199-.512c.008.028.004.028.016.04l-.043.054c-.024-.031-.024-.031-.02-.047.016-.055.024-.05.031-.055l.016.008zm.254-.062c-.04.058-.04.058-.05.047l-.06-.012.063-.027.047-.008zm-3.734.547l-.004.05-.043.008.011-.05.036-.008zm1.148-.711l-.027.054c-.024-.062-.02-.07-.02-.07l.047.016zm1.516-1.02l-.02-.058.047.004.004.039-.031.015zm-1.965.196l.101-.043c.012.027.012.046.008.046l-.11-.003zm2.43-.008l.05-.028c.004.075-.008.07-.008.063-.023-.035-.03-.027-.043-.035zm-1.43 1.11l-.055.019-.05.011.1-.043.005.012zm-1.38-1.005c-.019-.07-.019-.07-.015-.062.04.035.047.031.059.031l-.043.031zm.25 1.43l.036.047-.063.008c.012-.024.02-.032.02-.047l.008-.008zm1.079-.606l-.012-.046c.016-.004.028-.008.043-.008l-.02.043-.011.011zm-.41-.437l-.012.05-.004-.073.016.023zm-.785-.438c-.016-.039-.008-.05.003-.05.02.039.012.05-.003.05zm3.164-.21c-.004-.032-.004-.04 0-.047.02.015.015.027.015.047h-.015zm-.059.156l.004-.051c.02.027.023.031.02.035l-.024.016zm-2.531.855l-.012.043c0-.043.004-.047.012-.043zm.45.133l.01.047c-.019-.027-.019-.031-.019-.035l.008-.012zm-1.692.621c.004-.055-.004-.055.02-.023l-.02.023zm.777-.176c-.027.008-.035.008-.043.008l.04-.031.003.023zm-.906.157c.008.03.004.039.004.039-.028-.024-.028-.032-.02-.035l.016-.004zm4.133-.606c.015.02.015.031.011.043l-.011-.043zm-.43.063c.008.03.004.035.004.039-.028-.024-.028-.032-.02-.035l.016-.004zm-1.344.175l-.012-.054c.02.027.02.035.02.047l-.008.007zm-2.96-.207c.007.036.003.047-.005.04-.004-.036 0-.04.004-.04zm.421.164c.012.028.012.032.008.04-.012-.024-.012-.032-.008-.04zm11.72 6.551c.023-.027.03-.031.042-.027-.02.035-.023.039-.035.035l-.008-.008zm-7.349 13.984l.102.02c.012.023.023.039.055.047.02.004.039.007.058.02-.05.046-.05.046-.082.007l-.164-.059c-.012-.004-.012-.011.031-.035zm-4.152-2.976l.02.039c.011.02.004.035-.059.07l-.062-.016-.008-.066.11-.027zm5.395 3.351c.007-.004.015.004.046.02.02-.04.02-.04.051-.031l.063.066c-.02.012-.031.02-.051.027-.016.008-.027-.004-.059-.011l-.058-.016c-.008-.004-.012-.02.008-.055zm-3.508-1.64c-.02-.004-.035-.012-.043-.032-.008-.02-.024-.015-.024-.05.02.004.04.011.114.007.02-.007.035-.003.078.047l.062.043c-.039-.004-.074-.02-.117-.027-.047.02-.047.02-.07.012zm1.875 1.238l.094-.05.046-.052c-.003.016-.007.028.004.075l.059.05c-.012-.007-.02-.007-.082.008l-.067.012-.054-.043zm-3.52-2.95l-.086-.023-.054-.008c-.008-.011-.028-.019-.098 0-.031-.011-.031-.011-.062-.058-.008-.016 0-.027.035-.047l.101.027.055.047.11.063zm-1.71.11c-.016.004-.028.012-.051.05-.016 0-.028 0-.055-.042l-.129-.035c-.016-.008-.027 0-.082.011-.016.004-.023.012-.066.008l-.028-.05c.004-.012.004-.02.031-.04l.11.004c.02-.004.035.008.058.012l.211.082zm3.34 2.063c-.048-.016-.06-.012-.071.02-.016.019-.04.026-.074.03-.02-.007-.024-.015-.012-.074 0-.02-.016-.035-.063-.074v-.059l.282.13-.063.027zm-.93-1.47c.035-.003.046 0 .062.036l.117.031.067-.011c.011.023.023.042.054.046l.047.012c.016.004.02.016-.015.059l-.102-.012c-.02.012-.02.012-.035-.023-.028-.012-.055-.028-.082-.008-.016.011-.028.004-.07-.008l-.079-.074-.066.015c-.047.016-.047.016-.066.008l-.118-.05c.004-.032.004-.032.016-.071l.27.05zm1.19.4c.005.015-.003.027-.023.042l-.632-.207-.043-.012c-.02-.007-.024-.015.011-.058.028.004.059.02.094 0-.012-.012-.027-.012-.027-.04.015-.003.027.009.066-.015l.067.024c.004.011 0 .03-.016.082l.07.02c.032.01.032.01.075-.04.011.008.011.016.027.05.004-.015.012-.026.016-.042.003-.012.007-.02.054-.008.012.02.02.031.024.063-.008-.008-.02-.004-.016.058l.254.082zm-1.948-.61c.011-.008.02-.008.058.027.004.012.012.016.051.012.027-.02.047-.016.094.039l.183.074c-.02.012-.039.031-.109.035l-.113-.03-.043-.04-1.11-.312c-.011.003-.02.007-.054.02-.012-.005-.02-.009-.055-.048l-.254-.097c.004-.024.02-.032.043-.024l.145.04c.011.003.02 0 .066-.016l.117.03c.008.005.016.013.035.04l.133.035c.004 0 .008 0 .067-.012l.347.098c.008.012.008.016.043.05l.356.079zm2.488.262l-.059-.063a.29.29 0 0 0-.105.074c0 .012.004.02.035.055-.043.023-.043.023-.082.016l-.172-.055c-.015-.02-.02-.027-.039-.035l-.176-.051c-.023-.016-.05-.004-.066.012l-.203-.059-.035-.043c-.024-.004-.051-.012-.11-.004l-.039-.039-.566-.156c-.02-.008-.031-.02-.078-.047-.032.016-.032.016-.086.004-.028-.004-.043-.02-.055-.047l-.605-.172-.055.016c-.031-.012-.067-.02-.121-.067-.012-.011-.012-.02.043-.02a.076.076 0 0 1 .07-.007l.203.059c.016.004.027.004.067-.012.015.004.02.008.039.043l.347.098.04.043c.011.003.019.003.066-.016.011.004.02.012.054.047h.055c.02-.012.02-.012.063.031.011.004.023-.012.035-.059.004-.011 0-.02.02-.054l.07.02.058-.016.434.12c.012.005.02.012.054.048l.204.058c.011.004.015.012.035.043l.07.02.066-.012.047.012c.02.004.024.015.051.047.012.004.02.004.055-.02l.5.149c0 .027-.004.042-.028.054-.03.02-.03.02-.101-.015zm-.098 2.492l.04.02-.04-.008v-.012zm-.062-.016c.031.008.035.012.035.012l-.047-.012h.012zm.3-.23l-.038-.016.039.004v.012zm-1.855-.114c.04.008.047.012.055.016l-.059-.012.004-.004zm1.043-.058l-.043-.004c.04 0 .04 0 .043.004zm.606.488l.046.02c-.02.004-.027 0-.039-.008l-.007-.012zm-.192-.406c.012-.035.016-.035.02-.031l-.02.03zm.211-.445h-.039l.043-.012-.004.012zm-1.488.488l.039.012-.04-.004v-.008zm1.215.265l.046.004-.046.004v-.008zm-4.446-1.406l-.035.035.02-.035h.015zm4.836 1.285l-.035-.007.05.004-.015.003zm-1.422-.054l.04.012-.044-.008.004-.004zm1.34.238l.07.027c-.039-.003-.039-.003-.046-.007l-.024-.02zm-3.004-.844l.04.04-.048-.012.008-.028zm.063.032c.023.015.035.02.047.02-.043.007-.043.007-.047.003v-.023zm-2.07-1.786l.038.012-.05.012.011-.024zm5.167 2.532l-.039.011-.039-.023.078.012zm-5.062-2.579l-.063-.023c-.02-.039-.02-.039-.015-.043l.05.02.02.035.008.011zm3.762 1.872c.035-.02.039-.02.043-.016.035.023.035.023.039.031l.039.016.054.015-.054-.003c-.028.003-.032.003-.035 0l-.086-.043zm-.293-.383l-.051-.028c-.04-.023-.043-.023-.047-.023l-.05-.02-.044-.023.047-.004.066.027.051.036.028.035zm.488.48c.039.02.047.016.05.02l-.066.004-.097-.028c.03.012.03.012.035.008l.078-.004zm.586.223c-.028-.008-.028-.008-.04.02l-.066-.028c-.035-.008-.035-.008-.039-.016l-.05-.02.078.02c.027-.007.03-.011.035-.007l.082.03zm.015-.098l-.05.012-.024-.043.106.016.062.02-.05-.009-.044.004zm-4.89-1.652l.062-.004.047-.008.078.02c.047.031.055.035.063.039.012.031.012.043.004.055l-.09-.012c-.02.012-.027.012-.035.012l-.059-.02c-.039.012-.047.008-.058.008l-.024-.047c.012-.031.008-.035.012-.043zm2.457.316l-.059.032.008-.047c.043-.024.027-.028.05.015zm-2.309.274l.043-.008-.015.039-.02.059-.012-.047.004-.043zm.903-.852l-.067.004-.129-.058-.136-.04c-.04.008-.043.012-.047.012l-.09-.023-.09-.047c-.02-.055-.02-.055.023-.086.008-.023.02-.027.047-.02l.145.04c.012.003.02 0 .055-.016l.578.156c.02-.012.03-.02.097-.027l.035.039c.012.004.02.004.067-.016l.129.035c.02.008.027.02.047.02.035.012.035.012.058 0l.043.027.074.047.063.027c.012.02.012.02.05.047.009.032-.011.047-.038.04l-.086-.024c-.012-.004-.016-.012-.051-.027-.02.015-.04 0-.11.015-.027-.011-.05-.004-.062.047l.156.043-.047-.012-.203-.035c-.011.028-.011.028-.011.051l.078.035c.02.004.02.004.05-.004l.047-.011.051.054c.027.008.04.012.05.004.02-.016.036-.004.06.004l.074.02c-.032.02-.051.035-.067.046.035.012.04.008.043.008.032-.004.035-.008.04-.008l.042.012c.035.012.047.012.047.008l.047.023.031.051c.012.04.004.04-.004.04l-.062-.016c-.024-.032-.04-.036-.055-.028-.02.012-.027.008-.039-.011-.027.003-.031.003-.039 0l-.05-.016-.395-.133-.07-.02-.286-.081-.05.011-.106-.031-.246-.09-.09.04-.3-.087c-.016.012-.028.016-.048.008-.03-.012-.03-.012-.05-.031l-.02-.059c-.02-.031-.02-.035-.027-.043l.066.035.04.032c.034.015.034.015.038.011l.055.008c-.023-.039-.027-.043-.031-.043l-.047-.02c-.035 0-.035 0-.043-.003-.016-.031-.004-.031.004-.043l.035.004.04.031h.042l.059.016.054.023.04-.023.085.007.043.028.07.023.337.078.082.051c.007.004.02 0 .05-.015l.094.023.106.05c.046-.003.062-.019.074-.023l-.121-.054a.149.149 0 0 1-.02-.059c-.015-.004-.027-.012-.047-.012-.027-.004-.043-.02-.054-.047l-.114-.03-.066.01-.176-.05c-.008-.012-.015-.023-.062-.02l.023.04.07-.008.047.039c.035-.008.04-.008.04 0l.03.027zm-.364-.133c-.023-.007-.027-.003-.054.004l.039.004.015-.008zm1.52.352c.012-.02.02-.016.047.016-.008.007-.016.004-.047-.016zm1.914.262l-.195-.059-.075-.02-.101-.054-.063-.02-.097.004c-.012 0-.02-.004-.063.012l-.09-.04c-.02.02-.02.036-.015.036l.047-.008.058.016.059.039-.035.059c-.016-.004-.028-.008-.067-.051l-.273-.074c-.02-.004-.02-.004-.04-.036-.007-.011-.027-.015-.066-.043.035-.027.04-.035.024-.101l-.07-.02c-.016.008-.028.016-.083.02-.007.02-.015.031-.02.055l-.062-.02-.14-.043c-.024-.027-.024-.039-.09-.039-.043.004-.047-.004-.059-.004h-.074l-.05-.031-.169-.047-.062-.04c-.035-.015-.055-.023-.082-.062l-.14-.004-.18-.062c-.004 0-.012.004-.055.016-.024-.008-.051-.016-.098-.059l-.098.004-.39-.094c-.027.016-.043.012-.106-.015l-.113-.028-.07.012-.29-.082-.034-.043c-.012-.004-.02-.004-.067.016-.031-.012-.031-.012-.058-.04-.008-.011-.028-.02-.055-.007-.02.011-.043.011-.05-.008l-.028-.094.144.04c.02-.02.043-.024.067-.013.043.016.09.024.133.036.011.004.02 0 .066-.016l.437.121c.012.004.02 0 .055-.016l.082.028c.02.031.02.031.07.047.024.011.051.004.067-.012l.437.121.133-.059.317.09c.011.004.02.012.039.043l.156.047.066-.012.422.118c.02.007.02.007.067-.012.011.004.02.008.035.043l.535.148c.02 0 .02.02.035.04l.07.019c.012.004.02.004.063 0 .02.027.031.031.062.016.02-.012.04-.008.078.039l.086.023c.02.008.028 0 .067-.012.012.004.02.008.039.043l.113.032.082.054c.024 0 .031.02.04.035.007.012.027.02.097 0l.305.086c.015.004.027.004.066-.015.02.007.027.004.063.023-.012.035-.012.035-.067.063l-.039-.04-.172-.03-.113-.012-.05-.02-.126-.004c-.012 0-.02-.004-.058-.015l-.055.03-.055-.003c.012.004.004-.012-.02-.02l-.054-.015zm-2.852-.762l-.07-.043-.105-.05c-.008.062-.008.062.02.07.046-.012.062-.008.062 0l.035.007.058.016zm-1.175.39a.359.359 0 0 0 .07-.019l.27.063.062-.004c.031.03.05.03.066.039.032-.008.036-.012.036-.012l.117.035c.047.031.058.035.062.04.055-.005.067.003.078-.005.02.028.024.035.035.035a.28.28 0 0 0 .067.04c.047-.008.058-.008.062 0l.086.062c.028-.031.028-.031.04-.035.046 0 .046.008.046.016l.055.039c.035-.012.055-.012.059-.004l.023.047c.02-.024.023-.047.031-.063.035-.004.047-.012.059-.016l.05.016c.012.043.008.047-.019.066.027.02.043.024.047.028l.219.078c.023.031.035.031.047.035l.023-.039-.047-.031c.031-.012.04-.008.047-.012l.066-.004.336.113.063.028.035-.02c.023.008.031.012.04.012l.085.004.066.031.04.016.148.031c.039-.031.039-.031.047-.055l-.04-.066-.054-.063c-.016-.007-.031-.007-.039-.02L38.324 60l-.07-.024c.05-.039.062-.027.09-.035.019-.011.019-.011.05.024.074.02.063.02.086-.04l.05-.105c.02.031.02.031.04.035l.043.012c.02.008.027 0 .07-.012.012.004.02.008.035.043l.317.09.054.047.094.04c.012.019.016.019.07.007.016.004.024-.012.082-.008.024.008.028.004.067-.004-.004.016.012.024.047.067l.176.046c.019.008.027-.007.078-.003.011.023.027.039.086.05.027.008.035.004.074-.039.008 0 .012 0 .039.04.012.011.027.003.055.05l.105.059-.289-.078-.094.03-.043.009c-.004.007-.011.02.012.066-.012.02-.004.04.012.066-.059.02-.063.02-.07.016-.024-.031-.036-.035-.055-.027-.043-.043-.051-.04-.059-.035l-.016.05c.016.004.032.012.051.012l.137.059c.016.004.023.011.039.027-.039.023-.043.035-.004.11.008.011.008.015-.05.019l-.079.031c-.012-.004-.02-.008-.05-.047l-.047-.011c-.02-.008-.02-.008-.067.011l-.133-.035c-.011-.004-.015-.012-.035-.039l-.101.004c.035.023.035.027.035.031-.02.035-.02.035-.016.047l.04.055.05.043.062.027.04-.008.043.02.097.031.094.047.039.031c-.02.004-.027 0-.04-.004l-.038.02c.02.035.02.039.027.039.031.008.035.008.04.012l.085.043c.04.007.04.007.047.011l.047.028.062.02.051-.028.035.039.22.062.023.079.039.015c.03.012.035.012.039.012l.148.074c.031.035.035.035.04.04.03.015.034.01.038.007l-.062-.035-.09-.059.035-.004c.035.008.035.008.035.016l.043.02.059.015.062.067.016.046.004.036c-.063-.032-.067-.036-.07-.036l-.137-.062c-.02-.035-.02-.035-.02-.031l-.043-.004c-.02-.032-.02-.035-.02-.035l-.062-.004-.039-.02-.035-.027c-.027 0-.047.004-.078.004l-.262-.106-.05-.02.015.06.043.042-.039.004c-.012.035-.012.04-.004.043l.047.02.035.011.02.036c.03-.004.03-.004.035-.012l.043.027.043.04.047.003.043.024.046.027c0 .027.02.039.051.047l.121.047.075.047c.035.015.039.015.042.015l.055-.012.043-.003c.035.027.04.027.04.023l.054.02.05.019c.036-.004.04-.008.048-.004l.043.004.039.023c.035.004.039 0 .043-.003l.058.015c.031.035.035.04.04.04l.034.015.047.012.024.046.039.008c-.035.008-.04.008-.043.004l-.059-.039h-.055l-.058-.015-.04.011.048.02a.117.117 0 0 0 .039.015.09.09 0 0 1 .039.016l.11.055-.098-.02-.09-.027-.035-.012-.067-.016-.039-.02-.082-.022-.039-.008-.055-.028.043-.004.117.047-.027-.039c-.035-.023-.035-.027-.039-.031l-.043-.004c-.027-.016-.031-.016-.039-.016l-.055-.023-.054-.016-.051-.015-.05-.012c-.032-.012-.036-.012-.04-.012l-.05-.02-.036.005c-.031-.004-.035-.004-.039-.008l-.152-.07-.04-.02h-.038l-.036-.004-.058-.023c-.031-.008-.031-.008-.04-.004.028.027.032.027.04.023l.14.059.118.039.086.031.078.031c.02.004.027.008.043.008l.058.016.063.012.062.023c.024.04.024.043.02.043l.011.043.04.012.035-.02c.039.02.043.016.047.02l.058.015.035.004c.04.031.04.031.043.024l.07.03c-.035-.003-.038-.003-.038 0 .043.024.043.024.046.032l.067.02.058.02h.051c.031.027.031.027.035.027l.078.03-.05.005-.04-.012-.074-.04-.046-.019-.04-.011-.058-.012c-.04.012-.043.008-.047.008l-.062-.02-.04-.011c-.03-.008-.035-.008-.039-.012l-.046-.012c-.024-.012-.028-.012-.036-.008l-.062-.02c-.027.005-.031 0-.035 0-.043-.003-.043-.003-.047-.007.031.035.031.035.027.047h.047c.035.015.035.015.04.02l-.087-.02-.07-.02-.059-.011-.039-.004c-.035-.012-.039-.012-.043-.004-.039.027-.039.023-.039.023-.039-.031-.039-.031-.05-.031-.044.012-.044.012-.051.012-.036-.036-.04-.04-.043-.028l-.047.04-.067-.024c-.035.008-.039.008-.043.008-.03.011-.03.011-.035.011l-.047-.03-.039.003.067-.016.058.008-.004-.039c.032.016.043.02.055.02.016-.035.02-.031.02-.031.011.03.011.035.004.042-.028-.003-.028-.003-.04.004l.051.024.031-.035-.019-.04-.11-.058c-.023-.004-.035-.012-.054-.016l-.094-.03-.047-.013-.047-.043-.046-.003c-.032-.016-.036-.012-.036-.012-.027-.004-.03-.004-.039 0-.03-.02-.035-.016-.035-.016l-.05-.027-.063-.04-.047-.003-.066-.027-.063-.016-.039-.02-.105-.043-.051-.02h-.035l-.063-.023-.062-.027-.036.012-.054-.02-.086-.058c-.035-.02-.04-.02-.04-.02l-.046-.023-.067-.028-.039-.02-.082-.038-.074-.024-.039-.02-.039-.015-.039-.004c.02.035.02.04.023.04l-.05.003-.07-.02-.048.024-.039-.015c-.039-.028-.046-.024-.05-.024l-.02-.039-.047.023h-.035c-.031.012-.035.008-.039.008l-.043.004c-.035-.02-.035-.02-.047-.015-.031.039-.031.039-.035.035-.027-.032-.027-.032-.023-.04l-.051-.038-.028-.04c-.027-.019-.035-.019-.039-.011-.027-.031-.03-.031-.039-.035l-.039-.024-.062-.011-.035.011c-.036-.023-.04-.027-.036-.031-.015-.035-.02-.04-.02-.04.032 0 .036-.003.063-.019l.024-.097c-.028-.008-.035-.008-.04-.012l-.054-.004c-.027-.02-.039-.02-.055-.023l-.035.011-.047.024-.062-.016.004.047c.027.008.035.008.039.012l-.078-.012c-.035-.004-.04-.004-.047-.004l-.035-.02c-.032-.007-.035-.007-.04-.007l-.042-.008-.036-.008-.035-.004c-.027-.004-.03 0-.035 0-.039.02-.043.02-.047.02l-.043-.004-.039.012c-.027-.036-.031-.04-.027-.043.016-.032.016-.035.012-.035l-.036.011-.046-.011-.04-.004h-.039l-.039-.012-.046-.016.046-.004.04.004c-.032-.035-.036-.035-.04-.035-.02-.035-.02-.035-.011-.043-.04.004-.047 0-.055.012-.008.035-.008.039-.008.047-.035.035-.039.043-.047.05.004-.035.008-.039.008-.042.035-.036.04-.036.035-.043l.02-.059-.043-.016-.035-.03-.04.026c-.03-.02-.03-.02-.035-.02l-.039.056-.035.02c.016.03.02.03.02.034l-.04.004c-.03.035-.03.035-.038.035l.015-.035.02-.043.023-.039.02-.043c-.028-.015-.035-.023-.04-.027.016-.02.024-.027.04-.031l-.004-.047c-.07-.016-.074-.016-.078-.016l-.176-.047-.043-.062-.027-.04c0-.034 0-.034.004-.038.062-.008.074-.012.086-.02l.078.02c.023-.012.027-.012.035-.012l.062.02c.032-.012.04-.012.047-.008l.11.027c.03-.016.039-.012.046-.008l.055.067.059-.012.168.047c.023.03.039.027.047.035l.082.004.05.011c.02.004.02.004.051.032l.047.02c.07.019.074.019.086.019l.082.015c.004-.011.012-.023.012-.039l-.063-.027c-.008-.031-.008-.04.004-.04.055.036.063.036.063.032l-.036-.05c.028-.051.055-.063.075-.075l.05-.035.063.059c.031-.004.035-.012.035-.016l.055-.02.074.02.121.035.07.063.047-.008.078.02c.02.035.024.038.016.042l-.156-.039c-.008.02-.008.047.02.051-.008.074-.008.074-.012.09l-.012.039c-.027.008-.04 0-.059 0l-.027-.074-.05.02c-.063-.009-.114-.024-.169-.036-.004-.043.008-.07.016-.098l-.02-.054-.078-.024c-.039.024-.039.024-.035.028l.094.101-.074.016c-.04.023-.047.035-.04.05l.106.055.043.055c.035-.016.039-.023.055-.027.027.023.03.03.046.035.032.008.04.004.043-.008l.067-.004.117.055c.031-.012.031-.012.047-.008.055.035.059.04.062.04l.055-.024c.04 0 .04-.008.035-.012-.027-.05-.023-.059.004-.074-.023-.02-.027-.028-.027-.04 0-.05-.008-.062 0-.074-.016-.03-.012-.039-.008-.046l.035-.004.063-.024.199.055-.07-.04c-.055-.062-.059-.062-.063-.062-.027.032-.035.035-.055.028-.039-.008-.054-.016-.058-.035-.035-.004-.043.007-.055.003l-.117-.03c-.024-.028-.035-.036-.031-.048-.024.008-.028.008-.047.004-.04-.004-.047.008-.059.008-.039.012-.039.012-.05-.004l-.063-.027-.254-.094c-.055-.02-.062-.016-.07-.02-.047-.011-.047-.011-.059-.03l-.035.07c-.012.043-.008.043-.059.027-.054-.016-.062-.02-.07-.016l.02.04c.035.034.046.034.058.034l.035.047c.012.043.012.047.008.059l-.168-.008c.012-.05.012-.05.004-.062l-.039.023-.105-.023-.051.007-.063-.015c-.05.012-.062.008-.066-.008-.047-.047-.063-.05-.078-.055-.02-.004-.028-.015-.035-.027l.05-.047c.047-.016.055-.012.067-.012-.047-.054-.047-.054-.063-.058l-.039-.012-.125-.059c.012-.03.024-.039.043-.03.051-.012.063-.005.074-.012l.094.035c0-.047 0-.047-.008-.063l-.047-.02-.039-.011-.02-.035c.009-.028.005-.031-.015-.04-.02-.007-.031-.007-.05.009l-.114-.008c-.035.011-.039.011-.047.008-.066-.02-.078-.016-.093-.008l-.395-.106c-.008-.02-.02-.02-.062-.031v-.063l.246.079zm3.308.755c-.035 0-.039 0-.05-.024l.062-.05.11.046.09-.012c-.04-.02-.04-.058-.032-.085l.23.058c.012-.004.012-.012-.02-.062l-.112-.032-.067.012-.055-.047c-.019-.004-.019-.008-.054-.047l-.13-.02c-.019.013-.019.013-.05-.027l-.113-.023c-.02.012-.02.012-.074.023-.004.012-.008.02-.059.024l-.062-.043c.003-.031.003-.035-.02-.043l-.063.012-.011.047c-.031.02-.067.039-.106.058-.004.004-.008.008-.008.04l-.039-.016.012.046.125.02c.004.004 0 .008-.039.031-.008.008-.02.004-.047-.02l-.047-.027c-.015.004-.02.012-.004.059l.09.043.04.039.038.023a.183.183 0 0 1 .055-.043l.086.024c.004 0 .012-.004.023-.047l-.093-.129c-.012-.004-.028-.004-.04-.02-.007-.011-.007-.011.051-.042l.118.03.023.079a.299.299 0 0 0-.02.14c.07.024.149.051.239.06l.023-.055zm.043.007l.012.09c.008.02.02.035.039.04.02.003.04.01.082 0l.02-.06c.003-.015.003-.019.023-.046-.027.011-.035.008-.063 0-.03-.028-.039-.028-.074-.02l-.039-.004zm.098.766v-.05l-.008.046.008.004zm.035-.05c.04.01.05.015.063.015l-.055-.035-.008.02zm-1.203-.571c-.024-.008-.031-.008-.035-.004l.015.039c.032-.02.036-.02.036-.023l-.016-.012zm.078.058l.04-.02-.04-.019v.04zm.555-.07l.011.04c.012-.04.004-.044-.011-.04zm.836.02l-.04.015.04.012v-.027zm-1.703-.094c.027.008.03.008.039.004l-.02-.04a.257.257 0 0 0-.058-.015l.019.04.02.01zm1.41.738l-.055.028.086.02c-.012-.02-.02-.032-.023-.044l-.008-.004zm-1.508-.601l.074.027.067.02-.133-.06-.008.013zm.809-.114l.027.051c.039-.05.039-.055.035-.055-.031.004-.039.008-.047.008l-.015-.004zm1.097.809l.09.062c.063.004.059 0 .055-.003-.012-.012-.024-.012-.035-.016l-.098-.047-.012.004zm-1.5-.875c.024.004.051.02.078.02l-.039-.032c-.03-.031-.043-.039-.058-.031-.051.004-.063-.004-.074-.004.019.047.03.055.046.055.02.008.02.008.04-.004l.007-.004zm1.235.855l.078.024c.043-.008.05-.008.058-.008l-.039-.031c-.007-.031-.004-.043-.004-.055l-.093.07zm-1.856-.46c-.008.054.008.054.02.062.015.023.027.027.035.023.023-.015.035-.011.05.008l.04-.008c-.02-.046-.02-.046-.028-.058-.02-.031-.02-.031-.039-.02-.027-.004-.047-.011-.066-.011l-.012.003zm.559-.07l.047-.02-.192-.09v.039c.028.027.04.035.04.05-.012.044-.009.051.007.055a.117.117 0 0 0 .055-.023l.043-.012zm-1.602-.317c-.02.074-.012.082-.012.097-.011.04-.007.051.008.055.032.008.032.008.04.024l.093.03c.012-.023.008-.034-.004-.042-.02-.043-.02-.043-.039-.055l-.039-.074-.047-.035zm.422.234l-.043-.004c-.066-.039-.07-.047-.07-.058l-.07-.004c-.04.015-.044.023-.055.027l.004.04.125.038.05.016c.024-.024.032-.028.043-.031l.016-.024zm.945.192l-.035.02-.015.05.18.07c.038 0 .054-.008.062-.02l-.02-.054-.148-.04-.024-.026zm-1.879-.836c.07-.036.086-.028.098-.04l.05.004a.313.313 0 0 0-.019.043c-.011.04-.004.036.032.047l.078-.035.039.055c-.055.035-.063.047-.07.039l-.172-.047-.036-.066zm1 .132c.04-.02.04-.015.04-.007l-.04.007zm.653.309l.043.066-.117.004c-.016-.027-.02-.039-.02-.054.008-.02.012-.04.02-.059h.062l.012.043zm-2-.512c-.035-.02-.051-.023-.059-.058l.086.023.047.02-.074.015zm5.695-.418c-.012 0-.02-.004-.05-.043.023 0 .042.008.05.043zm-.777-18.656l.05-.02.008.04-.07.039v-.04l.012-.019zm1.293.047l-.07.035-.036.004-.097.024c-.032.004-.043.004-.047.007l-.086.02-.02-.055h.051l.14-.015.051-.02h.114zm-.867.149c.039-.008.043-.016.054-.012l.067-.008.023.047-.086.012c-.047-.016-.05-.02-.055-.02l-.003-.02zm.28-.106c.009.047-.003.055-.003.063l-.035.043-.063.011c.02-.03.02-.035.02-.039.023-.027.031-.031.035-.031l.047-.047zm.536-.605l.094-.024.07.004-.004.04c-.05-.016-.055-.02-.062-.02l-.059.007c-.027-.003-.035-.007-.039-.007zm-1.215.742c0 .035-.012.031-.02.035-.038 0-.046 0-.058.012-.008-.035-.008-.035-.004-.043.047-.008.059-.012.07-.012l.012.008zm.496-.906l.051-.02.07-.02c-.004.04-.004.04-.02.04-.027-.012-.034-.012-.038-.008l-.063.008zm1.035.699l-.003.039c-.04.016-.043.012-.043.012l-.004-.04c.043-.011.047-.011.05-.011zm-2.714.312l-.055.008.004-.058.05.05zm.843-.406c-.02 0-.03.008-.05.004.05-.031.062-.035.062-.027.031.007.04.004.05.004-.046.03-.046.03-.058.023l-.004-.004zm-1.011.39l-.063.028.055-.031.008.004zm2.797-.269l-.024.047c-.004-.055.008-.05.02-.055l.004.008zm.218-.031c-.035.027-.035.027-.039.023l-.05-.004.054-.015.035-.004zm-.527-.524l.043-.015c.004.039-.004.035-.008.031l-.035-.016zm-3.133.825l.078-.02c.028.051.024.051.024.051l-.051-.008-.05-.023zm3.809-.473l-.004.05-.055.056-.133.027c-.058-.016-.062-.012-.07.004-.02.039-.02.039-.023.027-.008-.035-.012-.039-.02-.035-.05.008-.05.008-.062.031l-.09-.004c-.012.043-.012.047-.02.059l-.074-.047-.027-.039-.07.062-.047.008a.178.178 0 0 1-.047-.035l-.059.008-.059-.004-.113-.004-.078.05-.043-.026-.121.02-.066.062-.028-.036c-.05.004-.05.004-.07.028l-.063.039c-.046-.004-.05.008-.054.012l-.035-.028-.004-.047.047-.023c.011-.035.011-.043.003-.047-.039.031-.046.031-.05.023l.03-.05c.005-.035.005-.04 0-.043l-.046-.063-.004-.035c-.039-.016-.039-.012-.043.016-.058.015-.058.007-.062 0l-.094-.024-.09.02-.059.058-.09-.007c-.019.035-.019.043-.015.046l.113-.02c.004.024 0 .056-.02.056l-.003.105.004.05c.02.013.027.009.039.009l.027-.078c.078.035.113.027.153.019.007-.05.003-.082.003-.113l.02-.063.059-.011c.023.03.023.03.02.039l-.075.101c.004.035.008.04.012.04l.043-.009c.023.036.027.051.02.063l-.08.047.067-.004.047.031.04-.004c-.048.047-.048.047-.055.047l-.07.02c-.04-.012-.04-.012-.055-.024-.036-.039-.04-.05-.047-.054-.059.035-.063.03-.063.015l-.05-.015-.09.039-.055-.016.004.043-.117.027c-.024-.008-.032-.011-.036-.015l.11-.043c-.02-.086-.02-.098-.035-.118-.016.043-.016.047-.024.047-.031-.03-.035-.035-.047-.03l-.039-.017.13-.035c.007-.07.011-.082.011-.101.016-.035.016-.047.012-.055l-.067-.047-.144.028.054-.036c.047-.058.051-.058.051-.058.016.039.02.047.035.043.024-.004.036-.012.043-.028.024.004.028.016.04.016l.09-.016c.019-.023.023-.035.027-.046l-.07.011-.044.012c-.035-.016-.039-.012-.047-.016l-.054-.007-.063.007-.086-.004c-.039 0-.039 0-.043-.015l.055.004.137-.016c.023.012.035.012.039.008l.058-.031.051-.008c.035-.008.04-.004.047-.004l.04-.004c.05-.004.054-.004.062-.016h.058l.258-.043.047-.011.187-.024.098.004.16-.031.047-.047-.082-.016-.062.008-.067.016-.14.012-.047.02-.078.007c-.028-.008-.036-.016-.043-.023l-.04.046-.054-.007c-.086.035-.086.035-.094.035l-.14.027-.047-.02c.011-.046.007-.042.003-.046l-.046-.016c.043.031.039.035.03.035l-.3.047c-.07-.02-.074-.016-.082-.02l-.062-.011-.067.012-.101-.008c-.047-.004-.047-.004-.051-.032.05.004.054.008.062.008l.153-.031c.027.02.039.02.046.012l.067-.059.058-.012c.04-.015.047-.007.055-.011l.043-.008c.02-.031.031-.031.043-.02.05 0 .055.004.059.004.047-.023.05-.039.058-.035l.047-.008-.086.012-.066.008-.106.023h-.105l-.098.024c-.027-.051-.035-.063-.05-.07-.063.03-.063.03-.075.019.031-.035.031-.043.035-.05l.13-.032c.007-.05 0-.05-.005-.05.004-.02.012-.032.016-.048l.027.051c.012-.023.016-.035.02-.039.02.043.02.043.031.039.031-.047.031-.066.035-.074.051.012.059.004.063.008 0 .05.015.043.027.039.016.039.012.047 0 .05l-.21.055a.48.48 0 0 0 .058.008l.047-.02.058.008.11-.023.218-.04.055.009c.008.046.012.05.016.05l.11-.015.171-.032c.035-.007.039-.003.047-.003l.09-.012.039.012.062-.02.117-.039.063.062.223-.042c.058.011.058.011.066-.008l.043-.016.242-.023a.194.194 0 0 0 .102.007l.105.004-.02.07c-.034-.015-.046-.011-.05-.003-.055.008-.059.008-.063.008l-.164.058-.093-.008c-.032.016-.04.016-.055 0l-.195.024-.047-.016c-.028.028-.04.031-.055.035l-.11-.004c-.035.028-.042.032-.05.032-.016-.028-.016-.035-.02-.04-.05.051-.054.06-.062.06l.047.015.172-.031.086.003.07-.019.086.004.05-.027c-.042.042-.046.042-.046.042l-.098.02-.047.008-.043.004.094.015.055-.007a.178.178 0 0 1 .046.035l.29-.051.097.008c.035.054.035.054.031.066l.02.043c-.031-.008-.04-.008-.043-.004l-.055.004-.144.027-.078-.003c-.028.007-.032.007-.047 0l-.063.003c-.027.047-.027.059-.027.07l.062.005.067.011c.023.02.031.02.039.02l.016.074.046.012.02.062c.031.02.035.028.047.024l.05-.04c-.015-.034-.015-.034-.007-.042l.023-.078c.051-.004.051-.008.055.023.023.012.023.016.043.035.008.035.012.043.02.04.035-.012.046-.005.054.015l.219-.047zm-1.895-.066c.051.015.055.027.063.023l.086-.016.05-.02-.062-.019-.137.032zm.38-.059c.023-.004.03-.008.038-.012l-.039.012zm.062-.004l.011.063c.004.05-.003.05.036.039.035-.004.046-.012.05-.004l-.02.047c-.026.03-.034.03-.042.03l-.031.048c-.012.05-.012.05-.012.066l.117.024c-.004-.063-.004-.063.004-.078l.023.035.079-.008.074.012c.031.02.043.02.05.003l.02-.039a.119.119 0 0 1 .043-.011v-.094c-.027-.027-.035-.023-.047-.023.04-.055.04-.06.051-.06l.043-.03.078-.016c-.004-.039-.016-.05-.027-.047l-.086-.004-.047.02c-.031-.008-.04-.008-.047-.012l-.047.035c-.055-.008-.062-.008-.062-.004l-.059.032c-.05-.032-.05-.028-.05-.024l-.036.02-.055.015c-.011-.02-.011-.031-.015-.043l.004.008zm-.547.36l.062-.004-.05-.04-.012.044zm-.004.011c-.035.09-.027.098-.02.098l.067-.012c.015-.031.02-.043.02-.058l-.067-.028zm.5-.254c.004-.03.004-.035-.004-.039l.004.04zm.719.028l-.02-.047c-.027-.008-.039-.004-.047-.016-.027.024-.027.035-.023.047.004.047 0 .043-.02.047.04.012.047.016.04-.012.027-.02.038-.02.062-.015l.008-.004zm-.125.023l-.043-.047-.032.059c.004.039.012.043.016.039l.047-.004.008-.055.004.008zm-.637-.316l-.043-.059c-.027.035-.04.05-.04.063l.083-.004zm.34.187l-.004.074c-.012-.027-.012-.039-.02-.046l.024-.028zm-2.016.852l.008-.059v.059h-.008zm1.086-.196c-.035.016-.039.016-.039.012l.04-.012zm-1.11-.152l-.058.02-.05.004.066-.024h.043zm.22-.203l.046-.027.04-.016.035-.004-.055.027-.05.012-.017.008zm-.383.258l.062-.016-.043.028-.062.011.039-.031.004.008zm-.246.058l-.063.02c-.035.027-.047.031-.05.027l.062-.05.05.003zm2.605-.168l.024.051c-.028-.035-.024-.039-.024-.039v-.012zm-2.074.286l-.098.027-.058-.02.066-.023.047-.012.043.028zm.078-.036l.062-.011c-.03.031-.035.027-.05.023l-.012-.012zm.008-.168h.047c.035-.02.035-.02.05-.02l.067-.019.074-.015.059-.016-.047.016c-.031.015-.035.015-.047.011l-.063.024c-.02.027-.02.023-.039.023l-.062.012-.04-.016zm.172.13c-.04.015-.04.015-.051.027-.031.008-.031.008-.047.004l-.012-.047h.04l.077-.004-.007.02zm.277-.075c.023-.015.027-.015.04-.012l-.04.012zm.605-.047l.06-.02c-.017.028-.02.028-.024.036l-.036-.016zm11.016 5.196c-.027-.024-.042-.024-.058-.012a.263.263 0 0 1-.043.027c.043-.004.055 0 .059.012l-.032.094h-.05l-.043-.055-.04-.012-.007-.047c.058-.015.062-.015.074-.02l.133-.081.086-.055.039.012a.47.47 0 0 0 .07.031c-.027.055-.027.055-.043.063-.031.023-.05.023-.062.015l-.063.035-.02-.007zm-3.671 2.433l-.106.043-.02-.059c.028-.011.036-.007.047-.007.036-.004.047-.004.06-.008l.073-.05c.008-.032.02-.036.028-.04.02.023.03.023.039.027l-.121.094zm-.704-.656l-.02-.063c.048-.047.056-.047.056-.043l.03.051c-.007.031-.007.04-.019.047-.03 0-.039 0-.047.008zm4.739-2.875c-.02-.02-.02-.031-.016-.035.055-.032.063-.04.07-.04l.04.012-.02.04-.07.066c-.024.004-.032.004-.035.004l-.04.023.028-.043.043-.027zm-2.922 3.23l-.07.004-.008-.047c.078-.011.09 0 .09.012l-.012.031zm-1.707-.46l-.012-.055c.063-.028.063-.024.059-.008 0 .05-.016.055-.024.062h-.023zm-.3.199c.026-.067.03-.067.042-.063l.074-.027-.066.058-.05.032zm4.55-2.633l-.047.015-.047.043-.047.028.032-.051c-.036.02-.036.023-.04.027l.051-.058.04-.016.038-.02.051-.046c.008.031.008.039.004.047l-.035.03zm-2.774 2.906l.047.031-.058.024c-.02-.055-.004-.063.004-.063l.007.008zm-.652.133l-.05.05c-.02.012-.024.012-.04-.011.004-.043.02-.047.024-.04.039.009.047 0 .066 0zm1.453-.469l.047-.02-.105.079.058-.059zm4.5-4.101l-.015-.04c.062-.003.062.012.05.02l-.035.02zm-6.52 4.976c0 .055-.007.059-.011.055 0-.02.004-.031-.008-.043l.02-.012zm.028-.152l.016.039c-.04-.008-.043-.012-.043-.016l.027-.023zm-.156-.344l.023-.039c.004.023-.011.031-.023.039zm4.367-3.125c.016.043.023.04-.02.027l.02-.027zm-23.75 54.36c0 .707-1.062.707-1.062 0v-3.282c0-.465.378-.843.843-.843h7.63l-.15-.52c-.16-.535-.605-.894-1.105-1.04-2.074-.565-3.765-2.065-4.36-4.147-.55-1.91-.054-3.895 1.161-5.434a.795.795 0 0 1 .383-.246c.41-.117.84.117.957.527l1.195 4.168c.047.14.117.29.23.41a.98.98 0 0 0 .466.282l2.402.597c.144.032.312.02.469-.023a.99.99 0 0 0 .433-.254l1.692-1.75c.117-.133.203-.297.242-.484.031-.16.015-.325-.02-.47l-1.195-4.171a.772.772 0 0 1 .527-.953.776.776 0 0 1 .453.011c1.848.66 3.313 2.079 3.864 3.993.597 2.078-.04 4.246-1.5 5.828-.348.39-.528.926-.383 1.469l.637 2.214h3.562a1.128 1.128 0 0 1-.176-.851 1.122 1.122 0 0 1 1.313-.895l.906.176 1.05-5.394c-.343-.266-.526-.66-.362-1.141l1.43-4.512a.211.211 0 0 1 .238-.144l1.617.312c.101.02.18.117.168.223l-.367 4.719c-.024.488-.329.781-.73.906l-1.056 5.41.88.172c.503.098.859.52.898 1.012h2.043c.465 0 .843.375.843.84l.016 3.277c.004.707-1.059.71-1.062.004l-.012-3.063h-25l-.008 3.067zm9.305-4.125h2.672l-.328-1.153a1.248 1.248 0 0 0-1.543-.855l-.07.02a1.248 1.248 0 0 0-.856 1.542l.125.446zM22.134 69.644c.093.004.14.058.03.113-.218.121-.526.496-.644 2.047l-1.53 30.438C9.543 100.984.65 106.37-1.633 100.546l1.21-8.37c-.093-.297.005-.739.16-1.192.134-.383.56-1.387.56-1.387 3.23-7.89 6.804-14.438 8.437-15.062 6.047-2.316 7.57-2.828 11.812-4.425.81-.326 1.345-.474 1.587-.466zm50.133 4.894c1.636.63 5.203 7.176 8.437 15.062 0 0 .43 1.004.559 1.387.152.453.254.894.156 1.191v7.599c-2.277 5.824-9.957 1.21-20.406 2.468L59.48 71.807c-.113-1.551-.425-1.926-.644-2.047-.106-.059-.059-.113.035-.113.242-.008.777.136 1.586.46 4.238 1.6 5.765 2.11 11.809 4.431z" mask="url(#b)"/>
    </g>
</svg>
