<?xml version="1.0" encoding="UTF-8" standalone="no"?>
<!-- Created with Inkscape (http://www.inkscape.org/) -->

<svg
   xmlns:dc="http://purl.org/dc/elements/1.1/"
   xmlns:cc="http://creativecommons.org/ns#"
   xmlns:rdf="http://www.w3.org/1999/02/22-rdf-syntax-ns#"
   xmlns:svg="http://www.w3.org/2000/svg"
   xmlns="http://www.w3.org/2000/svg"
   xmlns:sodipodi="http://sodipodi.sourceforge.net/DTD/sodipodi-0.dtd"
   xmlns:inkscape="http://www.inkscape.org/namespaces/inkscape"
   width="18.076483mm"
   height="9.4688234mm"
   viewBox="0 0 64.050531 33.550949"
   id="svg38115"
   version="1.1"
   inkscape:version="0.91 r13725"
   sodipodi:docname="acura.svg">
  <defs
     id="defs38117" />
  <sodipodi:namedview
     id="base"
     pagecolor="#ffffff"
     bordercolor="#666666"
     borderopacity="1.0"
     inkscape:pageopacity="0.0"
     inkscape:pageshadow="2"
     inkscape:zoom="7.9195959"
     inkscape:cx="47.352134"
     inkscape:cy="12.071374"
     inkscape:document-units="px"
     inkscape:current-layer="layer1"
     showgrid="false"
     fit-margin-top="0"
     fit-margin-left="0"
     fit-margin-right="0"
     fit-margin-bottom="0"
     inkscape:window-width="751"
     inkscape:window-height="405"
     inkscape:window-x="608"
     inkscape:window-y="268"
     inkscape:window-maximized="0" />
  <metadata
     id="metadata38120">
    <rdf:RDF>
      <cc:Work
         rdf:about="">
        <dc:format>image/svg+xml</dc:format>
        <dc:type
           rdf:resource="http://purl.org/dc/dcmitype/StillImage" />
        <dc:title></dc:title>
      </cc:Work>
    </rdf:RDF>
  </metadata>
  <g
     inkscape:label="Layer 1"
     inkscape:groupmode="layer"
     id="layer1"
     transform="translate(-310.6733,-507.75766)">
    <g
       id="g3986"
       transform="matrix(1.3333333,0,0,-1.3333333,332.69717,514.45334)">
      <path
         id="path3984"
         style="fill:#000000;fill-opacity:1;fill-rule:nonzero;stroke:none"
         d="M 0,0 C 0.338,1.244 0.954,2.313 1.98,3.12 2.85,3.806 3.854,4.187 4.945,4.349 5.348,4.411 5.763,4.433 6.205,4.475 6.02,3.947 5.853,3.466 5.684,2.985 5.078,1.25 4.46,-0.481 3.87,-2.221 3.751,-2.577 3.727,-2.963 3.663,-3.338 3.417,-4.853 3.175,-6.369 2.928,-7.886 2.886,-8.136 2.846,-8.387 2.801,-8.669 c -0.185,0.1 -0.355,0.176 -0.511,0.278 -0.916,0.593 -1.535,1.426 -1.967,2.413 -0.425,0.982 -0.602,2.02 -0.628,3.085 C -0.331,-1.916 -0.26,-0.947 0,0 m 6.262,-2.066 c 0.047,0.104 0.098,0.152 0.222,0.144 0.218,-0.011 0.443,-0.005 0.661,-0.001 0.084,0.002 0.129,-0.027 0.163,-0.106 0.665,-1.481 1.33,-2.962 1.999,-4.442 0.331,-0.74 0.668,-1.483 1.003,-2.225 0.021,-0.058 0.048,-0.116 0.086,-0.2 -1.04,-0.423 -2.12,-0.611 -3.222,-0.651 -1.375,-0.051 -2.705,0.211 -4.015,0.686 0.138,0.303 0.263,0.572 0.385,0.842 0.907,1.983 1.814,3.968 2.718,5.953 m 0.193,6.507 0.691,0 0,-5.383 -0.691,0 z m 4.07,-0.655 c 1.445,-0.684 2.395,-1.807 2.919,-3.304 0.275,-0.797 0.405,-1.619 0.445,-2.459 0.053,-1.181 -0.038,-2.346 -0.422,-3.476 -0.399,-1.172 -1.044,-2.172 -2.07,-2.9 -0.19,-0.132 -0.398,-0.235 -0.617,-0.362 -0.092,0.607 -0.175,1.176 -0.26,1.745 -0.195,1.344 -0.414,2.683 -0.586,4.029 -0.093,0.725 -0.38,1.38 -0.619,2.052 C 8.698,0.847 8.063,2.577 7.438,4.308 7.423,4.349 7.412,4.393 7.394,4.45 8.498,4.441 9.541,4.251 10.525,3.786 M 2.993,-9.45 c 1.369,-0.488 2.793,-0.637 4.24,-0.589 1.09,0.035 2.165,0.182 3.206,0.534 1.855,0.63 3.17,1.827 3.845,3.685 0.383,1.06 0.512,2.157 0.51,3.406 0.008,0.775 -0.08,1.668 -0.308,2.547 C 14.205,1.229 13.714,2.212 12.904,3.021 12.038,3.887 10.978,4.394 9.805,4.684 8.629,4.976 7.434,5.055 6.226,5.01 5.233,4.971 4.252,4.849 3.297,4.55 2.127,4.183 1.105,3.581 0.319,2.623 -0.344,1.816 -0.745,0.885 -0.963,-0.125 c -0.302,-1.353 -0.323,-2.72 -0.133,-4.09 0.143,-0.987 0.431,-1.925 0.961,-2.78 0.741,-1.2 1.813,-1.987 3.128,-2.455"
         inkscape:connector-curvature="0" />
    </g>
    <g
       id="g3990"
       transform="matrix(1.3333333,0,0,-1.3333333,360.31823,534.99627)">
      <path
         id="path3988"
         style="fill:#000000;fill-opacity:1;fill-rule:nonzero;stroke:none"
         d="M 0,0 C 0.028,1.078 -0.689,2.292 -2.176,2.287 -4.253,2.278 -6.335,2.284 -8.413,2.284 -8.46,2.284 -8.509,2.279 -8.559,2.275 l 0,-6.993 1.719,0 0,5.486 0.187,0 3.976,0 c 0.081,0 0.167,0.001 0.251,-0.004 0.386,-0.025 0.646,-0.218 0.699,-0.557 0.079,-0.494 -0.08,-0.862 -0.634,-0.945 -0.109,-0.015 -0.221,-0.015 -0.328,-0.015 l -3.568,0 c -0.051,0 -0.105,-0.007 -0.164,-0.01 0.099,-0.451 0.205,-0.881 0.288,-1.316 0.031,-0.157 0.094,-0.189 0.245,-0.187 1.024,0.005 2.046,0.004 3.069,0.004 0.549,0 0.928,-0.3 1.023,-0.842 0.049,-0.29 0.04,-0.59 0.061,-0.887 0.008,-0.241 0.02,-0.482 0.026,-0.724 l 1.678,0 c 0,0.442 0.005,0.871 -0.002,1.301 -0.007,0.181 -0.029,0.365 -0.066,0.544 -0.098,0.48 -0.32,0.891 -0.766,1.161 C -0.278,-1.275 -0.018,-0.699 0,0"
         inkscape:connector-curvature="0" />
    </g>
    <g
       id="g3994"
       transform="matrix(1.3333333,0,0,-1.3333333,318.91597,532.06601)">
      <path
         id="path3992"
         style="fill:#000000;fill-opacity:1;fill-rule:nonzero;stroke:none"
         d="m 0,0 c -0.042,0.07 -0.094,0.088 -0.167,0.086 -0.567,-10e-4 -1.133,-0.002 -1.694,0 -0.076,0.002 -0.12,-0.024 -0.161,-0.091 -1.375,-2.277 -2.749,-4.551 -4.126,-6.83 -0.013,-0.022 -0.021,-0.052 -0.034,-0.089 0.656,0 1.299,-0.002 1.942,0.002 0.041,0 0.096,0.047 0.122,0.086 0.214,0.325 0.426,0.651 0.633,0.98 0.054,0.085 0.109,0.115 0.209,0.113 1.321,-0.002 2.642,-0.002 3.965,-0.002 l 0.18,0 c -0.05,0.085 -0.086,0.147 -0.126,0.209 -0.207,0.333 -0.42,0.665 -0.621,1.002 -0.058,0.093 -0.117,0.13 -0.229,0.129 -0.789,-0.005 -1.58,-0.003 -2.369,-0.003 l -0.205,0 c 0.565,0.949 1.109,1.868 1.668,2.803 0.261,-0.432 0.505,-0.845 0.75,-1.256 0.79,-1.326 1.579,-2.65 2.367,-3.975 0.041,-0.069 0.087,-0.09 0.165,-0.09 0.604,0.003 1.212,0.002 1.817,0.003 0.033,0 0.067,0.005 0.111,0.01 C 4.175,-6.875 4.164,-6.851 4.148,-6.828 2.767,-4.552 1.382,-2.277 0,0"
         inkscape:connector-curvature="0" />
    </g>
    <g
       id="g3998"
       transform="matrix(1.3333333,0,0,-1.3333333,373.69983,539.59587)">
      <path
         id="path3996"
         style="fill:#000000;fill-opacity:1;fill-rule:nonzero;stroke:none"
         d="m 0,0 c -1.142,1.875 -2.282,3.751 -3.419,5.632 -0.047,0.076 -0.098,0.104 -0.188,0.104 -0.56,-0.005 -1.12,-0.004 -1.683,0 -0.082,0 -0.128,-0.029 -0.173,-0.101 -1.328,-2.206 -2.663,-4.412 -3.995,-6.617 -0.055,-0.091 -0.107,-0.185 -0.167,-0.284 0.036,-0.006 0.047,-0.01 0.062,-0.01 0.624,-10e-4 1.25,-0.004 1.872,0.003 0.049,0 0.115,0.049 0.143,0.093 0.219,0.324 0.432,0.649 0.634,0.979 0.053,0.081 0.11,0.105 0.2,0.105 1.326,-0.002 2.648,-0.002 3.969,-0.002 l 0.177,0 c -0.032,0.06 -0.05,0.099 -0.077,0.137 -0.223,0.36 -0.453,0.72 -0.671,1.084 C -3.373,1.214 -3.433,1.242 -3.54,1.242 -4.333,1.237 -5.128,1.24 -5.921,1.24 l -0.19,0 c 0.562,0.948 1.108,1.867 1.666,2.801 0.034,-0.055 0.053,-0.084 0.072,-0.115 1.008,-1.692 2.015,-3.381 3.018,-5.074 0.058,-0.1 0.124,-0.134 0.238,-0.133 0.576,0.005 1.148,0.003 1.721,0.004 0.049,0 0.098,0.003 0.164,0.006 C 0.729,-1.2 0.695,-1.146 0.664,-1.092 0.442,-0.729 0.222,-0.365 0,0"
         inkscape:connector-curvature="0" />
    </g>
    <g
       id="g4002"
       transform="matrix(1.3333333,0,0,-1.3333333,347.32477,531.96307)">
      <path
         id="path4000"
         style="fill:#000000;fill-opacity:1;fill-rule:nonzero;stroke:none"
         d="m 0,0 -1.708,0 0,-0.167 c 0,-1.49 0,-2.981 -0.003,-4.473 0,-0.086 0,-0.174 -0.01,-0.258 -0.031,-0.336 -0.21,-0.564 -0.539,-0.653 -0.164,-0.044 -0.341,-0.073 -0.512,-0.075 -0.84,-0.009 -1.681,-0.013 -2.523,-0.006 -0.223,0.002 -0.458,0.037 -0.679,0.089 -0.267,0.065 -0.423,0.257 -0.484,0.526 -0.023,0.111 -0.034,0.226 -0.034,0.338 -0.003,1.509 0,3.019 0,4.529 l 0,0.15 -1.751,0 0,-0.18 c 0,-1.4 -0.003,-2.8 0.003,-4.2 0,-0.238 0.012,-0.476 0.052,-0.71 0.111,-0.696 0.447,-1.252 1.087,-1.59 0.402,-0.214 0.835,-0.313 1.284,-0.319 1.044,-0.012 2.085,-0.012 3.129,-0.007 0.254,0.003 0.512,0.021 0.764,0.067 0.618,0.105 1.15,0.371 1.512,0.907 0.305,0.457 0.412,0.974 0.412,1.513 0.003,1.446 0,2.892 0,4.337 z"
         inkscape:connector-curvature="0" />
    </g>
    <g
       id="g4006"
       transform="matrix(1.3333333,0,0,-1.3333333,327.9277,531.95134)">
      <path
         id="path4004"
         style="fill:#000000;fill-opacity:1;fill-rule:nonzero;stroke:none"
         d="m 0,0 c -0.135,0 -0.274,0 -0.411,-0.009 -0.641,-0.047 -1.221,-0.229 -1.663,-0.716 -0.402,-0.44 -0.572,-0.98 -0.599,-1.558 -0.031,-0.662 -0.022,-1.326 -0.02,-1.988 0,-0.234 0.01,-0.466 0.047,-0.697 0.093,-0.657 0.343,-1.233 0.917,-1.624 0.438,-0.3 0.943,-0.417 1.47,-0.417 1.804,-0.005 3.602,-10e-4 5.4,-10e-4 l 0.164,0 0,1.448 -0.229,0 c -1.694,0 -3.387,0 -5.082,0.001 -0.08,0 -0.155,0 -0.233,0.009 -0.323,0.047 -0.547,0.218 -0.624,0.538 -0.045,0.189 -0.076,0.387 -0.079,0.582 -0.008,0.626 -0.004,1.251 0,1.879 0,0.132 0.011,0.265 0.034,0.394 0.072,0.44 0.304,0.655 0.753,0.704 0.064,0.007 0.137,0.008 0.206,0.008 1.698,0.001 3.395,0.001 5.093,0.001 l 0.161,0 0,1.446 -0.248,0 z"
         inkscape:connector-curvature="0" />
    </g>
  </g>
</svg>
