<svg xmlns:rdf="http://www.w3.org/1999/02/22-rdf-syntax-ns#" xmlns="http://www.w3.org/2000/svg" height="7.0917mm" width="16.016mm" version="1.1" xmlns:cc="http://creativecommons.org/ns#" xmlns:dc="http://purl.org/dc/elements/1.1/" viewBox="0 0 56.748129 25.127993">
 <g transform="translate(-254.48 -496.94)">
  <g transform="matrix(1.3333 0 0 -1.3333 263.4 518.65)">
   <path d="m0 0 0.492-1.132h-0.974zm-0.567-1.318h1.123c0.176-0.401 0.335-0.825 0.465-1.192 0.074 0.005 0.151 0.013 0.233 0.013 0.078 0 0.146-0.008 0.233-0.013l-1.327 3.087h-0.103l-1.378-3.087c0.05 0.005 0.095 0.013 0.154 0.013 0.054 0 0.104-0.008 0.164-0.013 0.123 0.415 0.281 0.804 0.436 1.192"/>
  </g>
  <g transform="matrix(1.3333 0 0 -1.3333 266.86 521.82)">
   <path d="m0 0c-0.348 0-0.541 0.178-0.717 0.459h-0.045c-0.015-0.133-0.036-0.265-0.081-0.393 0.151-0.166 0.505-0.255 0.72-0.255 0.599 0 1.093 0.376 1.093 1.005 0 0.945-1.393 0.618-1.393 1.426 0 0.316 0.252 0.518 0.557 0.518 0.261 0 0.452-0.143 0.546-0.382h0.044c0.037 0.124 0.067 0.247 0.119 0.361-0.163 0.149-0.42 0.214-0.632 0.214-0.529 0-0.981-0.278-0.981-0.851 0-0.994 1.385-0.634 1.385-1.457 0-0.352-0.256-0.645-0.615-0.645"/>
  </g>
  <g transform="matrix(1.3333 0 0 -1.3333 269.83 518.25)">
   <path d="m0 0v-2.821c0.061 0.004 0.127 0.014 0.196 0.014 0.061 0 0.123-0.01 0.192-0.014v2.821c0.396 0 0.705-0.027 0.924-0.054-0.004 0.042-0.013 0.088-0.013 0.131 0 0.047 0.009 0.085 0.013 0.135h-2.28c0.003-0.05 0.016-0.088 0.016-0.135 0-0.043-0.013-0.089-0.016-0.131 0.251 0.027 0.52 0.054 0.968 0.054"/>
  </g>
  <g transform="matrix(1.3333 0 0 -1.3333 272.3 520.06)">
   <path d="m0 0c0 0.897 0.469 1.487 1.247 1.487 0.355 0 0.696-0.151 0.917-0.43 0.232-0.295 0.281-0.606 0.281-0.971 0.028-0.486-0.306-1.449-1.237-1.449-0.661 0-1.208 0.469-1.208 1.363m2.876 0.122c0 1.06-0.842 1.511-1.672 1.511-0.917 0-1.639-0.612-1.639-1.579 0-0.945 0.651-1.563 1.63-1.563 0.985 0 1.681 0.643 1.681 1.631"/>
  </g>
  <g transform="matrix(1.3333 0 0 -1.3333 277.3 518.83)">
   <path d="m0 0h0.045l1.907-2.112c0.093-0.098 0.183-0.208 0.231-0.267h0.131v3.025c-0.045-0.008-0.082-0.015-0.122-0.015-0.046 0-0.087 0.007-0.123 0.015v-2.278h-0.045l-2.1 2.278h-0.173v-3.025c0.042 0.005 0.078 0.013 0.124 0.013 0.038 0 0.08-0.008 0.125-0.013z"/>
  </g>
  <g transform="matrix(1.3333 0 0 -1.3333 283.57 518.96)">
   <path d="m0 0c0.302-0.574 0.61-1.151 0.892-1.733l0.243-0.5h0.05c0.266 0.61 0.644 1.317 1.157 2.233 0.061-0.44 0.15-1.393 0.224-2.281 0.07 0.005 0.138 0.013 0.207 0.013s0.131-0.008 0.208-0.013c-0.119 0.843-0.239 1.93-0.358 3.025h-0.089c-0.448-0.796-0.856-1.566-1.275-2.32-0.473 0.784-0.897 1.613-1.251 2.32h-0.113c-0.045-0.468-0.31-2.314-0.425-3.025 0.055 0.005 0.101 0.013 0.159 0.013 0.05 0 0.099-0.008 0.156-0.013 0 0.543 0.117 1.419 0.215 2.281"/>
  </g>
  <g transform="matrix(1.3333 0 0 -1.3333 289.7 518.65)">
   <path d="m0 0 0.493-1.132h-0.974zm-0.566-1.318h1.124c0.174-0.401 0.338-0.825 0.464-1.192 0.073 0.005 0.151 0.013 0.232 0.013 0.078 0 0.146-0.008 0.231-0.013l-1.328 3.087h-0.1l-1.377-3.087c0.048 0.005 0.097 0.013 0.155 0.013 0.052 0 0.101-0.008 0.163-0.013 0.123 0.415 0.28 0.804 0.436 1.192"/>
  </g>
  <g transform="matrix(1.3333 0 0 -1.3333 293.58 519.78)">
   <path d="m0 0c-0.225-0.042-0.504-0.025-0.571-0.02v1.215c0.188 0.01 0.489 0.019 0.652-0.006 0.33-0.053 0.485-0.251 0.485-0.557 0-0.343-0.24-0.564-0.566-0.632m0.962 0.685c0 0.446-0.301 0.675-0.982 0.675h-0.937v-3.025c0.062 0.006 0.126 0.014 0.195 0.014 0.061 0 0.123-0.008 0.192-0.014v1.478h0.172l0.351-0.415 0.52-0.676c0.093-0.125 0.184-0.249 0.282-0.387 0.077 0.006 0.166 0.014 0.251 0.014 0.082 0 0.163-0.008 0.257-0.014l-0.086 0.112-0.212 0.245-0.912 1.155c0.449 0.08 0.909 0.326 0.909 0.838"/>
  </g>
  <g transform="matrix(1.3333 0 0 -1.3333 296.56 518.25)">
   <path d="m0 0v-2.821c0.066 0.004 0.129 0.014 0.195 0.014 0.063 0 0.126-0.01 0.198-0.014v2.821c0.39 0 0.699-0.027 0.921-0.054-0.003 0.042-0.014 0.088-0.014 0.131 0 0.047 0.011 0.085 0.014 0.135h-2.279c0.004-0.05 0.012-0.088 0.012-0.135 0-0.043-0.007-0.089-0.012-0.131 0.253 0.027 0.521 0.054 0.965 0.054"/>
  </g>
  <g transform="matrix(1.3333 0 0 -1.3333 299.51 517.97)">
   <path d="m0 0c-0.071-0.008-0.135-0.015-0.196-0.015-0.065 0-0.131 0.007-0.196 0.015v-3.025c0.065 0.005 0.131 0.013 0.196 0.013 0.061 0 0.125-0.008 0.196-0.013z"/>
  </g>
  <g transform="matrix(1.3333 0 0 -1.3333 300.99 518.83)">
   <path d="m0 0h0.045l1.911-2.112c0.09-0.098 0.178-0.208 0.229-0.267h0.133v3.025c-0.045-0.008-0.086-0.015-0.127-0.015-0.044 0-0.081 0.007-0.121 0.015v-2.278h-0.045l-2.096 2.278h-0.176v-3.025c0.04 0.005 0.081 0.013 0.126 0.013 0.036 0 0.077-0.008 0.121-0.013z"/>
  </g>
  <g transform="matrix(1.3333 0 0 -1.3333 310.73 497.92)">
   <path d="m0 0c-0.004-0.004-0.311-0.511-0.311-0.511-0.06-0.094-0.094-0.138-0.333-0.156h-9.359c0.103 0.181 0.192 0.341 0.268 0.484 0.005 0.003 0.337 0.592 0.923 0.592h8.578c0.089 0 0.208-0.015 0.267-0.116 0.009-0.012 0.026-0.042 0.026-0.091 0-0.047-0.012-0.112-0.059-0.202m-1.145-1.016-0.328-0.573c-0.047-0.084-0.115-0.215-0.333-0.293-0.181-0.043-0.543-0.014-0.671 0l-7.963 0.53c0.102 0.154 0.2 0.301 0.286 0.438h9.077c-0.025-0.029-0.047-0.062-0.068-0.102m-1.354-1.262c0 0.002-0.314-0.555-0.378-0.67-0.018-0.018-0.108-0.115-0.4-0.077l-7.632 1.022c0.107 0.137 0.204 0.272 0.298 0.405l8.108-0.538c0.009-0.002 0.043-0.005 0.094-0.01-0.034-0.036-0.064-0.084-0.09-0.132m-2.625-1.483c-0.29-0.073-0.852 0.013-1.043 0.055 0 0-3.593 0.735-5.245 1.076 0.117 0.134 0.223 0.27 0.328 0.4l7.662-1.028zm-2.601-0.761c-0.365-0.102-0.848 0.058-0.855 0.058l-0.004 0.006-3.512 1.081c0.174 0.175 0.342 0.356 0.498 0.532l5.381-1.109c0.008-0.003 0.118-0.025 0.275-0.046zm-2.74-0.805c-0.247-0.067-0.619 0.078-0.738 0.139 0 0-0.94 0.438-1.907 0.888 0.289 0.239 0.563 0.481 0.814 0.725l3.639-1.123c0.009-0.002 0.076-0.025 0.174-0.047zm-0.564-0.551c-0.105-0.268-0.216-0.551-0.96-0.833-0.311-0.091-0.678 0.178-0.678 0.181-0.003 0-0.833 0.596-1.778 1.277 0.383 0.236 0.757 0.494 1.123 0.78l2.009-0.94c0.012-0.004 0.215-0.111 0.469-0.157-0.121-0.138-0.175-0.281-0.185-0.308m-2.811-1.357-0.282-0.076c-0.233-0.055-0.524 0.178-0.613 0.271 0 0-0.455 0.474-1.035 1.082 0.372 0.166 0.735 0.355 1.09 0.564l1.865-1.334c0.007-0.005 0.114-0.086 0.268-0.153-0.413-0.114-1.293-0.354-1.293-0.354m-2.465-0.671c-0.196-0.032-0.423 0.289-0.491 0.409l-0.561 0.954c0.46 0.134 0.907 0.293 1.346 0.475l1.093-1.14c0.013-0.011 0.131-0.136 0.307-0.238zm-1.865-0.514c-0.132-0.027-0.242-0.016-0.34 0.044-0.204 0.126-0.277 0.416-0.282 0.432l-0.284 1.035c0.503 0.069 0.992 0.171 1.467 0.296l0.597-1.007c0.021-0.038 0.141-0.246 0.323-0.394zm-1.208 0.378s-0.8 0.763-1.069 1.02c0.38 0.011 0.753 0.042 1.119 0.085l0.295-1.06c0.007-0.037 0.067-0.267 0.229-0.45-0.222 0.062-0.289 0.128-0.574 0.405m-1.399 1.264v3.22h0.513l0.873-3.139c-0.455-0.052-0.916-0.081-1.386-0.081m6.085 3.22h2.052c-0.21-0.211-0.703-0.613-0.716-0.622-0.501 0.231-0.988 0.462-1.336 0.622m-2.129 0h1.54l1.703-0.795c-0.352-0.273-0.714-0.518-1.089-0.746-0.821 0.59-1.685 1.208-2.154 1.541m-1.25 0h0.824l2.346-1.678c-0.345-0.199-0.694-0.372-1.051-0.533-0.776 0.807-1.703 1.773-2.119 2.211m0.331-2.832c-0.455-0.118-0.924-0.207-1.406-0.277l-0.858 3.109h0.59zm-1.383 2.832h0.702l2.222-2.318c-0.418-0.172-0.846-0.322-1.291-0.445zm-10.3 0.248s-0.004 0.004-0.004 0.007v2.387h17.05v-2.391l-0.006-0.003zm8.398-3.468c-0.474 0-0.933 0.031-1.388 0.081l0.872 3.139h0.516zm-1.614-1.469c-0.115-0.108-0.238-0.173-0.362-0.2 0.162 0.181 0.221 0.413 0.231 0.452l0.292 1.058c0.367-0.046 0.742-0.074 1.12-0.085-0.302-0.289-1.281-1.225-1.281-1.225m-0.655-0.129c-0.098-0.06-0.209-0.071-0.34-0.044l-1.483 0.406c0.184 0.148 0.303 0.356 0.324 0.397 0 0 0.251 0.424 0.591 1.004 0.483-0.128 0.972-0.227 1.474-0.296l-0.286-1.035c-0.004 0-0.069-0.303-0.28-0.432m-2.205 0.47-1.694 0.46c0.175 0.102 0.294 0.227 0.306 0.238 0 0 0.486 0.505 1.095 1.14 0.438-0.182 0.885-0.341 1.344-0.475l-0.556-0.949c-0.07-0.125-0.299-0.446-0.495-0.414m-2.183 0.595-1.575 0.43c0.153 0.067 0.264 0.148 0.273 0.154 0 0 0.877 0.63 1.859 1.333 0.354-0.209 0.72-0.398 1.09-0.564l-1.034-1.082c-0.09-0.093-0.38-0.326-0.613-0.271m-2.132 0.6c-0.745 0.282-0.856 0.565-0.963 0.833-0.008 0.024-0.063 0.168-0.182 0.308 0.251 0.046 0.459 0.153 0.472 0.157-0.005 0 1.005 0.47 2.004 0.943 0.367-0.286 0.741-0.547 1.124-0.783l-1.775-1.275c-0.004-0.005-0.373-0.279-0.68-0.183m1.365 2.531c-0.016 0.014-0.507 0.427-0.715 0.622h2.052zm1.312-0.919c-0.374 0.227-0.736 0.473-1.09 0.746 0.808 0.374 1.559 0.729 1.703 0.795h1.54zm1.284-0.67c-0.355 0.161-0.705 0.34-1.049 0.533 1.016 0.729 2.08 1.488 2.343 1.678h0.826zm3.461 2.211h0.593l-0.862-3.109c-0.48 0.07-0.948 0.159-1.408 0.277 0.63 1.061 1.464 2.475 1.677 2.832m-1.923-2.767c-0.443 0.127-0.873 0.277-1.29 0.452 0.89 0.928 1.961 2.046 2.217 2.315h0.706zm-7.024 0.998c-0.075 0.022-0.911 0.269-1.983 0.582 0.102 0.022 0.171 0.047 0.174 0.05 0-0.003 2.951 0.909 3.641 1.123 0.25-0.247 0.523-0.489 0.811-0.728l-1.901-0.888c-0.124-0.061-0.49-0.206-0.742-0.139m-2.74 0.805c-0.584 0.171-1.201 0.351-1.784 0.522 0.158 0.021 0.268 0.043 0.277 0.046 0 0 3.801 0.783 5.384 1.109 0.154-0.176 0.319-0.351 0.494-0.53l-3.516-1.083c-0.009-0.006-0.485-0.163-0.855-0.064m-2.597 0.761c-0.791 0.236-1.434 0.422-1.706 0.503l7.661 1.028c0.106-0.133 0.213-0.266 0.331-0.403l-5.247-1.073c-0.192-0.042-0.754-0.128-1.039-0.055m-2.247 0.813-0.383 0.672c-0.026 0.053-0.054 0.094-0.089 0.13 0.051 0.005 8.202 0.548 8.202 0.548 0.093-0.133 0.191-0.268 0.298-0.405l-7.632-1.022c-0.29-0.038-0.379 0.057-0.396 0.077m-1.077 1.066c-0.217 0.078-0.285 0.209-0.332 0.293-0.132 0.229-0.308 0.566-0.396 0.675h9.079c0.089-0.137 0.183-0.284 0.285-0.438l-7.964-0.53c-0.122-0.014-0.488-0.043-0.672 0m-1.163 1.215c-0.215 0.018-0.263 0.042-0.331 0.156 0 0-0.286 0.478-0.31 0.511-0.048 0.09-0.061 0.155-0.061 0.202 0.006 0.115 0.085 0.204 0.295 0.207h8.576c0.579 0 0.923-0.592 0.923-0.592 0.077-0.143 0.167-0.303 0.272-0.484zm10.088-0.666c-0.101 0.146-0.195 0.287-0.281 0.419h1.678v-0.323zm0.464-0.632c-0.101 0.132-0.199 0.259-0.289 0.384l1.222 0.083v-0.341zm0.933-0.774v-0.314c-0.08 0.09-0.161 0.178-0.244 0.265 0.099 0.019 0.18 0.036 0.244 0.049m-0.435 0.165c-0.11 0.13-0.218 0.255-0.32 0.381l0.754 0.103v-0.394zm5.742 2.983c0.4 0 0.715-0.116 0.944-0.344 0.167-0.165 0.282-0.384 0.341-0.651 0 0 0.012-0.046 0.031-0.081h-8.453c-0.133 0.216-0.346 0.602-0.346 0.602-0.008 0.017-0.148 0.271-0.421 0.474zm12.242-1.646v0.323h1.68c-0.086-0.132-0.178-0.273-0.28-0.421zm0-0.602v0.341l1.225-0.083c-0.089-0.125-0.188-0.252-0.285-0.384zm0.246-0.949c-0.081-0.087-0.162-0.175-0.246-0.268v0.317zm-0.246 0.306v0.392l0.756-0.103c-0.103-0.126-0.208-0.251-0.319-0.381-0.196 0.04-0.344 0.071-0.437 0.092m-6.589 1.896c0.059 0.267 0.175 0.486 0.341 0.651 0.229 0.228 0.544 0.344 0.944 0.344h7.902c-0.27-0.206-0.411-0.457-0.42-0.474-0.094-0.17-0.209-0.373-0.344-0.602h-8.453c0.017 0.032 0.03 0.081 0.03 0.081m18.488 1.319h-17.203c-0.485 0-0.882-0.149-1.171-0.442-0.209-0.208-0.353-0.479-0.429-0.805 0-0.014-0.026-0.075-0.167-0.075h-3.405c-0.145 0-0.165 0.064-0.165 0.072-0.077 0.326-0.223 0.6-0.43 0.808-0.291 0.293-0.686 0.442-1.171 0.442h-17.207c-0.112-0.005-0.382-0.027-0.537-0.271-0.069-0.121-0.122-0.327 0.03-0.614 0.005 0 0.314-0.522 0.314-0.522 0.134-0.21 0.277-0.286 0.587-0.307 0.006 0 0.15-0.014 0.248-0.19l0.323-0.565c0.068-0.13 0.224-0.432 0.77-0.507 0.01 0 0.166-0.019 0.256-0.185l0.395-0.694c0.115-0.228 0.277-0.31 0.571-0.403l7.198-2.11c0.242-0.075 0.344-0.348 0.344-0.348 0.17-0.446 0.396-0.809 1.521-1.149 0-0.001 5.885-1.607 5.885-1.607 0.072-0.022 0.749-0.228 1.255 0.261l1.378 1.316s0.06 0.059 0.136 0.059c0.078 0 0.138-0.059 0.138-0.059 0.004-0.001 1.379-1.316 1.379-1.316 0.511-0.489 1.183-0.283 1.259-0.261-0.004 0 5.882 1.606 5.887 1.607 1.119 0.34 1.355 0.711 1.515 1.149 0.008 0.019 0.102 0.273 0.344 0.348 0 0 1.09 0.319 7.194 2.11 0.298 0.093 0.46 0.175 0.575 0.403l0.391 0.687c0.09 0.173 0.247 0.192 0.255 0.192 0.549 0.073 0.707 0.374 0.78 0.507-0.005 0 0.318 0.565 0.318 0.565 0.099 0.176 0.244 0.19 0.251 0.19 0.307 0.019 0.456 0.097 0.579 0.307 0-0.002 0.32 0.522 0.32 0.522 0.063 0.124 0.097 0.242 0.097 0.354 0 0.091-0.025 0.18-0.067 0.257-0.154 0.247-0.422 0.267-0.541 0.274"/>
  </g>
  <g transform="matrix(1.3333 0 0 -1.3333 272.57 500.82)">
   <path d="m0 0c0.014 0.03 0.205 0.484 0.23 0.537 0.02-0.053 0.216-0.507 0.229-0.537zm0.247 0.885-0.728-1.633h0.201v0.012c0.059 0.196 0.135 0.387 0.207 0.569 0 0 0.013 0.027 0.018 0.041h0.562c0.076-0.173 0.158-0.374 0.237-0.614l0.005-0.008h0.273l-0.702 1.633z"/>
  </g>
  <g transform="matrix(1.3333 0 0 -1.3333 274.82 500.59)">
   <path d="m0 0c-0.171 0.069-0.332 0.13-0.332 0.326 0 0.148 0.114 0.255 0.273 0.255 0.127 0 0.224-0.07 0.27-0.191l0.005-0.01h0.043l0.068 0.203-0.008 0.008c-0.09 0.085-0.234 0.116-0.336 0.116-0.32 0-0.524-0.179-0.524-0.452 0-0.285 0.209-0.364 0.395-0.441 0.167-0.063 0.324-0.124 0.324-0.319 0-0.178-0.137-0.321-0.307-0.321-0.153 0-0.259 0.071-0.357 0.233l-0.004 0.006h-0.043l-0.05-0.223 0.008-0.003c0.085-0.095 0.281-0.138 0.383-0.138 0.343 0 0.583 0.218 0.583 0.537 0 0.261-0.199 0.339-0.391 0.414"/>
  </g>
  <g transform="matrix(1.3333 0 0 -1.3333 277.07 499.92)">
   <path d="m0 0v0.168h-0.012-1.2v-0.168l0.017 0.003c0.136 0.016 0.272 0.027 0.489 0.027v-1.464h0.23v1.464c0.163 0 0.314-0.01 0.464-0.027z"/>
  </g>
  <g transform="matrix(1.3333 0 0 -1.3333 279 500.78)">
   <path d="m0 0c0-0.149-0.061-0.371-0.205-0.522-0.116-0.12-0.256-0.182-0.427-0.182-0.369 0-0.613 0.27-0.613 0.695 0 0.465 0.246 0.758 0.634 0.758 0.188 0 0.363-0.082 0.469-0.219 0.114-0.151 0.142-0.309 0.142-0.495zm-0.632 0.851c-0.511 0-0.865-0.344-0.865-0.833 0-0.494 0.346-0.824 0.861-0.824 0.532 0 0.89 0.345 0.89 0.857 0 0.553-0.447 0.8-0.886 0.8"/>
  </g>
  <g transform="matrix(1.3333 0 0 -1.3333 281.27 499.69)">
   <path d="m0 0v-1.182c-0.008 0.008-1.094 1.182-1.094 1.182h-0.106v-1.598h0.154v1.238h0.004c0.008-0.011 0.987-1.091 0.987-1.091l0.123-0.145 0.005-0.002h0.085v1.598h-0.013z"/>
  </g>
  <g transform="matrix(1.3333 0 0 -1.3333 284.92 499.69)">
   <path d="m0 0h-0.012-0.056l-0.386-0.702s-0.247-0.443-0.269-0.485c-0.238 0.399-0.451 0.816-0.634 1.18l-0.004 0.007h-0.081l-0.004-0.015c-0.023-0.231-0.158-1.197-0.218-1.565l-0.004-0.018h0.191v0.012c0 0.228 0.043 0.565 0.085 0.921 0 0 0.017 0.159 0.026 0.221 0.026-0.054 0.328-0.625 0.438-0.862l0.133-0.264h0.042l0.005 0.009c0.133 0.305 0.323 0.657 0.577 1.117 0.039-0.276 0.086-0.825 0.111-1.142l0.004-0.012h0.243v0.018c-0.055 0.387-0.115 0.9-0.187 1.565z"/>
  </g>
  <g transform="matrix(1.3333 0 0 -1.3333 285.93 500.82)">
   <path d="m0 0c0.013 0.03 0.205 0.479 0.227 0.537 0.024-0.053 0.221-0.507 0.233-0.537zm0.311 0.885h-0.064l-0.729-1.633h0.197l0.005 0.012c0.059 0.198 0.135 0.393 0.208 0.575 0 0 0.012 0.021 0.016 0.035h0.563c0.076-0.176 0.158-0.382 0.239-0.614l0.004-0.008h0.272l-0.702 1.633z"/>
  </g>
  <g transform="matrix(1.3333 0 0 -1.3333 287.79 500.64)">
   <path d="m0 0v0.602c0.092 0.005 0.237 0.013 0.319-0.003 0.16-0.025 0.242-0.118 0.242-0.275 0-0.161-0.108-0.28-0.286-0.313-0.097-0.021-0.217-0.016-0.275-0.011m0.793 0.351c0 0.245-0.173 0.364-0.527 0.364h-0.486-0.01v-1.598h0.23v0.767h0.062c0.008-0.008 0.185-0.214 0.185-0.214-0.005 0 0.267-0.348 0.267-0.348l0.148-0.205h0.009 0.293s-0.604 0.759-0.632 0.792c0.288 0.056 0.461 0.221 0.461 0.442"/>
  </g>
  <g transform="matrix(1.3333 0 0 -1.3333 289.02 499.69)">
   <path d="m0 0v-0.168l0.018 0.002c0.135 0.016 0.266 0.028 0.484 0.028v-1.465h0.23v1.465c0.166 0 0.319-0.01 0.463-0.028l0.017-0.002v0.168h-0.012z"/>
  </g>
  <path d="m290.89 499.7h0.288v2.1267h-0.288z"/>
  <g transform="matrix(1.3333 0 0 -1.3333 293.23 501.27)">
   <path d="m0 0h-0.006c-0.008 0.008-1.088 1.182-1.088 1.182h-0.112v-1.599h0.158v1.238h0.005c0.007-0.01 0.987-1.091 0.987-1.091l0.124-0.144 0.089-0.003v1.599h-0.157z"/>
  </g>
 </g>
</svg>
