<?xml version="1.0" encoding="UTF-8" standalone="no"?>
<!-- Created with Inkscape (http://www.inkscape.org/) -->

<svg
   xmlns:dc="http://purl.org/dc/elements/1.1/"
   xmlns:cc="http://creativecommons.org/ns#"
   xmlns:rdf="http://www.w3.org/1999/02/22-rdf-syntax-ns#"
   xmlns:svg="http://www.w3.org/2000/svg"
   xmlns="http://www.w3.org/2000/svg"
   xmlns:sodipodi="http://sodipodi.sourceforge.net/DTD/sodipodi-0.dtd"
   xmlns:inkscape="http://www.inkscape.org/namespaces/inkscape"
   width="11.120287mm"
   height="6.8269191mm"
   viewBox="0 0 39.402592 24.189871"
   id="svg38115"
   version="1.1"
   inkscape:version="0.91 r13725"
   sodipodi:docname="audi.svg">
  <defs
     id="defs38117" />
  <sodipodi:namedview
     id="base"
     pagecolor="#ffffff"
     bordercolor="#666666"
     borderopacity="1.0"
     inkscape:pageopacity="0.0"
     inkscape:pageshadow="2"
     inkscape:zoom="7.9195959"
     inkscape:cx="19.701292"
     inkscape:cy="12.09494"
     inkscape:document-units="px"
     inkscape:current-layer="layer1"
     showgrid="false"
     fit-margin-top="0"
     fit-margin-left="0"
     fit-margin-right="0"
     fit-margin-bottom="0"
     inkscape:window-width="751"
     inkscape:window-height="405"
     inkscape:window-x="608"
     inkscape:window-y="268"
     inkscape:window-maximized="0" />
  <metadata
     id="metadata38120">
    <rdf:RDF>
      <cc:Work
         rdf:about="">
        <dc:format>image/svg+xml</dc:format>
        <dc:type
           rdf:resource="http://purl.org/dc/dcmitype/StillImage" />
        <dc:title></dc:title>
      </cc:Work>
    </rdf:RDF>
  </metadata>
  <g
     inkscape:label="Layer 1"
     inkscape:groupmode="layer"
     id="layer1"
     transform="translate(-338.32414,-517.14231)">
    <g
       id="g2590"
       transform="matrix(1.3333333,0,0,-1.3333333,366.86385,538.4299)">
      <path
         id="path2588"
         style="fill:#000000;fill-opacity:1;fill-rule:nonzero;stroke:none"
         d="m 0,0 c 0,-0.582 -0.66,-1.055 -1.469,-1.055 -0.809,0 -1.473,0.473 -1.473,1.055 0,0.582 0.664,1.055 1.473,1.055 C -0.66,1.055 0,0.582 0,0 M -2.382,3.356 -1.16,1.997 c -0.105,0.002 -0.204,0.006 -0.309,0.006 -1.701,0 -3.085,-0.648 -3.085,-2.044 0,-1.125 1.384,-2.044 3.085,-2.044 1.698,0 3.085,0.919 3.085,2.044 0,1.079 -1.403,2.518 -2.119,3.397 z"
         inkscape:connector-curvature="0" />
    </g>
    <g
       id="g2594"
       transform="matrix(1.3333333,0,0,-1.3333333,358.20692,538.8375)">
      <path
         id="path2592"
         style="fill:#000000;fill-opacity:1;fill-rule:nonzero;stroke:none"
         d="m 0,0 c 0,-1.118 -1.832,-1.118 -1.832,0 l 0,2.193 -1.577,0 0,-2.342 c 0,-2.286 4.949,-2.306 4.949,0 l 0,2.342 -1.54,0 z"
         inkscape:connector-curvature="0" />
    </g>
    <path
       id="path2596"
       style="fill:#000000;fill-opacity:1;fill-rule:nonzero;stroke:none"
       d="m 369.50465,535.91417 2.25866,0 0,5.27733 -2.25866,0 z"
       inkscape:connector-curvature="0" />
    <g
       id="g2600"
       transform="matrix(1.3333333,0,0,-1.3333333,347.10212,538.6623)">
      <path
         id="path2598"
         style="fill:#000000;fill-opacity:1;fill-rule:nonzero;stroke:none"
         d="M 0,0 1.047,1.73 2.141,0 Z m -0.482,3.393 0.548,-0.667 -3.043,-4.622 1.827,0 0.497,0.817 3.476,0 0.519,-0.817 1.908,0 -3.655,5.289 z"
         inkscape:connector-curvature="0" />
    </g>
    <g
       id="g2604"
       transform="matrix(1.3333333,0,0,-1.3333333,370.65945,530.30684)">
      <path
         id="path2602"
         style="fill:#000000;fill-opacity:1;fill-rule:nonzero;stroke:none"
         d="m 0,0 c -1.205,0.018 -2.302,0.494 -3.119,1.264 -0.899,-0.81 -1.988,-1.291 -3.247,-1.272 -1.207,0.014 -2.299,0.492 -3.111,1.259 -0.87,-0.813 -2.056,-1.286 -3.257,-1.267 -1.156,0.015 -2.271,0.47 -3.107,1.249 -0.131,-0.122 -0.286,-0.25 -0.462,-0.376 -0.78,-0.566 -1.742,-0.895 -2.776,-0.88 -1.895,0.025 -3.518,1.193 -4.212,2.838 -0.178,0.016 -0.338,0.048 -0.476,0.09 -0.198,0.554 -0.307,1.153 -0.298,1.776 0.036,2.699 2.204,4.884 4.87,4.979 0.074,-0.109 0.153,-0.243 0.221,-0.407 l 0.022,0 c 1.193,-0.02 2.331,-0.496 3.181,-1.333 l -0.037,0.655 c 0.82,0.65 1.847,1.05 2.959,1.089 0.04,-0.06 0.148,-0.203 0.238,-0.407 1.167,-0.015 2.358,-0.53 3.184,-1.321 l -0.035,0.623 c 0.819,0.666 1.857,1.076 2.979,1.111 0.074,-0.107 0.15,-0.241 0.22,-0.405 l 0.022,0 C -5.066,9.249 -3.894,8.711 -3.054,7.91 l -0.042,0.66 c 0.825,0.663 1.858,1.07 2.98,1.113 C -0.076,9.623 0.097,9.275 0.125,9.275 2.615,9.159 4.602,7.668 4.704,4.572 4.782,2.018 2.555,-0.034 0,0 M 0.133,9.873 C -1.09,9.888 -2.224,9.48 -3.126,8.782 -3.992,9.447 -5.064,9.846 -6.233,9.861 -7.457,9.88 -8.594,9.469 -9.492,8.773 c -0.862,0.664 -1.94,1.064 -3.112,1.08 -1.215,0.02 -2.342,-0.388 -3.245,-1.074 -0.861,0.658 -1.931,1.052 -3.095,1.071 -2.884,0.038 -5.267,-2.284 -5.307,-5.166 -0.039,-2.883 2.281,-5.263 5.165,-5.303 1.216,-0.016 2.347,0.386 3.245,1.078 0.861,-0.658 1.935,-1.058 3.099,-1.073 1.224,-0.017 2.357,0.392 3.261,1.09 0.861,-0.664 1.935,-1.067 3.106,-1.081 1.223,-0.02 2.357,0.392 3.26,1.085 0.861,-0.66 1.94,-1.062 3.107,-1.079 C 2.876,-0.635 5.259,1.68 5.3,4.564 5.338,7.448 3.017,9.831 0.133,9.873"
         inkscape:connector-curvature="0" />
    </g>
    <g
       id="g2608"
       transform="matrix(1.3333333,0,0,-1.3333333,345.23625,529.2939)">
      <path
         id="path2606"
         style="fill:#000000;fill-opacity:1;fill-rule:nonzero;stroke:none"
         d="m 0,0 c -2.123,0.03 -3.83,1.779 -3.805,3.906 0.03,2.122 1.787,3.83 3.909,3.803 C 0.895,7.699 1.626,7.449 2.234,7.032 1.574,6.166 1.174,5.095 1.159,3.928 1.142,2.712 1.545,1.585 2.234,0.687 1.764,0.377 0.966,-0.011 0,0 M 1.646,2.148 C 1.443,2.705 1.335,3.305 1.347,3.928 1.362,5.081 1.764,6.139 2.432,6.982 2.689,6.99 2.95,6.994 3.099,6.994 2.305,7.765 1.237,8.216 0.111,8.231 -2.301,8.263 -4.293,6.322 -4.327,3.914 -4.353,1.809 -2.883,0.03 -0.91,-0.414 c 0.067,0.086 0.142,0.178 0.216,0.272 0.223,-0.041 0.455,-0.063 0.69,-0.067 C 0.913,-0.22 1.76,0.07 2.488,0.612 L 3.096,0.6 C 2.686,1.018 2.35,1.515 2.118,2.063 1.939,2.078 1.783,2.107 1.646,2.148"
         inkscape:connector-curvature="0" />
    </g>
    <g
       id="g2612"
       transform="matrix(1.3333333,0,0,-1.3333333,349.53838,527.07057)">
      <path
         id="path2610"
         style="fill:#000000;fill-opacity:1;fill-rule:nonzero;stroke:none"
         d="m 0,0 c -0.443,0.637 -0.699,1.411 -0.687,2.242 0.011,0.794 0.261,1.529 0.683,2.137 C 0.436,3.743 0.693,2.966 0.682,2.134 0.672,1.341 0.421,0.609 0,0 M 0.693,3.439 C 0.775,3.655 0.929,3.771 0.929,3.771 0.787,4.279 0.377,4.812 0.003,5.195 -0.723,4.423 -1.179,3.392 -1.209,2.25 -1.23,1.477 -0.933,0.253 -0.344,-0.429 -0.232,-0.56 -0.143,-0.706 0.01,-0.84 l 0.016,0.556 C 0.589,0.388 0.88,1.253 0.891,2.13 0.895,2.588 0.828,3.029 0.693,3.439"
         inkscape:connector-curvature="0" />
    </g>
    <g
       id="g2616"
       transform="matrix(1.3333333,0,0,-1.3333333,358.01225,527.0367)">
      <path
         id="path2614"
         style="fill:#000000;fill-opacity:1;fill-rule:nonzero;stroke:none"
         d="m 0,0 c -0.433,0.634 -0.682,1.402 -0.671,2.224 0.011,0.784 0.257,1.51 0.667,2.114 C 0.425,3.704 0.675,2.936 0.665,2.116 0.652,1.332 0.41,0.606 0,0 M 0.675,3.42 C 0.757,3.637 0.914,3.753 0.914,3.753 0.791,4.186 0.351,4.819 0,5.169 -0.728,4.401 -1.178,3.37 -1.192,2.231 -1.208,1.042 -0.742,-0.048 0.023,-0.85 l 0.014,0.519 C 0.508,0.426 0.862,1.156 0.873,2.112 0.881,2.566 0.81,3.008 0.675,3.42"
         inkscape:connector-curvature="0" />
    </g>
    <g
       id="g2620"
       transform="matrix(1.3333333,0,0,-1.3333333,362.18611,529.27297)">
      <path
         id="path2618"
         style="fill:#000000;fill-opacity:1;fill-rule:nonzero;stroke:none"
         d="m 0,0 c -0.8,0.012 -1.538,0.26 -2.15,0.686 0.653,0.861 1.048,1.927 1.063,3.088 0.019,1.213 -0.384,2.335 -1.07,3.235 0.641,0.451 1.421,0.708 2.261,0.697 C 0.898,7.694 1.637,7.44 2.244,7.019 1.591,6.157 1.196,5.091 1.181,3.93 1.166,2.719 1.565,1.591 2.251,0.693 1.782,0.383 0.976,-0.016 0,0 M 1.666,2.151 C 1.465,2.708 1.36,3.304 1.368,3.926 1.383,5.079 1.79,6.139 2.454,6.982 L 3.11,6.979 C 2.293,7.746 1.26,8.212 0.112,8.228 -1.075,8.242 -2.161,7.784 -2.956,7.028 -2.128,6.165 -1.665,4.986 -1.684,3.782 -1.698,2.632 -2.157,1.491 -2.937,0.66 c 0.557,-0.523 1.25,-0.904 2.026,-1.077 0.067,0.088 0.142,0.181 0.216,0.275 0.224,-0.041 0.456,-0.064 0.69,-0.067 0.992,-0.016 1.828,0.347 2.537,0.825 L 3.09,0.631 C 2.693,1.044 2.368,1.528 2.14,2.063 1.959,2.076 1.805,2.11 1.666,2.151"
         inkscape:connector-curvature="0" />
    </g>
    <g
       id="g2624"
       transform="matrix(1.3333333,0,0,-1.3333333,370.67251,529.26257)">
      <path
         id="path2622"
         style="fill:#000000;fill-opacity:1;fill-rule:nonzero;stroke:none"
         d="m 0,0 c -0.793,0.009 -1.532,0.26 -2.144,0.685 0.657,0.858 1.049,1.929 1.067,3.089 0.015,1.212 -0.388,2.338 -1.074,3.237 0.638,0.447 1.418,0.709 2.256,0.698 C 2.229,7.68 3.937,5.923 3.91,3.8 3.881,1.677 2.124,-0.027 0,0 M 4.157,5.437 C 3.809,6.673 2.056,8.232 0.113,8.232 -1.069,8.248 -2.151,7.787 -2.953,7.034 -2.125,6.165 -1.658,4.982 -1.672,3.781 -1.687,2.662 -2.14,1.461 -2.938,0.658 c 0.56,-0.518 1.254,-0.897 2.029,-1.073 0.067,0.086 0.141,0.178 0.217,0.276 0.224,-0.044 0.455,-0.068 0.689,-0.07 2.239,-0.03 4.088,1.768 4.122,4.005 0.004,0.46 -0.067,0.899 -0.202,1.309 0.082,0.217 0.24,0.332 0.24,0.332"
         inkscape:connector-curvature="0" />
    </g>
    <g
       id="g2628"
       transform="matrix(1.3333333,0,0,-1.3333333,366.50118,527.0315)">
      <path
         id="path2626"
         style="fill:#000000;fill-opacity:1;fill-rule:nonzero;stroke:none"
         d="m 0,0 c -0.437,0.634 -0.687,1.406 -0.674,2.231 0.011,0.783 0.257,1.511 0.666,2.115 C 0.429,3.714 0.682,2.944 0.673,2.119 0.662,1.333 0.415,0.604 0,0 M 0.679,3.424 C 0.765,3.641 0.918,3.756 0.918,3.756 0.779,4.256 0.366,4.797 -0.008,5.177 -0.73,4.406 -1.182,3.377 -1.197,2.239 -1.212,1.033 -0.738,-0.063 0.042,-0.869 l 0.007,0.535 C 0.609,0.429 0.865,1.108 0.88,2.116 0.884,2.57 0.817,3.011 0.679,3.424"
         inkscape:connector-curvature="0" />
    </g>
    <g
       id="g2632"
       transform="matrix(1.3333333,0,0,-1.3333333,353.69532,529.28337)">
      <path
         id="path2630"
         style="fill:#000000;fill-opacity:1;fill-rule:nonzero;stroke:none"
         d="m 0,0 c -0.791,0.01 -1.521,0.254 -2.129,0.674 0.66,0.862 1.059,1.936 1.074,3.1 0.013,1.22 -0.391,2.351 -1.081,3.25 0.637,0.439 1.41,0.693 2.237,0.682 C 0.9,7.695 1.637,7.441 2.25,7.017 1.599,6.155 1.202,5.087 1.186,3.928 1.172,2.719 1.569,1.597 2.254,0.697 1.787,0.385 0.977,-0.016 0,0 M 1.671,2.148 C 1.469,2.705 1.367,3.305 1.373,3.928 1.388,5.079 1.795,6.139 2.463,6.982 L 3.089,6.996 C 2.257,7.765 1.276,8.213 0.108,8.228 -1.07,8.244 -2.141,7.788 -2.935,7.036 -2.11,6.155 -1.638,5.047 -1.652,3.782 -1.667,2.614 -2.136,1.485 -2.935,0.649 c 0.557,-0.523 1.279,-0.899 2.025,-1.067 0.067,0.09 0.138,0.182 0.217,0.278 0.224,-0.042 0.455,-0.066 0.689,-0.068 0.821,-0.013 1.889,0.264 2.514,0.832 L 3.099,0.626 C 2.7,1.038 2.373,1.526 2.146,2.063 1.966,2.078 1.809,2.107 1.671,2.148"
         inkscape:connector-curvature="0" />
    </g>
  </g>
</svg>
