<?xml version="1.0" encoding="UTF-8" standalone="no"?>
<!-- Created with Inkscape (http://www.inkscape.org/) -->

<svg
   xmlns:dc="http://purl.org/dc/elements/1.1/"
   xmlns:cc="http://creativecommons.org/ns#"
   xmlns:rdf="http://www.w3.org/1999/02/22-rdf-syntax-ns#"
   xmlns:svg="http://www.w3.org/2000/svg"
   xmlns="http://www.w3.org/2000/svg"
   xmlns:sodipodi="http://sodipodi.sourceforge.net/DTD/sodipodi-0.dtd"
   xmlns:inkscape="http://www.inkscape.org/namespaces/inkscape"
   width="9.579751mm"
   height="9.5789986mm"
   viewBox="0 0 33.944 33.941334"
   id="svg38115"
   version="1.1"
   inkscape:version="0.91 r13725"
   sodipodi:docname="bmw.svg">
  <defs
     id="defs38117" />
  <sodipodi:namedview
     id="base"
     pagecolor="#ffffff"
     bordercolor="#666666"
     borderopacity="1.0"
     inkscape:pageopacity="0.0"
     inkscape:pageshadow="2"
     inkscape:zoom="7.9195959"
     inkscape:cx="16.972"
     inkscape:cy="16.970666"
     inkscape:document-units="px"
     inkscape:current-layer="layer1"
     showgrid="false"
     fit-margin-top="0"
     fit-margin-left="0"
     fit-margin-right="0"
     fit-margin-bottom="0"
     inkscape:window-width="751"
     inkscape:window-height="405"
     inkscape:window-x="608"
     inkscape:window-y="268"
     inkscape:window-maximized="0" />
  <metadata
     id="metadata38120">
    <rdf:RDF>
      <cc:Work
         rdf:about="">
        <dc:format>image/svg+xml</dc:format>
        <dc:type
           rdf:resource="http://purl.org/dc/dcmitype/StillImage" />
        <dc:title></dc:title>
      </cc:Work>
    </rdf:RDF>
  </metadata>
  <g
     inkscape:label="Layer 1"
     inkscape:groupmode="layer"
     id="layer1"
     transform="translate(-341.05343,-512.26657)">
    <g
       id="g2566"
       transform="matrix(1.3333333,0,0,-1.3333333,358.02543,545.7399)">
      <path
         id="path2564"
         style="fill:#000000;fill-opacity:1;fill-rule:nonzero;stroke:none"
         d="m 0,0 c -6.825,0 -12.377,5.552 -12.377,12.377 0,6.826 5.552,12.376 12.377,12.376 6.825,0 12.376,-5.55 12.376,-12.376 C 12.376,5.552 6.825,0 0,0 m 0,25.105 c -7.019,0 -12.729,-5.71 -12.729,-12.728 0,-7.018 5.71,-12.728 12.729,-12.728 7.018,0 12.729,5.71 12.729,12.728 0,7.018 -5.711,12.728 -12.729,12.728"
         inkscape:connector-curvature="0" />
    </g>
    <g
       id="g2570"
       transform="matrix(1.3333333,0,0,-1.3333333,348.35156,522.57457)">
      <path
         id="path2568"
         style="fill:#000000;fill-opacity:1;fill-rule:nonzero;stroke:none"
         d="m 0,0 c 0.013,-0.01 0.026,-0.021 0.038,-0.03 0.002,-0.001 0.01,0.009 0.01,0.01 0.248,0.311 0.497,0.622 0.745,0.93 0.09,0.113 0.182,0.226 0.272,0.34 C 1.155,1.364 1.174,1.512 1.12,1.646 1.052,1.784 0.917,1.877 0.76,1.871 0.63,1.866 0.529,1.797 0.451,1.699 0.341,1.562 0.231,1.424 0.122,1.287 -0.104,1.007 -0.329,0.725 -0.553,0.444 -0.437,0.35 -0.319,0.257 -0.203,0.163 -0.134,0.109 -0.066,0.055 0,0"
         inkscape:connector-curvature="0" />
    </g>
    <g
       id="g2574"
       transform="matrix(1.3333333,0,0,-1.3333333,367.67449,524.00097)">
      <path
         id="path2572"
         style="fill:#000000;fill-opacity:1;fill-rule:nonzero;stroke:none"
         d="M 0,0 -0.436,0.747 1.066,2.72 -1.188,1.687 -1.821,2.273 0.234,4.974 0.868,4.386 -0.318,2.829 1.58,3.699 2.134,3.007 0.869,1.346 2.648,2.163 3.084,1.416 Z m -7.237,-11.525 c -4.196,0 -7.597,3.402 -7.597,7.598 0,4.196 3.401,7.597 7.597,7.597 4.196,0 7.597,-3.401 7.597,-7.597 0,-4.196 -3.401,-7.598 -7.597,-7.598 M -16.874,1.84 c -0.091,0.075 -0.182,0.149 -0.274,0.222 -0.003,0.001 -0.034,0.026 -0.033,0.027 0.015,0.019 0.031,0.039 0.048,0.058 0.236,0.296 0.471,0.591 0.708,0.886 0.276,0.344 0.55,0.688 0.826,1.031 0.053,0.065 0.105,0.132 0.159,0.198 0.092,0.116 0.216,0.204 0.355,0.258 0.295,0.109 0.636,0.037 0.861,-0.183 0.111,-0.108 0.189,-0.245 0.226,-0.395 0.037,-0.155 0.024,-0.307 -0.02,-0.457 0.021,0.017 0.04,0.036 0.061,0.052 0.267,0.186 0.617,0.239 0.917,0.102 0.302,-0.137 0.497,-0.409 0.542,-0.734 0.012,-0.121 0.006,-0.244 -0.029,-0.363 -0.07,-0.228 -0.231,-0.401 -0.377,-0.581 -0.282,-0.354 -0.565,-0.706 -0.848,-1.059 -0.235,-0.296 -0.472,-0.589 -0.706,-0.883 -0.019,-0.023 -0.036,-0.044 -0.053,-0.066 -0.004,-0.005 -0.024,0.016 -0.028,0.02 -0.087,0.07 -0.175,0.139 -0.262,0.21 -0.345,0.275 -0.687,0.55 -1.031,0.825 -0.347,0.277 -0.694,0.557 -1.042,0.832 m 7.674,5.629 1.139,0.126 0.824,-2.405 0.824,2.405 1.139,-0.126 0.126,-3.419 -0.887,0.126 -0.085,2.28 -0.8,-2.28 -0.635,0 -0.801,2.28 L -8.44,4.176 -9.326,4.05 Z m 1.963,0.759 c -6.714,0 -12.155,-5.442 -12.155,-12.155 0,-6.713 5.441,-12.156 12.155,-12.156 6.714,0 12.156,5.443 12.156,12.156 0,6.713 -5.442,12.155 -12.156,12.155"
         inkscape:connector-curvature="0" />
    </g>
    <g
       id="g2578"
       transform="matrix(1.3333333,0,0,-1.3333333,348.31569,519.68203)">
      <path
         id="path2576"
         style="fill:#000000;fill-opacity:1;fill-rule:nonzero;stroke:none"
         d="m 0,0 c 0.028,0.125 0,0.254 -0.088,0.35 -0.105,0.116 -0.279,0.155 -0.426,0.095 -0.107,-0.044 -0.171,-0.137 -0.24,-0.226 -0.268,-0.333 -0.534,-0.665 -0.799,-0.998 -0.004,-0.004 -0.062,-0.075 -0.06,-0.077 0.054,-0.043 0.108,-0.086 0.163,-0.13 0.142,-0.116 0.286,-0.229 0.428,-0.344 0.142,0.176 0.281,0.351 0.421,0.527 0.142,0.175 0.281,0.35 0.422,0.524 C -0.11,-0.191 -0.031,-0.11 0,0"
         inkscape:connector-curvature="0" />
    </g>
    <g
       id="g2582"
       transform="matrix(1.3333333,0,0,-1.3333333,348.40889,529.23736)">
      <path
         id="path2580"
         style="fill:#000000;fill-opacity:1;fill-rule:nonzero;stroke:none"
         d="m 0,0 7.212,0 0,7.212 C 3.275,7.109 0.103,3.937 0,0"
         inkscape:connector-curvature="0" />
    </g>
    <g
       id="g2586"
       transform="matrix(1.3333333,0,0,-1.3333333,358.02476,538.8551)">
      <path
         id="path2584"
         style="fill:#000000;fill-opacity:1;fill-rule:nonzero;stroke:none"
         d="M 0,0 C 3.938,0.104 7.11,3.277 7.213,7.213 L 0,7.213 Z"
         inkscape:connector-curvature="0" />
    </g>
  </g>
</svg>
