<?xml version="1.0" encoding="UTF-8" standalone="no"?>
<!-- Created with Inkscape (http://www.inkscape.org/) -->

<svg
   xmlns:dc="http://purl.org/dc/elements/1.1/"
   xmlns:cc="http://creativecommons.org/ns#"
   xmlns:rdf="http://www.w3.org/1999/02/22-rdf-syntax-ns#"
   xmlns:svg="http://www.w3.org/2000/svg"
   xmlns="http://www.w3.org/2000/svg"
   xmlns:sodipodi="http://sodipodi.sourceforge.net/DTD/sodipodi-0.dtd"
   xmlns:inkscape="http://www.inkscape.org/namespaces/inkscape"
   width="9.4081602mm"
   height="9.4092884mm"
   viewBox="0 0 33.336003 33.339998"
   id="svg38115"
   version="1.1"
   inkscape:version="0.91 r13725"
   sodipodi:docname="fiat.svg">
  <defs
     id="defs38117" />
  <sodipodi:namedview
     id="base"
     pagecolor="#ffffff"
     bordercolor="#666666"
     borderopacity="1.0"
     inkscape:pageopacity="0.0"
     inkscape:pageshadow="2"
     inkscape:zoom="7.9195959"
     inkscape:cx="16.667997"
     inkscape:cy="16.67"
     inkscape:document-units="px"
     inkscape:current-layer="layer1"
     showgrid="false"
     fit-margin-top="0"
     fit-margin-left="0"
     fit-margin-right="0"
     fit-margin-bottom="0"
     inkscape:window-width="751"
     inkscape:window-height="405"
     inkscape:window-x="608"
     inkscape:window-y="268"
     inkscape:window-maximized="0" />
  <metadata
     id="metadata38120">
    <rdf:RDF>
      <cc:Work
         rdf:about="">
        <dc:format>image/svg+xml</dc:format>
        <dc:type
           rdf:resource="http://purl.org/dc/dcmitype/StillImage" />
        <dc:title></dc:title>
      </cc:Work>
    </rdf:RDF>
  </metadata>
  <g
     inkscape:label="Layer 1"
     inkscape:groupmode="layer"
     id="layer1"
     transform="translate(-341.35744,-512.56725)">
    <g
       transform="translate(274.16677,276.19218)"
       id="g39603">
      <g
         transform="matrix(1.3333333,0,0,-1.3333333,83.858665,236.49374)"
         id="g546">
        <path
           inkscape:connector-curvature="0"
           d="m 0,0 c 6.843,0 12.412,-5.568 12.412,-12.411 0,-0.07 -0.003,-0.142 -0.004,-0.213 -0.144,0.29 -0.357,0.533 -0.657,0.75 -0.647,0.467 -0.984,2.094 -1.049,2.72 l -0.005,0.007 c 0.044,-0.442 0.066,-0.898 0.066,-1.376 0,-0.877 -0.072,-1.81 -0.22,-2.852 -0.435,-3.052 -1.91,-6.319 -2.782,-7.321 0,0 -0.053,-0.059 -0.055,-0.06 L 7.51,-20.963 7.501,-20.969 c -2.119,-1.733 -4.067,-2.348 -7.445,-2.348 l -0.023,0 c -3.379,0 -5.329,0.615 -7.449,2.348 l -0.008,0.006 c 0,0 -0.201,0.211 -0.201,0.212 0,0 -0.057,0.063 -0.049,0.054 -0.869,1.001 -2.348,4.268 -2.783,7.322 -0.148,1.042 -0.219,1.975 -0.219,2.852 0,0.449 0.031,0.865 0.072,1.28 l -0.012,-0.064 c -0.062,-0.628 -0.251,-1.678 -0.942,-2.086 -0.368,-0.218 -0.69,-0.597 -0.851,-1.179 -10e-4,0.052 -0.003,0.106 -0.003,0.159 C -12.412,-5.568 -6.844,0 0,0 m 0,0.089 c -6.894,0 -12.501,-5.61 -12.501,-12.502 0,-6.893 5.607,-12.503 12.501,-12.503 6.893,0 12.501,5.61 12.501,12.503 C 12.501,-5.521 6.894,0.089 0,0.089"
           style="fill:#000000;fill-opacity:1;fill-rule:nonzero;stroke:none"
           id="path544" />
      </g>
      <g
         transform="matrix(1.3333333,0,0,-1.3333333,70.417998,254.76254)"
         id="g550">
        <path
           inkscape:connector-curvature="0"
           d="M 0,0 C 0.005,-0.031 0.011,-0.064 0.016,-0.097 0.037,-0.213 0.058,-0.33 0.082,-0.446 0.083,-0.454 0.084,-0.462 0.085,-0.47 0.11,-0.593 0.136,-0.715 0.164,-0.837 0.173,-0.87 0.181,-0.907 0.187,-0.941 0.212,-1.048 0.238,-1.156 0.264,-1.264 0.27,-1.28 0.271,-1.294 0.275,-1.311 c 0.03,-0.119 0.062,-0.238 0.093,-0.355 0.01,-0.037 0.019,-0.072 0.03,-0.109 0.028,-0.101 0.056,-0.199 0.085,-0.3 0.008,-0.021 0.013,-0.042 0.019,-0.064 0.034,-0.113 0.07,-0.228 0.105,-0.341 0.012,-0.038 0.024,-0.075 0.035,-0.109 0.03,-0.092 0.06,-0.182 0.09,-0.271 C 0.742,-2.888 0.75,-2.916 0.76,-2.942 0.796,-3.052 0.834,-3.156 0.873,-3.263 0.885,-3.3 0.898,-3.338 0.911,-3.372 0.942,-3.455 0.974,-3.538 1.003,-3.62 1.015,-3.648 1.026,-3.679 1.037,-3.707 1.076,-3.807 1.116,-3.909 1.156,-4.008 1.169,-4.042 1.183,-4.076 1.197,-4.109 1.228,-4.185 1.259,-4.264 1.292,-4.337 1.303,-4.366 1.315,-4.395 1.328,-4.421 1.369,-4.517 1.409,-4.609 1.449,-4.7 1.463,-4.731 1.476,-4.76 1.489,-4.79 1.522,-4.862 1.556,-4.93 1.588,-5.002 1.6,-5.025 1.612,-5.05 1.623,-5.076 1.664,-5.161 1.706,-5.246 1.748,-5.328 1.76,-5.352 1.771,-5.375 1.784,-5.4 1.818,-5.465 1.852,-5.532 1.885,-5.595 1.893,-5.609 1.9,-5.623 1.907,-5.636 l 10e-4,0 c 0.449,-0.577 0.913,-0.726 1.057,-0.643 0.119,0.071 0.167,0.527 0.075,1.154 -0.055,0.172 -0.107,0.344 -0.161,0.518 -0.018,0.059 -0.037,0.119 -0.056,0.177 -0.087,0.288 -0.171,0.577 -0.25,0.87 -0.01,0.03 -0.016,0.062 -0.026,0.095 -0.069,0.255 -0.135,0.512 -0.198,0.77 -0.021,0.089 -0.043,0.178 -0.064,0.267 -0.048,0.203 -0.096,0.405 -0.14,0.608 -0.023,0.103 -0.046,0.205 -0.066,0.308 -0.043,0.193 -0.082,0.387 -0.12,0.578 -0.021,0.104 -0.042,0.207 -0.06,0.31 C 1.86,-0.421 1.824,-0.221 1.79,-0.02 1.773,0.068 1.757,0.159 1.742,0.248 1.695,0.534 1.649,0.82 1.609,1.103 1.202,3.907 1.218,6.428 1.82,7.965 1.9,8.17 1.987,8.319 2.053,8.417 c 0.065,0.093 0.114,0.14 0.114,0.14 1.243,1.246 4.607,1.87 7.972,1.87 3.363,0 6.727,-0.624 7.972,-1.87 0,0 0.047,-0.047 0.113,-0.14 C 18.289,8.319 18.375,8.17 18.455,7.965 19.059,6.428 19.075,3.907 18.666,1.103 18.626,0.82 18.583,0.534 18.534,0.248 18.519,0.154 18.502,0.061 18.484,-0.033 18.451,-0.229 18.417,-0.424 18.379,-0.621 18.358,-0.73 18.337,-0.843 18.314,-0.952 c -0.037,-0.183 -0.073,-0.365 -0.113,-0.545 -0.023,-0.116 -0.048,-0.231 -0.075,-0.346 -0.039,-0.182 -0.083,-0.365 -0.125,-0.548 -0.025,-0.11 -0.053,-0.22 -0.079,-0.33 -0.051,-0.205 -0.105,-0.409 -0.159,-0.613 -0.022,-0.083 -0.043,-0.169 -0.067,-0.253 -0.076,-0.28 -0.154,-0.559 -0.239,-0.834 -0.028,-0.091 -0.055,-0.178 -0.084,-0.266 -0.049,-0.155 -0.096,-0.31 -0.145,-0.463 -0.087,-0.612 -0.038,-1.06 0.081,-1.129 0.134,-0.079 0.561,0.055 0.992,0.564 0.146,0.271 0.297,0.571 0.447,0.899 10e-4,0.003 0.002,0.005 0.002,0.008 0.099,0.216 0.197,0.441 0.293,0.675 0.005,0.009 0.008,0.018 0.011,0.028 0.048,0.114 0.092,0.229 0.139,0.348 0.002,0.001 0.002,0.001 0.002,0.003 0.045,0.118 0.092,0.238 0.135,0.362 0.005,0.015 0.012,0.031 0.017,0.045 0.043,0.118 0.084,0.236 0.127,0.354 0.001,0.004 0.003,0.01 0.003,0.014 0.042,0.123 0.083,0.245 0.123,0.369 0.007,0.022 0.014,0.046 0.021,0.068 0.038,0.117 0.075,0.235 0.11,0.354 0.003,0.006 0.005,0.015 0.007,0.023 0.038,0.124 0.073,0.248 0.108,0.373 0.007,0.028 0.014,0.054 0.022,0.08 0.032,0.121 0.064,0.242 0.095,0.363 0.003,0.007 0.003,0.013 0.005,0.021 0.032,0.124 0.06,0.251 0.091,0.377 0.006,0.03 0.014,0.06 0.021,0.089 0.027,0.122 0.053,0.247 0.076,0.366 0.002,0.007 0.003,0.012 0.007,0.018 0.023,0.125 0.046,0.252 0.068,0.378 0.006,0.03 0.011,0.061 0.017,0.091 0.021,0.128 0.041,0.255 0.058,0.38 0.147,1.027 0.218,1.945 0.218,2.808 0,1.592 -0.25,2.954 -0.766,4.161 -0.385,0.905 -1.035,1.662 -1.878,2.191 -2.096,1.315 -4.475,2.089 -6.884,2.236 -0.283,0.017 -0.573,0.025 -0.86,0.025 l -0.022,0 c -0.289,0 -0.576,-0.008 -0.86,-0.025 C 6.848,11.62 4.466,10.846 2.37,9.531 1.526,9.002 0.877,8.245 0.491,7.34 -0.024,6.133 -0.275,4.771 -0.275,3.179 c 0,-0.861 0.072,-1.78 0.217,-2.806 C -0.041,0.248 -0.021,0.123 0,0"
           style="fill:#000000;fill-opacity:1;fill-rule:nonzero;stroke:none"
           id="path548" />
      </g>
      <g
         transform="matrix(1.3333333,0,0,-1.3333333,89.353464,265.52561)"
         id="g554">
        <path
           inkscape:connector-curvature="0"
           d="m 0,0 c -0.004,-0.001 -0.009,-0.002 -0.016,-0.004 -0.105,-0.034 -0.211,-0.061 -0.318,-0.088 -0.018,-0.006 -0.037,-0.011 -0.056,-0.016 -0.124,-0.031 -0.249,-0.059 -0.373,-0.083 -0.989,-0.193 -2.109,-0.3 -3.285,-0.3 l -0.03,0 c -1.179,0 -2.297,0.107 -3.285,0.3 -0.115,0.022 -0.228,0.048 -0.343,0.074 -0.108,0.027 -0.213,0.056 -0.319,0.089 -0.008,0.001 -0.016,0.002 -0.022,0.005 -0.594,0.143 -1.375,0.333 -1.406,0.216 -0.039,-0.141 0.384,-0.505 0.771,-0.731 0.002,-0.003 0.005,-0.004 0.009,-0.006 0.016,-0.005 0.032,-0.012 0.048,-0.017 0.025,-0.01 0.052,-0.018 0.077,-0.028 0.119,-0.045 0.24,-0.086 0.362,-0.126 0.016,-0.003 0.033,-0.008 0.05,-0.012 0.115,-0.037 0.231,-0.069 0.349,-0.101 0.025,-0.006 0.049,-0.012 0.073,-0.02 0.123,-0.031 0.25,-0.061 0.379,-0.088 0.031,-0.005 0.063,-0.014 0.094,-0.019 0.129,-0.026 0.261,-0.051 0.394,-0.071 0.029,-0.007 0.059,-0.01 0.09,-0.015 0.139,-0.023 0.28,-0.043 0.427,-0.061 0.013,-10e-4 0.026,-0.004 0.04,-0.004 0.142,-0.019 0.287,-0.033 0.435,-0.046 0.025,-0.002 0.052,-0.005 0.079,-0.006 0.152,-0.013 0.308,-0.024 0.466,-0.031 0.034,-0.003 0.064,-0.006 0.099,-0.006 0.16,-0.009 0.324,-0.015 0.492,-0.019 0.028,0 0.054,-0.001 0.083,-0.001 0.18,-0.005 0.359,-0.007 0.548,-0.007 l 0.023,0 c 0.186,0 0.366,0.002 0.544,0.007 0.03,0 0.058,0.001 0.087,0.001 0.167,0.004 0.331,0.01 0.493,0.019 0.033,0 0.066,0.003 0.099,0.006 0.159,0.009 0.315,0.018 0.467,0.031 0.025,0.002 0.051,0.005 0.076,0.006 0.144,0.013 0.285,0.027 0.424,0.043 0.018,0.003 0.038,0.007 0.057,0.008 0.142,0.017 0.281,0.038 0.418,0.06 0.035,0.005 0.068,0.009 0.102,0.016 0.131,0.021 0.259,0.044 0.384,0.071 0.036,0.007 0.07,0.015 0.104,0.021 0.126,0.028 0.252,0.057 0.374,0.088 0.026,0.006 0.051,0.013 0.077,0.021 0.108,0.029 0.213,0.06 0.32,0.092 0.03,0.008 0.058,0.016 0.087,0.025 0.114,0.038 0.226,0.076 0.338,0.116 0.035,0.013 0.071,0.026 0.104,0.039 0.019,0.007 0.036,0.011 0.055,0.021 0.003,0 0.005,0.003 0.009,0.004 0.382,0.228 0.789,0.583 0.75,0.718 C 1.273,0.303 0.577,0.139 0,0"
           style="fill:#000000;fill-opacity:1;fill-rule:nonzero;stroke:none"
           id="path552" />
      </g>
      <g
         transform="matrix(1.3333333,0,0,-1.3333333,94.345064,244.54321)"
         id="g558">
        <path
           inkscape:connector-curvature="0"
           d="M 0,0 C 0.001,-0.004 0.004,-0.008 0.007,-0.013 0.064,-0.16 0.116,-0.321 0.163,-0.492 0.215,-2.629 0.171,-5.376 -0.121,-8.401 -0.213,-8.875 -0.314,-9.342 -0.423,-9.802 0.036,-5.984 0.08,-2.509 0,0 m -0.9,-3.021 0.13,0 0,1.521 -0.123,0 c -0.004,0.894 -0.018,1.72 -0.041,2.455 0.052,-0.028 0.102,-0.059 0.15,-0.087 0.107,-3.642 0.043,-9.418 -0.806,-14.538 -0.062,-0.148 -0.127,-0.258 -0.208,-0.355 0.632,3.639 0.857,7.647 0.898,11.004 m -1.35,-8.695 0.148,0 c -0.096,-0.981 -0.213,-1.93 -0.35,-2.82 -0.056,-0.033 -0.111,-0.063 -0.166,-0.096 0.147,0.921 0.267,1.9 0.368,2.916 m -1.432,8.695 0.061,0 c -10e-4,-0.217 -0.018,-3.592 -0.03,-6.07 -0.078,-2.295 -0.197,-4.451 -0.376,-6.138 -0.051,-0.013 -0.1,-0.026 -0.151,-0.041 0.339,3.145 0.466,7.952 0.496,12.249 m -1.085,-8.695 0.145,0 c -0.05,-1.387 -0.113,-2.648 -0.193,-3.694 -0.048,-0.009 -0.098,-0.017 -0.145,-0.025 0.08,1.05 0.144,2.322 0.193,3.719 m -1.716,4.449 0.143,0 c -0.02,-3.213 -0.051,-6.247 -0.098,-8.349 -0.046,-0.002 -0.094,-0.008 -0.142,-0.009 0.048,2.1 0.078,5.141 0.097,8.358 m -0.942,-4.445 0.141,0 -0.009,-3.947 c -0.047,-10e-4 -0.094,-0.003 -0.142,-0.004 z m -0.896,-3.951 -0.008,3.951 0.14,0 0.009,-3.955 c -0.047,10e-4 -0.094,0.003 -0.141,0.004 m -0.916,3.947 0.141,0 c 0.017,-1.487 0.037,-2.826 0.061,-3.912 -0.048,0.002 -0.094,0.007 -0.142,0.011 -0.023,1.085 -0.044,2.42 -0.06,3.901 m -1.562,-3.697 c -0.233,3.047 -0.325,7.923 -0.349,12.365 l 0.142,0 c 0.027,-4.456 0.119,-9.348 0.353,-12.39 -0.051,0.008 -0.097,0.018 -0.146,0.025 m -0.789,0.184 c -0.226,2.133 -0.357,5.016 -0.426,7.984 l 0.144,0 c 0.071,-2.987 0.203,-5.889 0.432,-8.025 -0.048,0.015 -0.099,0.028 -0.15,0.041 m -1.104,3.514 0.147,-10e-4 c 0.088,-1.187 0.197,-2.302 0.333,-3.296 -0.053,0.021 -0.104,0.043 -0.156,0.066 -0.132,0.977 -0.237,2.071 -0.324,3.231 m -0.821,0.008 0.147,-10e-4 c 0.1,-1.02 0.223,-2.002 0.368,-2.924 -0.054,0.033 -0.108,0.063 -0.162,0.096 -0.139,0.894 -0.255,1.847 -0.353,2.829 m 0.646,10.197 -0.146,0.003 c -10e-4,1.122 0.008,2.178 0.022,3.116 0.046,0.014 0.096,0.027 0.146,0.039 -0.014,-0.949 -0.022,-2.019 -0.022,-3.158 m 2.783,0.008 -0.142,-10e-4 c -0.003,1.266 -0.003,2.483 0,3.594 0.046,0.006 0.092,0.009 0.139,0.013 -10e-4,-1.115 -10e-4,-2.333 0.003,-3.606 m 2.829,3.701 -0.008,-3.711 -0.138,0 0.009,3.714 C -7.345,2.201 -7.3,2.201 -7.255,2.199 m 3.725,-3.709 -0.144,0 c 10e-4,1.202 -0.003,2.343 -0.012,3.362 0.048,-0.008 0.097,-0.017 0.143,-0.027 0.01,-1.013 0.015,-2.143 0.013,-3.335 m 0.928,0.003 -0.144,0 c 0,1.138 -0.008,2.207 -0.022,3.155 0.049,-0.012 0.098,-0.025 0.146,-0.039 0.013,-0.938 0.021,-1.991 0.02,-3.116 m -1.873,-2.904 c -0.041,0.231 -0.087,0.457 -0.138,0.681 0.002,0.236 0.003,0.473 0.005,0.709 l 0.142,0 c -0.003,-0.46 -0.005,-0.924 -0.009,-1.39 m -5.506,-7.106 -0.143,0 -0.265,0 -0.189,9.815 0.352,0 0.142,0 0.789,10e-4 0.13,0 -0.027,-9.816 -0.047,0 z m 4.593,9.983 -0.011,0.022 -0.11,0 -0.022,0 c 0.003,1.274 0.003,2.497 0.002,3.616 0.048,-0.004 0.094,-0.007 0.141,-0.013 0.003,-1.12 0.003,-2.347 0,-3.625 m -0.083,-9.047 c -0.01,0.938 -0.036,2.35 -0.098,3.12 -0.013,0.152 -0.025,0.28 -0.041,0.373 l -0.002,0.02 -0.728,0 -0.141,0 -0.653,0 -0.009,-4.445 -0.141,0 -0.141,0 -0.765,0 -0.08,0 -0.075,6.497 -0.039,3.303 0.032,0 0.139,0 0.812,0 0.138,0 0.805,0 0.14,0 0.787,0 0.009,0 c 0.046,-0.089 0.088,-0.182 0.132,-0.274 0.367,-0.803 0.609,-1.757 0.768,-2.762 0.054,-0.334 0.097,-0.675 0.132,-1.019 0.197,-1.886 0.157,-3.837 0.131,-5.257 -0.005,-0.174 -0.008,-0.338 -0.012,-0.492 l -0.245,0 -0.144,0 -0.705,0 0,0.002 c 0,0.012 -0.001,0.396 -0.006,0.934 m 2.562,-0.936 -0.146,0 -0.409,0 0.045,8.674 0,0.022 -0.117,0 -0.144,0 -0.785,0 -0.006,0 0,1.108 0.01,0 0.786,0.002 0.145,0 0.784,0.005 0.144,0 0.782,0.004 0.147,0 0.704,10e-4 0,-1.12 -0.709,0 -0.147,0 -0.18,0 -0.29,-8.696 z M -4.465,1.981 c 0.006,-1.07 0.008,-2.254 0.005,-3.493 l -0.144,-0.002 c 0.003,1.247 0.002,2.438 -0.004,3.515 0.049,-0.007 0.095,-0.013 0.143,-0.02 M -6.453,2.17 c 0.048,-0.002 0.095,-0.004 0.141,-0.007 -10e-4,-1.146 -0.002,-2.39 -0.005,-3.675 l -0.14,0 c 10e-4,1.288 0.004,2.533 0.004,3.682 m -1.769,0.032 0.009,-3.714 -0.139,0 -0.008,3.711 c 0.045,0.002 0.091,0.002 0.138,0.003 M -9.301,2.163 c 0.046,0.003 0.093,0.005 0.138,0.007 0,-1.146 0.002,-2.384 0.005,-3.67 l -0.138,0 c -0.003,1.281 -0.005,2.519 -0.005,3.663 m -2.601,-7.879 -0.144,0 c -0.015,0.9 -0.025,1.794 -0.03,2.668 l 0.144,0 c 0.005,-0.874 0.016,-1.768 0.03,-2.668 m -0.033,2.868 -0.144,0 -0.444,0 0,-3.069 0.481,0 0.145,0 0.443,0 0,-1.129 -0.421,0 -0.145,0 -0.503,0 0.016,-4.471 -0.053,10e-4 -0.146,10e-4 -0.677,0.007 -0.148,10e-4 -0.134,10e-4 -0.079,2.783 -0.196,6.824 -0.006,0.197 0.005,0 0.148,-0.003 0.781,-0.004 0.145,0 0.784,-0.004 0.144,-0.003 0.785,-0.004 0.013,0 0,-1.128 -0.008,0 z m -0.136,4.673 c 0.048,0.01 0.095,0.019 0.144,0.027 -0.011,-1.021 -0.015,-2.162 -0.012,-3.367 l -0.144,10e-4 c -0.003,1.194 0.002,2.325 0.012,3.339 m -1.722,-3.329 -0.148,0.001 c 0.002,1.021 0.013,1.972 0.032,2.816 0.046,0.018 0.097,0.037 0.146,0.055 -0.019,-0.858 -0.029,-1.829 -0.03,-2.872 m 2.781,-0.016 -0.143,0.001 c -0.002,1.242 -0.001,2.427 0.004,3.5 0.048,0.007 0.095,0.013 0.143,0.02 -0.005,-1.08 -0.007,-2.272 -0.004,-3.521 m 1.158,-14.033 c -0.048,0.005 -0.096,0.011 -0.145,0.018 -0.05,1.066 -0.089,2.373 -0.121,3.819 l 0.143,0 c 0.032,-1.455 0.073,-2.769 0.123,-3.837 m 4.238,0.021 c -0.048,-0.007 -0.097,-0.011 -0.145,-0.019 0.052,1.069 0.092,2.381 0.124,3.835 l 0.142,0 c -0.032,-1.446 -0.071,-2.752 -0.121,-3.816 m 2.369,0.584 c -0.05,-0.021 -0.102,-0.043 -0.154,-0.064 0.133,0.994 0.243,2.109 0.331,3.296 l 0.147,0 c -0.086,-1.16 -0.193,-2.253 -0.324,-3.232 m 1.268,6.907 c 0.074,1.427 0.118,2.856 0.143,4.22 0.012,0.449 0.021,0.742 0.024,0.8 l 0.131,0 c -0.028,-2.76 -0.143,-5.857 -0.42,-8.69 0.003,0.119 0.06,1.809 0.122,3.67 m 0.275,9.354 c 0.018,-0.844 0.03,-1.795 0.031,-2.816 l -0.147,0 c 0,1.042 -0.013,2.013 -0.031,2.871 0.048,-0.017 0.099,-0.037 0.147,-0.055 m -12.321,-14.982 c -0.849,5.12 -0.911,10.896 -0.806,14.537 0.049,0.028 0.099,0.059 0.15,0.087 -0.11,-3.72 -0.048,-9.733 0.865,-14.981 -0.083,0.098 -0.147,0.208 -0.209,0.357 m -1.752,13.179 c 0.046,0.169 0.099,0.33 0.157,0.477 0.002,0.007 0.003,0.011 0.006,0.015 -0.079,-2.511 -0.037,-5.988 0.423,-9.809 -0.108,0.464 -0.209,0.935 -0.303,1.412 -0.293,3.023 -0.335,5.769 -0.283,7.905 M 0.048,0.003 c -0.056,0.143 -0.125,0.277 -0.204,0.391 -0.047,0.072 -0.081,0.107 -0.083,0.11 -1.059,1.059 -4.029,1.746 -7.568,1.746 -3.537,0 -6.508,-0.687 -7.569,-1.746 -0.002,-0.003 -0.035,-0.038 -0.084,-0.11 -0.078,-0.113 -0.145,-0.245 -0.203,-0.391 -0.537,-1.367 -0.605,-3.69 -0.191,-6.539 0.363,-2.518 0.986,-5.025 1.752,-7.059 0.136,-0.366 0.26,-0.508 0.565,-0.745 0.763,-0.539 1.606,-0.894 2.574,-1.087 0.965,-0.189 2.051,-0.286 3.142,-0.286 l 0.029,0 c 1.105,0 2.161,0.096 3.142,0.286 0.967,0.191 1.809,0.548 2.575,1.087 0.302,0.237 0.426,0.377 0.562,0.744 0.766,2.033 1.388,4.539 1.755,7.06 0.411,2.849 0.342,5.172 -0.194,6.539"
           style="fill:#000000;fill-opacity:1;fill-rule:nonzero;stroke:none"
           id="path556" />
      </g>
      <g
         transform="matrix(1.3333333,0,0,-1.3333333,85.727865,248.75081)"
         id="g562">
        <path
           inkscape:connector-curvature="0"
           d="M 0,0 C 0.048,-0.125 0.094,-0.261 0.139,-0.413 0.137,-1.144 0.134,-1.881 0.13,-2.612 l -0.141,0 C -0.006,-1.74 -0.002,-0.867 0,0 M 0.619,-1.6 C 0.481,-0.838 0.321,-0.237 0.141,0.193 0.119,0.248 0.095,0.301 0.072,0.351 l -0.006,0.012 -0.03,0 -0.035,0 C -0.151,0.364 -0.685,0.37 -0.685,0.37 l -0.021,0 -0.029,-3.161 0,-0.022 0.722,0 0.142,0 0.667,0 -0.003,0.025 C 0.792,-2.783 0.735,-2.239 0.619,-1.6"
           style="fill:#000000;fill-opacity:1;fill-rule:nonzero;stroke:none"
           id="path560" />
      </g>
    </g>
  </g>
</svg>
