<?xml version="1.0" encoding="UTF-8" standalone="no"?>
<!-- Created with Inkscape (http://www.inkscape.org/) -->

<svg
   xmlns:dc="http://purl.org/dc/elements/1.1/"
   xmlns:cc="http://creativecommons.org/ns#"
   xmlns:rdf="http://www.w3.org/1999/02/22-rdf-syntax-ns#"
   xmlns:svg="http://www.w3.org/2000/svg"
   xmlns="http://www.w3.org/2000/svg"
   xmlns:sodipodi="http://sodipodi.sourceforge.net/DTD/sodipodi-0.dtd"
   xmlns:inkscape="http://www.inkscape.org/namespaces/inkscape"
   width="15.740396mm"
   height="9.9301434mm"
   viewBox="0 0 55.773059 35.185548"
   id="svg38115"
   version="1.1"
   inkscape:version="0.91 r13725"
   sodipodi:docname="honda.svg">
  <defs
     id="defs38117" />
  <sodipodi:namedview
     id="base"
     pagecolor="#ffffff"
     bordercolor="#666666"
     borderopacity="1.0"
     inkscape:pageopacity="0.0"
     inkscape:pageshadow="2"
     inkscape:zoom="7.9195959"
     inkscape:cx="27.886534"
     inkscape:cy="17.592773"
     inkscape:document-units="px"
     inkscape:current-layer="layer1"
     showgrid="false"
     fit-margin-top="0"
     fit-margin-left="0"
     fit-margin-right="0"
     fit-margin-bottom="0"
     inkscape:window-width="751"
     inkscape:window-height="405"
     inkscape:window-x="608"
     inkscape:window-y="268"
     inkscape:window-maximized="0" />
  <metadata
     id="metadata38120">
    <rdf:RDF>
      <cc:Work
         rdf:about="">
        <dc:format>image/svg+xml</dc:format>
        <dc:type
           rdf:resource="http://purl.org/dc/dcmitype/StillImage" />
        <dc:title></dc:title>
      </cc:Work>
    </rdf:RDF>
  </metadata>
  <g
     inkscape:label="Layer 1"
     inkscape:groupmode="layer"
     id="layer1"
     transform="translate(-330.1389,-511.64447)">
    <g
       id="g4112"
       transform="matrix(1.3333334,0,0,-1.3333334,344.44343,520.7935)">
      <path
         id="path4110"
         style="fill:#000000;fill-opacity:1;fill-rule:nonzero;stroke:none"
         d="m 0,0 c 0.014,0.601 0.036,1.201 0.073,1.8 0.031,0.53 0.091,1.055 0.249,1.568 0.203,0.651 0.55,1.201 1.112,1.605 0.318,0.227 0.67,0.389 1.042,0.511 0.411,0.136 0.833,0.223 1.259,0.276 0.593,0.075 1.189,0.144 1.786,0.202 0.416,0.039 0.835,0.062 1.257,0.081 0.695,0.032 1.389,0.072 2.084,0.079 1.023,0.01 2.044,0.009 3.067,-0.01 0.772,-0.015 1.546,-0.057 2.322,-0.101 0.827,-0.046 1.655,-0.128 2.476,-0.254 0.533,-0.079 1.059,-0.187 1.555,-0.394 0.609,-0.25 1.114,-0.626 1.466,-1.19 0.206,-0.326 0.338,-0.68 0.429,-1.051 0.091,-0.373 0.137,-0.753 0.167,-1.136 0.095,-1.14 0.106,-2.283 0.084,-3.425 -0.016,-0.678 -0.061,-1.355 -0.129,-2.029 -0.054,-0.553 -0.104,-1.104 -0.169,-1.653 -0.111,-0.895 -0.258,-1.785 -0.538,-2.648 -0.094,-0.296 -0.209,-0.584 -0.353,-0.859 -0.355,-0.692 -0.897,-1.176 -1.615,-1.475 -0.44,-0.182 -0.903,-0.289 -1.369,-0.364 -0.803,-0.131 -1.614,-0.193 -2.427,-0.239 -1.111,-0.061 -2.227,-0.09 -3.345,-0.09 l -0.266,0 0,-0.016 c -0.964,0.023 -1.927,0.035 -2.893,0.072 -0.702,0.028 -1.405,0.08 -2.102,0.138 -0.584,0.05 -1.159,0.131 -1.726,0.272 -0.282,0.071 -0.554,0.164 -0.812,0.283 -0.701,0.32 -1.211,0.831 -1.54,1.52 C 0.921,-8.07 0.771,-7.59 0.65,-7.101 0.487,-6.43 0.372,-5.751 0.296,-5.066 0.216,-4.3 0.138,-3.532 0.075,-2.766 -0.005,-1.844 -0.018,-0.921 0,0 m -0.541,-6.814 c 0.116,-0.594 0.258,-1.181 0.485,-1.743 0.137,-0.322 0.281,-0.64 0.483,-0.928 0.38,-0.547 0.887,-0.947 1.499,-1.213 0.25,-0.109 0.505,-0.202 0.765,-0.279 0.723,-0.218 1.471,-0.329 2.223,-0.391 0.719,-0.061 1.442,-0.111 2.166,-0.139 1.044,-0.038 2.086,-0.052 2.902,-0.07 0.874,0.012 1.518,0.019 2.158,0.032 0.903,0.02 1.808,0.054 2.714,0.121 0.674,0.048 1.346,0.113 2.013,0.238 0.545,0.102 1.083,0.241 1.593,0.465 0.848,0.372 1.488,0.962 1.873,1.81 0.162,0.358 0.303,0.721 0.408,1.099 0.2,0.722 0.334,1.457 0.437,2.196 0.097,0.733 0.178,1.47 0.254,2.205 0.075,0.732 0.12,1.468 0.135,2.203 0.029,1.182 0.039,2.363 -0.062,3.541 -0.038,0.454 -0.114,0.899 -0.256,1.333 -0.236,0.735 -0.637,1.358 -1.26,1.827 C 19.589,5.794 19.146,6 18.673,6.154 18.043,6.36 17.393,6.469 16.736,6.55 15.935,6.647 15.127,6.716 14.32,6.754 13.485,6.796 12.649,6.825 11.813,6.844 10.695,6.871 9.578,6.865 8.456,6.841 7.191,6.816 5.932,6.763 4.672,6.65 4.045,6.593 3.418,6.527 2.799,6.412 2.275,6.315 1.759,6.183 1.27,5.969 0.434,5.608 -0.205,5.035 -0.604,4.208 -0.828,3.739 -0.961,3.242 -1.028,2.729 -1.104,2.187 -1.132,1.641 -1.141,1.096 c -0.008,-0.702 -0.012,-1.402 0,-2.105 0.019,-1.255 0.139,-2.505 0.282,-3.753 0.078,-0.688 0.185,-1.372 0.318,-2.052"
         inkscape:connector-curvature="0" />
    </g>
    <g
       id="g4116"
       transform="matrix(1.3333334,0,0,-1.3333334,336.57623,541.16336)">
      <path
         id="path4114"
         style="fill:#000000;fill-opacity:1;fill-rule:nonzero;stroke:none"
         d="M 0,0 C 0.055,-0.009 0.102,-0.017 0.153,-0.023 0.304,-0.042 0.46,-0.057 0.617,-0.075 0.803,-0.098 0.9,-0.191 0.931,-0.376 c 0.006,-0.023 0.011,-0.046 0.011,-0.069 0,-0.257 -0.003,-0.512 -0.003,-0.768 0,-0.005 -0.008,-0.013 -0.01,-0.019 -0.14,-0.023 -2.819,-0.016 -2.908,0.01 l 0,0.426 c 0.003,0.136 -10e-4,0.272 0.01,0.405 0.017,0.186 0.12,0.288 0.303,0.314 0.084,0.014 0.172,0.018 0.255,0.029 0.127,0.014 0.252,0.031 0.381,0.048 0,0.117 0.002,0.221 0,0.327 -0.004,0.102 0.011,0.207 -0.009,0.308 l -3.789,0 0,-0.635 c 0.057,-0.009 0.105,-0.017 0.155,-0.023 0.154,-0.019 0.308,-0.034 0.464,-0.052 0.187,-0.023 0.286,-0.114 0.32,-0.3 0.008,-0.053 0.008,-0.108 0.008,-0.161 l 0,-2.372 c 0,-0.06 0,-0.116 -0.011,-0.174 -0.036,-0.181 -0.132,-0.268 -0.314,-0.29 -0.157,-0.019 -0.31,-0.034 -0.464,-0.052 -0.055,-0.007 -0.104,-0.017 -0.155,-0.025 l 0,-0.622 c 0.127,-0.025 3.703,-0.02 3.791,0.005 l 0,0.621 c -0.197,0.024 -0.39,0.049 -0.583,0.07 -0.237,0.025 -0.346,0.123 -0.355,0.361 -0.008,0.259 -0.002,0.519 -0.002,0.778 0,0.007 0.009,0.011 0.011,0.018 0.158,0.025 2.814,0.016 2.905,-0.011 0,-0.249 0.002,-0.5 0,-0.751 0,-0.031 -0.005,-0.062 -0.011,-0.093 C 0.9,-3.252 0.807,-3.346 0.625,-3.371 0.539,-3.382 0.455,-3.389 0.369,-3.399 0.25,-3.414 0.124,-3.429 0.002,-3.445 l 0,-0.632 3.785,0 0,0.631 c -0.064,0.009 -0.125,0.018 -0.182,0.025 -0.149,0.016 -0.3,0.031 -0.452,0.051 -0.171,0.024 -0.261,0.112 -0.296,0.283 -0.01,0.064 -0.013,0.13 -0.013,0.195 -0.002,0.78 -0.002,1.558 0,2.338 0,0.061 0.003,0.123 0.011,0.185 0.037,0.185 0.135,0.272 0.326,0.295 0.086,0.011 0.177,0.018 0.264,0.028 0.114,0.014 0.227,0.03 0.342,0.045 l 0,0.636 -3.787,0 z"
         inkscape:connector-curvature="0" />
    </g>
    <g
       id="g4120"
       transform="matrix(1.3333334,0,0,-1.3333334,359.57236,540.33069)">
      <path
         id="path4118"
         style="fill:#000000;fill-opacity:1;fill-rule:nonzero;stroke:none"
         d="m 0,0 0,-0.622 c 0.024,-0.005 0.043,-0.009 0.064,-0.011 0.179,-0.023 0.363,-0.045 0.544,-0.065 0.204,-0.024 0.305,-0.124 0.33,-0.325 0.006,-0.031 0.006,-0.063 0.006,-0.093 l 0,-2.254 c 0,-0.024 -0.006,-0.048 -0.013,-0.087 -0.041,0.051 -0.071,0.088 -0.096,0.123 -0.792,1.038 -1.58,2.073 -2.364,3.114 -0.117,0.153 -0.255,0.236 -0.443,0.236 -0.031,0 -0.064,0.002 -0.095,0.002 l -3.126,0 c -0.032,0 -0.065,-0.005 -0.105,-0.008 l 0,-0.635 c 0.048,-0.006 0.091,-0.015 0.13,-0.021 0.159,-0.018 0.315,-0.034 0.477,-0.052 0.195,-0.021 0.298,-0.116 0.333,-0.313 0.007,-0.054 0.005,-0.109 0.005,-0.163 0.002,-0.783 0.002,-1.564 0.002,-2.347 0,-0.042 0,-0.086 -0.004,-0.127 -0.018,-0.22 -0.127,-0.328 -0.348,-0.351 -0.087,-0.009 -0.175,-0.018 -0.265,-0.029 -0.11,-0.014 -0.219,-0.03 -0.33,-0.044 l 0,-0.623 c 0.123,-0.024 2.933,-0.021 3.02,0.002 0.02,0.139 0.015,0.539 -0.006,0.625 -0.059,0.007 -0.116,0.015 -0.174,0.022 -0.149,0.017 -0.294,0.031 -0.439,0.052 -0.189,0.023 -0.291,0.133 -0.31,0.322 -0.003,0.043 -0.003,0.084 -0.003,0.127 -0.003,0.725 0,1.449 0,2.174 l 0,0.111 c 0.007,0.001 0.016,0.003 0.025,0.006 0.025,-0.034 0.052,-0.067 0.077,-0.1 0.788,-1.039 1.582,-2.075 2.365,-3.117 0.128,-0.167 0.279,-0.241 0.487,-0.24 0.744,0.003 1.491,0.002 2.239,0.002 0.03,0 0.065,0.006 0.101,0.009 l 0,0.152 0,3.347 c 0,0.055 0,0.109 0.005,0.162 0.015,0.205 0.126,0.317 0.328,0.341 0.092,0.01 0.18,0.018 0.268,0.029 0.116,0.013 0.229,0.03 0.341,0.044 l 0,0.634 C 2.85,0.03 0.085,0.022 0,0"
         inkscape:connector-curvature="0" />
    </g>
    <g
       id="g4124"
       transform="matrix(1.3333334,0,0,-1.3333334,371.46689,544.33069)">
      <path
         id="path4122"
         style="fill:#000000;fill-opacity:1;fill-rule:nonzero;stroke:none"
         d="m 0,0 c -0.031,-0.121 -0.077,-0.245 -0.14,-0.354 -0.138,-0.242 -0.367,-0.363 -0.635,-0.411 -0.132,-0.023 -0.271,-0.035 -0.404,-0.036 -0.494,-0.005 -0.989,-0.002 -1.483,-0.002 -0.033,0 -0.067,0.004 -0.107,0.005 l 0,2.896 c 0.029,0.003 0.058,0.009 0.086,0.009 0.513,10e-4 1.026,0.002 1.542,0 C -0.965,2.106 -0.785,2.085 -0.615,2.03 -0.353,1.941 -0.169,1.769 -0.064,1.514 0.038,1.274 0.059,1.018 0.068,0.763 0.076,0.505 0.068,0.249 0,0 M 2.242,0.92 C 2.185,1.52 1.932,2.019 1.448,2.39 1.235,2.554 0.995,2.674 0.743,2.767 c -0.505,0.185 -1.033,0.249 -1.57,0.25 -1.53,0.004 -3.066,10e-4 -4.594,10e-4 -0.034,0 -0.068,-0.003 -0.104,-0.007 l 0,-0.64 c 0.169,-0.017 0.33,-0.034 0.492,-0.05 0.302,-0.032 0.393,-0.132 0.393,-0.435 l 0,-2.418 c 0,-0.054 -0.003,-0.108 -0.011,-0.162 -0.036,-0.192 -0.133,-0.282 -0.328,-0.304 -0.09,-0.009 -0.179,-0.018 -0.268,-0.029 -0.111,-0.014 -0.227,-0.03 -0.343,-0.045 l 0,-0.639 0.159,0 c 1.475,0 2.953,-10e-4 4.432,0.003 0.269,0 0.543,0.012 0.814,0.038 0.418,0.039 0.826,0.143 1.206,0.326 0.54,0.262 0.931,0.655 1.122,1.231 0.109,0.337 0.132,0.685 0.099,1.033"
         inkscape:connector-curvature="0" />
    </g>
    <g
       id="g4128"
       transform="matrix(1.3333334,0,0,-1.3333334,349.23503,544.23883)">
      <path
         id="path4126"
         style="fill:#000000;fill-opacity:1;fill-rule:nonzero;stroke:none"
         d="m 0,0 c -0.108,-0.519 -0.427,-0.843 -0.938,-0.964 -0.474,-0.11 -0.952,-0.109 -1.421,0.011 -0.509,0.128 -0.808,0.46 -0.908,0.967 -0.038,0.184 -0.048,0.374 -0.072,0.563 0.013,0.224 0.031,0.443 0.089,0.657 0.119,0.462 0.411,0.758 0.869,0.881 0.476,0.128 0.963,0.128 1.444,0.014 C -0.429,2.007 -0.111,1.688 -0.002,1.176 0.083,0.785 0.083,0.391 0,0 M 1.334,2.39 C 0.984,2.645 0.588,2.799 0.17,2.908 -0.418,3.062 -1.022,3.105 -1.615,3.109 -2.176,3.107 -2.718,3.07 -3.25,2.952 -3.658,2.863 -4.052,2.732 -4.41,2.514 -5.129,2.078 -5.507,1.443 -5.512,0.602 c -0.006,-0.82 0.34,-1.456 1.028,-1.904 0.19,-0.124 0.39,-0.221 0.607,-0.301 0.479,-0.178 0.976,-0.268 1.486,-0.309 0.76,-0.058 1.515,-0.042 2.264,0.102 0.431,0.082 0.844,0.214 1.224,0.434 0.691,0.399 1.095,0.986 1.145,1.787 C 2.294,1.231 2.005,1.9 1.334,2.39"
         inkscape:connector-curvature="0" />
    </g>
    <g
       id="g4132"
       transform="matrix(1.3333334,0,0,-1.3333334,378.03329,543.54216)">
      <path
         id="path4130"
         style="fill:#000000;fill-opacity:1;fill-rule:nonzero;stroke:none"
         d="M 0,0 C 0.298,0.477 0.586,0.944 0.874,1.412 0.942,1.357 1.729,0.175 1.812,0.005 1.731,-0.019 0.176,-0.026 0,0 M 4.867,-1.292 C 4.517,-0.748 4.16,-0.209 3.806,0.333 3.415,0.929 3.019,1.524 2.632,2.122 2.505,2.32 2.343,2.43 2.096,2.43 0.945,2.424 -0.205,2.427 -1.356,2.427 -1.39,2.427 -1.424,2.423 -1.459,2.42 l 0,-0.636 C -1.412,1.776 -1.368,1.769 -1.319,1.763 -1.096,1.738 -0.875,1.713 -0.647,1.687 -0.45,1.665 -0.356,1.494 -0.444,1.316 -0.458,1.288 -0.474,1.262 -0.491,1.236 -1.017,0.384 -1.543,-0.466 -2.066,-1.317 -2.087,-1.355 -2.11,-1.39 -2.138,-1.424 -2.212,-1.522 -2.309,-1.578 -2.434,-1.59 -2.517,-1.598 -2.603,-1.607 -2.688,-1.616 -2.805,-1.631 -2.926,-1.646 -3.045,-1.662 l 0,-0.626 c 0.171,-0.027 2.941,-0.019 3.025,0.008 l 0,0.619 c -0.074,0.009 -0.144,0.017 -0.213,0.025 -0.123,0.014 -0.247,0.02 -0.368,0.046 -0.198,0.041 -0.258,0.185 -0.155,0.356 0.054,0.098 0.121,0.189 0.173,0.288 0.04,0.078 0.092,0.096 0.178,0.096 0.892,-0.004 1.787,-0.002 2.68,-0.002 0.021,0 0.042,0.004 0.061,-0.002 C 2.36,-0.862 2.397,-0.871 2.411,-0.893 2.489,-1.009 2.569,-1.123 2.635,-1.246 2.709,-1.381 2.666,-1.501 2.522,-1.557 2.439,-1.588 2.351,-1.601 2.26,-1.613 2.113,-1.632 1.969,-1.644 1.817,-1.66 l 0,-0.628 C 1.838,-2.294 1.849,-2.3 1.858,-2.3 c 1.326,-0.001 2.651,-0.001 3.978,-0.001 0.018,0 0.039,0.004 0.058,0.007 0.002,0 0.004,0.003 0.007,0.006 0.004,10e-4 0.004,0.005 0.008,0.009 l 0,0.617 C 5.724,-1.64 5.541,-1.611 5.362,-1.598 5.141,-1.581 4.987,-1.474 4.867,-1.292"
         inkscape:connector-curvature="0" />
    </g>
    <g
       id="g4136"
       transform="matrix(1.3333334,0,0,-1.3333334,349.07369,515.30523)">
      <path
         id="path4134"
         style="fill:#000000;fill-opacity:1;fill-rule:nonzero;stroke:none"
         d="m 0,0 c 0.027,-0.406 0.051,-0.813 0.078,-1.218 0.041,-0.666 0.086,-1.33 0.126,-1.995 0.038,-0.546 0.069,-1.091 0.106,-1.635 0.041,-0.633 0.087,-1.268 0.13,-1.901 0.034,-0.506 0.067,-1.013 0.104,-1.52 0.049,-0.691 0.101,-1.382 0.149,-2.073 0.045,-0.564 0.084,-1.129 0.129,-1.693 0.052,-0.652 0.108,-1.303 0.161,-1.957 0.003,-0.055 0.013,-0.111 0.021,-0.165 0.408,-0.089 1.911,-0.165 2.265,-0.158 0.013,0.049 0.029,0.099 0.044,0.15 0.195,0.713 0.385,1.428 0.585,2.138 0.113,0.389 0.252,0.766 0.441,1.127 0.231,0.451 0.6,0.704 1.1,0.783 0.436,0.068 0.873,0.102 1.312,0.101 0.444,0 0.885,-0.033 1.323,-0.105 0.476,-0.081 0.836,-0.324 1.058,-0.754 0.05,-0.093 0.097,-0.186 0.139,-0.282 0.155,-0.355 0.284,-0.72 0.384,-1.094 0.18,-0.638 0.347,-1.278 0.519,-1.918 0.015,-0.05 0.033,-0.1 0.047,-0.146 0.442,-0.025 2.056,0.096 2.272,0.169 0.423,5.06 0.739,10.131 1.059,15.213 -0.526,0.078 -1.046,0.107 -1.573,0.12 C 11.967,1.143 11.96,1.11 11.953,1.076 11.741,0.12 11.53,-0.836 11.317,-1.792 11.004,-3.19 10.663,-4.581 10.291,-5.964 10.169,-6.414 10.022,-6.856 9.819,-7.276 9.431,-8.087 8.779,-8.533 7.894,-8.657 7.564,-8.704 7.228,-8.718 6.895,-8.721 c -0.488,-0.002 -0.974,0 -1.453,0.09 -0.602,0.11 -1.1,0.389 -1.481,0.874 -0.19,0.243 -0.32,0.52 -0.435,0.805 -0.195,0.49 -0.335,0.998 -0.471,1.507 C 2.529,-3.425 2.074,-1.39 1.635,0.649 1.595,0.827 1.554,1.002 1.51,1.187 0.98,1.175 0.462,1.143 -0.061,1.07 -0.061,1.028 -0.062,1 -0.061,0.974 -0.043,0.649 -0.019,0.324 0,0"
         inkscape:connector-curvature="0" />
    </g>
  </g>
</svg>
