<?xml version="1.0" encoding="UTF-8" standalone="no"?>
<!-- Created with Inkscape (http://www.inkscape.org/) -->

<svg
   xmlns:dc="http://purl.org/dc/elements/1.1/"
   xmlns:cc="http://creativecommons.org/ns#"
   xmlns:rdf="http://www.w3.org/1999/02/22-rdf-syntax-ns#"
   xmlns:svg="http://www.w3.org/2000/svg"
   xmlns="http://www.w3.org/2000/svg"
   xmlns:sodipodi="http://sodipodi.sourceforge.net/DTD/sodipodi-0.dtd"
   xmlns:inkscape="http://www.inkscape.org/namespaces/inkscape"
   width="14.114498mm"
   height="7.0430989mm"
   viewBox="0 0 50.012002 24.955863"
   id="svg38115"
   version="1.1"
   inkscape:version="0.91 r13725"
   sodipodi:docname="infiniti.svg">
  <defs
     id="defs38117" />
  <sodipodi:namedview
     id="base"
     pagecolor="#ffffff"
     bordercolor="#666666"
     borderopacity="1.0"
     inkscape:pageopacity="0.0"
     inkscape:pageshadow="2"
     inkscape:zoom="7.9195959"
     inkscape:cx="25.006002"
     inkscape:cy="12.477929"
     inkscape:document-units="px"
     inkscape:current-layer="layer1"
     showgrid="false"
     fit-margin-top="0"
     fit-margin-left="0"
     fit-margin-right="0"
     fit-margin-bottom="0"
     inkscape:window-width="751"
     inkscape:window-height="405"
     inkscape:window-x="608"
     inkscape:window-y="268"
     inkscape:window-maximized="0" />
  <metadata
     id="metadata38120">
    <rdf:RDF>
      <cc:Work
         rdf:about="">
        <dc:format>image/svg+xml</dc:format>
        <dc:type
           rdf:resource="http://purl.org/dc/dcmitype/StillImage" />
        <dc:title></dc:title>
      </cc:Work>
    </rdf:RDF>
  </metadata>
  <g
     inkscape:label="Layer 1"
     inkscape:groupmode="layer"
     id="layer1"
     transform="translate(-333.01943,-516.75931)">
    <g
       id="g4084"
       transform="matrix(1.3333333,0,0,-1.3333333,347.23077,541.69491)">
      <path
         id="path4082"
         style="fill:#000000;fill-opacity:1;fill-rule:nonzero;stroke:none"
         d="m 0,0 0.367,0 0,0.888 0.63,0 0,0.287 -0.63,0 0,0.496 0.674,0 0,0.287 -1.041,0 z"
         inkscape:connector-curvature="0" />
    </g>
    <path
       id="path4086"
       style="fill:#000000;fill-opacity:1;fill-rule:nonzero;stroke:none"
       d="m 368.8141,539.10451 0.48533,0 0,2.61066 -0.48533,0 z"
       inkscape:connector-curvature="0" />
    <g
       id="g4090"
       transform="matrix(1.3333333,0,0,-1.3333333,375.16703,539.47357)">
      <path
         id="path4088"
         style="fill:#000000;fill-opacity:1;fill-rule:nonzero;stroke:none"
         d="m 0,0 0.431,0 0,-1.672 0.366,0 0,1.672 0.43,0 0,0.287 -1.227,0 z"
         inkscape:connector-curvature="0" />
    </g>
    <path
       id="path4092"
       style="fill:#000000;fill-opacity:1;fill-rule:nonzero;stroke:none"
       d="m 333.01943,539.10451 0.48934,0 0,2.61066 -0.48934,0 z"
       inkscape:connector-curvature="0" />
    <g
       id="g4096"
       transform="matrix(1.3333333,0,0,-1.3333333,362.3129,541.04971)">
      <path
         id="path4094"
         style="fill:#000000;fill-opacity:1;fill-rule:nonzero;stroke:none"
         d="M 0,0 0.006,-0.016 0,-0.016 0,0 l -0.496,1.477 -0.431,0 0,-1.959 0.308,0 0,1.475 0.51,-1.475 0.426,0 0,1.959 -0.315,0 z"
         inkscape:connector-curvature="0" />
    </g>
    <path
       id="path4098"
       style="fill:#000000;fill-opacity:1;fill-rule:nonzero;stroke:none"
       d="m 382.5421,539.10451 0.48933,0 0,2.61066 -0.48933,0 z"
       inkscape:connector-curvature="0" />
    <path
       id="path4100"
       style="fill:#000000;fill-opacity:1;fill-rule:nonzero;stroke:none"
       d="m 354.48477,539.10451 0.488,0 0,2.61066 -0.488,0 z"
       inkscape:connector-curvature="0" />
    <g
       id="g4104"
       transform="matrix(1.3333333,0,0,-1.3333333,340.76863,541.04971)">
      <path
         id="path4102"
         style="fill:#000000;fill-opacity:1;fill-rule:nonzero;stroke:none"
         d="M 0,0 0.006,-0.016 0,-0.016 0,0 l -0.497,1.477 -0.432,0 0,-1.959 0.306,0 0,1.475 0.515,-1.475 0.426,0 0,1.959 -0.315,0 z"
         inkscape:connector-curvature="0" />
    </g>
    <g
       id="g4108"
       transform="matrix(1.3333333,0,0,-1.3333333,366.7933,531.17664)">
      <path
         id="path4106"
         style="fill:#000000;fill-opacity:1;fill-rule:nonzero;stroke:none"
         d="m 0,0 -6.58,7.614 -6.554,-7.593 c -3.227,0.898 -5.356,2.47 -5.356,4.403 0,3.063 5.291,5.938 11.9,5.938 6.606,0 12.025,-2.875 12.025,-5.938 C 5.435,2.477 3.272,0.894 0,0 m -6.58,10.813 c -7.913,0 -14.328,-3.224 -14.328,-7.2 0,-3.219 4.206,-5.945 10.008,-6.866 l 4.32,10.285 4.32,-10.285 c 5.806,0.921 10.009,3.647 10.009,6.866 0,3.976 -6.413,7.2 -14.329,7.2"
         inkscape:connector-curvature="0" />
    </g>
  </g>
</svg>
