<?xml version="1.0" encoding="UTF-8" standalone="no"?>
<!-- Created with Inkscape (http://www.inkscape.org/) -->

<svg
   xmlns:dc="http://purl.org/dc/elements/1.1/"
   xmlns:cc="http://creativecommons.org/ns#"
   xmlns:rdf="http://www.w3.org/1999/02/22-rdf-syntax-ns#"
   xmlns:svg="http://www.w3.org/2000/svg"
   xmlns="http://www.w3.org/2000/svg"
   xmlns:sodipodi="http://sodipodi.sourceforge.net/DTD/sodipodi-0.dtd"
   xmlns:inkscape="http://www.inkscape.org/namespaces/inkscape"
   width="7.6064529mm"
   height="9.3055439mm"
   viewBox="0 0 26.951999 32.972399"
   id="svg38115"
   version="1.1"
   inkscape:version="0.91 r13725"
   sodipodi:docname="kamaz.svg">
  <defs
     id="defs38117" />
  <sodipodi:namedview
     id="base"
     pagecolor="#ffffff"
     bordercolor="#666666"
     borderopacity="1.0"
     inkscape:pageopacity="0.0"
     inkscape:pageshadow="2"
     inkscape:zoom="0.35"
     inkscape:cx="13.475997"
     inkscape:cy="16.486205"
     inkscape:document-units="px"
     inkscape:current-layer="layer1"
     showgrid="false"
     fit-margin-top="0"
     fit-margin-left="0"
     fit-margin-right="0"
     fit-margin-bottom="0"
     inkscape:window-width="751"
     inkscape:window-height="405"
     inkscape:window-x="608"
     inkscape:window-y="268"
     inkscape:window-maximized="0" />
  <metadata
     id="metadata38120">
    <rdf:RDF>
      <cc:Work
         rdf:about="">
        <dc:format>image/svg+xml</dc:format>
        <dc:type
           rdf:resource="http://purl.org/dc/dcmitype/StillImage" />
        <dc:title></dc:title>
      </cc:Work>
    </rdf:RDF>
  </metadata>
  <g
     inkscape:label="Layer 1"
     inkscape:groupmode="layer"
     id="layer1"
     transform="translate(-361.52398,-515.876)">
    <g
       id="g8034"
       transform="matrix(1.3333333,0,0,-1.3333333,387.76665,547.08173)">
      <path
         id="path8032"
         style="fill:#000000;fill-opacity:1;fill-rule:nonzero;stroke:none"
         d="m 0,0 c -0.218,-0.221 -0.52,-0.525 -0.728,-0.739 l -17.613,0 c -0.214,0.22 -0.532,0.541 -0.75,0.766 l 0,3.132 c 0.225,0.228 0.557,0.566 0.776,0.788 l 17.533,0 C -0.56,3.71 -0.218,3.351 0,3.119 Z m -18.511,4.576 -1.171,-1.157 0,-3.602 1.14,-1.142 17.948,0 1.126,1.112 0,3.585 -1.168,1.204 z"
         inkscape:connector-curvature="0" />
    </g>
    <g
       id="g8038"
       transform="matrix(1.3333333,0,0,-1.3333333,379.46199,532.82533)">
      <path
         id="path8036"
         style="fill:#000000;fill-opacity:1;fill-rule:nonzero;stroke:none"
         d="m 0,0 c 0.047,-0.744 0.409,-1.392 0.795,-1.972 0,-0.189 0.142,-0.408 0,-0.573 -0.026,-0.1 -0.147,-0.05 -0.22,-0.05 -0.622,0.455 -0.285,1.321 -0.864,1.803 -0.482,0.24 -0.744,0.768 -0.84,1.274 0.073,0.118 0.215,0.144 0.312,0.191 C -0.505,0.575 -0.192,0.265 0,0 M 1.011,-3.364 1.636,-4.251 C 1.658,-4.348 1.778,-4.445 1.705,-4.565 1.608,-4.781 1.322,-4.708 1.18,-4.853 1.104,-4.565 1.058,-4.229 1.033,-3.868 0.672,-3.965 0.795,-3.532 0.864,-3.389 c 0.026,0.05 0.098,0.025 0.147,0.025 m -2.309,0.984 c -0.503,0.507 -0.359,1.516 -1.25,1.611 -0.167,0.217 -0.072,0.409 0.027,0.624 0.168,0.168 0.335,0.362 0.575,0.314 l 1.272,-1.468 c 0.146,-0.862 0.771,-1.514 0.748,-2.423 -0.698,0.261 -0.675,1.055 -1.372,1.342 m -2.619,3.583 c -0.458,0.432 0.432,0.289 0.313,0.743 0.046,0.626 -1.153,0.697 -0.458,1.274 0.408,0.024 0.77,0 1.156,-0.19 L -2.69,2.379 C -3.292,2.068 -3.126,1.105 -3.917,1.203 M -6.272,0.889 C -6.968,1.059 -7.187,1.706 -7.281,2.356 -7.306,2.5 -7.087,2.451 -7.017,2.525 -6.509,2.476 -6.149,2.043 -5.791,1.731 -5.84,1.273 -5.309,1.416 -5.069,1.248 -4.831,1.105 -4.396,1.105 -4.301,0.77 -4.927,0.457 -5.552,0.986 -6.272,0.889 m 1.585,-3.171 -0.216,-0.098 c -0.482,0.601 -0.937,1.322 -1.563,1.803 0.028,0.217 0.24,0.336 0.433,0.387 0.697,-0.097 0.555,-0.891 0.914,-1.325 0.122,-0.264 0.457,-0.457 0.432,-0.767 m 0.146,11.605 c 0.24,0 0.456,-0.192 0.527,-0.383 -0.287,-1.299 -0.48,-2.523 -0.597,-3.871 l -0.12,0.219 c -0.147,1.367 0,2.762 0.19,4.035 M -3.604,6.225 C -3.076,6.25 -2.642,6.08 -2.186,5.934 -2.234,6.2 -1.923,6.15 -1.801,6.08 -0.817,5.31 -0.674,3.87 -0.889,2.812 -0.914,2.404 -1.418,2.572 -1.585,2.332 -1.322,2.163 -0.937,1.9 -0.937,1.492 -0.937,1.321 -1.129,1.321 -1.274,1.321 -1.585,1.297 -1.681,1.659 -1.946,1.753 L -2.45,1.778 c -0.145,0.29 0.238,0.239 0.334,0.411 -0.047,0.933 -0.911,1.561 -1.369,2.353 -0.142,0.552 -0.263,1.082 -0.119,1.683 m 0.745,4.925 c 0.047,-0.146 -0.12,-0.119 -0.192,-0.146 l -0.288,0.146 c 0.07,0.12 0.433,0.264 0.48,0 m 2.354,-0.167 c 0.07,-0.049 0.07,-0.095 0.07,-0.146 -0.142,-0.072 -0.309,0 -0.432,0.051 0,0.116 0.243,0.143 0.362,0.095 M 5.07,7.065 C 2.668,6.68 0.312,7.617 -1.827,6.511 c -0.575,0.362 -1.224,-0.094 -1.8,0.051 0,0.79 0.071,1.56 0.166,2.306 0.434,0 0.819,0.192 1.18,0.408 0.407,-0.049 1.032,0.217 1.414,-0.12 0.339,0.021 0.362,0.382 0.602,0.529 -0.216,0.169 -0.672,-0.025 -0.89,0.189 0.169,0.434 0.794,0.243 1.155,0.411 0.097,0.313 -0.335,0.576 -0.408,0.889 -1.057,0.168 -2.089,0.289 -3.196,0.41 l -0.023,0.334 -0.867,-0.022 0,0.816 -0.503,-0.505 C -5.143,11.51 -5.814,11.078 -6.438,10.765 -6.488,10.021 -7.187,9.587 -7.618,9.011 L -7.375,8.82 C -7.328,8.604 -7.449,8.387 -7.618,8.243 -7.714,5.888 -9.226,4.085 -8.651,1.539 c 0.072,-0.72 0.747,-1.179 1.202,-1.729 0.121,-0.915 0.914,-1.417 1.562,-2.02 0.216,-0.241 0.24,-0.578 0.551,-0.77 0.505,-0.359 1.322,-0.407 1.565,-1.104 0.167,-0.313 0.479,-0.432 0.816,-0.432 0.24,0.071 0.527,0.214 0.576,0.504 0.098,0.264 0,0.625 -0.239,0.84 -0.194,0.145 -0.528,0.121 -0.721,0.048 0.094,-0.094 0.12,-0.24 0.094,-0.337 -0.359,0.289 -0.526,0.77 -0.744,1.179 -0.287,0.36 -0.817,0.624 -0.865,1.082 0.073,0.022 0.123,-0.025 0.167,-0.049 0.602,-0.409 1.611,-0.047 1.922,-0.866 0.964,-0.649 1.636,-1.682 1.925,-2.738 0.335,-0.096 0.625,0.122 0.914,0.264 C 0,-5.19 0.795,-4.757 1.033,-4.974 l 0.171,-1.057 c 0.099,-0.061 0.404,0.023 0.404,0.023 0.412,0.097 0.819,0.243 1.13,0.579 C 2.091,-4.731 2.043,-3.748 1.442,-3.027 1.273,-2.161 1.011,-1.321 0.575,-0.552 0.482,0.482 0.243,1.467 -0.168,2.379 -0.096,3.387 -0.335,4.374 -0.577,5.263 0.192,5.505 0.914,5.094 1.705,5.069 2.114,5.047 2.55,5.047 2.813,5.383 2.719,5.456 2.427,5.337 2.499,5.577 c 0.314,0.19 0.697,0.239 1.083,0.287 0.239,0.07 0.549,0.216 0.647,0.433 -0.119,0 -0.238,0 -0.312,0.12 0.362,0.288 0.912,0.215 1.153,0.648"
         inkscape:connector-curvature="0" />
    </g>
    <g
       id="g8042"
       transform="matrix(1.3333333,0,0,-1.3333333,367.96852,542.67293)">
      <path
         id="path8040"
         style="fill:#000000;fill-opacity:1;fill-rule:nonzero;stroke:none"
         d="m 0,0 -0.726,0 -1.536,-1.129 -0.107,0 0,1.121 -1.353,0.008 0,-3.351 1.328,0 0,1.6 0.185,0 0.691,-1.6 1.426,0 -1.061,2.468 z"
         inkscape:connector-curvature="0" />
    </g>
    <g
       id="g8046"
       transform="matrix(1.3333333,0,0,-1.3333333,369.04399,545.9952)">
      <path
         id="path8044"
         style="fill:#000000;fill-opacity:1;fill-rule:nonzero;stroke:none"
         d="M 0,0 0.512,1.047 1.011,0 Z m 0.795,2.492 -1.643,-3.358 0.47,0 0.214,0.438 1.346,-0.019 0.181,-0.412 1.412,0 -1.445,3.343 z"
         inkscape:connector-curvature="0" />
    </g>
    <g
       id="g8050"
       transform="matrix(1.3333333,0,0,-1.3333333,379.55825,545.9952)">
      <path
         id="path8048"
         style="fill:#000000;fill-opacity:1;fill-rule:nonzero;stroke:none"
         d="M 0,0 0.498,1.047 0.985,0 Z m 0.774,2.492 -1.608,-3.358 0.461,0 0.211,0.438 1.316,-0.019 0.178,-0.412 1.381,0 -1.412,3.343 z"
         inkscape:connector-curvature="0" />
    </g>
    <g
       id="g8054"
       transform="matrix(1.3333333,0,0,-1.3333333,375.59865,544.89493)">
      <path
         id="path8052"
         style="fill:#000000;fill-opacity:1;fill-rule:nonzero;stroke:none"
         d="m 0,0 -0.757,1.667 -1.318,0 0,-3.351 0.454,0 0,1.958 0.967,-1.965 0.419,0 0.999,1.945 0,-1.938 1.372,0 0,3.343 -1.241,0 z"
         inkscape:connector-curvature="0" />
    </g>
    <g
       id="g8058"
       transform="matrix(1.3333333,0,0,-1.3333333,383.41905,542.66187)">
      <path
         id="path8056"
         style="fill:#000000;fill-opacity:1;fill-rule:nonzero;stroke:none"
         d="m 0,0 -0.008,-0.473 1.163,0 -0.478,-0.76 0,-0.368 0.353,0 -1.157,-1.755 1.615,0 1.179,1.733 c 0.231,0.45 -0.204,0.526 -0.204,0.526 l -0.376,0 L 2.698,0 Z"
         inkscape:connector-curvature="0" />
    </g>
    <g
       id="g8062"
       transform="matrix(1.3333333,0,0,-1.3333333,384.24705,539.7628)">
      <path
         id="path8060"
         style="fill:#000000;fill-opacity:1;fill-rule:nonzero;stroke:none"
         d="m 0,0 -0.142,0 0,0.15 0.149,0 C 0.076,0.15 0.09,0.105 0.09,0.076 0.09,0.019 0.061,0 0,0 m 0.193,-0.191 c 0,0.105 -0.026,0.124 -0.072,0.144 0.055,0.02 0.088,0.07 0.088,0.135 0,0.05 -0.029,0.161 -0.18,0.161 l -0.289,0 0,-0.569 0.118,0 0,0.222 0.124,0 c 0.086,0 0.092,-0.032 0.092,-0.108 0,-0.059 0.005,-0.089 0.012,-0.114 l 0.132,0 0,0.014 c -0.025,0.008 -0.025,0.031 -0.025,0.115"
         inkscape:connector-curvature="0" />
    </g>
    <g
       id="g8066"
       transform="matrix(1.3333333,0,0,-1.3333333,384.19639,540.4828)">
      <path
         id="path8064"
         style="fill:#000000;fill-opacity:1;fill-rule:nonzero;stroke:none"
         d="m 0,0 c -0.271,0 -0.489,0.223 -0.489,0.493 0,0.268 0.218,0.491 0.489,0.491 0.273,0 0.494,-0.223 0.494,-0.491 C 0.494,0.223 0.273,0 0,0 m 0,1.108 c -0.336,0 -0.614,-0.276 -0.614,-0.615 0,-0.34 0.278,-0.618 0.614,-0.618 0.341,0 0.617,0.278 0.617,0.618 0,0.339 -0.276,0.615 -0.617,0.615"
         inkscape:connector-curvature="0" />
    </g>
  </g>
</svg>
