<?xml version="1.0" encoding="UTF-8" standalone="no"?>
<!-- Created with Inkscape (http://www.inkscape.org/) -->

<svg
   xmlns:dc="http://purl.org/dc/elements/1.1/"
   xmlns:cc="http://creativecommons.org/ns#"
   xmlns:rdf="http://www.w3.org/1999/02/22-rdf-syntax-ns#"
   xmlns:svg="http://www.w3.org/2000/svg"
   xmlns="http://www.w3.org/2000/svg"
   xmlns:sodipodi="http://sodipodi.sourceforge.net/DTD/sodipodi-0.dtd"
   xmlns:inkscape="http://www.inkscape.org/namespaces/inkscape"
   width="8.4576349mm"
   height="8.8469877mm"
   viewBox="0 0 29.968 31.347594"
   id="svg38115"
   version="1.1"
   inkscape:version="0.91 r13725"
   sodipodi:docname="mazda.svg">
  <defs
     id="defs38117" />
  <sodipodi:namedview
     id="base"
     pagecolor="#ffffff"
     bordercolor="#666666"
     borderopacity="1.0"
     inkscape:pageopacity="0.0"
     inkscape:pageshadow="2"
     inkscape:zoom="7.9195959"
     inkscape:cx="14.983994"
     inkscape:cy="15.673792"
     inkscape:document-units="px"
     inkscape:current-layer="layer1"
     showgrid="false"
     fit-margin-top="0"
     fit-margin-left="0"
     fit-margin-right="0"
     fit-margin-bottom="0"
     inkscape:window-width="751"
     inkscape:window-height="405"
     inkscape:window-x="608"
     inkscape:window-y="268"
     inkscape:window-maximized="0" />
  <metadata
     id="metadata38120">
    <rdf:RDF>
      <cc:Work
         rdf:about="">
        <dc:format>image/svg+xml</dc:format>
        <dc:type
           rdf:resource="http://purl.org/dc/dcmitype/StillImage" />
        <dc:title></dc:title>
      </cc:Work>
    </rdf:RDF>
  </metadata>
  <g
     inkscape:label="Layer 1"
     inkscape:groupmode="layer"
     id="layer1"
     transform="translate(-343.04144,-513.56345)">
    <g
       transform="translate(-539.86894,278.6393)"
       id="g39457">
      <g
         transform="matrix(1.3333333,0,0,-1.3333333,897.80331,236.89801)"
         id="g4184">
        <path
           inkscape:connector-curvature="0"
           d="m 0,0 c 5.383,0 6.982,-2.277 7.272,-2.784 0.263,0.146 1.072,0.612 1.559,1.097 L 8.021,-1.969 C 7.979,-1.982 7.939,-1.97 7.91,-1.936 5.677,0.838 0.061,0.608 0.005,0.604 0.003,0.604 0.003,0.605 0,0.605 c -0.002,0 -0.005,-0.001 -0.005,-0.001 -0.057,0.004 -5.673,0.234 -7.908,-2.54 -0.025,-0.034 -0.072,-0.047 -0.114,-0.033 l -0.63,0.232 C -8.139,-2.239 -7.475,-2.636 -7.236,-2.77 -6.949,-2.26 -5.375,0 0,0"
           style="fill:#000000;fill-opacity:1;fill-rule:nonzero;stroke:none"
           id="path4182" />
      </g>
      <g
         transform="matrix(1.3333333,0,0,-1.3333333,907.40238,241.03081)"
         id="g4188">
        <path
           inkscape:connector-curvature="0"
           d="m 0,0 c -0.37,-0.212 -0.786,-0.423 -1.252,-0.621 l -0.537,-0.222 c -1.1,-0.458 -2.237,-0.93 -3.261,-1.677 -0.936,-0.685 -1.624,-1.501 -2.096,-2.487 -1.154,2.42 -3.388,3.345 -5.358,4.164 l -0.539,0.222 c -0.478,0.203 -0.906,0.423 -1.285,0.642 0.043,0.017 0.083,0.05 0.1,0.094 0.012,0.028 1.329,2.699 7.029,2.699 5.703,0 7.049,-2.686 7.06,-2.714 C -0.131,0.082 -0.114,0.063 -0.102,0.047 -0.072,0.02 -0.039,0.006 0,0 m -7.199,4.414 c 7.205,0 9.089,-2.663 9.165,-2.774 l 0.005,-0.015 0.015,0.008 0.063,-0.014 -0.083,0 C 1.486,0.929 0.097,0.193 0.039,0.162 0.037,0.161 0.035,0.16 0.028,0.16 L 0.013,0.171 C 0,0.199 -1.349,2.981 -7.199,2.981 c -5.841,0 -7.165,-2.768 -7.179,-2.796 l -0.023,-0.008 c -0.05,0.024 -1.183,0.627 -1.826,1.414 -0.007,0.007 -0.007,0.012 -0.002,0.02 0.071,0.115 1.82,2.803 9.03,2.803 m 0.65,-17.413 c -0.154,0 -0.283,0.001 -0.392,0.003 -0.076,0.001 -0.139,0.001 -0.189,0.001 -0.049,0 -0.111,0 -0.186,-0.001 -0.11,-0.002 -0.241,-0.003 -0.396,-0.003 -2.465,0 -4.6,0.387 -6.351,1.151 -2.859,1.245 -4.139,4.496 -4.139,7.164 0,3.125 1.086,5.134 1.739,6.067 0.003,0 0.011,-0.004 0.021,-0.014 0.13,-0.13 1.316,-1.286 3.334,-2.142 l 0.54,-0.224 c 1.987,-0.825 4.239,-1.761 5.347,-4.244 l 0.075,-0.172 0.077,0.172 c 0.461,1.036 1.153,1.882 2.121,2.589 1.003,0.733 2.132,1.2 3.221,1.655 l 0.542,0.225 c 1.549,0.655 2.599,1.48 3.088,1.913 l 0.036,0.031 c 0.133,0.12 0.209,0.196 0.227,0.205 L 2.199,1.368 2.213,1.37 C 2.857,0.452 3.94,-1.557 3.94,-4.684 c 0,-2.668 -1.28,-5.919 -4.134,-7.164 -1.752,-0.764 -3.893,-1.151 -6.355,-1.151 M 2.182,1.542 C 2.155,1.544 2.133,1.541 2.108,1.533 2.11,1.537 2.11,1.54 2.11,1.54 l 0.011,0.019 c 0.005,0.014 0.012,0.03 0.012,0.044 l 0.002,0.019 c 0,0.018 -0.002,0.036 -0.009,0.061 l -0.005,0.011 0,0.003 -0.017,0.035 C 2.025,1.848 0.097,4.58 -7.199,4.58 c -7.304,0 -9.1,-2.764 -9.168,-2.874 -0.025,-0.033 -0.052,-0.103 -0.018,-0.177 -0.026,0.013 -0.05,0.021 -0.075,0.021 -0.097,0 -0.145,-0.08 -0.149,-0.083 -0.656,-0.937 -1.76,-2.98 -1.76,-6.151 0,-2.724 1.31,-6.041 4.238,-7.316 1.773,-0.773 3.934,-1.165 6.419,-1.165 0.155,0 0.288,0.002 0.398,0.002 0.146,10e-4 0.224,10e-4 0.369,0 0.109,0 0.242,-0.002 0.396,-0.002 2.489,0 4.646,0.392 6.418,1.165 2.929,1.275 4.238,4.592 4.238,7.316 0,3.171 -1.103,5.214 -1.759,6.151 C 2.313,1.519 2.246,1.549 2.182,1.542"
           style="fill:#000000;fill-opacity:1;fill-rule:nonzero;stroke:none"
           id="path4186" />
      </g>
      <g
         transform="matrix(1.3333333,0,0,-1.3333333,889.60278,243.89148)"
         id="g4192">
        <path
           inkscape:connector-curvature="0"
           d="m 0,0 c 0.239,-0.088 0.511,-0.17 0.799,-0.258 1.684,-0.514 3.977,-1.216 5.405,-4.245 1.426,3.029 3.72,3.731 5.403,4.245 0.29,0.088 0.561,0.17 0.798,0.258 1.146,0.418 2.481,1.271 2.678,1.397 0.156,0.557 0.289,1.2 0.32,1.866 C 15.393,3.252 15.379,3.241 15.369,3.229 L 14.761,1.36 C 14.752,1.336 14.734,1.314 14.714,1.303 13.162,0.403 11.877,-0.053 11.372,-0.192 9.191,-0.795 8.298,-1.687 8.293,-1.697 8.255,-1.733 8.199,-1.737 8.156,-1.707 8.115,-1.676 8.105,-1.62 8.129,-1.575 8.535,-0.889 9.24,-0.244 9.808,0.205 9.347,-0.029 8.902,-0.292 8.475,-0.601 8.392,-0.728 7.906,-1.478 7.857,-2.038 7.857,-2.063 7.844,-2.086 7.826,-2.104 7.733,-2.189 7.583,-2.336 7.55,-2.396 7.532,-2.437 7.485,-2.46 7.439,-2.449 c -0.044,0.011 -0.078,0.051 -0.078,0.097 0,0.019 0.002,0.388 0.158,0.911 C 7.026,-1.962 6.608,-2.587 6.298,-3.357 6.294,-3.366 6.288,-3.374 6.28,-3.38 6.278,-3.385 6.278,-3.387 6.275,-3.39 6.272,-3.393 6.27,-3.394 6.267,-3.395 6.26,-3.401 6.251,-3.408 6.242,-3.412 6.235,-3.414 6.233,-3.413 6.229,-3.414 6.22,-3.417 6.213,-3.42 6.204,-3.42 c -0.007,0 -0.017,0.003 -0.024,0.006 -0.003,0 -0.007,0 -0.014,0.002 -0.011,0.004 -0.016,0.011 -0.024,0.017 -0.002,10e-4 -0.007,0.002 -0.009,0.005 0,0.003 -0.004,0.005 -0.006,0.01 C 6.122,-3.374 6.113,-3.366 6.111,-3.357 5.375,-1.535 4.026,-0.521 2.587,0.211 2.99,-0.128 3.436,-0.587 3.673,-1.102 3.688,-1.141 3.68,-1.187 3.646,-1.217 3.617,-1.248 3.568,-1.251 3.529,-1.23 3.521,-1.225 2.577,-0.692 0.934,-0.165 -0.156,0.187 -2.515,0.953 -3.062,3.118 -3.02,2.585 -2.929,1.96 -2.676,1.397 -2.478,1.271 -1.143,0.418 0,0"
           style="fill:#000000;fill-opacity:1;fill-rule:nonzero;stroke:none"
           id="path4190" />
      </g>
      <g
         transform="matrix(1.3333333,0,0,-1.3333333,889.96998,245.57308)"
         id="g4196">
        <path
           inkscape:connector-curvature="0"
           d="m 0,0 c 1.062,-0.296 2.268,-0.633 3.387,-1.382 1.434,-0.96 2.272,-2.598 2.542,-3.188 0.267,0.59 1.107,2.228 2.54,3.188 1.121,0.749 2.322,1.086 3.385,1.382 0.939,0.261 1.751,0.489 2.305,0.937 0.055,0.105 0.32,0.655 0.561,1.427 C 14.257,2.076 13.165,1.425 12.197,1.072 11.957,0.983 11.681,0.899 11.393,0.812 9.708,0.298 7.403,-0.407 6.021,-3.522 6.019,-3.526 6.015,-3.53 6.013,-3.534 6.007,-3.541 6.005,-3.547 6,-3.552 5.994,-3.557 5.987,-3.561 5.981,-3.565 5.976,-3.568 5.974,-3.572 5.969,-3.574 l -0.002,0 C 5.958,-3.578 5.951,-3.578 5.942,-3.58 5.94,-3.581 5.936,-3.583 5.929,-3.583 c -0.004,0 -0.009,0.002 -0.018,0.003 -0.007,0.002 -0.014,0.002 -0.02,0.006 l -0.002,0 C 5.882,-3.572 5.88,-3.568 5.875,-3.565 5.87,-3.561 5.864,-3.557 5.857,-3.552 5.852,-3.547 5.849,-3.541 5.844,-3.534 5.842,-3.53 5.838,-3.526 5.836,-3.522 4.451,-0.407 2.147,0.296 0.461,0.812 0.173,0.899 -0.102,0.983 -0.344,1.072 -1.312,1.425 -2.402,2.076 -2.866,2.364 -2.624,1.592 -2.361,1.042 -2.303,0.937 -1.75,0.489 -0.937,0.261 0,0"
           style="fill:#000000;fill-opacity:1;fill-rule:nonzero;stroke:none"
           id="path4194" />
      </g>
      <g
         transform="matrix(1.3333333,0,0,-1.3333333,886.98171,244.85174)"
         id="g4200">
        <path
           inkscape:connector-curvature="0"
           d="m 0,0 c 0.576,-0.371 1.315,-0.578 2.163,-0.816 1.042,-0.29 2.221,-0.62 3.306,-1.345 1.655,-1.107 2.522,-3.252 2.528,-3.27 0.007,-0.025 0.057,-0.154 0.169,-0.154 0.102,0 0.156,0.108 0.176,0.151 0.008,0.021 0.875,2.167 2.528,3.273 1.082,0.726 2.264,1.055 3.306,1.346 0.86,0.24 1.617,0.452 2.193,0.835 0.115,-1.014 0.364,-4.633 -1.56,-6.518 -1.886,-1.847 -5.082,-2.044 -6.37,-2.044 l -0.16,0 -0.186,0.002 0,-0.002 -0.158,0 c -1.289,0 -4.487,0.197 -6.373,2.044 C -0.354,-4.621 -0.111,-1.007 0,0 m 7.935,-8.711 c 0.089,0 0.172,0.003 0.251,0.004 0.078,-10e-4 0.162,-0.004 0.253,-0.004 1.306,0 4.558,0.205 6.487,2.096 2.084,2.04 1.694,6.015 1.592,6.791 L 16.5,0.317 16.388,0.234 C 15.817,-0.184 15.036,-0.402 14.131,-0.654 13.075,-0.949 11.883,-1.282 10.776,-2.022 9.08,-3.157 8.194,-5.351 8.188,-5.366 8.182,-5.383 8.173,-5.396 8.168,-5.405 c -0.005,0.01 -0.011,0.022 -0.016,0.033 -0.006,0.021 -0.891,2.213 -2.59,3.35 -1.106,0.74 -2.3,1.073 -3.355,1.368 -0.89,0.246 -1.657,0.462 -2.225,0.867 L -0.133,0.294 -0.151,0.155 C -0.249,-0.62 -0.627,-4.586 1.446,-6.617 3.377,-8.506 6.627,-8.711 7.935,-8.711"
           style="fill:#000000;fill-opacity:1;fill-rule:nonzero;stroke:none"
           id="path4198" />
      </g>
      <g
         transform="matrix(1.3333333,0,0,-1.3333333,888.24998,253.16561)"
         id="g4204">
        <path
           inkscape:connector-curvature="0"
           d="M 0,0 C -1.792,2.321 -1.267,6.127 -1.2,6.549 -1.273,6.697 -1.607,7.397 -1.866,8.337 -3.522,4.507 -1.814,1.5 -1.799,1.477 -1.175,0.566 -0.406,0.162 0,0"
           style="fill:#000000;fill-opacity:1;fill-rule:nonzero;stroke:none"
           id="path4202" />
      </g>
      <g
         transform="matrix(1.3333333,0,0,-1.3333333,909.86331,250.39801)"
         id="g4208">
        <path
           inkscape:connector-curvature="0"
           d="M 0,0 C 0,0.004 0.002,0.008 0.004,0.011 0.016,0.038 0.971,2.691 -0.06,5.755 -0.263,5.142 -0.469,4.69 -0.553,4.521 -0.549,4.515 -0.547,4.51 -0.547,4.506 -0.518,4.328 0.089,0.484 -1.632,-1.931 -1.199,-1.712 -0.381,-1.163 0,0"
           style="fill:#000000;fill-opacity:1;fill-rule:nonzero;stroke:none"
           id="path4206" />
      </g>
      <g
         transform="matrix(1.3333333,0,0,-1.3333333,910.40758,239.57374)"
         id="g4212">
        <path
           inkscape:connector-curvature="0"
           d="m 0,0 c -0.033,-0.617 -0.144,-1.214 -0.283,-1.741 0.004,-0.008 0.01,-0.016 0.015,-0.025 1.33,-3.5 0.171,-7.045 0.159,-7.081 -0.708,-2.127 -2.538,-3.608 -5.299,-4.281 -1.138,-0.278 -2.738,-0.363 -3.642,-0.386 0.08,-0.002 -0.057,-0.007 -0.334,-0.004 -0.275,-0.003 -0.416,0.002 -0.335,0.004 -0.903,0.023 -2.503,0.108 -3.641,0.386 -2.747,0.671 -4.574,2.14 -5.29,4.251 -0.166,0.133 -1.07,0.905 -1.675,2.709 0.116,-2.547 1.377,-5.516 4.055,-6.665 2.842,-1.22 6.345,-1.165 6.886,-1.165 0.542,0 4.368,0.025 6.886,1.165 2.79,1.263 4.065,4.425 4.065,7.057 C 1.567,-2.904 0.646,-0.986 0,0"
           style="fill:#000000;fill-opacity:1;fill-rule:nonzero;stroke:none"
           id="path4210" />
      </g>
      <g
         transform="matrix(1.3333333,0,0,-1.3333333,906.06638,263.04774)"
         id="g4216">
        <path
           inkscape:connector-curvature="0"
           d="M 0,0 0.677,0 C 0.386,-0.007 0.146,-0.069 -0.044,-0.185 -0.05,-0.12 -0.055,-0.059 -0.065,0 Z m -7.168,-0.091 1.134,0 -1.138,-0.9 0,0.9 z m 1.316,0.168 -1.316,0 0,0.977 2.509,0 z M -10.543,0 -9.889,0 c -0.158,-0.004 -0.434,-0.026 -0.681,-0.173 0,0.058 -0.002,0.114 -0.009,0.173 z m 6.551,-1.107 -1.164,0 1.178,0.946 0,-0.946 z m -1.314,-0.167 1.314,0 0,-0.978 -2.508,0 z m 8.513,-0.978 -2.591,0 c 0,0 -0.838,0.01 -0.954,0.859 -0.211,-0.617 -0.63,-0.849 -1.088,-0.849 l -2.384,0 0,2.428 -3.032,-2.438 -3.088,0 c 0,0 -0.531,0.007 -0.806,0.44 l 0,-0.44 -1.107,0 0,1.895 c 0,0 0.068,0.434 -0.458,0.434 l -0.356,0 0,-2.329 -1.073,0 0,2.329 -0.799,0 0,-2.329 -1.121,0 0,3.305 3.721,0 c 0,0 0.014,0.001 0.038,0.001 0.209,0 1.155,-0.064 1.155,-1.229 l 0,-0.379 c 0.247,0.371 0.71,0.387 0.923,0.387 l 0.058,0 1.404,0 c 0,0 0.072,0.334 -0.434,0.334 l -1.758,0 0,0.887 2.214,0 0.016,0 c 0.132,0 0.973,-0.033 0.973,-0.917 l 0,-1.471 3.025,2.388 2.969,0 0.011,0 c 0.104,0 1.135,-0.036 1.135,-1.461 0,-0.057 -0.002,-0.113 -0.002,-0.167 0.241,0.389 0.718,0.408 0.933,0.408 l 0.058,0 1.404,0 c 0,0 0.072,0.333 -0.433,0.333 l -1.758,0 0,0.887 2.214,0 0.017,0 c 0.13,0 0.974,-0.033 0.974,-0.917 z m -0.976,3.471 -0.024,0 -2.207,0 -0.167,0 0,-0.165 0,-0.674 c -0.251,0.647 -0.805,0.839 -1.168,0.839 l -0.016,0 -2.844,0 -0.12,0 -0.06,0 -0.284,0 -2.509,0 -0.167,0 0,-0.165 0,-0.318 c -0.17,0.277 -0.477,0.483 -0.978,0.483 l -0.024,0 -2.206,0 -0.168,0 0,-0.165 0,-0.543 c -0.182,0.395 -0.549,0.71 -1.18,0.71 -0.022,0 -0.036,0 -0.043,-0.002 l -3.716,0 -0.17,0 0,-0.165 0,-3.306 0,-0.166 0.17,0 1.121,0 0.166,0 0,0.166 0,2.162 0.467,0 0,-2.162 0,-0.166 0.166,0 1.073,0 0.166,0 0,0.166 0,2.162 0.19,0 c 0.083,0 0.193,-0.013 0.247,-0.077 0.06,-0.064 0.047,-0.166 0.047,-0.166 l -0.003,-0.012 0,-0.012 0,-1.895 0,-0.166 0.167,0 1.107,0 0.166,0 0,0.166 0,0.038 c 0.299,-0.197 0.622,-0.204 0.64,-0.204 l 2.962,0 0.126,0 0.059,0 0.283,0 2.508,0 0.167,0 0,0.01 0.015,0 2.384,0 c 0.452,0 0.819,0.2 1.057,0.569 0.24,-0.442 0.714,-0.577 0.985,-0.579 l 2.591,0 0.166,0 0,0.166 0,2.389 c 0,0.499 -0.299,1.082 -1.142,1.082"
           style="fill:#000000;fill-opacity:1;fill-rule:nonzero;stroke:none"
           id="path4214" />
      </g>
      <g
         transform="matrix(1.3333333,0,0,-1.3333333,907.06638,264.54508)"
         id="g4220">
        <path
           inkscape:connector-curvature="0"
           d="m 0,0 c 0,-0.237 0.242,-0.217 0.242,-0.217 l 1.179,0 0,0.435 -1.159,0 C 0.197,0.218 0,0.202 0,0"
           style="fill:#000000;fill-opacity:1;fill-rule:nonzero;stroke:none"
           id="path4218" />
      </g>
      <g
         transform="matrix(1.3333333,0,0,-1.3333333,893.01424,264.54508)"
         id="g4224">
        <path
           inkscape:connector-curvature="0"
           d="m 0,0 c 0,-0.237 0.241,-0.217 0.241,-0.217 l 1.18,0 0,0.435 -1.158,0 C 0.195,0.218 0,0.202 0,0"
           style="fill:#000000;fill-opacity:1;fill-rule:nonzero;stroke:none"
           id="path4222" />
      </g>
      <g
         transform="matrix(1.3333333,0,0,-1.3333333,903.77478,262.87721)"
         id="g4228">
        <path
           inkscape:connector-curvature="0"
           d="m 0,0 -1.014,0 0,-1.402 1.002,0 c 0.27,0 0.496,0.126 0.496,0.739 C 0.484,-0.042 0,0 0,0"
           style="fill:#000000;fill-opacity:1;fill-rule:nonzero;stroke:none"
           id="path4226" />
      </g>
    </g>
  </g>
</svg>
