<?xml version="1.0" encoding="UTF-8" standalone="no"?>
<!-- Created with Inkscape (http://www.inkscape.org/) -->

<svg
   xmlns:dc="http://purl.org/dc/elements/1.1/"
   xmlns:cc="http://creativecommons.org/ns#"
   xmlns:rdf="http://www.w3.org/1999/02/22-rdf-syntax-ns#"
   xmlns:svg="http://www.w3.org/2000/svg"
   xmlns="http://www.w3.org/2000/svg"
   xmlns:sodipodi="http://sodipodi.sourceforge.net/DTD/sodipodi-0.dtd"
   xmlns:inkscape="http://www.inkscape.org/namespaces/inkscape"
   width="8.4251232mm"
   height="9.1678209mm"
   viewBox="0 0 29.852801 32.484405"
   id="svg38115"
   version="1.1"
   inkscape:version="0.91 r13725"
   sodipodi:docname="mitsubishi.svg">
  <defs
     id="defs38117" />
  <sodipodi:namedview
     id="base"
     pagecolor="#ffffff"
     bordercolor="#666666"
     borderopacity="1.0"
     inkscape:pageopacity="0.0"
     inkscape:pageshadow="2"
     inkscape:zoom="7.9195959"
     inkscape:cx="14.926394"
     inkscape:cy="16.242199"
     inkscape:document-units="px"
     inkscape:current-layer="layer1"
     showgrid="false"
     fit-margin-top="0"
     fit-margin-left="0"
     fit-margin-right="0"
     fit-margin-bottom="0"
     inkscape:window-width="751"
     inkscape:window-height="405"
     inkscape:window-x="608"
     inkscape:window-y="268"
     inkscape:window-maximized="0" />
  <metadata
     id="metadata38120">
    <rdf:RDF>
      <cc:Work
         rdf:about="">
        <dc:format>image/svg+xml</dc:format>
        <dc:type
           rdf:resource="http://purl.org/dc/dcmitype/StillImage" />
        <dc:title></dc:title>
      </cc:Work>
    </rdf:RDF>
  </metadata>
  <g
     inkscape:label="Layer 1"
     inkscape:groupmode="layer"
     id="layer1"
     transform="translate(-343.09904,-512.99504)">
    <g
       id="g39346"
       transform="translate(-558.1184,278.6393)">
      <g
         transform="matrix(1.3333333,0,0,-1.3333333,916.12624,234.35574)"
         id="g4232">
        <path
           inkscape:connector-curvature="0"
           d="M 0,0 -3.727,-6.459 0,-12.887 3.754,-6.459 Z"
           style="fill:#000000;fill-opacity:1;fill-rule:nonzero;stroke:none"
           id="path4230" />
      </g>
      <g
         transform="matrix(1.3333333,0,0,-1.3333333,916.12624,251.53801)"
         id="g4236">
        <path
           inkscape:connector-curvature="0"
           d="m 0,0 3.754,-6.435 7.454,0 L 7.483,0 Z"
           style="fill:#000000;fill-opacity:1;fill-rule:nonzero;stroke:none"
           id="path4234" />
      </g>
      <g
         transform="matrix(1.3333333,0,0,-1.3333333,901.21744,260.11801)"
         id="g4240">
        <path
           inkscape:connector-curvature="0"
           d="m 0,0 7.455,0 3.727,6.435 -7.453,0 z"
           style="fill:#000000;fill-opacity:1;fill-rule:nonzero;stroke:none"
           id="path4238" />
      </g>
      <g
         transform="matrix(1.3333333,0,0,-1.3333333,904.89318,264.48268)"
         id="g4244">
        <path
           inkscape:connector-curvature="0"
           d="m 0,0 -0.605,1.411 -0.613,0 0,-3.098 0.554,0 0,2.019 0.664,-1.466 0.697,1.466 0,-2.019 0.555,0 0,3.098 -0.609,0 z"
           style="fill:#000000;fill-opacity:1;fill-rule:nonzero;stroke:none"
           id="path4242" />
      </g>
      <path
         inkscape:connector-curvature="0"
         d="m 907.22531,262.60134 0.74,0 0,4.12934 -0.74,0 z"
         style="fill:#000000;fill-opacity:1;fill-rule:nonzero;stroke:none"
         id="path4246" />
      <g
         transform="matrix(1.3333333,0,0,-1.3333333,908.30078,263.23201)"
         id="g4250">
        <path
           inkscape:connector-curvature="0"
           d="m 0,0 0.664,0 0,-2.625 0.555,0 0,2.625 0.667,0 0,0.473 -1.886,0 z"
           style="fill:#000000;fill-opacity:1;fill-rule:nonzero;stroke:none"
           id="path4248" />
      </g>
      <g
         transform="matrix(1.3333333,0,0,-1.3333333,912.44011,264.33481)"
         id="g4254">
        <path
           inkscape:connector-curvature="0"
           d="m 0,0 c -0.442,0.221 -0.611,0.332 -0.611,0.552 0,0.197 0.137,0.305 0.388,0.305 0.279,0 0.416,-0.249 0.416,-0.5 l 0.557,0 c -0.028,0.526 -0.278,0.969 -0.973,0.969 -0.637,0 -0.942,-0.332 -0.942,-0.802 0,-0.441 0.278,-0.691 0.691,-0.938 0.587,-0.332 0.722,-0.417 0.722,-0.607 0,-0.224 -0.164,-0.36 -0.444,-0.36 -0.331,0 -0.469,0.275 -0.469,0.55 l -0.529,0 c 0.029,-0.579 0.279,-1.048 0.998,-1.048 0.53,0 0.999,0.303 0.999,0.883 C 0.803,-0.497 0.499,-0.278 0,0"
           style="fill:#000000;fill-opacity:1;fill-rule:nonzero;stroke:none"
           id="path4252" />
      </g>
      <g
         transform="matrix(1.3333333,0,0,-1.3333333,915.88664,265.44228)"
         id="g4258">
        <path
           inkscape:connector-curvature="0"
           d="m 0,0 c 0,-0.332 -0.161,-0.523 -0.465,-0.523 -0.365,0 -0.532,0.191 -0.532,0.523 l 0,2.13 -0.551,0 0,-2.13 c 0,-0.826 0.582,-1.022 1.083,-1.022 0.465,0 1.023,0.22 1.023,1.022 l 0,2.13 -0.558,0 z"
           style="fill:#000000;fill-opacity:1;fill-rule:nonzero;stroke:none"
           id="path4256" />
      </g>
      <g
         transform="matrix(1.3333333,0,0,-1.3333333,918.44264,266.10374)"
         id="g4262">
        <path
           inkscape:connector-curvature="0"
           d="m 0,0 -0.445,0 0,2.154 0.418,0 c 0.251,0 0.442,-0.109 0.442,-0.386 0,-0.278 -0.166,-0.387 -0.442,-0.387 l -0.22,0 0,-0.496 0.22,0 C 0.305,0.885 0.499,0.772 0.499,0.47 0.499,0.137 0.305,0 0,0 m 0.527,1.16 c 0.139,0.03 0.445,0.277 0.445,0.691 0,0.497 -0.364,0.775 -0.944,0.775 l -1.025,0 0,-3.097 1.138,0 c 0.552,0 0.942,0.36 0.942,0.858 0,0.498 -0.362,0.717 -0.556,0.773"
           style="fill:#000000;fill-opacity:1;fill-rule:nonzero;stroke:none"
           id="path4260" />
      </g>
      <g
         transform="matrix(1.3333333,0,0,-1.3333333,926.79811,264.22348)"
         id="g4266">
        <path
           inkscape:connector-curvature="0"
           d="m 0,0 -1.108,0 0,1.216 -0.58,0 0,-3.097 0.58,0 0,1.356 1.136,0 0,-1.356 0.552,0 0,3.097 -0.58,0 z"
           style="fill:#000000;fill-opacity:1;fill-rule:nonzero;stroke:none"
           id="path4264" />
      </g>
      <path
         inkscape:connector-curvature="0"
         d="m 920.29198,262.60134 0.74133,0 0,4.12934 -0.74133,0 z"
         style="fill:#000000;fill-opacity:1;fill-rule:nonzero;stroke:none"
         id="path4268" />
      <path
         inkscape:connector-curvature="0"
         d="m 928.27998,262.60134 0.73866,0 0,4.12934 -0.73866,0 z"
         style="fill:#000000;fill-opacity:1;fill-rule:nonzero;stroke:none"
         id="path4270" />
      <g
         transform="matrix(1.3333333,0,0,-1.3333333,923.10811,264.29708)"
         id="g4274">
        <path
           inkscape:connector-curvature="0"
           d="m 0,0 c -0.447,0.248 -0.613,0.359 -0.613,0.552 0,0.194 0.164,0.303 0.385,0.303 0.279,0 0.418,-0.22 0.446,-0.496 l 0.525,0 c -0.027,0.524 -0.274,0.968 -0.971,0.968 -0.637,0 -0.942,-0.334 -0.942,-0.804 0,-0.441 0.278,-0.688 0.694,-0.913 0.584,-0.329 0.718,-0.439 0.718,-0.634 0,-0.22 -0.162,-0.358 -0.438,-0.358 -0.334,0 -0.474,0.304 -0.474,0.581 l -0.526,0 c 0.026,-0.608 0.276,-1.052 1,-1.052 0.525,0 0.999,0.305 0.999,0.856 C 0.8,-0.47 0.496,-0.278 0,0"
           style="fill:#000000;fill-opacity:1;fill-rule:nonzero;stroke:none"
           id="path4272" />
      </g>
    </g>
  </g>
</svg>
