<?xml version="1.0" encoding="UTF-8" standalone="no"?>
<svg
   xmlns:dc="http://purl.org/dc/elements/1.1/"
   xmlns:cc="http://creativecommons.org/ns#"
   xmlns:rdf="http://www.w3.org/1999/02/22-rdf-syntax-ns#"
   xmlns:svg="http://www.w3.org/2000/svg"
   xmlns="http://www.w3.org/2000/svg"
   version="1.1"
   id="svg38115"
   viewBox="0 0 54.297737 33.870002"
   height="9.5588675mm"
   width="15.324028mm">
  <defs
     id="defs38117" />
  <metadata
     id="metadata38120">
    <rdf:RDF>
      <cc:Work
         rdf:about="">
        <dc:format>image/svg+xml</dc:format>
        <dc:type
           rdf:resource="http://purl.org/dc/dcmitype/StillImage" />
        <dc:title></dc:title>
      </cc:Work>
    </rdf:RDF>
  </metadata>
  <g
     transform="translate(-347.85112,-515.4272)"
     id="layer1">
    <g
       transform="matrix(1.3333333,0,0,-1.3333333,363.53205,536.7508)"
       id="g6410">
      <path
         d="M 0,0 C 0,0 0.011,0 0.025,0.002 0.058,0.008 0.108,0.011 0.124,0.014 0.081,0.009 0.039,0.002 0,0"
         style="fill:#000000;fill-opacity:1;fill-rule:nonzero;stroke:none"
         id="path6408" />
    </g>
    <g
       transform="matrix(1.3333333,0,0,-1.3333333,382.30672,521.02227)"
       id="g6414">
      <path
         d="m 0,0 c -0.09,-0.051 -0.158,-0.094 -0.204,-0.122 -0.129,-0.076 -0.113,-0.069 0,0 C -0.154,-0.092 -0.083,-0.049 0,0 M 0.555,0.336 C 0.446,0.273 0.352,0.214 0.266,0.163 0.356,0.214 0.453,0.274 0.555,0.336 m 1.09,0.657 C 1.494,0.902 1.352,0.816 1.223,0.739 1.364,0.823 1.505,0.91 1.645,0.993 M 2.276,1.375 C 2.155,1.3 2.021,1.222 1.88,1.136 2.005,1.212 2.136,1.291 2.276,1.375 M -16.09,-6.368 c -1.712,-0.375 -5.133,-0.375 -4.612,1.712 1.117,5.133 10.339,7.139 14.654,7.364 4.315,0.224 6.993,-0.448 8.927,-0.97 -7.142,-4.313 -17.928,-7.879 -18.969,-8.106 m 4.91,9.523 C -6.718,3.896 -2.625,4.27 4.44,2.631 L 3.92,2.333 C 0.945,2.932 -2.924,3.82 -7.907,3.228 c -4.984,-0.597 -11.604,-2.233 -13.91,-6.992 -1.118,-2.901 2.9,-3.794 6.321,-2.753 3.423,1.041 12.907,4.461 22.652,10.191 0.334,0.223 0.558,-0.075 0.185,-0.261 0,0 -18.782,-10.673 -22.427,-12.457 -2.082,-0.971 -4.798,0.07 -5.318,0.445 -0.521,0.37 -2.531,1.637 -2.455,3.943 0.074,2.303 4.015,6.471 11.679,7.811 m -5.386,-13.229 c 0.017,0 0.045,-0.002 0.076,-0.006 -0.038,0.004 -0.063,0.006 -0.076,0.006 m 1.927,0.248 c -0.67,-0.374 -1.115,-0.522 -1.414,-0.819 -0.297,-0.297 -0.967,-0.408 -1.115,-0.038 -0.149,0.374 0.335,0.633 0.78,0.595 0.483,0.073 1.191,0.185 1.525,0.445 L 7.446,3.208 7.454,3.172 Z m 26.258,6.992 c 0.807,-2.921 -1.711,-5.097 -2.975,-5.951 -1.266,-0.857 -5.505,-3.682 -14.953,-3.831 -1.449,-0.037 -5.28,0.482 -6.322,0.671 -0.614,0.224 -1.031,0.196 -1.326,0.163 -0.011,-0.003 -0.043,-0.006 -0.099,-0.012 -0.009,-0.002 -0.015,-0.002 -0.026,-0.005 0.074,0.709 1.265,0.299 1.748,0.224 0.485,-0.076 4.758,-0.625 7.401,-0.523 4.687,0.189 13.242,1.34 15.919,6.177 0.782,1.486 0.446,2.379 0.372,3.049 0.037,-1.601 -0.11,-3.312 -2.528,-4.945 -2.666,-1.807 -7.068,-4.056 -16.811,-3.388 -1.638,0.224 -1.899,0.783 -0.857,1.749 1.041,0.969 5.468,4.983 7.254,6.174 0.408,0.259 0.334,0 0.038,-0.26 -0.299,-0.263 -5.246,-4.797 -5.804,-5.653 -0.557,-0.855 -0.075,-1.374 0.931,-1.45 1.525,-0.038 6.879,-0.261 11.79,1.563 1.673,0.667 5.17,2.08 5.617,4.87 0.454,2.851 -3.536,5.504 -5.356,5.991 l 0.594,0.332 c 1.042,-0.447 4.612,-2.118 5.393,-4.945 m -23.543,-6.957 c 0.595,0.373 9.485,6.101 10.227,6.585 -1.747,-1.303 -7.661,-5.619 -8.367,-6.139 -0.708,-0.518 -1.675,-1.224 -2.493,-1.486 -0.408,-0.187 -0.929,-0.259 -1.339,-0.374 0.038,0.409 1.303,1.044 1.972,1.414 m -6.025,-1.561 c 0.818,-0.299 1.711,-0.444 3.272,0.597 L 4.737,1.292 c 3.348,-1.484 5.283,-3.012 5.432,-5.242 0.147,-2.231 -4.017,-6.211 -15.844,-5.989 -1.265,0.076 -1.377,0.297 -0.82,0.895 0.685,0.728 3.571,4.089 5.209,5.502 0.556,0.595 0.148,0.967 -0.672,0.371 l -12.012,-7.548 c -0.856,-0.633 -0.484,-1.451 0.112,-1.527 0.595,-0.072 3.644,-0.919 8.926,-0.817 5.765,0.113 16.811,2.902 16.961,9.147 0.147,3.277 -4.166,5.731 -5.506,6.249 L 7.677,2.969 C 8.569,3.487 7.863,4.492 6.894,3.897 L 4.962,2.856 c -3.126,0.894 -6.101,1.189 -9.969,1.34 -5.727,0 -17.63,-2.458 -18.597,-9.521 -0.223,-3.203 4.835,-5.728 5.655,-6.027"
         style="fill:#000000;fill-opacity:1;fill-rule:nonzero;stroke:none"
         id="path6412" />
    </g>
    <g
       transform="matrix(1.3333333,0,0,-1.3333333,375.63098,515.4272)"
       id="g6418">
      <path
         d="M 0,0 C 0,0 0.024,-0.002 0.063,-0.005 0.041,-0.005 0.021,-0.002 0,0"
         style="fill:#000000;fill-opacity:1;fill-rule:nonzero;stroke:none"
         id="path6416" />
    </g>
    <g
       transform="matrix(1.3333333,0,0,-1.3333333,377.67005,515.50853)"
       id="g6422">
      <path
         d="M 0,0 C 0.281,-0.009 0.215,-0.008 0,0"
         style="fill:#000000;fill-opacity:1;fill-rule:nonzero;stroke:none"
         id="path6420" />
    </g>
    <g
       transform="matrix(1.3333333,0,0,-1.3333333,375.87378,515.4376)"
       id="g6426">
      <path
         d="M 0,0 C 0.109,-0.004 0.26,-0.009 0.423,-0.017 0.296,-0.012 0.153,-0.006 0,0"
         style="fill:#000000;fill-opacity:1;fill-rule:nonzero;stroke:none"
         id="path6424" />
    </g>
    <path
       d="m 356.19712,543.52947 0.98533,0 0,5.57333 -0.98533,0 z"
       style="fill:#000000;fill-opacity:1;fill-rule:nonzero;stroke:none"
       id="path6428" />
    <g
       transform="matrix(1.3333333,0,0,-1.3333333,351.62845,544.20387)"
       id="g6432">
      <path
         d="m 0,0 c 1.156,0 2.094,-0.735 2.094,-1.641 0,-0.906 -0.938,-1.644 -2.094,-1.644 -1.156,0 -2.094,0.738 -2.094,1.644 C -2.094,-0.735 -1.156,0 0,0 m 0,-3.82 c 1.565,0 2.833,0.977 2.833,2.179 0,1.201 -1.268,2.175 -2.833,2.175 -1.564,0 -2.833,-0.974 -2.833,-2.175 0,-1.202 1.269,-2.179 2.833,-2.179"
         style="fill:#000000;fill-opacity:1;fill-rule:nonzero;stroke:none"
         id="path6430" />
    </g>
    <g
       transform="matrix(1.3333333,0,0,-1.3333333,382.23445,545.11867)"
       id="g6436">
      <path
         d="m 0,0 c 0.884,0 1.602,-0.544 1.602,-1.217 0,-0.67 -0.718,-1.216 -1.602,-1.216 -0.885,0 -1.602,0.546 -1.602,1.216 C -1.602,-0.544 -0.885,0 0,0 m 0,-2.983 c 1.27,0 2.299,0.793 2.299,1.766 0,0.977 -1.029,1.764 -2.299,1.764 -1.269,0 -2.3,-0.787 -2.3,-1.764 0,-0.973 1.031,-1.766 2.3,-1.766"
         style="fill:#000000;fill-opacity:1;fill-rule:nonzero;stroke:none"
         id="path6434" />
    </g>
    <path
       d="m 394.46912,543.52947 0.98666,0 0,5.57333 -0.98666,0 z"
       style="fill:#000000;fill-opacity:1;fill-rule:nonzero;stroke:none"
       id="path6438" />
    <path
       d="m 392.49312,544.6908 0.992,0 0,4.41333 -0.992,0 z"
       style="fill:#000000;fill-opacity:1;fill-rule:nonzero;stroke:none"
       id="path6440" />
    <g
       transform="matrix(1.3333333,0,0,-1.3333333,392.99618,543.49227)"
       id="g6444">
      <path
         d="m 0,0 c 0.239,0 0.432,-0.128 0.432,-0.289 0,-0.157 -0.193,-0.285 -0.432,-0.285 -0.238,0 -0.43,0.128 -0.43,0.285 C -0.43,-0.128 -0.238,0 0,0"
         style="fill:#000000;fill-opacity:1;fill-rule:nonzero;stroke:none"
         id="path6442" />
    </g>
    <g
       transform="matrix(1.3333333,0,0,-1.3333333,369.92325,547.5568)"
       id="g6448">
      <path
         d="m 0,0 c -0.016,0.713 -0.813,0.831 -1.133,0.86 -0.32,0.027 -1.103,0.027 -1.452,0.101 -0.348,0.073 -0.464,0.203 -0.421,0.434 0.043,0.228 0.421,0.393 0.959,0.393 0.652,0 0.971,-0.217 1.175,-0.522 l 0.712,0 c -0.059,0.438 -0.523,1.03 -1.859,1.03 -1.335,0 -1.815,-0.592 -1.815,-1.061 0,-0.462 0.237,-0.766 1.06,-0.856 0.639,-0.056 1.22,-0.07 1.596,-0.158 0.38,-0.088 0.38,-0.218 0.38,-0.348 0.014,-0.379 -0.858,-0.553 -1.279,-0.553 -0.422,0 -0.929,0.1 -1.235,0.61 l -0.711,0 c 0.13,-0.623 0.87,-1.117 1.946,-1.09 C -1.002,-1.13 0.015,-0.783 0,0"
         style="fill:#000000;fill-opacity:1;fill-rule:nonzero;stroke:none"
         id="path6446" />
    </g>
    <g
       transform="matrix(1.3333333,0,0,-1.3333333,375.05418,546.27547)"
       id="g6452">
      <path
         d="m 0,0 c 0,0.743 1.886,0.972 1.886,-0.044 l 0,-2.077 0.74,0 0,2.047 C 2.626,0.856 2.047,1.189 1.13,1.234 0.564,1.262 -0.045,1.032 -0.32,0.77 -0.592,1.064 -1.022,1.208 -1.541,1.234 -1.918,1.262 -2.411,1.101 -2.585,0.843 l 0,0.346 -0.74,0 0,-3.31 0.74,0 0,2.137 c 0,0.738 1.844,0.87 1.844,-0.06 l 0,-2.077 0.741,0 z"
         style="fill:#000000;fill-opacity:1;fill-rule:nonzero;stroke:none"
         id="path6450" />
    </g>
    <g
       transform="matrix(1.3333333,0,0,-1.3333333,360.92005,548.58733)"
       id="g6456">
      <path
         d="M 0,0 C -0.86,0 -1.56,0.557 -1.56,1.242 -1.56,1.925 -0.86,2.48 0,2.48 0.862,2.48 1.56,1.925 1.56,1.242 1.56,0.557 0.862,0 0,0 m 2.251,-0.387 0,4.18 -0.74,0 0,-1.246 C 1.11,2.829 0.583,3.005 0,3.005 c -1.247,0 -2.257,-0.792 -2.257,-1.766 0,-0.977 1.01,-1.766 2.257,-1.766 0.583,0 1.11,0.164 1.511,0.445 l 0,-0.305 z"
         style="fill:#000000;fill-opacity:1;fill-rule:nonzero;stroke:none"
         id="path6454" />
    </g>
    <g
       transform="matrix(1.3333333,0,0,-1.3333333,388.83538,545.28)"
       id="g6460">
      <path
         d="M 0,0 C 0.863,0 1.561,-0.555 1.561,-1.242 1.561,-1.926 0.863,-2.48 0,-2.48 c -0.861,0 -1.561,0.554 -1.561,1.238 C -1.561,-0.555 -0.861,0 0,0 m -2.25,1.313 0,-4.18 0.741,0 0,0.304 c 0.401,-0.28 0.927,-0.444 1.509,-0.444 1.249,0 2.259,0.788 2.259,1.765 0,0.975 -1.01,1.767 -2.259,1.767 -0.582,0 -1.108,-0.176 -1.509,-0.459 l 0,1.247 z"
         style="fill:#000000;fill-opacity:1;fill-rule:nonzero;stroke:none"
         id="path6458" />
    </g>
    <g
       transform="matrix(1.3333333,0,0,-1.3333333,399.13552,544.38947)"
       id="g6464">
      <path
         d="m 0,0 c -1.249,0 -2.26,-0.787 -2.26,-1.764 0,-0.973 1.011,-1.766 2.26,-1.766 0.968,0 1.792,0.475 2.114,1.147 L 1.333,-2.391 C 1.061,-2.748 0.563,-3.002 0,-3.002 c -0.756,0 -1.385,0.441 -1.529,1.006 l -0.002,0 0,0.002 0.016,0.519 c 0.169,0.547 0.786,0.952 1.515,0.952 0.732,0 1.349,-0.39 1.516,-0.946 l -3.031,-0.006 -0.016,-0.519 c 10e-4,0 0.002,0 0.002,-0.002 l 3.767,0 C 2.251,-1.921 2.26,-1.843 2.26,-1.764 2.26,-0.787 1.247,0 0,0"
         style="fill:#000000;fill-opacity:1;fill-rule:nonzero;stroke:none"
         id="path6462" />
    </g>
  </g>
</svg>
