<?xml version="1.0" encoding="UTF-8" standalone="no"?>
<!-- Created with Inkscape (http://www.inkscape.org/) -->

<svg
   xmlns:dc="http://purl.org/dc/elements/1.1/"
   xmlns:cc="http://creativecommons.org/ns#"
   xmlns:rdf="http://www.w3.org/1999/02/22-rdf-syntax-ns#"
   xmlns:svg="http://www.w3.org/2000/svg"
   xmlns="http://www.w3.org/2000/svg"
   xmlns:sodipodi="http://sodipodi.sourceforge.net/DTD/sodipodi-0.dtd"
   xmlns:inkscape="http://www.inkscape.org/namespaces/inkscape"
   width="12.432264mm"
   height="9.3806028mm"
   viewBox="0 0 44.051331 33.238356"
   id="svg38115"
   version="1.1"
   inkscape:version="0.91 r13725"
   sodipodi:docname="peugeot.svg">
  <defs
     id="defs38117" />
  <sodipodi:namedview
     id="base"
     pagecolor="#ffffff"
     bordercolor="#666666"
     borderopacity="1.0"
     inkscape:pageopacity="0.0"
     inkscape:pageshadow="2"
     inkscape:zoom="7.9195959"
     inkscape:cx="39.949338"
     inkscape:cy="14.741333"
     inkscape:document-units="px"
     inkscape:current-layer="layer1"
     showgrid="false"
     fit-margin-top="0"
     fit-margin-left="0"
     fit-margin-right="0"
     fit-margin-bottom="0"
     inkscape:window-width="751"
     inkscape:window-height="405"
     inkscape:window-x="608"
     inkscape:window-y="268"
     inkscape:window-maximized="0" />
  <metadata
     id="metadata38120">
    <rdf:RDF>
      <cc:Work
         rdf:about="">
        <dc:format>image/svg+xml</dc:format>
        <dc:type
           rdf:resource="http://purl.org/dc/dcmitype/StillImage" />
        <dc:title></dc:title>
      </cc:Work>
    </rdf:RDF>
  </metadata>
  <g
     inkscape:label="Layer 1"
     inkscape:groupmode="layer"
     id="layer1"
     transform="translate(-318.0761,-510.74021)">
    <g
       id="g2246"
       transform="matrix(1.3333333,0,0,-1.3333333,344.79649,518.97728)">
      <path
         id="path2244"
         style="fill:#000000;fill-opacity:1;fill-rule:nonzero;stroke:none"
         d="M 0,0 0.382,-0.196 C 0.479,0.07 0.643,0.541 0.791,0.995 0.684,1.241 0.582,1.491 0.483,1.766 0.411,1.534 0.333,1.284 0.257,1.049 0.157,0.733 0.062,0.434 0.036,0.326 0.008,0.207 -0.097,0.127 -0.225,0.127 c -0.062,0 -0.147,0.022 -0.254,0.066 -0.062,-0.255 -0.118,-0.437 -0.18,-0.64 -0.046,-0.151 -0.102,-0.321 -0.164,-0.548 0.279,-0.42 0.731,-1.097 1.01,-1.501 0.005,0 0.01,-0.002 0.015,-0.003 -0.244,0.35 -0.489,0.709 -0.642,0.938 C -0.245,-0.85 -0.156,-0.677 0,0"
         inkscape:connector-curvature="0" />
    </g>
    <g
       id="g2250"
       transform="matrix(1.3333333,0,0,-1.3333333,332.25996,530.79955)">
      <path
         id="path2248"
         style="fill:#000000;fill-opacity:1;fill-rule:nonzero;stroke:none"
         d="M 0,0 C 0.159,-0.038 0.329,-0.096 0.498,-0.174 0.291,0.017 0.044,0.179 -0.21,0.295 -0.119,0.168 0,0 0,0"
         inkscape:connector-curvature="0" />
    </g>
    <g
       id="g2254"
       transform="matrix(1.3333333,0,0,-1.3333333,342.96316,527.32755)">
      <path
         id="path2252"
         style="fill:#000000;fill-opacity:1;fill-rule:nonzero;stroke:none"
         d="M 0,0 C 0.023,-0.015 0.05,-0.033 0.084,-0.057 0.07,-0.047 0.034,-0.022 0,0"
         inkscape:connector-curvature="0" />
    </g>
    <g
       id="g2258"
       transform="matrix(1.3333333,0,0,-1.3333333,334.94756,521.27288)">
      <path
         id="path2256"
         style="fill:#000000;fill-opacity:1;fill-rule:nonzero;stroke:none"
         d="M 0,0 1.553,0.022 1.235,0.4 -0.328,0.375 c -0.12,-0.287 -0.438,-0.637 -1.08,-0.685 0.031,0 0.062,-0.003 0.096,-0.009 0.075,-0.096 0.259,-0.369 0.259,-0.369 C -0.617,-0.758 -0.094,-0.426 0,0"
         inkscape:connector-curvature="0" />
    </g>
    <g
       id="g2262"
       transform="matrix(1.3333333,0,0,-1.3333333,332.57903,521.15768)">
      <path
         id="path2260"
         style="fill:#000000;fill-opacity:1;fill-rule:nonzero;stroke:none"
         d="m 0,0 c -0.152,-0.023 -0.346,-0.086 -0.411,-0.249 l -0.08,-0.216 -0.011,0.005 c 0.091,-0.098 0.203,-0.194 0.336,-0.256 0.073,0.133 0.249,0.289 0.469,0.314 -0.027,0 -0.044,-0.004 -0.072,-0.004 l -0.241,-0.002 0.006,0.241 z"
         inkscape:connector-curvature="0" />
    </g>
    <g
       id="g2266"
       transform="matrix(1.3333333,0,0,-1.3333333,347.43196,516.44222)">
      <path
         id="path2264"
         style="fill:#000000;fill-opacity:1;fill-rule:nonzero;stroke:none"
         d="M 0,0 C -0.054,0.105 -0.105,0.216 -0.14,0.332 -0.271,0.779 -0.171,1.391 0.113,1.884 0.11,1.884 0.11,1.885 0.11,1.885 0.059,1.912 0.012,1.923 -0.038,1.923 -0.204,1.923 -0.345,1.777 -0.415,1.654 -0.607,1.316 -0.6,1.047 -0.373,0.286 c 0.144,-0.498 0.5,-1.374 0.71,-1.9 L 0.384,-1.731 C 0.636,-2.354 0.738,-2.613 0.889,-3.372 1.014,-3.983 0.785,-4.604 0.519,-4.921 0.062,-5.47 -0.634,-5.663 -1.048,-5.732 c 0.222,-0.483 0.359,-0.814 0.421,-1.011 0.059,-0.171 0.153,-0.294 0.298,-0.368 -0.113,0.299 -0.259,0.662 -0.378,0.924 0,0 1.018,0.119 1.628,0.851 0.228,0.274 0.47,0.729 0.465,1.276 C 1.375,-2.833 0.399,-1.029 0.158,-0.406 0.119,-0.306 0.059,-0.165 0,0"
         inkscape:connector-curvature="0" />
    </g>
    <g
       id="g2270"
       transform="matrix(1.3333333,0,0,-1.3333333,333.78743,517.19542)">
      <path
         id="path2268"
         style="fill:#000000;fill-opacity:1;fill-rule:nonzero;stroke:none"
         d="M 0,0 C -0.098,0.129 -0.207,0.271 -0.327,0.432 -0.452,0.4 -0.605,0.386 -0.796,0.386 c -0.181,0 -0.43,0.018 -0.648,0.056 L -1.216,0.123 C -0.805,-0.032 -0.495,-0.07 0,0"
         inkscape:connector-curvature="0" />
    </g>
    <g
       id="g2274"
       transform="matrix(1.3333333,0,0,-1.3333333,338.69489,513.56328)">
      <path
         id="path2272"
         style="fill:#000000;fill-opacity:1;fill-rule:nonzero;stroke:none"
         d="M 0,0 C 0.073,-0.011 0.139,-0.015 0.201,-0.015 0.308,-0.015 0.39,0 0.472,0.024 0.343,0.156 0.18,0.174 0.099,0.174 -0.055,0.174 -0.198,0.116 -0.294,0.02 l 0.002,0 C -0.19,0.02 -0.091,0.012 0,0"
         inkscape:connector-curvature="0" />
    </g>
    <g
       id="g2278"
       transform="matrix(1.3333333,0,0,-1.3333333,348.87596,532.36208)">
      <path
         id="path2276"
         style="fill:#000000;fill-opacity:1;fill-rule:nonzero;stroke:none"
         d="M 0,0 C 0.139,-0.025 0.215,0.189 0.17,0.362 0.094,0.657 -0.093,1.08 -0.104,1.266 l 0,2.473 c -0.163,0.19 -0.384,0.532 -0.394,0.546 l 0,-2.514 0,-0.011 0,-0.009 C -0.518,1.555 -0.413,1.287 -0.353,1.199 -0.238,1.032 -0.251,0.808 -0.324,0.669 -0.382,0.56 -0.482,0.495 -0.59,0.495 L -0.618,0.496 -0.64,0.499 c -0.132,0.022 -0.252,0.044 -0.365,0.064 -0.376,0.067 -0.65,0.116 -0.918,0.116 -0.346,0 -0.694,-0.088 -1.208,-0.302 L -3.239,0.331 -3.34,0.394 -3.364,0.407 c -0.23,0.144 -0.639,0.391 -1.133,0.458 0.176,-0.235 0.31,-0.417 0.31,-0.417 0.695,0 1.213,-0.357 1.49,-0.523 C -1.565,0.401 -1.121,0.203 0,0"
         inkscape:connector-curvature="0" />
    </g>
    <g
       id="g2282"
       transform="matrix(1.3333333,0,0,-1.3333333,331.19876,515.97928)">
      <path
         id="path2280"
         style="fill:#000000;fill-opacity:1;fill-rule:nonzero;stroke:none"
         d="m 0,0 0.052,0.043 0.159,0.125 c -0.161,0.166 -0.292,0.19 -0.383,0.19 -0.023,0 -0.049,-0.004 -0.073,-0.007 -0.005,-0.023 -0.01,-0.041 -0.01,-0.041 0,0 0.127,-0.168 0.226,-0.318 C -0.019,-0.003 -0.011,-0.003 0,0"
         inkscape:connector-curvature="0" />
    </g>
    <g
       id="g2286"
       transform="matrix(1.3333333,0,0,-1.3333333,338.02823,515.83155)">
      <path
         id="path2284"
         style="fill:#000000;fill-opacity:1;fill-rule:nonzero;stroke:none"
         d="m 0,0 c 0,-0.002 -0.002,-0.004 0,-0.008 0,0 0.008,-0.011 0.023,-0.027 0.006,0.011 0.008,0.022 0.014,0.035 z"
         inkscape:connector-curvature="0" />
    </g>
    <g
       id="g2290"
       transform="matrix(1.3333333,0,0,-1.3333333,350.33556,518.68635)">
      <path
         id="path2288"
         style="fill:#000000;fill-opacity:1;fill-rule:nonzero;stroke:none"
         d="m 0,0 c 0.191,0.146 -0.282,0.919 -0.271,1.076 0.01,0.142 0.015,0.272 0.063,0.424 0.051,0.168 0.133,0.417 0.182,0.674 0.09,0.5 -0.127,1.117 -0.492,1.547 0.101,-0.269 0.14,-0.577 0.104,-0.898 C -0.443,2.595 -0.511,2.387 -0.565,2.219 -0.581,2.179 -0.594,2.141 -0.605,2.103 -0.646,1.969 -0.683,1.853 -0.693,1.734 -0.687,1.677 -0.612,1.51 -0.562,1.399 -0.401,1.048 -0.235,0.685 -0.5,0.483 -0.533,0.458 -0.592,0.427 -0.675,0.427 c -0.05,0 -0.112,0.014 -0.168,0.036 0.148,-0.121 0.281,-0.213 0.357,-0.262 0,0 0.402,-0.263 0.486,-0.201"
         inkscape:connector-curvature="0" />
    </g>
    <g
       id="g2294"
       transform="matrix(1.3333333,0,0,-1.3333333,345.32649,513.73062)">
      <path
         id="path2292"
         style="fill:#000000;fill-opacity:1;fill-rule:nonzero;stroke:none"
         d="M 0,0 C -0.082,0.158 -0.172,0.305 -0.26,0.445 -0.178,0.277 -0.098,0.111 -0.022,-0.052 -0.016,-0.033 -0.008,-0.018 0,0"
         inkscape:connector-curvature="0" />
    </g>
    <g
       id="g2298"
       transform="matrix(1.3333333,0,0,-1.3333333,341.74183,526.45848)">
      <path
         id="path2296"
         style="fill:#000000;fill-opacity:1;fill-rule:nonzero;stroke:none"
         d="m 0,0 c 0,0 0.669,-0.491 1.007,-0.712 0.534,-0.351 0.776,-0.51 1.302,-0.776 0.07,0.031 0.148,0.049 0.221,0.06 0.002,0.065 -0.013,0.169 -0.073,0.256 -0.064,0.093 -0.164,0.141 -0.305,0.141 -0.053,0 -0.111,-0.009 -0.173,-0.023 L 1.963,-1.057 1.947,-1.058 1.778,-1.071 1.705,-1.077 1.646,-1.042 c -0.035,0.021 -0.865,0.484 -1.506,0.954 -0.15,0.11 -0.299,0.221 -0.429,0.317 -0.081,0.06 -0.161,0.122 -0.23,0.17 -1.216,-1.124 -2.665,-2.622 -2.773,-2.886 -0.13,-0.305 -0.061,-0.471 -0.008,-0.592 0.082,-0.192 0.072,-0.414 -0.019,-0.553 -0.059,-0.093 -0.158,-0.147 -0.263,-0.147 -0.033,0 -0.066,0.006 -0.101,0.016 -0.143,0.049 -0.898,0.287 -1.625,0.287 -0.358,0 -0.638,-0.06 -0.827,-0.178 l -0.048,-0.032 c 0.161,-0.115 0.308,-0.254 0.437,-0.424 0.652,0.428 2.126,0.038 2.672,-0.143 0.15,-0.063 0.276,0.049 0.262,0.261 -0.012,0.237 -0.249,0.574 -0.116,0.962 C -2.696,-2.337 -0.952,-0.903 0,0"
         inkscape:connector-curvature="0" />
    </g>
    <g
       id="g2302"
       transform="matrix(1.3333333,0,0,-1.3333333,339.03609,512.27488)">
      <path
         id="path2300"
         style="fill:#000000;fill-opacity:1;fill-rule:nonzero;stroke:none"
         d="M 0,0 C -0.037,0.119 -0.039,0.229 -0.016,0.378 0.218,0.414 0.557,0.46 0.774,0.46 0.806,0.46 0.83,0.451 0.848,0.436 0.923,0.388 0.929,0.267 0.827,0.219 0.643,0.137 0.301,0.019 0.022,-0.074 0.012,-0.049 0.007,-0.025 0,0 m 4.453,-7.748 c -0.029,0.006 -0.06,0.01 -0.086,0.018 l 0,-10e-4 c -0.305,0.442 -0.844,1.246 -1.122,1.668 0.198,0.712 0.285,0.885 0.441,1.563 0,0 0.3,-0.165 0.405,-0.165 0.003,0 0.003,-0.001 0.005,-0.001 0.008,0 0.015,0.001 0.023,0.004 l 0,0.002 c 0.006,0.002 0.011,0.002 0.011,0.008 0.072,0.301 0.559,1.717 0.645,2.173 0,0 0.074,-0.202 0.174,-0.496 C 5.035,-3.23 5.127,-3.462 5.221,-3.689 5.366,-4.04 5.515,-4.372 5.647,-4.709 5.949,-5.47 6.057,-5.795 6.155,-6.311 6.23,-6.716 6.191,-7.09 6.032,-7.307 5.949,-7.415 5.809,-7.552 5.599,-7.655 5.59,-7.657 5.585,-7.661 5.576,-7.664 5.525,-7.686 5.473,-7.708 5.416,-7.725 5.403,-7.73 5.392,-7.734 5.379,-7.736 5.348,-7.746 5.319,-7.753 5.282,-7.76 5.265,-7.764 5.249,-7.768 5.228,-7.771 5.174,-7.781 5.116,-7.787 5.062,-7.793 5.035,-7.794 5.01,-7.795 4.98,-7.796 4.949,-7.798 4.914,-7.798 4.878,-7.798 4.822,-7.796 4.765,-7.793 4.705,-7.786 l -0.003,0 C 4.664,-7.782 4.624,-7.778 4.589,-7.771 4.544,-7.766 4.5,-7.756 4.453,-7.748 M 0.846,0.229 c 0.017,0.006 0.038,0.018 0.038,0.018 0,0 -0.013,-0.007 -0.038,-0.018 m -7.208,-2.462 c 0.078,0.017 0.175,0.04 0.281,0.043 0.011,0 0.019,0.002 0.031,0.002 0.208,0 0.455,-0.085 0.711,-0.461 L -5.482,-2.762 -5.679,-2.917 C -5.62,-2.959 -5.465,-3 -5.27,-3.029 c 0.167,-0.025 0.357,-0.042 0.538,-0.042 0.23,0 0.439,0.027 0.551,0.093 0,0 0.235,-0.312 0.507,-0.668 0.352,-0.456 0.763,-0.983 0.836,-1.021 0.073,-0.039 -0.495,-0.07 -1.124,-0.115 -0.542,-0.01 -1.049,-0.017 -1.449,-0.027 -0.358,-0.006 -0.618,-0.278 -0.706,-0.512 -0.086,-0.232 -0.183,-0.722 -0.142,-0.936 l 0.201,0.064 c 0.042,-0.075 0.077,-0.134 0.11,-0.19 0.153,-0.258 0.212,-0.343 0.478,-0.443 0.152,0.377 0.639,0.413 0.808,0.413 0.039,0 0.058,-0.002 0.058,-0.002 l -0.007,-0.418 c 0.95,0.006 1.039,0.692 1.039,0.692 l 1.853,0.028 0.505,-0.61 0.666,-0.81 c -0.96,-0.999 -1.629,-2.235 -2.354,-3.558 0.348,-0.316 0.225,-0.963 -0.347,-1.024 -0.022,-0.002 -0.041,-0.002 -0.063,-0.002 -0.32,0 -0.666,0.229 -1.067,0.229 -0.07,0 -0.142,-0.009 -0.219,-0.025 -0.64,-0.139 -0.509,-0.653 -1.014,-1.327 0.111,-0.027 0.22,-0.065 0.334,-0.109 0.394,-0.164 0.776,-0.433 1.048,-0.745 0.247,0.157 0.593,0.215 0.952,0.215 0.642,0 1.345,-0.181 1.697,-0.298 0.011,-0.003 0.019,-0.006 0.028,-0.006 0.103,0 0.139,0.202 0.063,0.374 -0.063,0.154 -0.153,0.389 0.011,0.775 0.146,0.348 1.801,2.028 2.972,3.094 0.002,0 0.018,-0.01 0.039,-0.025 0.1,-0.073 0.433,-0.321 0.777,-0.572 0.634,-0.466 1.47,-0.95 1.47,-0.95 l 0.213,0.019 c 0.088,0.021 0.169,0.028 0.237,0.025 0.044,-0.003 0.085,-0.007 0.123,-0.016 0.017,-0.003 0.033,-0.01 0.052,-0.015 0.033,-0.011 0.067,-0.025 0.096,-0.043 0.024,-0.014 0.046,-0.031 0.067,-0.049 0.008,-0.002 0.01,-0.008 0.018,-0.011 0.144,-0.132 0.198,-0.33 0.198,-0.483 0,-0.061 -0.008,-0.115 -0.022,-0.155 -0.023,-0.056 -0.051,-0.104 -0.085,-0.146 -0.009,-0.01 -0.021,-0.016 -0.029,-0.026 -0.031,-0.029 -0.058,-0.057 -0.095,-0.079 -0.016,-0.007 -0.03,-0.013 -0.045,-0.018 -0.038,-0.021 -0.083,-0.037 -0.127,-0.047 -0.003,0 -0.005,0 -0.005,-0.003 -0.061,-0.01 -0.126,-0.014 -0.193,-0.009 -0.308,0.023 -0.648,0.171 -1.056,-0.07 -0.415,-0.231 -0.24,-1.012 -0.49,-1.338 0.164,0 0.325,-0.023 0.476,-0.056 0.469,-0.108 0.846,-0.343 1.052,-0.471 1.13,0.478 1.473,0.325 2.623,0.13 0.081,-0.015 0.138,0.216 0.048,0.367 -0.073,0.127 -0.206,0.432 -0.186,0.679 l -0.003,0.749 0,1.727 0,0.282 -0.001,0 0,0.005 c -0.233,-0.03 -0.419,-0.018 -0.58,0.022 -0.15,0.038 -0.28,0.102 -0.374,0.188 0,0.003 -0.002,0.004 -0.002,0.005 -0.039,0.034 -0.07,0.069 -0.099,0.108 -0.002,0.003 -0.005,0.004 -0.005,0.007 -0.063,0.082 -0.107,0.175 -0.139,0.271 -0.092,0.296 -0.361,0.89 -0.542,1.272 0,0 0.757,0.021 1.368,0.431 0.135,0.089 0.263,0.199 0.373,0.332 0.077,0.092 0.148,0.208 0.208,0.341 0.116,0.26 0.185,0.596 0.126,1.006 -0.093,0.672 -0.337,1.241 -0.484,1.622 -0.2,0.532 -0.616,1.45 -0.778,1.997 -0.113,0.39 -0.192,0.668 -0.202,0.906 -0.003,0.057 -0.003,0.113 0,0.167 l 0,0.001 c 0.012,0.168 0.061,0.324 0.161,0.5 0.111,0.208 0.343,0.405 0.617,0.386 0.066,-0.005 0.141,-0.02 0.213,-0.057 C 6.749,-1.15 6.694,-1.217 6.67,-1.26 6.589,-1.387 6.524,-1.521 6.473,-1.662 6.328,-2.03 6.288,-2.426 6.379,-2.73 6.486,-3.086 6.733,-3.4 6.964,-3.625 7.11,-3.769 7.251,-3.878 7.345,-3.939 c 0,0 0.411,-0.266 0.493,-0.204 0.193,0.146 -0.309,0.853 -0.29,1.082 0.01,0.144 0.051,0.273 0.099,0.424 0.051,0.171 0.158,0.429 0.187,0.685 0.055,0.496 -0.102,0.966 -0.409,1.285 C 7.227,-0.463 6.964,-0.319 6.654,-0.278 6.449,-0.25 5.61,-0.121 5.027,-0.993 4.974,-1.072 4.911,-1.205 4.857,-1.359 4.804,-1.53 4.765,-1.724 4.772,-1.91 4.486,-1.226 4.138,-0.447 3.755,0.126 3.708,0.189 3.56,0.369 3.414,0.524 3.294,0.652 3.175,0.765 3.123,0.78 2.641,0.909 1.696,1.136 1.433,1.151 c 0,0 0.004,-0.003 0.004,-0.006 C 1.433,1.147 1.431,1.148 1.426,1.148 1.217,1.127 -0.353,0.566 -0.404,0.496 c 0,0 -0.183,-0.188 -0.183,-0.191 -0.37,-0.091 -1.14,-0.21 -1.197,-0.283 -0.164,-0.201 -0.049,-0.389 0.005,-0.471 0.019,-0.031 0.141,-0.466 0.362,-0.466 l 0.056,0 0.543,-0.001 c 0.135,0.23 0.395,0.356 0.658,0.356 0.294,0 0.587,-0.156 0.714,-0.499 -0.032,-0.013 -0.06,-0.026 -0.089,-0.038 -0.146,-0.062 -0.288,-0.12 -0.52,-0.12 -0.062,0 -0.128,0.006 -0.201,0.015 -0.011,0 -0.02,10e-4 -0.031,0.002 -0.086,0.012 -0.175,0.018 -0.261,0.018 -0.265,0 -0.504,-0.051 -0.65,-0.105 -0.092,-0.034 -0.146,-0.068 -0.146,-0.091 0.005,-0.117 0.625,-0.155 0.786,-0.157 0.185,-0.006 0.432,-0.019 0.685,-0.019 0.117,0 0.239,0.003 0.353,0.012 -0.031,-0.043 -0.067,-0.08 -0.103,-0.113 -0.19,-0.168 -0.463,-0.237 -0.664,-0.237 l -0.524,0 -0.426,0 c 0.045,-0.202 0.125,-0.387 0.239,-0.541 l 0.391,0 c 0.173,-0.012 0.193,-0.057 0.171,-0.134 -0.01,-0.039 -0.028,-0.085 -0.045,-0.137 -0.024,-0.064 -0.051,-0.137 -0.084,-0.212 -0.105,-0.263 -0.264,-0.569 -0.487,-0.767 -0.964,0.841 -2.258,1.892 -3.168,2.56 -0.175,0.125 -0.693,0.227 -1.187,0.227 -0.268,0 -0.533,-0.03 -0.726,-0.103 -0.159,-0.06 -0.258,-0.189 -0.313,-0.293 l 0.271,-0.079 c -0.5,-0.299 -0.187,-0.862 -0.187,-0.862"
         inkscape:connector-curvature="0" />
    </g>
    <g
       id="g2306"
       transform="matrix(1.3333333,0,0,-1.3333333,353.17276,543.23448)">
      <path
         id="path2304"
         style="fill:#000000;fill-opacity:1;fill-rule:nonzero;stroke:none"
         d="m 0,0 c -0.775,0 -1.249,0.629 -1.271,1.747 -0.03,1.216 0.422,1.958 1.248,1.959 C 0.804,3.707 1.19,2.936 1.217,1.848 1.231,1.182 1.021,0.003 0,0 M -0.067,4.28 C -1.545,4.244 -2.521,3.23 -2.488,1.761 c 0.038,-1.477 0.971,-2.354 2.465,-2.318 1.512,0.038 2.442,1.023 2.442,2.578 0,1.381 -1.008,2.296 -2.486,2.259"
         inkscape:connector-curvature="0" />
    </g>
    <g
       id="g2310"
       transform="matrix(1.3333333,0,0,-1.3333333,341.63116,543.06982)">
      <path
         id="path2308"
         style="fill:#000000;fill-opacity:1;fill-rule:nonzero;stroke:none"
         d="M 0,0 C 0,0 -0.016,-0.014 -0.042,-0.026 -0.193,-0.094 -0.5,-0.131 -0.81,-0.087 c -0.791,0.11 -1.314,0.829 -1.314,1.795 0,1.142 1.008,1.761 1.684,1.789 0.673,0.027 1.121,-0.115 1.335,-0.175 l 0.174,0.54 c -0.477,0.222 -1.082,0.297 -1.607,0.297 -2.164,0 -2.875,-1.453 -2.875,-2.434 0,-1.269 0.847,-2.406 2.652,-2.406 1.241,0 1.953,0.424 1.953,0.424 l 0,1.949 -1.192,0 z"
         inkscape:connector-curvature="0" />
    </g>
    <g
       id="g2314"
       transform="matrix(1.3333333,0,0,-1.3333333,342.82116,538.64075)">
      <path
         id="path2312"
         style="fill:#000000;fill-opacity:1;fill-rule:nonzero;stroke:none"
         d="M 0,0 C 0,0 -0.007,0.002 -0.016,0.005 -0.014,0.005 -0.005,0.002 0,0"
         inkscape:connector-curvature="0" />
    </g>
    <g
       id="g2318"
       transform="matrix(1.3333333,0,0,-1.3333333,342.76916,538.62382)">
      <path
         id="path2316"
         style="fill:#000000;fill-opacity:1;fill-rule:nonzero;stroke:none"
         d="M 0,0 C -0.089,0.025 -0.044,0.012 0,0"
         inkscape:connector-curvature="0" />
    </g>
    <g
       id="g2322"
       transform="matrix(1.3333333,0,0,-1.3333333,356.56476,538.58275)">
      <path
         id="path2320"
         style="fill:#000000;fill-opacity:1;fill-rule:nonzero;stroke:none"
         d="m 0,0 1.456,0 0,-3.841 1.217,0 0,3.841 1.499,0 0,0.625 -4.172,0 z"
         inkscape:connector-curvature="0" />
    </g>
    <g
       id="g2326"
       transform="matrix(1.3333333,0,0,-1.3333333,320.98143,540.83675)">
      <path
         id="path2324"
         style="fill:#000000;fill-opacity:1;fill-rule:nonzero;stroke:none"
         d="m 0,0 -0.908,0 0,1.757 0.966,0.006 c 0.554,0 0.989,-0.394 0.989,-0.88 C 1.047,0.391 0.62,0 0,0 M 1.624,2.144 C 1.3,2.283 1.094,2.315 0.193,2.315 l -2.372,0 0,-4.466 1.276,0 0,1.645 1.2,0 c 1.111,0 2.041,0.235 2.041,1.524 0,0.431 -0.306,0.953 -0.714,1.126"
         inkscape:connector-curvature="0" />
    </g>
    <g
       id="g2330"
       transform="matrix(1.3333333,0,0,-1.3333333,334.63116,541.83208)">
      <path
         id="path2328"
         style="fill:#000000;fill-opacity:1;fill-rule:nonzero;stroke:none"
         d="m 0,0 c 0,-0.61 -0.397,-1 -0.951,-1 l -0.004,0 c -0.55,0 -0.968,0.369 -0.968,1.049 l 0,3.013 -1.185,0 0,-2.697 c 0,-0.756 0.184,-1.103 0.442,-1.361 0.43,-0.43 0.903,-0.613 1.711,-0.613 l 0.008,0 c 0.809,0 1.286,0.215 1.715,0.646 0.26,0.257 0.419,0.571 0.419,1.302 l 0,2.723 -1.187,0 z"
         inkscape:connector-curvature="0" />
    </g>
    <g
       id="g2334"
       transform="matrix(1.3333333,0,0,-1.3333333,324.80036,543.70448)">
      <path
         id="path2332"
         style="fill:#000000;fill-opacity:1;fill-rule:nonzero;stroke:none"
         d="m 0,0 3.438,0 0,0.719 -2.228,0 0,1.45 1.801,0 0,0.543 -1.801,0 0,1.119 2.228,0 0,0.635 -3.438,0 z"
         inkscape:connector-curvature="0" />
    </g>
    <g
       id="g2338"
       transform="matrix(1.3333333,0,0,-1.3333333,344.59076,543.70448)">
      <path
         id="path2336"
         style="fill:#000000;fill-opacity:1;fill-rule:nonzero;stroke:none"
         d="m 0,0 3.438,0 0,0.702 -2.23,0 0,1.451 1.802,0 0,0.542 -1.802,0 0,1.12 2.23,0 0,0.651 -3.438,0 z"
         inkscape:connector-curvature="0" />
    </g>
  </g>
</svg>
