<?xml version="1.0" encoding="UTF-8" standalone="no"?>
<svg
   xmlns:dc="http://purl.org/dc/elements/1.1/"
   xmlns:cc="http://creativecommons.org/ns#"
   xmlns:rdf="http://www.w3.org/1999/02/22-rdf-syntax-ns#"
   xmlns:svg="http://www.w3.org/2000/svg"
   xmlns="http://www.w3.org/2000/svg"
   version="1.1"
   id="svg38115"
   viewBox="0 0 29.014669 32.222668"
   height="9.0939531mm"
   width="8.1885843mm">
  <defs
     id="defs38117" />
  <metadata
     id="metadata38120">
    <rdf:RDF>
      <cc:Work
         rdf:about="">
        <dc:format>image/svg+xml</dc:format>
        <dc:type
           rdf:resource="http://purl.org/dc/dcmitype/StillImage" />
        <dc:title></dc:title>
      </cc:Work>
    </rdf:RDF>
  </metadata>
  <g
     transform="translate(11.45284,-320.24343)"
     id="layer1">
    <g
       transform="matrix(1.3333334,0,0,-1.3333334,-8.651507,337.09143)"
       id="g6312">
      <path
         d="M 0,0 C -0.752,2.128 -0.806,2.282 -0.808,2.286 L -1.585,4.979 C -1.815,5.81 -1.844,6.498 -1.844,6.5 l -0.002,0.114 c 0,1.219 0.62,1.968 0.655,2.006 0.044,0.065 0.462,0.64 1.357,1.081 0.206,0.098 1.304,0.617 2.645,1.136 0.014,0.005 1.605,0.612 2.969,0.997 0.199,0.055 1.227,0.342 2.003,0.458 0.006,0 0.584,0.089 0.971,0.089 l 0.05,0 c 0.384,0 0.921,-0.076 0.983,-0.089 0.843,-0.125 1.995,-0.455 2.007,-0.46 1.345,-0.38 2.94,-0.99 2.956,-0.995 1.355,-0.523 2.455,-1.041 2.663,-1.141 0.909,-0.449 1.316,-1.041 1.342,-1.079 0.067,-0.078 0.65,-0.8 0.65,-1.979 L 19.403,6.5 C 19.402,6.489 19.372,5.812 19.145,4.979 18.429,2.469 18.377,2.291 18.377,2.286 17.718,0.443 17.586,0.075 17.56,-0.005 l -10e-4,0.003 C 17.47,-0.236 17.008,-1.444 16.544,-2.364 16.541,-2.371 16.228,-3.048 15.348,-4.478 14.671,-5.537 13.885,-6.759 13.869,-6.786 13.863,-6.793 13.206,-7.765 12.387,-8.75 12.166,-9.007 11.403,-9.888 10.864,-10.3 10.75,-10.399 9.738,-11.275 8.844,-11.275 l -0.059,0 -0.059,0 c -0.208,0 -0.971,0.07 -2.032,0.975 C 6.13,-9.87 5.333,-8.929 5.173,-8.737 4.4,-7.82 3.755,-6.884 3.686,-6.782 L 2.468,-4.884 C 2.313,-4.642 2.21,-4.48 2.207,-4.475 1.368,-3.106 1.059,-2.439 1.024,-2.362 0.524,-1.374 0.004,-0.009 0,0 m 2.254,-5.019 1.222,-1.906 c 0.117,-0.17 0.737,-1.068 1.507,-1.983 0.158,-0.186 0.972,-1.148 1.553,-1.589 1.089,-0.93 1.892,-1.034 2.19,-1.034 0.034,0 0.061,0.004 0.065,0.004 l 0.053,0 c 0.967,0 1.991,0.862 2.181,1.03 0.553,0.424 1.331,1.32 1.565,1.593 0.821,0.99 1.486,1.97 1.489,1.974 0.007,0.013 1.235,1.928 1.486,2.318 0.887,1.447 1.196,2.112 1.206,2.137 0.469,0.929 0.936,2.147 1.024,2.382 l 0.005,0.011 c 0.059,0.168 0.817,2.283 0.819,2.291 0.008,0.035 0.771,2.703 0.771,2.703 0.235,0.861 0.266,1.568 0.267,1.577 l 0.003,0.148 c 0,1.271 -0.639,2.059 -0.703,2.134 -0.046,0.069 -0.478,0.682 -1.436,1.156 -0.207,0.098 -1.316,0.621 -2.68,1.148 -0.017,0.006 -1.622,0.618 -2.976,1.002 -0.012,0.003 -1.167,0.336 -2.042,0.467 -0.061,0.009 -0.616,0.092 -1.019,0.092 l -0.05,0 C 8.35,12.636 7.768,12.548 7.744,12.544 6.954,12.426 5.911,12.138 5.704,12.077 4.345,11.691 2.73,11.081 2.718,11.075 1.369,10.554 0.264,10.029 0.044,9.927 -0.88,9.468 -1.321,8.882 -1.393,8.775 -1.465,8.693 -2.101,7.902 -2.101,6.611 l 0.003,-0.119 c 0,-0.007 0.03,-0.724 0.267,-1.58 l 0.783,-2.708 c 0.009,-0.028 0.809,-2.29 0.81,-2.29 0.003,-0.013 0.527,-1.391 1.033,-2.386 0.034,-0.075 0.348,-0.753 1.195,-2.133 0.001,-0.003 0.104,-0.166 0.264,-0.414"
         style="fill:#000000;fill-opacity:1;fill-rule:nonzero;stroke:none"
         id="path6310" />
    </g>
    <g
       transform="matrix(1.3333334,0,0,-1.3333334,-0.290837,326.58236)"
       id="g6316">
      <path
         d="m 0,0 c 0.014,-0.193 0.138,-0.262 0.428,-0.241 l 1.099,0.086 c 0.174,0.011 0.282,0.047 0.339,0.114 0.033,0.04 0.045,0.089 0.047,0.154 0,0.01 0.002,0.017 0.002,0.029 L 1.872,0.73 C 1.855,0.924 1.733,0.996 1.442,0.974 L 0.342,0.892 C 0.168,0.876 0.061,0.839 0.003,0.776 -0.035,0.728 -0.05,0.667 -0.044,0.59 l 0.002,-0.03 z"
         style="fill:#000000;fill-opacity:1;fill-rule:nonzero;stroke:none"
         id="path6314" />
    </g>
    <g
       transform="matrix(1.3333334,0,0,-1.3333334,7.540493,326.91436)"
       id="g6320">
      <path
         d="m 0,0 c 0.048,-0.071 0.152,-0.12 0.324,-0.151 l 1.085,-0.192 c 0.285,-0.053 0.416,0.005 0.45,0.192 L 1.964,0.43 C 1.966,0.443 1.966,0.452 1.967,0.462 1.983,0.63 1.878,0.723 1.609,0.771 L 0.524,0.964 C 0.352,0.997 0.239,0.987 0.167,0.937 0.12,0.906 0.088,0.849 0.074,0.771 L -0.03,0.19 C -0.038,0.149 -0.038,0.111 -0.031,0.078 -0.027,0.048 -0.017,0.022 0,0"
         style="fill:#000000;fill-opacity:1;fill-rule:nonzero;stroke:none"
         id="path6318" />
    </g>
    <g
       transform="matrix(1.3333334,0,0,-1.3333334,-4.229637,326.81276)"
       id="g6324">
      <path
         d="m 0,0 c 0.111,0.025 1.214,0.259 1.214,0.259 0.237,0.049 0.309,0.11 0.326,0.168 0.002,0.009 0.004,0.019 0.004,0.03 0,0.013 -0.003,0.027 -0.004,0.04 L 1.508,0.636 C 1.489,0.732 1.474,0.805 1.049,0.713 1.049,0.713 0.01,0.49 -0.1,0.468 -0.098,0.451 -0.093,0.434 -0.086,0.408 -0.062,0.288 -0.016,0.073 0,0"
         style="fill:#000000;fill-opacity:1;fill-rule:nonzero;stroke:none"
         id="path6322" />
    </g>
    <g
       transform="matrix(1.3333334,0,0,-1.3333334,-6.031107,326.8805)"
       id="g6328">
      <path
         d="m 0,0 c -0.037,0.106 -0.099,0.143 -0.342,0.059 0,0 -1.077,-0.374 -1.185,-0.413 0.005,-0.012 0.011,-0.033 0.02,-0.055 0.039,-0.116 0.112,-0.325 0.137,-0.398 0.249,0.084 1.207,0.42 1.207,0.42 0.115,0.04 0.188,0.087 0.212,0.139 0.003,0.006 0.003,0.013 0.004,0.017 0.004,0.013 0.008,0.02 0.008,0.032 0,0.018 -0.004,0.033 -0.011,0.057 z"
         style="fill:#000000;fill-opacity:1;fill-rule:nonzero;stroke:none"
         id="path6326" />
    </g>
    <g
       transform="matrix(1.3333334,0,0,-1.3333334,-5.430177,327.18383)"
       id="g6332">
      <path
         d="m 0,0 c -0.012,-0.171 -0.142,-0.312 -0.527,-0.447 0,0 -1.088,-0.377 -1.195,-0.413 0.004,-0.014 0.012,-0.033 0.019,-0.057 0.056,-0.163 0.183,-0.528 0.183,-0.528 l -0.019,-0.008 -0.357,-0.124 -0.536,1.547 -0.02,0.057 1.621,0.565 C -0.612,0.667 -0.437,0.7 -0.294,0.632 -0.193,0.584 -0.12,0.486 -0.068,0.338 -0.027,0.222 0.002,0.12 0.002,0.029 0.002,0.019 0,0.01 0,0 m 6.442,-1.104 c 3.414,0 6.192,-2.777 6.192,-6.192 0,-3.414 -2.778,-6.193 -6.192,-6.193 -3.413,0 -6.192,2.779 -6.192,6.193 0,3.415 2.779,6.192 6.192,6.192 M 1.982,1.302 C 2.301,1.372 2.498,1.364 2.624,1.285 2.74,1.208 2.781,1.076 2.805,0.959 L 2.833,0.832 C 2.841,0.8 2.843,0.77 2.843,0.741 2.843,0.732 2.841,0.722 2.841,0.712 2.829,0.613 2.777,0.543 2.706,0.492 c 0,0 -0.101,-0.078 -0.271,-0.131 L 2.494,0.321 3.188,-0.144 3.116,-0.159 2.727,-0.244 2.042,0.216 C 1.73,0.148 1.048,0.002 0.962,-0.015 0.966,-0.025 0.969,-0.05 0.976,-0.074 1.011,-0.241 1.091,-0.622 1.091,-0.622 L 1.078,-0.623 0.702,-0.706 0.363,0.895 0.35,0.953 Z M 4.148,1.637 5.301,1.724 C 5.845,1.765 6.091,1.587 6.126,1.134 L 6.159,0.708 C 6.163,0.647 6.163,0.593 6.16,0.543 6.132,0.197 5.904,0.035 5.431,-0.003 L 4.276,-0.088 C 3.975,-0.111 3.772,-0.072 3.64,0.043 3.528,0.14 3.469,0.286 3.453,0.502 L 3.42,0.93 C 3.418,0.967 3.419,0.996 3.419,1.029 3.424,1.414 3.646,1.6 4.148,1.637 M 6.58,1.698 6.583,1.763 9.009,1.637 9.005,1.573 8.992,1.337 c 0,0 -0.904,0.047 -1.013,0.052 C 7.974,1.276 7.905,-0.008 7.905,-0.008 l -0.392,0.025 -0.003,0 c 0,0 0.053,1.048 0.068,1.331 C 7.579,1.378 7.58,1.4 7.583,1.409 7.473,1.414 6.605,1.462 6.569,1.463 l -0.002,0 z m 2.742,-1.157 0.074,0.42 c 0.081,0.451 0.345,0.604 0.882,0.504 L 11.417,1.262 C 11.896,1.174 12.104,0.978 12.083,0.617 12.08,0.574 12.077,0.532 12.067,0.484 L 11.992,0.059 c -0.08,-0.449 -0.344,-0.596 -0.882,-0.5 L 9.972,-0.239 C 9.521,-0.159 9.314,0.021 9.306,0.343 9.305,0.406 9.308,0.469 9.322,0.541 m 3.54,0.329 0.021,0.057 0.464,-0.152 c 0,0 1.132,-1.611 1.261,-1.797 0.064,0.2 0.41,1.254 0.41,1.254 L 15.394,0.108 15.375,0.051 14.868,-1.504 14.403,-1.35 c 0,0 -1.132,1.611 -1.261,1.795 -0.065,-0.198 -0.408,-1.254 -0.408,-1.254 l -0.358,0.119 -0.02,0.005 z M 1.539,-14.034 c 0.006,-0.008 0.656,-0.965 1.468,-1.925 0.009,-0.014 0.895,-1.08 1.473,-1.514 l 0.004,-0.006 0.004,-0.002 c 1.122,-0.963 1.852,-0.901 1.858,-0.901 l 0.018,0.003 0.012,0 c 0.806,-0.035 1.848,0.885 1.859,0.895 l 0.005,0.005 0.005,0.006 c 0.58,0.434 1.476,1.5 1.486,1.514 0.798,0.959 1.447,1.917 1.451,1.923 0,0 1.478,2.303 1.477,2.298 0.856,1.4 1.172,2.074 1.176,2.088 0.495,0.979 0.998,2.316 1.002,2.329 0,0 0.809,2.263 0.814,2.278 0.018,0.062 0.765,2.681 0.764,2.681 0.216,0.783 0.247,1.439 0.247,1.445 0.046,1.164 -0.569,1.893 -0.575,1.898 L 16.079,0.991 16.073,1 C 16.068,1.006 15.693,1.56 14.856,1.974 14.844,1.98 13.678,2.541 12.218,3.104 12.202,3.111 10.635,3.707 9.289,4.089 9.279,4.092 8.134,4.419 7.322,4.54 7.314,4.542 6.757,4.626 6.388,4.626 l -0.05,0 C 5.978,4.626 5.42,4.542 5.415,4.54 4.602,4.419 3.459,4.092 3.447,4.089 2.1,3.707 0.525,3.111 0.51,3.104 -0.941,2.541 -2.106,1.98 -2.116,1.974 -2.959,1.56 -3.344,1.003 -3.347,0.999 L -3.359,0.983 c -0.005,-0.007 -0.579,-0.695 -0.579,-1.799 0,-0.036 0,-0.068 0.002,-0.101 0,-0.006 0.032,-0.671 0.247,-1.443 0,0 0.771,-2.676 0.774,-2.683 0.02,-0.061 0.805,-2.278 0.803,-2.277 0.006,-0.014 0.518,-1.351 1.012,-2.33 l 0.003,-0.008 c 0.004,-0.008 0.309,-0.68 1.164,-2.075 0,0 1.475,-2.303 1.472,-2.301"
         style="fill:#000000;fill-opacity:1;fill-rule:nonzero;stroke:none"
         id="path6330" />
    </g>
    <g
       transform="matrix(1.3333334,0,0,-1.3333334,2.759293,339.82716)"
       id="g6336">
      <path
         d="M 0,0 C 0.002,-0.033 0.002,-0.063 0.003,-0.095 0.072,0.229 0.256,1.211 0.147,2.063 0.145,2.07 0.145,2.08 0.144,2.09 l 0.029,0 c 0,0.005 -0.001,0.01 -0.001,0.016 l 1.752,0 0.093,0 C 1.82,2.191 0.884,2.551 -0.614,2.538 -0.607,2.532 -0.6,2.522 -0.59,2.51 -0.462,2.346 -0.067,1.719 0,0"
         style="fill:#000000;fill-opacity:1;fill-rule:nonzero;stroke:none"
         id="path6334" />
    </g>
    <g
       transform="matrix(1.3333334,0,0,-1.3333334,5.815963,334.01596)"
       id="g6340">
      <path
         d="M 0,0 C 0.027,-0.016 0.05,-0.03 0.073,-0.048 0.03,0.034 -0.089,0.207 -0.404,0.375 -0.417,0.379 -0.433,0.392 -0.448,0.399 l 0.058,0 C -0.401,0.407 -0.41,0.412 -0.421,0.417 L 0.846,0.459 0.931,0.461 C 0.713,0.558 -0.613,1.097 -1.937,0.672 -1.929,0.67 -1.916,0.668 -1.903,0.662 -1.651,0.6 -0.529,0.309 0,0"
         style="fill:#000000;fill-opacity:1;fill-rule:nonzero;stroke:none"
         id="path6338" />
    </g>
    <g
       transform="matrix(1.3333334,0,0,-1.3333334,-4.225777,337.20076)"
       id="g6344">
      <path
         d="M 0,0 C 0.02,0.003 0.039,0.005 0.059,0.008 0.041,0.016 0.027,0.019 0.027,0.019 1.822,0.239 3.13,-0.13 3.495,-0.248 3.518,-0.253 3.536,-0.261 3.552,-0.269 2.864,0.843 0.675,1.846 0.313,2.01 0.28,2.024 0.26,2.032 0.26,2.032 0.281,2.035 0.301,2.035 0.32,2.037 0.298,2.045 0.287,2.049 0.287,2.049 2.168,2.191 3.552,1.584 3.933,1.396 3.955,1.382 3.974,1.376 3.989,1.368 3.152,2.966 1.345,3.802 1.345,3.802 1.405,3.87 1.466,3.934 1.527,3.994 1.842,4.316 2.168,4.576 2.491,4.792 4.149,5.895 5.765,5.706 5.765,5.706 5.746,5.703 5.727,5.699 5.709,5.694 5.727,5.689 5.737,5.689 5.737,5.689 5.709,5.683 5.683,5.674 5.656,5.668 5.443,5.611 5.241,5.509 5.052,5.384 4.945,5.312 4.842,5.232 4.748,5.148 4.277,4.74 3.97,4.271 3.97,4.271 4.866,4.672 6.614,4.526 6.614,4.526 8.952,3.584 10.745,1.482 10.745,1.482 10.728,1.485 10.713,1.485 10.697,1.49 10.71,1.472 10.718,1.466 10.718,1.466 10.698,1.468 10.68,1.47 10.66,1.472 10.154,1.544 9.533,1.556 9.339,1.559 9.358,1.549 9.374,1.539 9.393,1.531 10.434,0.977 10.794,0.372 10.794,0.372 10.531,-0.272 10.162,-0.689 9.842,-0.956 9.73,-1.052 9.623,-1.132 9.529,-1.189 9.3,-1.338 9.136,-1.395 9.136,-1.395 c 0.119,0.241 0.283,0.783 0.283,0.783 L 8.688,-0.28 C 8.215,-0.14 7.933,-0.329 7.933,-0.329 7.271,-0.588 6.586,-0.897 6.586,-0.897 6.541,-0.918 6.5,-0.943 6.461,-0.968 6.418,-0.995 6.378,-1.025 6.344,-1.06 5.889,-1.48 6.188,-2.084 6.188,-2.084 6.749,-2.609 6.897,-3.049 7.109,-3.239 7.322,-3.43 7.487,-3.312 7.487,-3.312 l 0.566,0.334 C 7.846,-3.716 7.475,-4.198 7.079,-4.516 7.01,-4.572 6.939,-4.623 6.868,-4.672 6.188,-5.128 5.5,-5.143 5.5,-5.143 4.461,-1.871 0.535,-0.211 0.05,-0.019 0.017,-0.004 0,0 0,0 m 5.539,-5.637 c 3.234,0 5.855,2.618 5.855,5.854 0,3.233 -2.621,5.853 -5.855,5.853 -3.233,0 -5.856,-2.62 -5.856,-5.853 0,-3.236 2.623,-5.854 5.856,-5.854"
         style="fill:#000000;fill-opacity:1;fill-rule:nonzero;stroke:none"
         id="path6342" />
    </g>
  </g>
</svg>
