<?xml version="1.0" encoding="UTF-8" standalone="no"?>
<!-- Created with Inkscape (http://www.inkscape.org/) -->

<svg
   xmlns:dc="http://purl.org/dc/elements/1.1/"
   xmlns:cc="http://creativecommons.org/ns#"
   xmlns:rdf="http://www.w3.org/1999/02/22-rdf-syntax-ns#"
   xmlns:svg="http://www.w3.org/2000/svg"
   xmlns="http://www.w3.org/2000/svg"
   xmlns:sodipodi="http://sodipodi.sourceforge.net/DTD/sodipodi-0.dtd"
   xmlns:inkscape="http://www.inkscape.org/namespaces/inkscape"
   width="13.991071mm"
   height="1.9439744mm"
   viewBox="0 0 49.574661 6.8880983"
   id="svg38115"
   version="1.1"
   inkscape:version="0.91 r13725"
   sodipodi:docname="renault.svg">
  <defs
     id="defs38117" />
  <sodipodi:namedview
     id="base"
     pagecolor="#ffffff"
     bordercolor="#666666"
     borderopacity="1.0"
     inkscape:pageopacity="0.0"
     inkscape:pageshadow="2"
     inkscape:zoom="7.9195959"
     inkscape:cx="24.787331"
     inkscape:cy="3.4440541"
     inkscape:document-units="px"
     inkscape:current-layer="layer1"
     showgrid="false"
     fit-margin-top="0"
     fit-margin-left="0"
     fit-margin-right="0"
     fit-margin-bottom="0"
     inkscape:window-width="751"
     inkscape:window-height="405"
     inkscape:window-x="608"
     inkscape:window-y="268"
     inkscape:window-maximized="0" />
  <metadata
     id="metadata38120">
    <rdf:RDF>
      <cc:Work
         rdf:about="">
        <dc:format>image/svg+xml</dc:format>
        <dc:type
           rdf:resource="http://purl.org/dc/dcmitype/StillImage" />
        <dc:title></dc:title>
      </cc:Work>
    </rdf:RDF>
  </metadata>
  <g
     inkscape:label="Layer 1"
     inkscape:groupmode="layer"
     id="layer1"
     transform="translate(-333.2381,-525.79319)">
    <g
       id="g2482"
       transform="matrix(1.3333333,0,0,-1.3333333,359.34023,526.25132)">
      <path
         id="path2480"
         style="fill:#000000;fill-opacity:1;fill-rule:nonzero;stroke:none"
         d="m 0,0 0,0.343 -1.599,0 0,-0.343 c 0.203,0 0.505,0.032 0.505,-0.308 l 0,-2.764 c 0.008,-0.008 -1.868,3.413 -1.868,3.413 l -1.875,0 0,-0.341 c 0.206,0 0.505,0.032 0.505,-0.308 l 0,-3.689 c 0,-0.341 -0.299,-0.308 -0.505,-0.308 l 0,-0.35 1.599,0 0,0.35 c -0.207,0 -0.508,-0.033 -0.508,0.308 l 0,2.588 c -0.009,0 1.772,-3.244 1.772,-3.244 l 1.466,0 0,4.345 C -0.508,0.032 -0.209,0 0,0"
         inkscape:connector-curvature="0" />
    </g>
    <g
       id="g2486"
       transform="matrix(1.3333333,0,0,-1.3333333,376.5069,531.93226)">
      <path
         id="path2484"
         style="fill:#000000;fill-opacity:1;fill-rule:nonzero;stroke:none"
         d="m 0,0 c -0.185,-0.074 -0.599,-0.044 -0.627,-0.044 -0.166,0.008 -0.325,0.059 -0.325,0.308 l 0,3.689 c 0,0.339 0.3,0.308 0.505,0.308 l 0,0.341 -2.485,0 0,-0.341 c 0.204,0 0.505,0.031 0.505,-0.308 l 0,-3.689 c 0,-0.342 -0.301,-0.308 -0.583,-0.308 l 0,-0.35 4.089,0 0,1.456 -0.662,0 C 0.417,0.348 0.228,0.093 0,0"
         inkscape:connector-curvature="0" />
    </g>
    <g
       id="g2490"
       transform="matrix(1.3333333,0,0,-1.3333333,377.25943,527.87626)">
      <path
         id="path2488"
         style="fill:#000000;fill-opacity:1;fill-rule:nonzero;stroke:none"
         d="m 0,0 0.652,0 c 0,0.452 0.047,0.728 0.118,0.895 0.111,0.276 0.272,0.261 0.356,0.261 0.135,0 0.228,-0.047 0.22,-0.245 l 0,-3.689 c 0,-0.342 -0.298,-0.308 -0.507,-0.308 l 0,-0.349 2.488,0 0,0.349 c -0.205,0 -0.507,-0.034 -0.507,0.308 l 0,3.689 C 2.813,1.107 2.906,1.156 3.041,1.156 3.122,1.156 3.286,1.17 3.397,0.905 3.468,0.737 3.515,0.46 3.515,0 l 0.65,0 0,1.56 -4.165,0 z"
         inkscape:connector-curvature="0" />
    </g>
    <g
       id="g2494"
       transform="matrix(1.3333333,0,0,-1.3333333,343.1709,528.50652)">
      <path
         id="path2492"
         style="fill:#000000;fill-opacity:1;fill-rule:nonzero;stroke:none"
         d="m 0,0 c -0.124,-0.042 -0.286,-0.069 -0.495,-0.066 l 0,1.449 c 0,0.34 0.302,0.308 0.511,0.308 0.354,0 0.417,-0.458 0.417,-0.759 C 0.433,0.69 0.51,0.183 0,0 M 5.646,-2.609 C 5.558,-2.62 5.119,-2.614 4.994,-2.6 4.765,-2.577 4.578,-2.506 4.573,-2.306 l 0,1.796 0.546,0 c 0.113,0 0.237,-0.038 0.237,-0.244 l 0,-0.309 0.617,0 0,1.457 -0.617,0 0,-0.311 c 0,-0.204 -0.124,-0.245 -0.237,-0.245 l -0.546,0 0,1.545 c 0.005,0.209 0.154,0.277 0.359,0.298 0.099,0.01 0.487,0.015 0.57,0.01 0.281,-0.02 0.553,-0.145 0.553,-0.885 l 0.663,0 0,1.227 -4.123,0 0,-0.342 c 0.206,0 0.504,0.032 0.504,-0.308 l 0,-3.689 C 3.099,-2.497 3.01,-2.57 2.89,-2.598 2.785,-2.624 2.519,-2.631 2.354,-2.581 2.2,-2.534 2.118,-2.469 2.032,-2.33 c 0,0 -0.981,1.836 -0.981,1.82 0.442,0.143 0.676,0.364 0.794,0.629 0.151,0.334 0.172,0.955 0.019,1.308 -0.16,0.366 -0.498,0.604 -0.971,0.608 l -3.367,0 0,-0.344 c 0.207,0 0.506,0.032 0.506,-0.308 l 0,-3.689 c 0,-0.341 -0.299,-0.308 -0.506,-0.308 l 0,-0.348 2.49,0 0,0.348 c -0.209,0 -0.511,-0.033 -0.511,0.308 l 0,1.992 1.229,-2.648 6.111,0 0,1.455 -0.666,0 c 0,-0.891 -0.257,-1.07 -0.533,-1.102"
         inkscape:connector-curvature="0" />
    </g>
    <g
       id="g2498"
       transform="matrix(1.3333333,0,0,-1.3333333,370.0629,526.25132)">
      <path
         id="path2496"
         style="fill:#000000;fill-opacity:1;fill-rule:nonzero;stroke:none"
         d="m 0,0 c 0.206,0 0.504,0.032 0.504,-0.308 l 0.007,-3.119 c 0,-0.301 -0.149,-0.569 -0.373,-0.729 -0.27,-0.191 -0.659,-0.194 -0.937,-0.091 -0.276,0.104 -0.472,0.322 -0.472,0.661 l 0.002,3.278 C -1.269,0.032 -0.966,0 -0.76,0 l 0,0.341 -2.486,0 0,-0.341 c 0.206,0 0.505,0.032 0.505,-0.308 l 0,-3.23 c 0,-0.765 0.458,-1.092 1.114,-1.214 0.703,-0.13 1.346,-0.07 1.786,0.097 0.563,0.212 0.934,0.641 0.934,1.339 l 0,3.008 C 1.093,0.032 1.394,0 1.599,0 l 0,0.343 -1.599,0 z"
         inkscape:connector-curvature="0" />
    </g>
    <g
       id="g2502"
       transform="matrix(1.3333333,0,0,-1.3333333,361.1553,529.56439)">
      <path
         id="path2500"
         style="fill:#000000;fill-opacity:1;fill-rule:nonzero;stroke:none"
         d="M 0,0 0.629,1.962 1.179,0 Z m 3.205,-1.505 -1.298,4.333 -2.21,0 0,-0.343 c 0.548,0 0.492,-0.34 0.435,-0.507 L -0.982,-1.474 C -1.078,-1.766 -1.3,-1.82 -1.513,-1.82 l 0,-0.348 1.44,0 0,0.348 c -0.435,0 -0.466,0.158 -0.404,0.346 l 0.367,1.123 1.385,0 0.318,-1.154 C 1.655,-1.758 1.439,-1.82 1.22,-1.82 l 0,-0.35 2.468,0 0,0.35 c -0.334,0 -0.459,0.166 -0.483,0.315"
         inkscape:connector-curvature="0" />
    </g>
    <g
       id="g2506"
       transform="matrix(1.3333333,0,0,-1.3333333,337.26077,529.19199)">
      <path
         id="path2504"
         style="fill:#000000;fill-opacity:1;fill-rule:nonzero;stroke:none"
         d="m 0,0 -0.019,-0.052 -0.853,-1.495 -0.942,1.538 0.018,0.052 0.854,1.493 z m -0.516,2.547 -1.408,-2.473 -0.136,-0.083 1.073,-1.736 -0.038,-0.068 -1.128,1.84 1.437,2.52 -0.145,0 -1.435,-2.518 -0.08,-0.038 1.238,-2.005 -0.041,-0.07 -1.276,2.075 -0.036,0.052 1.429,2.504 -0.148,0 -1.408,-2.473 -0.078,-0.083 1.406,-2.275 -0.043,-0.071 -1.432,2.331 -0.089,0.044 1.449,2.527 -0.149,0 -1.463,-2.556 1.506,-2.439 0.272,0 1.345,2.366 L 0.245,0 -0.83,1.733 l 0.04,0.074 1.128,-1.842 -1.377,-2.413 0.148,0 1.371,2.41 L 0.562,0 -0.677,2.003 -0.636,2.075 0.641,0 0.677,-0.052 -0.69,-2.448 l 0.149,0 1.346,2.365 0.077,0.083 -1.404,2.272 0.04,0.074 1.432,-2.33 0.088,-0.044 -1.385,-2.42 0.15,0 1.4,2.447 -1.573,2.547 -0.146,0 z"
         inkscape:connector-curvature="0" />
    </g>
  </g>
</svg>
