<?xml version="1.0" encoding="UTF-8" standalone="no"?>
<!-- Created with Inkscape (http://www.inkscape.org/) -->

<svg
   xmlns:dc="http://purl.org/dc/elements/1.1/"
   xmlns:cc="http://creativecommons.org/ns#"
   xmlns:rdf="http://www.w3.org/1999/02/22-rdf-syntax-ns#"
   xmlns:svg="http://www.w3.org/2000/svg"
   xmlns="http://www.w3.org/2000/svg"
   xmlns:sodipodi="http://sodipodi.sourceforge.net/DTD/sodipodi-0.dtd"
   xmlns:inkscape="http://www.inkscape.org/namespaces/inkscape"
   width="9.381443mm"
   height="9.3810663mm"
   viewBox="0 0 33.241334 33.239998"
   id="svg38115"
   version="1.1"
   inkscape:version="0.91 r13725"
   sodipodi:docname="shelby.svg">
  <defs
     id="defs38117" />
  <sodipodi:namedview
     id="base"
     pagecolor="#ffffff"
     bordercolor="#666666"
     borderopacity="1.0"
     inkscape:pageopacity="0.0"
     inkscape:pageshadow="2"
     inkscape:zoom="0.35"
     inkscape:cx="16.620671"
     inkscape:cy="16.619997"
     inkscape:document-units="px"
     inkscape:current-layer="layer1"
     showgrid="false"
     fit-margin-top="0"
     fit-margin-left="0"
     fit-margin-right="0"
     fit-margin-bottom="0"
     inkscape:window-width="751"
     inkscape:window-height="405"
     inkscape:window-x="458"
     inkscape:window-y="263"
     inkscape:window-maximized="0" />
  <metadata
     id="metadata38120">
    <rdf:RDF>
      <cc:Work
         rdf:about="">
        <dc:format>image/svg+xml</dc:format>
        <dc:type
           rdf:resource="http://purl.org/dc/dcmitype/StillImage" />
        <dc:title></dc:title>
      </cc:Work>
    </rdf:RDF>
  </metadata>
  <g
     inkscape:label="Layer 1"
     inkscape:groupmode="layer"
     id="layer1"
     transform="translate(-358.37931,-515.74219)">
    <g
       id="g6468"
       transform="matrix(1.3333333,0,0,-1.3333333,388.85798,540.35286)">
      <path
         id="path6466"
         style="fill:#000000;fill-opacity:1;fill-rule:nonzero;stroke:none"
         d="m 0,0 c -1.047,-1.814 -2.58,-3.347 -4.394,-4.393 -1.813,-1.047 -3.907,-1.612 -6.002,-1.612 -2.096,0 -4.189,0.565 -6.002,1.612 -1.814,1.046 -3.347,2.579 -4.393,4.393 -1.048,1.812 -1.61,3.908 -1.61,6.001 0,2.095 0.562,4.189 1.61,6.002 1.046,1.814 2.579,3.347 4.393,4.395 1.813,1.046 3.906,1.61 6.002,1.61 2.095,0 4.189,-0.564 6.002,-1.61 C -2.58,15.35 -1.047,13.817 0,12.003 1.047,10.19 1.608,8.096 1.608,6.001 1.608,3.908 1.047,1.812 0,0 m -4.16,16.789 c -1.884,1.087 -4.058,1.669 -6.233,1.669 -2.175,0 -4.35,-0.582 -6.233,-1.669 -1.883,-1.089 -3.476,-2.679 -4.563,-4.563 -1.088,-1.882 -1.67,-4.057 -1.67,-6.233 0,-2.172 0.582,-4.347 1.67,-6.23 1.087,-1.887 2.68,-3.477 4.563,-4.565 1.883,-1.084 4.057,-1.67 6.233,-1.67 2.175,0 4.349,0.586 6.233,1.67 1.884,1.088 3.474,2.681 4.562,4.565 1.087,1.883 1.67,4.058 1.67,6.23 0,2.176 -0.583,4.351 -1.67,6.233 -1.088,1.884 -2.678,3.474 -4.562,4.563"
         inkscape:connector-curvature="0" />
    </g>
    <g
       id="g6472"
       transform="matrix(1.3333333,0,0,-1.3333333,387.91265,539.80086)">
      <path
         id="path6470"
         style="fill:#000000;fill-opacity:1;fill-rule:nonzero;stroke:none"
         d="m 0,0 c -0.975,-1.689 -2.403,-3.119 -4.091,-4.093 -1.69,-0.975 -3.64,-1.497 -5.591,-1.497 -1.95,0 -3.9,0.522 -5.589,1.497 -1.689,0.97 -3.116,2.404 -4.092,4.093 -0.974,1.687 -1.497,3.64 -1.497,5.59 0,1.948 0.523,3.898 1.497,5.585 0.976,1.693 2.403,3.119 4.092,4.094 1.689,0.976 3.639,1.498 5.589,1.498 1.951,0 3.901,-0.522 5.591,-1.498 C -2.403,14.294 -0.975,12.868 0,11.175 0.975,9.488 1.498,7.538 1.498,5.59 1.498,3.64 0.975,1.687 0,0 m -16.314,-3.706 c 0.005,0.003 0.009,-0.004 0.007,-0.007 -0.002,0 -0.006,-0.013 -0.007,0.007 m 12.466,19.4 c -1.764,1.016 -3.802,1.563 -5.839,1.563 -2.037,0 -4.073,-0.547 -5.839,-1.563 -1.762,-1.018 -3.254,-2.509 -4.272,-4.273 -1.019,-1.766 -1.564,-3.801 -1.564,-5.839 0,-2.039 0.545,-4.077 1.564,-5.84 1.018,-1.763 2.51,-3.255 4.272,-4.274 1.766,-1.018 3.802,-1.563 5.839,-1.563 2.037,0 4.075,0.545 5.839,1.563 1.763,1.019 3.255,2.511 4.273,4.274 1.018,1.763 1.565,3.801 1.565,5.84 0,2.038 -0.547,4.073 -1.565,5.839 -1.018,1.764 -2.51,3.255 -4.273,4.273"
         inkscape:connector-curvature="0" />
    </g>
    <g
       id="g6476"
       transform="matrix(1.3333333,0,0,-1.3333333,368.20372,518.02739)">
      <path
         id="path6474"
         style="fill:#000000;fill-opacity:1;fill-rule:nonzero;stroke:none"
         d="M 0,0 C -0.005,0.002 -0.008,-0.002 -0.006,-0.006 -0.005,-0.006 0,-0.02 0,0"
         inkscape:connector-curvature="0" />
    </g>
    <g
       id="g6480"
       transform="matrix(1.3333333,0,0,-1.3333333,367.49918,518.37112)">
      <path
         id="path6478"
         style="fill:#000000;fill-opacity:1;fill-rule:nonzero;stroke:none"
         d="M 0,0 C -0.006,0.002 -0.008,-0.002 -0.007,-0.007 -0.006,-0.007 -0.002,-0.019 0,0"
         inkscape:connector-curvature="0" />
    </g>
    <g
       id="g6484"
       transform="matrix(1.3333333,0,0,-1.3333333,368.72838,525.24552)">
      <path
         id="path6482"
         style="fill:#000000;fill-opacity:1;fill-rule:nonzero;stroke:none"
         d="M 0,0 C 0.001,-0.003 0.028,0.015 0.019,-0.042 0.005,-0.047 0.008,-0.057 -0.012,-0.067 -0.003,-0.065 -0.062,-0.049 0,0 M 0.647,1.959 C 0.74,2.092 0.848,2.206 0.943,2.263 1.037,2.321 1.117,2.321 1.182,2.29 1.217,2.261 1.254,2.23 1.296,2.164 1.337,2.1 1.387,1.997 1.432,1.895 1.404,1.802 1.348,1.719 1.235,1.624 1.122,1.527 0.952,1.419 0.823,1.36 0.694,1.297 0.605,1.283 0.521,1.294 L 0.426,1.53 c 0.053,0.151 0.13,0.299 0.221,0.429 M 1.596,2.865 C 1.705,2.953 1.831,3.014 1.953,3.076 2.064,3.021 2.176,2.966 2.245,2.911 2.314,2.856 2.341,2.8 2.369,2.747 2.394,2.614 2.381,2.48 2.279,2.367 2.233,2.31 2.17,2.255 2.103,2.211 2.037,2.161 1.963,2.123 1.912,2.098 1.862,2.073 1.833,2.063 1.8,2.052 1.643,2.154 1.483,2.255 1.4,2.338 1.317,2.424 1.309,2.49 1.301,2.56 1.394,2.67 1.487,2.782 1.596,2.865 M 1.839,3.26 C 1.84,3.277 1.84,3.257 1.863,3.306 1.866,3.31 1.847,3.329 1.893,3.326 1.907,3.31 1.9,3.295 1.897,3.257 1.891,3.26 1.895,3.237 1.854,3.207 1.846,3.197 1.851,3.175 1.793,3.191 c 0,0.008 0.033,0.004 0.046,0.069 m 0.384,0.298 c 0.072,0.01 0.128,0.053 0.189,0.12 0.042,0.041 0.081,0.091 0.069,0.136 0,0.019 -0.012,0.041 0.048,0.078 C 2.563,3.907 2.602,3.9 2.632,3.87 2.662,3.851 2.668,3.791 2.644,3.741 2.631,3.714 2.61,3.696 2.567,3.666 2.49,3.614 2.351,3.527 2.242,3.46 2.165,3.412 2.1,3.373 2.035,3.415 2.046,3.524 2.147,3.554 2.223,3.558 M 2.798,4.104 C 2.809,4.13 2.821,4.139 2.835,4.142 2.831,4.042 2.945,4.012 3.026,4.042 3.071,4.052 3.111,4.08 3.152,4.109 3.212,4.161 3.298,4.223 3.267,4.281 3.247,4.323 3.166,4.326 3.096,4.315 3.167,4.383 3.248,4.414 3.351,4.328 3.407,4.281 3.434,4.216 3.418,4.161 3.412,4.136 3.401,4.112 3.355,4.084 3.256,4.037 3.063,3.969 2.909,3.895 2.859,3.903 2.808,3.934 2.791,3.977 2.771,4.02 2.784,4.07 2.798,4.104 M 3.617,4.012 C 3.714,4.015 3.758,3.954 3.814,3.868 3.842,3.823 3.878,3.763 3.883,3.7 3.89,3.636 3.868,3.561 3.828,3.509 3.747,3.419 3.6,3.357 3.48,3.314 3.35,3.285 3.297,3.302 3.211,3.412 3.164,3.477 3.098,3.576 3.045,3.68 3.052,3.708 3.067,3.736 3.104,3.769 3.181,3.833 3.326,3.903 3.445,3.954 3.508,3.982 3.57,4.009 3.617,4.012 M 3.624,4.476 C 3.649,4.539 3.703,4.576 3.744,4.58 3.752,4.565 3.76,4.55 3.766,4.534 3.771,4.468 3.854,4.474 3.931,4.491 3.982,4.504 4.034,4.526 4.069,4.545 4.149,4.584 4.165,4.614 4.145,4.662 4.133,4.682 4.101,4.707 4.069,4.716 4.115,4.741 4.169,4.761 4.212,4.763 4.34,4.747 4.324,4.634 4.313,4.56 4.303,4.537 4.282,4.513 4.255,4.494 4.191,4.452 4.076,4.411 3.953,4.363 3.883,4.333 3.811,4.306 3.762,4.296 3.712,4.283 3.686,4.293 3.666,4.315 3.626,4.353 3.603,4.422 3.624,4.476 m 0.178,0.298 c 0,0.006 0.01,0.011 0.014,-0.001 C 3.817,4.765 3.821,4.777 3.822,4.761 3.814,4.761 3.837,4.745 3.767,4.741 3.764,4.735 3.742,4.716 3.719,4.747 3.732,4.765 3.74,4.765 3.802,4.774 M 4.458,4.34 C 4.478,4.31 4.491,4.276 4.509,4.21 4.528,4.139 4.549,4.042 4.559,3.982 4.569,3.922 4.569,3.907 4.565,3.89 4.562,3.872 4.553,3.855 4.517,3.829 4.481,3.801 4.419,3.763 4.349,3.729 4.279,3.7 4.2,3.678 4.151,3.671 4.05,3.666 4.038,3.697 3.996,3.756 3.96,3.826 3.842,3.974 3.888,4.1 3.896,4.123 3.906,4.142 3.945,4.172 3.984,4.202 4.053,4.238 4.126,4.273 4.199,4.306 4.276,4.333 4.325,4.345 4.409,4.37 4.418,4.355 4.458,4.34 M 4.439,5.031 C 4.457,5.029 4.434,5.033 4.492,5.001 4.483,4.999 4.54,4.978 4.453,4.956 4.43,4.963 4.423,4.925 4.401,5.021 4.402,5.029 4.418,5.042 4.439,5.031 M 4.594,4.828 C 4.562,4.801 4.555,4.743 4.605,4.696 4.679,4.627 4.817,4.629 4.959,4.702 5.038,4.758 4.96,4.867 4.893,4.885 4.944,4.877 4.995,4.855 5.026,4.832 5.086,4.788 5.083,4.734 5.093,4.674 4.987,4.584 4.849,4.576 4.72,4.584 4.658,4.584 4.599,4.58 4.557,4.587 4.414,4.645 4.436,4.741 4.442,4.836 4.478,4.855 4.518,4.872 4.551,4.875 4.66,4.877 4.612,4.847 4.594,4.828 M 4.838,5.029 C 4.85,5.029 4.865,5.038 4.896,5.021 4.894,5.018 4.925,5.007 4.891,4.983 4.881,4.985 4.847,4.963 4.813,4.996 4.811,5.007 4.821,5.007 4.838,5.029 M 5.275,4.377 C 5.294,4.348 5.308,4.31 5.314,4.276 5.318,4.21 5.323,4.147 5.311,4.088 5.27,4.001 5.213,3.99 5.145,3.974 5.067,3.962 4.938,3.933 4.829,3.925 4.784,3.925 4.75,3.939 4.724,3.977 4.699,4.012 4.676,4.068 4.661,4.128 4.644,4.19 4.631,4.252 4.626,4.293 4.63,4.368 4.63,4.383 4.674,4.422 4.755,4.482 4.937,4.455 5.099,4.474 5.165,4.472 5.218,4.464 5.275,4.377 M 5.28,4.832 C 5.323,4.87 5.417,4.858 5.5,4.828 5.469,4.815 5.439,4.793 5.425,4.777 5.382,4.719 5.445,4.657 5.515,4.642 5.544,4.634 5.58,4.627 5.611,4.631 5.644,4.637 5.672,4.655 5.687,4.666 5.705,4.677 5.708,4.685 5.71,4.694 L 5.632,4.793 C 5.668,4.782 5.705,4.771 5.736,4.747 5.856,4.672 5.846,4.602 5.787,4.521 5.764,4.496 5.711,4.494 5.66,4.501 5.629,4.501 5.601,4.506 5.558,4.515 5.516,4.529 5.458,4.545 5.423,4.557 5.361,4.58 5.346,4.584 5.312,4.617 5.295,4.658 5.196,4.758 5.28,4.832 M 5.938,4.233 C 5.949,4.153 5.935,4.107 5.917,4.06 5.895,4.034 5.838,4.004 5.792,3.999 5.768,3.99 5.718,4.004 5.663,4.02 5.578,4.029 5.532,4.048 5.458,4.109 5.427,4.153 5.416,4.202 5.408,4.251 5.403,4.328 5.396,4.409 5.463,4.422 5.51,4.456 5.568,4.436 5.626,4.395 5.605,4.36 5.575,4.39 5.542,4.315 5.526,4.283 5.517,4.241 5.57,4.202 5.607,4.169 5.701,4.153 5.778,4.163 5.866,4.177 5.854,4.226 5.856,4.273 5.854,4.301 5.848,4.331 5.836,4.358 5.911,4.375 5.932,4.29 5.938,4.233 M 2.269,3.271 C 2.382,3.398 2.5,3.498 2.608,3.539 2.693,3.571 2.779,3.588 2.844,3.561 2.887,3.554 2.965,3.515 3.041,3.412 3.077,3.36 3.105,3.304 3.117,3.252 3.127,3.119 3.109,3.011 2.92,2.903 2.817,2.84 2.74,2.773 2.663,2.782 2.624,2.788 2.576,2.81 2.52,2.859 2.393,2.966 2.283,3.128 2.269,3.271 M 5.725,1.313 C 5.704,1.229 5.702,1.14 5.69,1.059 5.68,0.976 5.663,0.9 5.639,0.838 5.617,0.774 5.591,0.727 5.559,0.683 5.5,0.608 5.43,0.546 5.377,0.494 5.377,0.307 5.399,0.118 5.301,-0.074 5.277,-0.122 5.246,-0.163 5.213,-0.187 5.179,-0.211 5.144,-0.212 5.138,-0.176 5.122,-0.112 5.222,0.066 5.252,0.194 5.265,0.311 5.24,0.383 5.165,0.461 5.122,0.504 5.054,0.551 4.983,0.59 4.909,0.629 4.832,0.667 4.651,0.727 4.474,0.783 4.191,0.871 3.961,0.922 3.732,0.976 3.556,1.004 3.377,1.026 3.198,1.049 3.016,1.07 2.904,1.078 2.713,1.089 2.693,1.065 2.61,1.016 2.525,0.897 2.438,0.729 2.444,0.593 2.444,0.551 2.454,0.504 2.486,0.455 2.518,0.404 2.577,0.349 2.642,0.309 L 2.36,0.125 C 2.233,0.247 2.247,0.542 2.338,0.801 c 0.044,0.128 0.105,0.233 0.151,0.303 0.05,0.068 0.089,0.104 0.133,0.13 l 0.076,0.374 c 0.193,0.171 0.381,0.351 0.491,0.471 0.11,0.124 0.14,0.184 0.174,0.24 0.035,0.054 0.072,0.109 0.132,0.165 0.057,0.057 0.136,0.122 0.219,0.179 0.084,0.054 0.174,0.105 0.236,0.159 0.113,0.098 0.139,0.217 0.294,0.319 0.069,0.046 0.16,0.086 0.248,0.136 0.089,0.049 0.17,0.101 0.32,0.175 0.15,0.072 0.366,0.168 0.509,0.216 0.142,0.046 0.212,0.046 0.28,0.028 C 5.559,3.65 5.505,3.614 5.447,3.596 5.388,3.579 5.326,3.581 5.283,3.571 5.242,3.563 5.223,3.546 5.208,3.527 5.19,3.509 5.176,3.49 5.166,3.469 5.264,3.322 5.363,3.171 5.458,3.062 5.552,2.955 5.643,2.89 5.732,2.826 L 4.971,3.342 C 4.923,3.347 4.875,3.347 4.829,3.342 4.786,3.331 4.749,3.312 4.724,3.292 4.68,3.255 4.676,3.217 4.665,3.178 4.981,2.884 5.293,2.631 5.604,2.417 5.283,2.555 5.068,2.715 4.779,2.886 4.676,2.95 4.571,3.011 4.505,3.041 4.393,3.092 4.372,3.062 4.313,3.043 4.263,3.016 4.227,2.976 4.199,2.934 4.235,2.827 4.303,2.732 4.434,2.637 4.712,2.441 5.184,2.208 5.581,1.936 5.312,2.073 5.041,2.206 4.799,2.324 4.556,2.438 4.342,2.54 4.209,2.594 4.079,2.649 4.027,2.657 3.983,2.657 3.894,2.66 3.804,2.609 3.707,2.524 3.578,2.419 3.521,2.301 3.595,2.194 3.618,2.164 3.652,2.134 3.694,2.117 3.74,2.1 3.792,2.092 3.903,2.063 4.012,2.027 4.18,1.972 4.34,1.912 4.645,1.797 4.909,1.669 5.167,1.558 5.289,1.505 5.414,1.456 5.494,1.433 5.625,1.402 5.644,1.433 5.703,1.486 5.749,1.543 5.779,1.622 5.767,1.689 5.755,1.754 5.718,1.819 5.693,1.87 L 5.879,1.84 C 5.861,1.639 5.774,1.47 5.725,1.313 M 2.936,0.398 C 2.993,0.422 3.104,0.459 3.216,0.502 3.43,0.579 3.611,0.657 3.779,0.648 3.861,0.645 3.949,0.632 4.006,0.624 4.065,0.616 4.091,0.608 4.118,0.6 4.172,0.588 4.321,0.529 4.462,0.445 4.545,0.396 4.619,0.337 4.672,0.286 4.781,0.178 4.807,0.077 4.844,-0.053 4.547,0 4.25,0.054 3.979,0.099 3.708,0.145 3.462,0.191 3.294,0.218 3.127,0.247 3.039,0.269 2.981,0.283 2.925,0.299 2.899,0.311 2.887,0.329 2.876,0.346 2.879,0.366 2.936,0.398 M 5.069,-0.626 4.995,-0.666 C 4.686,-0.602 4.372,-0.557 4.057,-0.539 3.742,-0.522 3.426,-0.534 3.187,-0.531 2.95,-0.525 2.792,-0.506 2.693,-0.495 2.531,-0.47 2.511,-0.46 2.431,-0.421 2.375,-0.385 2.343,-0.341 2.313,-0.297 2.314,-0.228 2.331,-0.158 2.357,-0.1 2.384,-0.039 2.42,0.008 2.45,0.04 2.513,0.106 2.56,0.118 2.619,0.134 2.989,0.106 3.358,0.063 3.666,0.015 3.972,-0.03 4.216,-0.085 4.42,-0.125 4.625,-0.168 4.79,-0.201 4.894,-0.243 5.11,-0.327 5.105,-0.482 5.069,-0.626 M 5.041,-2.923 C 5.032,-2.951 5.012,-2.978 4.878,-3.005 4.742,-3.033 4.491,-3.058 4.244,-3.089 3.998,-3.116 3.751,-3.149 3.575,-3.178 3.398,-3.213 3.29,-3.245 3.171,-3.278 3.053,-3.31 2.924,-3.34 2.796,-3.367 L 2.588,-2.77 c 0.006,0.064 0.043,0.121 0.111,0.163 0.069,0.038 0.173,0.062 0.29,0.072 0.12,0.009 0.255,0.003 0.434,0.003 0.18,-10e-4 0.402,0 0.601,0.003 0.197,0 0.37,0.003 0.48,0 0.205,-0.006 0.245,-0.016 0.351,-0.058 0.097,-0.034 0.169,-0.144 0.186,-0.235 0.011,-0.043 0.011,-0.074 0,-0.101 M 4.145,-3.124 c 0.002,0 0.006,0 0.008,-0.002 0.001,0 0.001,-0.003 0,-0.005 -0.002,-0.003 -0.007,-0.012 -0.008,0.007 m -1.728,1.173 c -0.021,0.108 -0.023,0.158 0.012,0.23 0.022,0.031 0.064,0.068 0.116,0.095 0.052,0.025 0.115,0.041 0.27,0.041 0.157,0 0.408,-0.016 0.666,-0.02 0.262,-0.005 0.53,10e-4 0.703,-0.005 0.172,-0.011 0.246,-0.035 0.325,-0.052 0.077,-0.013 0.158,-0.02 0.224,-0.034 0.068,-0.018 0.12,-0.046 0.163,-0.085 0.095,-0.084 0.121,-0.18 0.111,-0.277 C 4.999,-2.15 4.967,-2.243 4.898,-2.303 4.875,-2.33 4.852,-2.365 4.651,-2.377 4.453,-2.388 4.079,-2.385 3.737,-2.382 c -0.341,0.003 -0.647,0 -0.811,0.003 -0.166,0 -0.187,0.005 -0.209,0.01 -0.023,0.006 -0.044,0.012 -0.067,0.021 -0.053,0.062 -0.1,0.127 -0.141,0.198 -0.04,0.067 -0.077,0.14 -0.092,0.199 m -0.115,0.993 c 0.002,0.103 0.037,0.195 0.073,0.288 0.176,0.002 0.353,0.004 0.526,0.007 0.17,0.003 0.34,0.008 0.548,-0.005 0.425,-0.019 0.96,-0.09 1.436,-0.186 L 4.983,-0.989 C 4.993,-1.063 4.993,-1.14 4.985,-1.207 4.977,-1.277 4.959,-1.341 4.935,-1.388 4.909,-1.432 4.879,-1.462 4.842,-1.48 4.807,-1.494 4.761,-1.497 4.559,-1.498 4.357,-1.501 3.998,-1.504 3.65,-1.492 3.305,-1.475 2.971,-1.445 2.779,-1.417 2.587,-1.396 2.537,-1.38 2.489,-1.361 2.444,-1.341 2.403,-1.316 2.366,-1.286 2.332,-1.175 2.3,-1.056 2.302,-0.958 M 1.65,1.521 c -0.004,-0.016 -0.016,0.02 0,0 M 1.595,1.545 C 1.581,1.535 1.614,1.545 1.543,1.48 1.528,1.48 1.533,1.483 1.501,1.453 1.488,1.44 1.506,1.453 1.453,1.417 1.452,1.407 1.439,1.425 1.415,1.39 1.4,1.39 1.414,1.39 1.369,1.364 1.368,1.364 1.333,1.353 1.357,1.412 1.362,1.428 1.351,1.405 1.389,1.445 1.4,1.459 1.388,1.44 1.42,1.478 1.436,1.486 1.418,1.473 1.456,1.516 c 0.016,0.01 0.008,0.011 0.043,0.042 0.003,0.01 -0.011,0 0.039,0.04 C 1.553,1.6 1.533,1.603 1.577,1.624 1.584,1.622 1.589,1.626 1.596,1.614 1.602,1.608 1.596,1.615 1.617,1.598 1.621,1.583 1.614,1.603 1.595,1.545 M 7.689,3.727 C 7.793,3.69 7.851,3.663 7.908,3.633 7.963,3.604 8.018,3.573 8.048,3.546 8.097,3.5 8.086,3.465 8.098,3.43 7.987,3.408 7.874,3.39 7.81,3.385 7.746,3.382 7.729,3.39 7.709,3.393 7.675,3.39 7.586,3.433 7.505,3.517 7.412,3.614 7.343,3.729 7.281,3.855 7.433,3.811 7.584,3.763 7.689,3.727 M 6.968,2.941 C 6.957,2.936 6.952,2.93 6.934,2.974 6.917,2.98 6.924,2.953 6.885,3.019 6.875,3.027 6.879,3.043 6.88,3.071 c 0.002,0.005 0.018,0.018 0.037,0 0.015,-0.009 -0.002,0.003 0.035,-0.036 0.006,0 0,-0.008 0.02,-0.042 C 6.977,2.985 7.004,2.974 6.968,2.941 m 0.696,-2.98 c 0.016,0.006 0.04,0.019 0.067,0.052 0.007,0.005 -0.012,-0.008 0.043,0.034 0.015,0.007 0,0 0.033,0.031 0.002,0.005 0.02,0.005 0.038,0.028 0.017,0 -10e-4,0.007 0.046,0.012 l 0.017,0 C 7.912,0.118 7.912,0.113 7.912,0.11 7.899,0.099 7.935,0.134 7.866,0.066 7.865,0.059 7.845,0.061 7.827,0.04 7.817,0.04 7.817,0.035 7.792,0.005 7.788,-0.003 7.799,0.013 7.768,-0.02 7.75,-0.025 7.77,-0.008 7.721,-0.057 c -0.015,0 0.001,0.004 -0.045,-0.023 -0.004,0 -0.039,-0.015 -0.012,0.041 M 1.523,-2.657 C 1.5,-2.667 1.549,-2.675 1.471,-2.733 1.469,-2.731 1.453,-2.767 1.385,-2.731 c -0.003,0.002 -0.002,0.029 -0.013,0.045 0,0.017 -0.008,0.011 0.033,0.062 -0.001,0.012 0.005,0 0.039,0.039 0.003,0.002 0.016,0.008 0.031,0.043 0.008,0.016 -0.003,-0.011 0.028,0.028 0.008,-0.005 0.025,0.028 0.046,-0.018 0.008,0.003 0.023,-0.03 -0.003,-0.062 0.002,-0.023 0.002,0.007 -0.023,-0.063 M 1.231,-1.129 C 1.22,-1.14 1.23,-1.143 1.208,-1.199 1.201,-1.215 1.205,-1.195 1.185,-1.223 1.182,-1.242 1.192,-1.219 1.146,-1.312 c -0.007,0 0,-0.006 -0.021,-0.041 -0.004,-0.008 -0.023,-0.019 -0.051,-0.052 -0.025,-0.002 0.009,0 -0.071,-0.038 -0.006,0.004 -0.019,-0.016 -0.043,0.014 -0.004,0.024 0.005,0.014 0.023,0.074 0.006,0.012 0.002,0 0.024,0.043 0.025,0.016 -0.026,0.02 0.054,0.081 0.008,0.004 -0.004,0.002 0.027,0.052 0.005,0.004 -0.015,0.016 0.022,0.024 0.002,0.015 0.005,0.018 0.036,0.042 0.009,0.014 0.004,0.004 0.038,0.042 -0.002,0.008 0.021,0 0.027,0.018 0.006,-0.003 0.013,10e-4 0.021,-0.01 0.007,0 0.023,-0.02 -10e-4,-0.066 M 0.135,-1.274 c 0.002,0.022 0.005,0.022 0.028,0.089 0.024,0 -0.021,0.028 0.05,0.059 0.013,0.01 0,-0.008 0.031,0.032 0.008,0 0.008,0.011 0.044,0.042 -0.002,0.008 0.024,0.008 0.055,0.008 0.007,-0.003 0.005,-0.012 0.008,-0.033 0.019,-0.006 0.006,-0.019 -0.014,-0.075 0,-0.017 0,10e-4 -0.023,-0.047 -0.009,-0.018 0.011,0.014 -0.035,-0.038 -0.005,-0.01 0,0.006 -0.022,-0.019 0,-0.033 -0.017,-0.026 -0.044,-0.058 C 0.206,-1.318 0.212,-1.338 0.175,-1.361 0.177,-1.372 0.151,-1.372 0.12,-1.371 0.108,-1.353 0.11,-1.338 0.135,-1.274 m -0.253,0.035 c 0.02,-0.114 0.054,-0.3 0.093,-0.454 0.041,-0.16 0.088,-0.293 0.141,-0.417 0.054,-0.126 0.114,-0.246 0.241,-0.482 0.123,-0.236 0.313,-0.586 0.422,-0.801 0.112,-0.206 0.143,-0.272 0.178,-0.335 0.058,-0.11 0.135,-0.201 0.204,-0.195 0.027,-0.004 0.044,-0.004 0.064,0 l 0.247,0.443 c -0.085,0.064 -0.173,0.128 -0.281,0.178 -0.108,0.047 -0.237,0.078 -0.366,0.111 l -0.212,0.448 c 0.052,0.068 0.099,0.147 0.149,0.224 0.047,0.082 0.095,0.168 0.117,0.231 0.023,0.062 0.019,0.098 0.003,0.126 l -0.608,0.184 c -0.082,0.121 -0.115,0.199 -0.062,0.303 0.059,0.12 0.261,0.342 0.399,0.541 0.068,0.092 0.117,0.171 0.145,0.233 0.029,0.062 0.038,0.107 0.036,0.151 C 0.777,-0.734 0.759,-0.723 0.741,-0.712 0.704,-0.677 0.546,-0.701 0.399,-0.734 0.31,-0.76 0.228,-0.79 0.162,-0.816 0.098,-0.847 0.049,-0.874 0.004,-0.908 l 0,0.398 c 0.081,0.057 0.165,0.117 0.24,0.252 0.074,0.136 0.139,0.354 0.203,0.569 C 0.416,0.395 0.305,0.373 0.199,0.349 0.131,0.334 0.061,0.309 -0.007,0.276 0.009,0.391 0.027,0.504 0.046,0.579 0.063,0.652 0.082,0.687 0.104,0.722 0.093,0.659 0.131,0.585 0.212,0.567 0.291,0.549 0.412,0.579 0.509,0.629 0.605,0.681 0.679,0.75 0.752,0.851 0.824,0.948 0.895,1.078 0.945,1.142 0.994,1.211 1.022,1.222 1.049,1.214 L 0.989,0.905 C 1.153,0.992 1.316,1.057 1.479,1.172 1.65,1.305 1.835,1.488 2.031,1.642 1.84,1.315 1.741,0.937 1.648,0.574 1.598,0.396 1.541,0.221 1.5,0.113 1.46,0.005 1.436,-0.036 1.417,-0.074 1.398,-0.114 1.383,-0.149 1.388,-0.182 1.393,-0.215 1.417,-0.242 1.447,-0.255 1.479,-0.273 1.518,-0.281 1.538,-0.3 1.575,-0.341 1.567,-0.416 1.564,-0.467 L 1.217,-0.596 C 1.089,-0.78 0.959,-0.961 0.825,-1.14 0.691,-1.318 0.553,-1.494 0.487,-1.605 0.418,-1.717 0.426,-1.761 0.455,-1.793 0.557,-1.818 0.66,-1.835 0.758,-1.857 c 0.1,-0.028 0.196,-0.05 0.265,-0.047 0.072,0.005 0.116,0.035 0.153,0.073 0.037,0.038 0.068,0.08 0.115,0.175 0.094,0.203 0.232,0.543 0.336,0.802 L 1.716,-1.242 C 1.672,-1.35 1.624,-1.459 1.572,-1.561 1.521,-1.667 1.463,-1.767 1.445,-1.838 1.429,-1.907 1.449,-1.951 1.494,-1.984 1.584,-2.04 1.751,-2.042 1.892,-2.03 L 2.004,-2.326 C 1.881,-2.209 1.78,-2.184 1.688,-2.204 1.58,-2.216 1.457,-2.184 1.352,-2.216 1.251,-2.246 1.127,-2.382 1.062,-2.494 0.953,-2.64 0.91,-2.702 0.916,-2.81 c 0.001,-0.046 0.013,-0.103 0.03,-0.153 0.149,-0.086 0.297,-0.166 0.411,-0.19 0.115,-0.023 0.195,0.01 0.273,0.042 0.089,0.117 0.167,0.246 0.232,0.353 0.059,0.104 0.1,0.189 0.123,0.252 0.024,0.067 0.027,0.112 0.022,0.155 L 2.134,-2.733 C 2.1,-2.794 2.064,-2.856 2.031,-2.918 1.976,-3.019 1.923,-3.111 1.939,-3.186 1.94,-3.216 1.94,-3.24 1.94,-3.267 2.154,-3.389 2.362,-3.478 2.562,-3.521 l 0.189,-0.263 c -0.083,0.221 -0.238,0.527 -0.374,0.844 -0.143,0.333 -0.229,0.64 -0.322,0.968 -0.048,0.168 -0.096,0.337 -0.13,0.519 -0.034,0.184 -0.058,0.384 -0.074,0.587 -0.016,0.208 -0.03,0.422 -0.04,0.688 -0.013,0.259 -0.019,0.569 0.004,0.78 0.02,0.213 0.075,0.335 0.108,0.409 0.035,0.075 0.049,0.096 0.071,0.11 0.033,0.011 0.067,0.011 0.1,0.005 C 2.125,1.12 2.155,1.109 2.163,1.002 2.17,0.893 2.155,0.689 2.147,0.459 2.14,0.228 2.14,-0.028 2.138,-0.292 2.135,-0.561 2.129,-0.835 2.147,-1.151 2.167,-1.47 2.21,-1.834 2.27,-2.152 c 0.061,-0.32 0.139,-0.593 0.228,-0.826 0.087,-0.238 0.185,-0.426 0.257,-0.574 0.074,-0.143 0.124,-0.244 0.167,-0.294 0.044,-0.05 0.081,-0.05 0.106,-0.027 -0.042,0.087 -0.087,0.197 -0.089,0.298 0.002,0.046 0.018,0.08 0.124,0.13 0.104,0.048 0.301,0.105 0.511,0.159 0.205,0.054 0.422,0.102 0.598,0.125 0.176,0.02 0.31,0.015 0.428,0.012 0.119,0 0.221,0.008 0.298,-0.002 0.08,-0.002 0.133,-0.02 0.18,-0.046 0.044,-0.09 0.093,-0.179 0.087,-0.27 C 5.147,-3.542 5.119,-3.624 4.97,-3.692 4.836,-3.746 4.625,-3.799 4.443,-3.865 c 0.13,-0.019 0.262,-0.036 0.422,-0.044 0.158,-0.005 0.344,-0.002 0.531,0 -0.05,0.233 -0.093,0.464 -0.138,0.701 -0.044,0.235 -0.087,0.475 -0.103,0.682 -0.015,0.208 -0.004,0.383 -0.001,0.565 0.002,0.337 0.002,0.689 0.06,1.018 0.023,0.158 0.051,0.306 0.077,0.416 0.054,0.196 0.097,0.284 0.153,0.417 C 5.47,-0.045 5.502,0.013 5.539,0.059 5.574,0.108 5.612,0.145 5.655,0.183 5.702,0.186 5.745,0.159 5.774,0.085 5.805,0.015 5.822,-0.104 5.831,-0.211 5.839,-0.314 5.84,-0.414 5.821,-0.539 5.798,-0.668 5.757,-0.825 5.734,-0.998 5.711,-1.171 5.706,-1.361 5.705,-1.604 5.702,-1.843 5.699,-2.14 5.708,-2.415 c 0.011,-0.277 0.035,-0.53 0.064,-0.726 0.032,-0.199 0.07,-0.331 0.101,-0.44 0.033,-0.11 0.061,-0.185 0.09,-0.243 0.03,-0.052 0.061,-0.079 0.1,-0.093 -0.1,0.437 -0.171,0.884 -0.209,1.242 -0.033,0.364 -0.033,0.645 -0.006,0.924 0.027,0.279 0.081,0.559 0.145,0.806 0.063,0.244 0.139,0.461 0.197,0.631 0.057,0.168 0.099,0.289 0.138,0.366 C 6.365,0.134 6.401,0.17 6.445,0.193 6.467,0.096 6.499,0 6.533,-0.085 6.568,-0.17 6.608,-0.253 6.644,-0.306 c 0.037,-0.051 0.071,-0.076 0.108,-0.098 0.087,-0.058 0.229,-0.061 0.382,-0.049 0.089,0.008 0.178,0.019 0.267,0.037 0.197,0.125 0.391,0.253 0.575,0.378 0.185,0.121 0.365,0.244 0.481,0.345 0.116,0.1 0.172,0.182 0.206,0.273 C 8.575,0.624 8.463,0.546 8.356,0.455 8.299,0.41 8.247,0.37 8.229,0.373 8.214,0.379 8.235,0.42 8.247,0.457 8.259,0.492 8.261,0.517 8.241,0.524 8.219,0.532 8.176,0.521 8.137,0.502 8.097,0.482 8.067,0.455 7.975,0.389 7.885,0.318 7.735,0.21 7.582,0.104 7.613,0.181 7.633,0.256 7.647,0.341 7.661,0.422 7.663,0.512 7.662,0.652 7.662,0.791 7.655,0.986 7.665,1.205 7.676,1.419 7.703,1.654 7.737,1.852 7.773,2.049 7.816,2.214 7.85,2.313 7.882,2.417 7.908,2.454 7.942,2.486 8.032,2.474 8.122,2.458 8.18,2.433 8.235,2.406 8.253,2.369 8.274,2.332 8.25,2.214 8.217,2.098 8.181,2 8.145,1.902 8.107,1.824 8.074,1.751 8.039,1.679 8.009,1.614 8.011,1.57 8.014,1.527 8.048,1.511 8.087,1.538 8.126,1.568 8.169,1.646 8.21,1.727 8.249,1.802 8.287,1.881 8.331,1.967 8.408,2.125 8.517,2.301 8.401,2.441 8.355,2.502 8.28,2.562 8.188,2.639 8.015,2.774 7.768,2.988 7.554,3.125 7.452,3.189 7.364,3.227 7.273,3.266 7.184,3.304 7.09,3.342 7.019,3.357 6.949,3.378 6.898,3.378 6.856,3.365 6.74,3.331 6.721,3.269 6.692,3.199 6.677,3.156 6.667,3.101 6.663,3.004 6.661,2.908 6.663,2.768 6.665,2.69 6.666,2.611 6.667,2.598 6.663,2.579 6.658,2.564 6.649,2.544 6.651,2.411 6.654,2.276 6.668,2.019 6.669,1.757 6.673,1.488 6.663,1.208 6.679,0.992 6.694,0.771 6.735,0.616 6.771,0.461 6.808,0.309 6.839,0.161 6.867,0.071 6.921,-0.087 6.965,-0.087 7.02,-0.155 7.083,-0.163 7.144,-0.163 7.197,-0.154 7.25,-0.146 7.294,-0.128 7.327,-0.128 7.384,-0.136 7.408,-0.19 7.433,-0.217 7.347,-0.27 7.255,-0.309 7.19,-0.328 7.034,-0.358 7.025,-0.354 6.935,-0.319 6.883,-0.289 6.817,-0.233 6.765,-0.161 6.715,-0.09 6.681,-0.003 6.631,0.148 6.581,0.301 6.514,0.517 6.458,0.791 6.4,1.068 6.354,1.402 6.317,1.708 6.278,2.018 6.247,2.306 6.235,2.529 6.222,2.75 6.229,2.905 6.228,3 6.224,3.096 6.211,3.128 6.19,3.153 6.213,3.385 6.24,3.617 6.264,3.791 6.288,3.964 6.307,4.082 6.322,4.147 6.337,4.211 6.346,4.226 6.36,4.236 6.49,4.136 6.62,4.034 6.706,3.934 6.796,3.839 6.841,3.749 6.889,3.658 7.157,3.557 7.382,3.444 7.623,3.282 7.869,3.114 8.154,2.886 8.419,2.657 8.497,2.663 8.575,2.667 8.647,2.681 8.718,2.692 8.786,2.708 8.826,2.708 8.866,2.708 8.88,2.692 8.895,2.675 8.984,2.6 9.138,2.647 9.3,2.639 9.255,2.614 9.22,2.576 9.178,2.484 9.136,2.396 9.089,2.253 9.024,2.098 8.962,1.936 8.88,1.763 8.813,1.631 8.747,1.503 8.694,1.41 8.635,1.323 8.559,1.305 8.49,1.318 8.412,1.222 8.36,1.172 8.327,1.078 8.353,0.992 8.365,0.951 8.389,0.922 8.421,0.905 8.502,0.922 8.574,0.966 8.669,1.068 8.763,1.167 8.877,1.323 9,1.53 9.125,1.738 9.257,1.995 9.373,2.261 9.421,2.293 9.468,2.327 9.514,2.367 9.595,2.431 9.662,2.494 9.66,2.549 9.663,2.574 9.663,2.598 9.66,2.622 9.549,2.686 9.44,2.757 9.334,2.833 9.231,2.911 9.131,2.993 9.051,3.063 8.88,3.211 8.808,3.342 8.682,3.49 8.615,3.565 8.531,3.647 8.461,3.716 8.321,3.87 8.229,3.969 8.117,4.039 8.062,4.073 8.005,4.109 7.891,4.15 7.775,4.193 7.607,4.241 7.437,4.288 7.265,4.338 7.093,4.386 6.798,4.488 6.506,4.595 6.089,4.758 5.807,4.858 5.526,4.956 5.381,4.993 5.231,5.029 5.083,5.063 4.931,5.096 4.804,5.111 4.537,5.149 4.404,5.109 4.219,5.045 4.121,5.01 4.006,4.968 3.891,4.923 3.655,4.84 3.379,4.687 3.09,4.486 2.792,4.279 2.481,4.043 2.168,3.779 2.013,3.647 1.864,3.509 1.691,3.336 1.519,3.164 1.323,2.955 1.131,2.743 0.94,2.529 0.753,2.31 0.619,2.141 0.485,1.972 0.402,1.856 0.323,1.736 0.145,1.478 0.027,1.227 -0.045,0.958 -0.085,0.821 -0.122,0.675 -0.149,0.542 -0.234,0.175 -0.209,-0.13 -0.216,-0.421 c 0,-0.191 0.012,-0.402 0.052,-0.604 0.012,-0.046 0.023,-0.096 0.046,-0.214"
         inkscape:connector-curvature="0" />
    </g>
    <g
       id="g6488"
       transform="matrix(1.3333333,0,0,-1.3333333,366.62225,518.85486)">
      <path
         id="path6486"
         style="fill:#000000;fill-opacity:1;fill-rule:nonzero;stroke:none"
         d="m 0,0 c -0.002,0 -0.005,0 -0.008,-0.003 -0.002,0 -0.002,-0.005 0,-0.005 0.002,0 0.006,-0.012 0.008,0.008"
         inkscape:connector-curvature="0" />
    </g>
    <g
       id="g6492"
       transform="matrix(1.3333333,0,0,-1.3333333,375.45305,519.80272)">
      <path
         id="path6490"
         style="fill:#000000;fill-opacity:1;fill-rule:nonzero;stroke:none"
         d="M 0,0 C 0.05,0.01 0.097,0.03 0.123,0.046 0.197,0.092 0.167,0.131 0.178,0.169 0.171,0.206 0.156,0.246 0.122,0.284 0.084,0.327 -0.003,0.359 -0.082,0.346 -0.124,0.343 -0.163,0.324 -0.189,0.312 -0.219,0.304 -0.234,0.293 -0.244,0.284 -0.271,0.222 -0.271,0.167 -0.227,0.079 -0.192,-0.009 -0.092,-0.02 0,0"
         inkscape:connector-curvature="0" />
    </g>
    <g
       id="g6496"
       transform="matrix(1.3333333,0,0,-1.3333333,365.82278,519.36006)">
      <path
         id="path6494"
         style="fill:#000000;fill-opacity:1;fill-rule:nonzero;stroke:none"
         d="M 0,0 C -0.006,0.005 -0.009,-0.005 -0.007,-0.008 -0.006,-0.008 -0.001,-0.02 0,0"
         inkscape:connector-curvature="0" />
    </g>
    <g
       id="g6500"
       transform="matrix(1.3333333,0,0,-1.3333333,374.06625,519.82486)">
      <path
         id="path6498"
         style="fill:#000000;fill-opacity:1;fill-rule:nonzero;stroke:none"
         d="M 0,0 C -0.004,-0.074 -0.012,-0.097 0.078,-0.19 0.172,-0.237 0.28,-0.218 0.395,-0.138 0.472,-0.075 0.509,0.01 0.437,0.104 0.29,0.263 0.214,0.175 0.056,0.12 0.025,0.097 0.008,0.043 0,0"
         inkscape:connector-curvature="0" />
    </g>
    <g
       id="g6504"
       transform="matrix(1.3333333,0,0,-1.3333333,373.19385,520.57366)">
      <path
         id="path6502"
         style="fill:#000000;fill-opacity:1;fill-rule:nonzero;stroke:none"
         d="M 0,0 C 0.044,-0.027 0.163,-0.009 0.249,0.031 0.336,0.069 0.397,0.135 0.387,0.179 0.387,0.248 0.34,0.349 0.196,0.405 0.135,0.411 0.153,0.421 0.115,0.413 0.075,0.403 -0.01,0.368 -0.075,0.322 -0.102,0.297 -0.125,0.272 -0.138,0.252 -0.174,0.182 -0.148,0.139 -0.108,0.084 -0.079,0.054 -0.031,0.023 0,0"
         inkscape:connector-curvature="0" />
    </g>
    <g
       id="g6508"
       transform="matrix(1.3333333,0,0,-1.3333333,372.42438,521.20966)">
      <path
         id="path6506"
         style="fill:#000000;fill-opacity:1;fill-rule:nonzero;stroke:none"
         d="M 0,0 C 0.047,0.032 0.106,0.052 0.165,0.102 0.219,0.168 0.214,0.23 0.202,0.271 0.188,0.304 0.154,0.355 0.097,0.415 0.04,0.455 0.036,0.455 -0.004,0.463 -0.053,0.463 -0.133,0.455 -0.198,0.423 -0.232,0.406 -0.265,0.381 -0.286,0.36 -0.316,0.331 -0.322,0.343 -0.353,0.291 -0.365,0.245 -0.351,0.12 -0.297,0.069 -0.187,-0.034 -0.11,-0.077 0,0"
         inkscape:connector-curvature="0" />
    </g>
    <g
       id="g6512"
       transform="matrix(1.3333333,0,0,-1.3333333,371.24852,522.15752)">
      <path
         id="path6510"
         style="fill:#000000;fill-opacity:1;fill-rule:nonzero;stroke:none"
         d="M 0,0 C 0.042,0.021 0.089,0.053 0.135,0.093 0.181,0.125 0.227,0.164 0.258,0.197 0.373,0.291 0.346,0.406 0.308,0.479 0.259,0.554 0.171,0.627 0.079,0.625 -0.026,0.645 -0.172,0.589 -0.311,0.438 -0.351,0.397 -0.389,0.354 -0.409,0.321 -0.45,0.219 -0.449,0.152 -0.347,0.057 -0.259,-0.026 -0.104,-0.047 0,0"
         inkscape:connector-curvature="0" />
    </g>
    <g
       id="g6516"
       transform="matrix(1.3333333,0,0,-1.3333333,374.35798,521.59512)">
      <path
         id="path6514"
         style="fill:#000000;fill-opacity:1;fill-rule:nonzero;stroke:none"
         d="M 0,0 C -0.007,0.002 -0.01,-0.005 -0.008,-0.008 -0.007,-0.01 -0.001,-0.022 0,0"
         inkscape:connector-curvature="0" />
    </g>
    <g
       id="g6520"
       transform="matrix(1.3333333,0,0,-1.3333333,380.48878,522.63286)">
      <path
         id="path6518"
         style="fill:#000000;fill-opacity:1;fill-rule:nonzero;stroke:none"
         d="M 0,0 C 0.074,0.143 0.148,0.289 0.185,0.367 0.222,0.452 0.222,0.466 0.216,0.479 0.121,0.487 0.08,0.501 0.001,0.387 -0.045,0.319 -0.111,0.189 -0.178,0.06 c -0.068,-0.125 -0.14,-0.248 -0.2,-0.346 -0.059,-0.095 -0.108,-0.166 -0.146,-0.214 -0.037,-0.054 -0.063,-0.089 -0.091,-0.122 -0.068,0.017 -0.101,0.038 -0.147,0.01 -0.059,-0.03 -0.135,-0.146 -0.154,-0.238 -0.009,-0.088 -0.055,-0.133 0.044,-0.221 0.018,-0.012 0.04,-0.018 0.06,-0.018 0.203,0.214 0.393,0.437 0.524,0.618 C -0.153,-0.287 -0.076,-0.147 0,0"
         inkscape:connector-curvature="0" />
    </g>
    <g
       id="g6524"
       transform="matrix(1.3333333,0,0,-1.3333333,369.54478,523.44139)">
      <path
         id="path6522"
         style="fill:#000000;fill-opacity:1;fill-rule:nonzero;stroke:none"
         d="M 0,0 C 0.192,0.125 0.382,0.255 0.49,0.341 0.599,0.434 0.625,0.482 0.65,0.531 0.664,0.61 0.657,0.726 0.569,0.797 0.527,0.875 0.343,0.88 0.21,0.731 0.079,0.596 -0.025,0.468 -0.07,0.333 -0.101,0.242 -0.096,0.125 -0.039,0.017 Z"
         inkscape:connector-curvature="0" />
    </g>
    <g
       id="g6528"
       transform="matrix(1.3333333,0,0,-1.3333333,375.20692,523.12899)">
      <path
         id="path6526"
         style="fill:#000000;fill-opacity:1;fill-rule:nonzero;stroke:none"
         d="M 0,0 C -0.203,0.094 -0.37,0.156 -0.536,0.22 -0.704,0.283 -0.873,0.346 -1.004,0.377 -1.137,0.415 -1.232,0.425 -1.318,0.423 -1.403,0.42 -1.48,0.41 -1.533,0.398 -1.654,0.359 -1.676,0.349 -1.75,0.283 -1.79,0.24 -1.838,0.176 -1.885,0.106 -1.931,0.039 -1.972,-0.03 -1.993,-0.08 c -0.031,-0.09 -0.005,-0.115 -0.012,-0.17 0.023,-0.027 0.05,-0.055 0.079,-0.075 0.031,-0.019 0.064,-0.036 0.179,-0.057 0.218,-0.041 0.685,-0.096 1.041,-0.192 0.168,-0.039 0.314,-0.091 0.464,-0.141 0.149,-0.049 0.3,-0.097 0.412,-0.117 0.111,-0.023 0.179,-0.023 0.247,-0.012 0.067,0.015 0.13,0.037 0.171,0.064 0.094,0.065 0.092,0.098 0.115,0.156 0.021,0.071 0.021,0.171 -0.023,0.263 C 0.444,-0.225 0.203,-0.096 0,0"
         inkscape:connector-curvature="0" />
    </g>
    <g
       id="g6532"
       transform="matrix(1.3333333,0,0,-1.3333333,370.13265,524.93032)">
      <path
         id="path6530"
         style="fill:#000000;fill-opacity:1;fill-rule:nonzero;stroke:none"
         d="m 0,0 c -0.031,-0.051 -0.078,-0.116 -0.113,-0.16 -0.034,-0.047 -0.054,-0.071 -0.065,-0.084 -0.014,-0.012 -0.02,-0.017 -0.027,-0.02 -0.001,0.052 0.007,0.105 0.035,0.168 0.026,0.065 0.071,0.14 0.1,0.181 0.052,0.07 0.068,0.077 0.099,0.089 0.011,0 0.02,-0.012 0.027,-0.019 C 0.062,0.112 0.042,0.075 0,0 M 0.484,0.426 C 0.496,0.491 0.482,0.538 0.451,0.574 0.316,0.538 0.183,0.496 0.093,0.458 -0.073,0.389 -0.122,0.344 -0.22,0.273 -0.262,0.236 -0.305,0.19 -0.342,0.139 -0.379,0.09 -0.41,0.032 -0.458,-0.071 c -0.049,-0.102 -0.115,-0.25 -0.151,-0.35 -0.038,-0.1 -0.048,-0.149 -0.048,-0.2 0.084,-0.078 0.141,-0.071 0.236,-0.057 0.111,0.024 0.273,0.062 0.4,0.172 0.207,0.185 0.319,0.461 0.42,0.699 0.035,0.083 0.073,0.166 0.085,0.233"
         inkscape:connector-curvature="0" />
    </g>
    <g
       id="g6536"
       transform="matrix(1.3333333,0,0,-1.3333333,371.88012,530.48446)">
      <path
         id="path6534"
         style="fill:#000000;fill-opacity:1;fill-rule:nonzero;stroke:none"
         d="M 0,0 C 0.171,0.006 0.258,0.016 0.342,0.043 0.295,0.095 0.235,0.141 0.157,0.18 0.079,0.218 -0.021,0.251 -0.152,0.291 -0.28,0.328 -0.441,0.367 -0.603,0.404 -0.667,0.343 -0.729,0.281 -0.771,0.229 -0.815,0.181 -0.839,0.151 -0.851,0.116 -0.865,0.083 -0.868,0.053 -0.839,0.031 -0.811,0.013 -0.747,0.002 -0.59,-0.003 -0.431,-0.005 -0.173,-0.005 0,0"
         inkscape:connector-curvature="0" />
    </g>
    <g
       id="g6540"
       transform="matrix(1.3333333,0,0,-1.3333333,385.72772,532.15366)">
      <path
         id="path6538"
         style="fill:#000000;fill-opacity:1;fill-rule:nonzero;stroke:none"
         d="m 0,0 -0.757,0.941 -0.931,0 1.301,-1.566 0,-0.84 0.766,0 0,0.81 1.306,1.616 -0.91,0 z"
         inkscape:connector-curvature="0" />
    </g>
    <g
       id="g6544"
       transform="matrix(1.3333333,0,0,-1.3333333,365.57865,532.73446)">
      <path
         id="path6542"
         style="fill:#000000;fill-opacity:1;fill-rule:nonzero;stroke:none"
         d="m 0,0 c -0.01,0.132 -0.034,0.18 -0.101,0.26 -0.033,0.04 -0.079,0.073 -0.134,0.102 -0.054,0.035 -0.12,0.057 -0.266,0.076 -0.149,0.015 -0.38,0.022 -0.646,0.024 -0.265,0 -0.564,0 -0.861,-0.002 l -0.039,0.056 0,0.308 1.305,0.003 0.084,-0.211 0.63,0 C -0.036,0.744 -0.012,0.875 -0.034,1.001 -0.048,1.065 -0.08,1.123 -0.121,1.173 -0.203,1.271 -0.304,1.339 -0.396,1.367 -0.443,1.381 -0.49,1.384 -0.816,1.389 -1.142,1.395 -1.748,1.395 -2.063,1.395 -2.377,1.392 -2.398,1.387 -2.42,1.381 -2.487,1.367 -2.603,1.333 -2.717,1.152 -2.75,1.098 -2.777,1.021 -2.792,0.937 -2.822,0.776 -2.839,0.576 -2.822,0.397 -2.81,0.313 -2.791,0.24 -2.767,0.189 -2.712,0.094 -2.71,0.057 -2.564,0 c 0.075,-0.028 0.197,-0.052 0.331,-0.064 0.132,-0.012 0.277,-0.017 0.518,-0.017 0.242,0 0.579,0 0.916,0.002 0.045,-0.067 0.088,-0.132 0.092,-0.2 0.003,-0.076 -0.032,-0.154 -0.07,-0.233 -0.219,0 -0.438,0 -0.642,-0.003 -0.204,0 -0.393,-0.002 -0.5,0 -0.107,0.006 -0.131,0.015 -0.153,0.03 -0.09,0.055 -0.064,0.156 -0.099,0.242 l -0.62,0 c -0.018,-0.119 -0.031,-0.237 -0.033,-0.318 -0.001,-0.162 0.017,-0.176 0.059,-0.255 0.026,-0.042 0.065,-0.092 0.116,-0.134 0.048,-0.04 0.111,-0.072 0.177,-0.092 0.388,-0.002 0.777,-0.005 1.126,-0.007 0.348,-0.003 0.656,-0.008 0.838,0.007 0.183,0.012 0.24,0.042 0.29,0.08 0.091,0.069 0.149,0.14 0.178,0.197 0.017,0.028 0.031,0.059 0.038,0.141 0.006,0.079 0.006,0.211 0.006,0.327 0,0.118 0,0.221 -0.004,0.297"
         inkscape:connector-curvature="0" />
    </g>
    <g
       id="g6548"
       transform="matrix(1.3333333,0,0,-1.3333333,367.20692,533.01632)">
      <path
         id="path6546"
         style="fill:#000000;fill-opacity:1;fill-rule:nonzero;stroke:none"
         d="m 0,0 1.638,0 0,-0.822 0.793,0 0,2.41 -0.774,-0.006 0,-0.877 -1.644,0 0,0.871 -0.759,0 0,-2.411 L 0,-0.83 Z"
         inkscape:connector-curvature="0" />
    </g>
    <g
       id="g6552"
       transform="matrix(1.3333333,0,0,-1.3333333,382.15678,532.19019)">
      <path
         id="path6550"
         style="fill:#000000;fill-opacity:1;fill-rule:nonzero;stroke:none"
         d="m 0,0 -1.531,0 0,0.366 1.51,0 C 0.059,0.244 0.06,0.124 0,0 m 0,-0.876 -1.531,0 0,0.365 1.51,0 C 0.059,-0.626 0.06,-0.75 0,-0.876 m 0.482,0.657 c 0.05,0.037 0.097,0.083 0.138,0.137 0.092,0.099 0.104,0.269 0.093,0.436 0,0.146 0.004,0.265 -0.065,0.393 C 0.62,0.8 0.586,0.851 0.55,0.885 0.518,0.92 0.481,0.94 0.441,0.959 0.401,0.976 0.355,0.992 -0.103,0.998 -0.558,1.005 -1.427,1.005 -2.291,0.994 l 0,-2.474 c 0.873,-0.012 1.749,-0.004 2.219,0.011 0.468,0.011 0.532,0.031 0.588,0.058 0.121,0.073 0.179,0.151 0.212,0.233 0.016,0.05 0.025,0.101 0.034,0.22 0.008,0.123 0.017,0.307 -0.006,0.428 -0.054,0.236 -0.182,0.275 -0.274,0.311"
         inkscape:connector-curvature="0" />
    </g>
    <g
       id="g6556"
       transform="matrix(1.3333333,0,0,-1.3333333,374.67825,531.61792)">
      <path
         id="path6554"
         style="fill:#000000;fill-opacity:1;fill-rule:nonzero;stroke:none"
         d="m 0,0 0,0.533 -2.751,0 0,-2.42 2.729,-0.005 0,0.562 -1.967,0 0,0.39 1.837,0 0,0.53 -1.828,0 0,0.41 z"
         inkscape:connector-curvature="0" />
    </g>
    <g
       id="g6560"
       transform="matrix(1.3333333,0,0,-1.3333333,375.33652,530.90499)">
      <path
         id="path6558"
         style="fill:#000000;fill-opacity:1;fill-rule:nonzero;stroke:none"
         d="m 0,0 -0.005,-2.421 2.5,-0.008 0,0.564 -1.692,0 0,1.865 z"
         inkscape:connector-curvature="0" />
    </g>
    <g
       id="g6564"
       transform="matrix(1.3333333,0,0,-1.3333333,382.02985,542.69019)">
      <path
         id="path6562"
         style="fill:#000000;fill-opacity:1;fill-rule:nonzero;stroke:none"
         d="M 0,0 C -0.026,-0.082 -0.052,-0.164 -0.046,-0.319 -0.039,-0.48 0,-0.712 0.039,-0.948 -0.046,-1.029 -0.152,-1.107 -0.256,-1.14 c -0.191,-0.049 -0.256,0.085 -0.406,0.149 -0.125,0.076 -0.282,0.098 -0.404,-0.064 -0.033,-0.035 -0.064,-0.082 -0.1,-0.131 -0.076,-0.106 -0.135,-0.152 -0.202,-0.148 -0.036,0 -0.077,0.002 -0.118,0.013 l 0.349,0.522 c -0.06,0.116 -0.118,0.233 -0.175,0.308 -0.06,0.081 -0.118,0.12 -0.176,0.164 -0.131,-0.066 -0.262,-0.131 -0.351,-0.191 -0.089,-0.062 -0.136,-0.113 -0.185,-0.168 l 0.128,-0.588 c -0.05,-0.019 -0.109,-0.047 -0.163,0.005 -0.021,0.025 -0.041,0.066 -0.058,0.113 -0.017,0.046 -0.032,0.09 -0.049,0.116 -0.037,0.055 -0.079,0.06 -0.119,0.07 -0.069,-0.04 -0.136,-0.073 -0.203,-0.113 -0.121,-0.073 -0.235,-0.139 -0.339,-0.106 -0.045,0.006 -0.087,0.022 -0.124,0.049 0.086,0.037 0.171,0.08 0.247,0.127 0.128,0.085 0.231,0.181 0.243,0.26 0.01,0.027 0.018,0.055 0.029,0.083 -0.023,0.066 -0.043,0.134 -0.069,0.195 -0.025,0.059 -0.054,0.113 -0.056,0.156 -10e-4,0.066 0.057,0.107 0.096,0.15 0.025,-0.062 0.057,-0.121 0.094,-0.178 0.06,-0.09 0.137,-0.171 0.203,-0.171 0.024,-0.004 0.042,-0.006 0.061,-0.012 0.07,0.05 0.136,0.105 0.194,0.164 0.059,0.058 0.113,0.127 0.137,0.171 0.048,0.099 0.031,0.121 0.009,0.179 -0.042,0.074 -0.126,0.176 -0.185,0.28 0.062,-0.009 0.13,0.013 0.198,-0.012 0.07,-0.038 0.132,-0.107 0.206,-0.146 0.069,0.039 0.135,0.076 0.18,0.116 0.1,0.116 0.191,0.149 0.328,0.184 0.159,0.036 0.287,0.031 0.396,0 0.056,-0.015 0.125,-0.029 0.193,-0.038 L -0.569,0.837 C -0.497,0.826 -0.426,0.816 -0.362,0.812 -0.294,0.804 -0.234,0.802 -0.198,0.792 -0.16,0.784 -0.148,0.767 -0.144,0.747 -0.174,0.737 -0.206,0.729 -0.238,0.725 -0.272,0.72 -0.31,0.72 -0.333,0.685 -0.358,0.648 -0.372,0.577 -0.365,0.519 -0.352,0.423 -0.3,0.355 -0.184,0.285 -0.1,0.228 0.004,0.207 0.104,0.2 0.154,0.192 0.202,0.182 0.233,0.16 0.284,0.121 0.294,0.047 0.297,0 Z m 0.221,-0.574 c -0.008,0.011 0.006,-0.039 -0.043,0.011 -0.016,0.012 -0.001,-0.013 -0.04,0.048 -0.013,0.002 0.008,0.022 -0.015,0.04 -0.003,0 0,0.062 -0.002,0.111 0.002,0.052 -0.007,0.019 0.028,0.082 0.012,0.002 0.008,-0.006 0.035,0.021 0.004,0 0.018,0.014 0.032,-0.003 0.022,-0.016 0,-0.011 0.046,-0.075 0,-0.013 -0.002,-0.015 0.009,-0.035 -0.01,0 -0.022,-0.013 0.002,-0.051 -0.005,-0.006 -0.026,-0.026 0,-0.082 -0.012,-0.015 0.021,0 -0.052,-0.067 m -1.756,-0.26 c -0.007,-0.009 -0.003,-0.023 -0.04,-0.056 -0.018,0 0.011,-0.003 -0.058,-0.025 -0.01,0 -0.005,-0.005 -0.01,-0.01 -0.017,-0.003 0,0.01 -0.043,0.026 0.008,0.021 -0.033,0.014 -0.002,0.092 0.008,0.018 -0.005,-0.006 0.03,0.035 0.015,0.003 -0.019,0.008 0.055,0.033 0.012,0.005 0.007,0.005 0.037,0.025 0.007,-0.004 0.013,0.003 0.022,-0.008 0.013,-0.012 0.008,0.004 0.031,-0.039 0.003,-0.016 -0.004,0.005 -0.022,-0.073 m -1.547,0.01 c -0.044,-0.041 -0.099,-0.074 -0.16,-0.099 -0.06,-0.025 -0.129,-0.041 -0.331,-0.071 -0.199,-0.033 -0.533,-0.074 -0.753,-0.092 -0.221,-0.017 -0.33,-0.012 -0.428,-0.01 -0.097,0 -0.183,-0.002 -0.231,0 -0.05,0.006 -0.06,0.013 -0.068,0.024 0.178,0.213 0.365,0.422 0.476,0.533 0.111,0.114 0.145,0.129 0.183,0.138 0.04,0.008 0.084,0.01 0.171,0.008 0.087,0 0.216,-0.003 0.345,0.002 0.127,0.004 0.255,0.015 0.453,0.044 0.195,0.03 0.46,0.08 0.726,0.138 -0.015,-0.157 -0.148,-0.306 -0.255,-0.472 -0.039,-0.053 -0.079,-0.103 -0.128,-0.143 m -0.587,-0.472 c -0.042,-0.022 -0.099,-0.053 -0.155,-0.08 -0.058,-0.022 -0.118,-0.043 -0.22,-0.071 -0.103,-0.028 -0.251,-0.061 -0.413,-0.074 -0.163,-0.013 -0.341,-0.003 -0.481,0 -0.14,0 -0.243,-0.003 -0.337,0 -0.095,0.005 -0.183,0.016 -0.225,0.037 -0.044,0.02 -0.044,0.047 -0.032,0.069 0.027,0.053 0.133,0.116 0.228,0.19 0.372,0.01 0.746,0.022 1.044,0.028 0.298,0.002 0.521,0.002 0.743,0 -0.06,-0.042 -0.087,-0.061 -0.152,-0.099 m -1.872,0.175 c 0,0.011 0.04,0.016 0.052,-0.002 -0.003,-0.005 0.044,0.013 0.003,-0.06 -0.015,0.005 -0.002,-0.025 -0.046,-0.005 0,0.005 -0.04,-0.015 -0.009,0.067 m 0.612,0.684 c 0.012,0.002 -0.007,0.027 0.038,0.006 -0.002,-0.004 0.047,0.014 0.002,-0.062 -0.003,0.002 -0.031,-0.06 -0.064,0.01 0.002,0.013 -0.011,0.01 0.024,0.046 m 0.744,0.822 c 0.03,0.065 0.051,0.134 0.082,0.178 0.031,0.05 0.069,0.075 0.119,0.093 0.046,0.018 0.102,0.029 0.202,0.037 0.101,0.009 0.246,0.014 0.41,0.016 0.164,0 0.347,-0.005 0.491,0.003 0.144,0.01 0.253,0.033 0.345,0.041 0.091,0.014 0.164,0.014 0.238,0.006 L -2.516,0.16 c -0.05,-0.044 -0.103,-0.08 -0.16,-0.116 -0.058,-0.035 -0.118,-0.066 -0.213,-0.099 -0.093,-0.032 -0.223,-0.067 -0.359,-0.093 -0.136,-0.026 -0.278,-0.039 -0.457,-0.047 -0.177,-0.008 -0.388,-0.008 -0.598,0.002 -0.087,0.168 0.03,0.393 0.118,0.578 m -0.169,2.7 c -0.018,0.078 -0.039,0.161 -0.042,0.214 -0.005,0.052 0.008,0.077 0.024,0.097 0.016,0.022 0.036,0.04 0.144,0.058 0.108,0.027 0.306,0.057 0.492,0.081 0.187,0.025 0.362,0.039 0.504,0.047 0.141,0.007 0.247,0.012 0.349,0.002 0.104,-0.007 0.204,-0.022 0.275,-0.052 0.071,-0.027 0.114,-0.073 0.15,-0.121 0.039,-0.05 0.07,-0.105 0.096,-0.192 C -2.337,3.131 -2.318,3.01 -2.321,2.935 -2.335,2.802 -2.392,2.787 -2.367,2.726 -2.929,2.624 -3.515,2.596 -4.118,2.624 -4.257,2.765 -4.32,2.93 -4.354,3.085 m 0.007,-0.918 c -0.007,0.009 -0.024,0.025 0.008,0.044 0.01,0 0.006,-0.009 0.011,-0.023 -10e-4,0.008 0.032,-0.034 -0.019,-0.021 m -0.491,2.438 c 0.127,0.119 0.342,0.149 0.547,0.153 0.215,0.011 0.474,-0.007 0.749,-0.007 0.14,0 0.27,0.004 0.348,0 C -3.05,4.733 -3.042,4.697 -2.978,4.673 -2.911,4.576 -2.853,4.472 -2.802,4.359 -2.749,4.251 -2.704,4.134 -2.687,4.051 -2.66,3.915 -2.693,3.86 -2.749,3.782 -2.836,3.754 -2.928,3.737 -3.093,3.732 -3.257,3.728 -3.493,3.735 -3.669,3.729 -3.844,3.725 -3.959,3.708 -4.062,3.697 -4.165,3.687 -4.255,3.687 -4.313,3.692 -4.425,3.71 -4.447,3.735 -4.509,3.747 Z M -5.044,5.04 c -0.038,0.064 -0.083,0.166 -0.131,0.267 -0.048,0.105 -0.097,0.206 -0.136,0.292 -0.034,0.087 -0.06,0.156 -0.073,0.205 -0.012,0.049 -0.012,0.072 -0.006,0.097 0.243,0.139 0.627,0.134 1,0.127 0.195,0 0.374,0 0.483,-0.003 0.205,-0.002 0.21,-0.015 0.302,-0.047 0.092,-0.044 0.147,-0.081 0.217,-0.206 0.04,-0.072 0.092,-0.18 0.139,-0.295 0.046,-0.115 0.085,-0.234 0.103,-0.305 0.025,-0.136 0,-0.134 -0.035,-0.19 C -3.203,4.957 -3.24,4.929 -3.286,4.912 -3.333,4.897 -3.388,4.89 -3.515,4.887 -3.642,4.882 -3.839,4.884 -4.073,4.884 c -0.237,0 -0.508,0 -0.781,0.003 -0.084,0.022 -0.127,0.042 -0.19,0.153 M -2.149,2.3 C -2.113,2.184 -2.11,2.075 -2.155,1.972 -2.175,1.929 -2.202,1.896 -2.234,1.873 -2.624,1.81 -3.013,1.748 -3.249,1.715 -3.485,1.681 -3.57,1.67 -3.65,1.667 -3.732,1.659 -3.81,1.659 -3.863,1.665 -3.953,1.678 -3.989,1.71 -4.044,1.763 -4.082,1.851 -4.108,1.943 -4.12,2.033 -4.128,2.122 -4.125,2.214 -4.123,2.265 -4.12,2.319 -4.12,2.34 -4.12,2.354 -3.711,2.413 -3.301,2.478 -2.992,2.502 -2.679,2.53 -2.465,2.521 -2.25,2.511 -2.207,2.44 -2.17,2.367 -2.149,2.3 M -2.406,0.992 C -2.483,0.955 -2.568,0.932 -2.73,0.904 -2.893,0.879 -3.129,0.853 -3.3,0.841 -3.473,0.832 -3.58,0.837 -3.678,0.834 c -0.098,0 -0.186,-0.002 -0.244,0.006 -0.057,0.009 -0.088,0.032 -0.108,0.059 -0.052,0.065 -0.054,0.186 -0.043,0.302 0.008,0.07 0.024,0.133 0.042,0.174 0.035,0.076 0.075,0.102 0.126,0.146 0.197,-0.017 0.395,-0.017 0.618,0.005 0.221,0.021 0.466,0.066 0.625,0.098 0.161,0.033 0.233,0.056 0.293,0.068 0.093,0.01 0.151,0.008 0.211,-0.011 C -2.151,1.567 -2.151,1.454 -2.157,1.379 -2.183,1.226 -2.177,1.206 -2.233,1.121 -2.269,1.078 -2.332,1.028 -2.406,0.992 m 0.173,-0.895 c 0.003,0.004 0.02,0.024 0.066,0.002 0.018,-0.012 0.007,-0.012 0.045,-0.044 0.009,-0.011 -0.01,0 0.034,-0.046 0.007,-0.014 -0.012,-0.031 0.013,-0.067 -0.007,-0.008 0,-0.022 -0.028,-0.046 -0.019,0.008 0.005,-0.027 -0.058,0 -0.014,0.005 -0.003,0.027 -0.041,0.049 -0.005,0.013 -0.005,-0.006 -0.026,0.05 -0.018,0.011 -0.017,0.034 -0.005,0.102 m 0.256,0.674 C -1.997,0.794 -2.021,0.812 -2.062,0.849 -2.07,0.857 -2.07,0.868 -2.064,0.879 -2.053,0.91 -2.018,0.91 -1.987,0.883 -1.96,0.868 -1.904,0.784 -1.873,0.712 -1.842,0.625 -1.824,0.577 -1.906,0.506 -1.943,0.473 -2,0.434 -2.053,0.437 -2.078,0.44 -2.098,0.458 -2.106,0.478 c 0.104,0.091 0.227,0.229 0.129,0.293 m 0.273,-0.323 c -0.006,0 -0.022,-0.028 -0.04,0.002 -0.006,0.013 0.006,-0.008 0.014,0.032 0.011,-0.004 0.01,0.02 0.032,0.006 0.007,-0.003 0.029,-0.018 -0.006,-0.04 M -1.917,1.301 C -1.87,1.375 -1.784,1.412 -1.721,1.359 -1.68,1.334 -1.699,1.316 -1.752,1.293 -1.781,1.283 -1.815,1.267 -1.834,1.255 -1.875,1.214 -1.863,1.218 -1.873,1.192 -1.879,1.15 -1.876,1.102 -1.842,1.058 -1.808,1.01 -1.749,0.947 -1.71,0.939 -1.663,0.917 -1.607,0.937 -1.557,0.977 -1.501,1.016 -1.51,1.093 -1.537,1.165 -1.541,1.181 -1.542,1.194 -1.542,1.204 -1.382,1.121 -1.44,1.01 -1.499,0.945 -1.53,0.904 -1.605,0.834 -1.671,0.81 -1.778,0.783 -1.81,0.863 -1.874,0.945 -2.013,1.101 -1.974,1.147 -1.917,1.301 M -1.84,1.796 C -1.865,1.745 -1.848,1.739 -1.853,1.723 -1.879,1.662 -1.87,1.705 -1.876,1.689 -1.928,1.705 -1.89,1.743 -1.899,1.755 c 0.023,0.025 0.009,0.028 0.012,0.036 0.022,0.035 0.008,0.038 0.011,0.046 -0.023,0.033 -0.009,0.038 -0.011,0.046 0.022,0.026 0.008,0.029 0.011,0.038 0.08,0.052 0.038,-0.02 0.046,-0.02 0.029,-0.105 0,-0.036 0.003,-0.058 C -1.854,1.796 -1.836,1.808 -1.84,1.796 m -0.071,0.465 c 0.049,0.044 0.054,0.016 0.067,0.019 0.029,-0.03 0.021,-0.027 0.037,-0.038 0.026,-0.05 0.011,-0.034 0.013,-0.042 -0.019,-0.074 0.008,-0.028 0,-0.046 C -1.796,2.151 -1.796,2.151 -1.797,2.151 -1.865,2.102 -1.865,2.134 -1.879,2.126 -1.914,2.154 -1.894,2.148 -1.897,2.156 -1.924,2.229 -1.907,2.25 -1.911,2.261 m 0.208,-0.604 c 0.005,0.04 0.012,0.077 0.019,0.098 0.099,0.118 0.205,0.031 0.356,-0.08 C -1.28,1.623 -1.271,1.547 -1.283,1.477 -1.29,1.439 -1.304,1.399 -1.313,1.375 -1.332,1.335 -1.324,1.324 -1.368,1.304 -1.387,1.286 -1.422,1.308 -1.46,1.337 -1.482,1.356 -1.502,1.372 -1.541,1.399 -1.577,1.424 -1.633,1.464 -1.665,1.489 -1.74,1.541 -1.704,1.59 -1.703,1.657 m 0.137,0.43 c 0.008,-0.021 0.014,-0.036 0.042,-0.071 0.027,-0.036 0.076,-0.08 0.128,-0.112 0.053,-0.026 0.112,-0.037 0.146,-0.048 0.074,-0.019 0.056,-0.044 0.056,-0.068 0,-0.049 -0.048,-0.022 -0.08,0.03 -0.054,0.022 -0. 	|     	|                    €d             ïc    ˆ	|            @	|     @      @	|            8,0.018 0.041,0.04 0.058,-0.029 M -1.439,0.562 C -1.434,0.539 -1.421,0.505 -1.436,0.473 -1.443,0.46 -1.454,0.45 -1.467,0.445 c -0.044,0.033 -0.082,0.074 -0.098,0.111 -0.031,0.092 -0.002,0.131 0.021,0.17 0.034,0.043 0.18,0.184 0.229,0.178 0.052,-0.009 0.065,-0.021 0.107,-0.058 0.025,-0.03 0.064,-0.071 0.107,-0.12 0.04,-0.041 0.081,-0.083 0.093,-0.11 0.016,-0.093 -0.1,-0.006 -0.116,0.05 C -1.176,0.753 -1.232,0.747 -1.286,0.752 -1.309,0.75 -1.337,0.739 -1.361,0.72 -1.414,0.677 -1.453,0.598 -1.439,0.562 m 0.295,0.652 c 0.016,0.045 0.037,0.087 0.055,0.118 0.022,0.027 0.04,0.04 0.062,0.047 L -0.936,1.261 C -0.979,1.253 -1.021,1.229 -1.045,1.206 -1.1,1.165 -1.061,1.096 -1.016,1.031 -0.94,0.912 -0.87,0.904 -0.793,0.872 L -0.864,0.734 c -0.108,0.073 -0.194,0.221 -0.302,0.338 0,0.051 0.009,0.095 0.022,0.142 m 0.165,0.336 c 0.003,0.003 0.01,0.003 0.013,0.003 0.01,-0.006 0.003,-0.016 0.01,-0.034 0.004,-0.003 0.01,0.01 0.018,-0.012 -0.002,-0.003 -0.06,-0.01 -0.041,0.043 m 0.923,-1.056 c 0.013,0.006 0.02,-0.001 0.06,0.012 0.015,0 0.021,-0.001 0.025,-0.006 0.018,-0.01 -0.002,0.009 0.049,-0.037 0.026,0 0,-0.005 0.064,-0.043 C 0.13,0.406 0.188,0.418 0.131,0.366 0.109,0.363 0.109,0.368 0.042,0.393 c 0,0.005 -0.01,0 -0.042,0.019 -0.01,0.008 -0.015,-0.004 -0.053,0.038 0,0.015 -0.03,0.006 -0.003,0.044 m -7.211,-1.738 c -0.004,0.002 -0.035,-0.014 -0.018,0.047 0.007,0 0.011,0.008 0.02,-0.008 0.006,-0.003 0.027,-0.012 -0.002,-0.039 m -0.345,1.04 c -0.06,0.12 -0.072,0.216 -0.084,0.31 0.156,0.212 0.321,0.336 0.491,0.403 0.094,-0.113 0.185,-0.229 0.265,-0.329 0.161,-0.194 0.229,-0.306 0.176,-0.433 -0.017,-0.059 -0.042,-0.126 -0.089,-0.184 -0.107,-0.134 -0.311,-0.194 -0.488,-0.176 -0.106,0.143 -0.213,0.289 -0.271,0.409 m 0.097,-1.191 c -0.103,0.014 -0.205,0.037 -0.303,0.063 -0.095,0.028 -0.187,0.058 -0.254,0.093 -0.066,0.039 -0.108,0.083 -0.154,0.121 -0.073,0.058 -0.152,0.118 -0.217,0.083 -0.039,-0.022 -0.084,-0.022 -0.13,0.006 -0.054,0.021 -0.072,0.067 -0.045,0.104 0.025,0.058 0.145,0.04 0.261,0.035 0.072,-0.003 0.147,-0.003 0.223,-0.003 0.055,-0.077 0.155,-0.164 0.248,-0.197 0.067,-0.028 0.102,-0.006 0.15,0 0.017,0.032 0.039,0.061 0.057,0.096 0.057,0.104 0.1,0.096 0.169,0.109 0.044,0.003 0.095,0.009 0.15,0.016 -0.085,-0.103 -0.169,-0.206 -0.195,-0.298 -0.025,-0.083 0.008,-0.157 0.04,-0.228 m -0.511,-0.228 c -0.05,-0.061 -0.115,-0.061 -0.182,-0.057 -0.057,0.005 -0.099,-0.004 -0.168,0.008 -0.014,0.002 -0.02,0.01 -0.021,0.018 0.055,0.033 0.109,0.067 0.145,0.092 0.096,0.085 0.114,0.095 0.187,0.073 0.037,-0.012 0.067,-0.032 0.098,-0.059 -0.016,-0.027 -0.037,-0.051 -0.059,-0.075 m -0.51,0.289 c -0.009,0 0.004,-0.022 -0.074,-0.015 -0.004,0.003 -0.025,0.015 0.006,0.038 0.018,0 0.033,0.003 0.069,-0.007 0,-0.006 0.003,-0.008 -10e-4,-0.016 m -0.141,0.733 c -0.033,0.052 -0.077,0.141 -0.115,0.237 -0.036,0.097 -0.064,0.2 -0.081,0.265 -0.015,0.06 -0.019,0.081 -0.025,0.105 -0.006,0.021 -0.015,0.041 0,0.091 0.034,0.103 0.134,0.249 0.324,0.359 0.092,0.055 0.207,0.123 0.325,0.182 0.127,-0.168 0.204,-0.331 0.201,-0.487 l -0.494,-0.824 c -0.062,0.003 -0.083,-0.005 -0.135,0.072 m -2.335,0.331 c -0.007,-0.015 0.002,-0.007 -0.028,-0.045 -0.016,-0.004 -0.049,-0.004 -0.02,0.087 0.006,0.011 0.006,0.013 0.04,0.03 0.008,0.003 0.004,-0.006 0.009,-0.019 0.01,0 0.002,-0.011 -0.001,-0.053 m 2.045,-1.254 c -0.069,0.057 -0.179,0.067 -0.276,0.01 -0.086,-0.054 -0.171,-0.093 -0.26,-0.066 -0.039,0.009 -0.073,0.018 -0.101,0.034 0.034,0.027 0.072,0.054 0.113,0.082 0.041,0.025 0.087,0.049 0.108,0.083 0.038,0.063 0.01,0.164 -0.056,0.249 -0.028,0.036 -0.065,0.066 -0.107,0.089 -0.128,-0.053 -0.253,-0.113 -0.322,-0.149 -0.069,-0.039 -0.081,-0.055 -0.091,-0.074 -0.031,-0.042 -0.028,-0.143 -0.013,-0.226 -0.062,0.025 -0.122,0.048 -0.168,0.085 -0.045,0.037 -0.07,0.089 -0.099,0.141 -0.115,-0.014 -0.183,-0.068 -0.277,-0.069 -0.102,10e-4 -0.245,0.059 -0.368,0.138 0.007,0.126 0.014,0.253 0.004,0.346 -0.012,0.098 -0.043,0.156 -0.074,0.214 -0.079,-0.003 -0.104,0.011 -0.175,-0.006 -0.043,-0.013 -0.104,-0.038 -0.155,-0.077 -0.049,-0.041 -0.089,-0.096 -0.113,-0.158 -0.079,0.051 -0.155,0.101 -0.208,0.147 -0.052,0.043 -0.077,0.088 -0.102,0.127 0.059,0.016 0.115,0.038 0.163,0.065 0.121,0.072 0.154,0.135 0.166,0.207 0.006,0.044 0.006,0.101 0,0.142 -0.007,0.044 -0.019,0.075 -0.045,0.102 -0.024,0.027 -0.063,0.044 -0.108,0.057 -0.044,0.012 -0.096,0.013 -0.108,0.037 -0.011,0.025 0.014,0.068 0.056,0.085 0.042,0.018 0.097,0.008 0.145,0.008 0.048,0 0.084,0.002 0.113,0.027 0.056,0.041 0.087,0.124 0.111,0.188 0.035,-0.031 0.047,-0.092 0.081,-0.151 0.034,-0.032 0.103,-0.049 0.159,-0.097 -0.047,-0.014 -0.094,-0.037 -0.134,-0.066 -0.104,-0.061 -0.13,-0.154 -0.149,-0.245 -0.013,-0.052 -0.026,-0.107 -0.023,-0.148 0.002,-0.04 0.021,-0.067 0.047,-0.087 0.056,-0.05 0.239,-0.005 0.411,0.057 l 0.143,0.301 c 0.007,-0.076 -0.017,-0.153 0.007,-0.227 0.023,-0.071 0.155,-0.109 0.263,-0.086 0.133,0.01 0.17,0.059 0.266,0.01 0.111,-0.048 0.089,-0.126 0.099,-0.239 0.002,-0.075 0.002,-0.165 -0.002,-0.253 0.067,-0.055 0.107,-0.068 0.17,-0.058 0.038,0.005 0.09,0.023 0.137,0.047 0.05,0.024 0.092,0.05 0.121,0.074 0.03,0.025 0.041,0.047 0.048,0.072 0.062,-0.052 0.12,-0.111 0.171,-0.175 0.051,-0.064 0.096,-0.131 0.129,-0.174 0.072,-0.086 0.127,-0.079 0.204,-0.094 0.054,0.047 0.077,0.093 0.126,0.097 0.03,0.003 0.07,-0.018 0.073,-0.039 0.002,-0.021 -0.032,-0.048 -0.056,-0.083 -0.026,-0.036 -0.042,-0.084 -0.049,-0.131 l 0.303,-0.254 c -0.119,-0.016 -0.223,0.028 -0.298,0.111 m -0.777,0.206 c 10e-4,0.014 -0.015,-0.033 -0.021,0.038 0.011,0.006 -0.004,-0.008 0.046,0.036 0.006,0.002 0.025,-0.006 0.048,0.013 0.017,-0.003 -0.006,0.023 0.057,0.005 0.006,-0.005 0.002,-0.016 0.023,-0.045 -0.007,-0.013 0.003,-0.005 -0.028,-0.04 -0.029,0 -0.028,-0.024 -0.125,-0.007 m -1.37,0.333 c -0.008,-0.001 0.002,-0.006 -0.02,-0.044 -0.017,0.01 -0.006,-0.049 -0.065,0.01 0,0.006 -0.008,-0.01 -0.025,0.047 0.01,0.022 -0.031,0.057 0.027,0.103 0.009,0 0.03,0.012 0.068,-0.007 0.015,-0.017 0.031,-0.022 0.015,-0.109 m -0.529,0.708 c 0.004,-0.005 0.007,0.01 0.02,-0.015 0.002,-0.013 0,-0.018 -0.016,-0.032 -0.009,-0.003 -0.007,-0.011 -0.028,0.034 -0.007,0.008 0.005,0.029 0.024,0.013 m 0.607,0.717 c -0.008,-0.003 0.006,-0.02 -0.058,0.025 -0.001,0.013 -0.014,-0.007 -0.04,0.028 -0.006,0.009 -0.016,-0.013 -0.022,0.024 -0.016,0.002 -0.011,-0.002 -0.044,0.03 10e-4,0.007 -0.022,0.002 -0.035,0.049 0.002,0.028 -0.014,-0.006 0.033,0.068 0,0.018 0.003,0.021 0.035,0.045 0.011,0.013 -0.008,0.008 0.041,0.033 0.008,-0.003 0.024,0.008 0.044,-0.011 0.014,-0.011 0.011,0.014 0.034,-0.057 -0.005,-0.026 0.011,-0.008 0.018,-0.076 0.006,-0.002 0.018,-0.021 -0.006,-0.059 0.013,-0.008 0.024,-0.034 0,-0.099 m -0.398,0.777 c 0.021,0.076 0.05,0.145 0.081,0.198 0.101,0.17 0.224,0.212 0.341,0.266 0.064,-0.084 0.038,-0.179 0.018,-0.282 -0.024,-0.113 -0.021,-0.229 -0.084,-0.328 -0.074,-0.107 -0.202,-0.206 -0.319,-0.275 -0.022,0.028 -0.041,0.057 -0.055,0.087 -0.038,0.062 -0.022,0.198 0.018,0.334 m 0.368,0.712 c 0.01,0.003 -0.012,-0.005 0.028,0.027 0.003,0.013 -0.006,0.005 0.026,0.035 0.011,0.012 0.001,0.005 0.033,0.039 0.013,0.011 0.004,0 0.036,0.034 0.005,0.008 0.016,0.002 0.046,0.03 0.01,0.016 0.003,0.008 0.037,0.04 0,0.012 0.011,-0.019 0.027,0.03 0.019,0 0,0.003 0.07,0.023 0.008,0 0.012,-0.008 0.007,-0.02 -0.007,0 0,-0.008 -0.022,-0.045 -0.01,-0.012 0.008,0 -0.031,-0.045 -0.005,-0.013 -0.005,0.008 -0.027,-0.047 10e-4,-0.022 -0.016,0.029 -0.037,-0.05 0,-0.014 -0.008,0.02 -0.027,-0.026 -0.015,-0.006 0.004,0.012 -0.044,-0.036 -0.022,-0.002 0.008,-0.002 -0.061,-0.024 -0.011,-0.013 -0.02,-0.024 -0.078,-0.019 -10e-4,0.006 -0.002,0.006 -0.01,0.008 -0.002,0.008 -0.002,0.013 0.027,0.046 m 0.75,0.05 c 0.085,-0.043 0.085,-0.083 0.097,-0.146 0.009,-0.072 0.006,-0.186 -0.047,-0.28 -0.061,-0.116 -0.168,-0.177 -0.31,-0.232 -0.058,-0.02 -0.119,-0.038 -0.156,-0.046 -0.038,-0.004 -0.052,-10e-4 -0.064,0.006 0.004,0.136 0.008,0.272 0.028,0.364 0.018,0.094 0.052,0.146 0.083,0.198 z m -0.279,0.279 c 0.008,0.017 0.016,0.027 0.023,0.034 0.008,0.008 0.014,0.013 0.021,0.016 0.062,-0.084 0.133,-0.081 0.208,-0.043 0.028,0.018 0.055,0.065 0.092,0.015 0.016,-0.033 0.022,-0.092 0.041,-0.141 -0.042,-0.037 -0.095,-0.052 -0.165,-0.073 -0.045,-0.01 -0.097,-0.025 -0.138,-0.028 -0.039,-0.005 -0.067,0 -0.086,0.01 -0.078,0.039 -0.029,0.127 0.004,0.21 m -0.12,-2.021 c -0.074,0.084 -0.105,0.251 -0.127,0.411 -0.01,0.086 -0.014,0.168 0.006,0.235 0.055,0.175 0.264,0.245 0.389,0.306 0.066,0.02 0.137,0.034 0.197,-0.001 l 0,-0.555 z m 0.558,0 c 0.022,-0.07 0.033,-0.153 0.048,-0.236 0.008,-0.085 0.041,-0.132 0.005,-0.229 -0.076,-0.033 -0.148,0.066 -0.267,0.141 -0.042,0.03 -0.089,0.06 -0.147,0.107 -0.018,0.014 -0.024,0.027 -0.028,0.039 0.043,0.062 0.092,0.115 0.136,0.163 0.094,0.09 0.158,0.154 0.21,0.092 0.015,-0.015 0.031,-0.045 0.043,-0.077 m 0.097,1.016 c 0.002,0.06 0.002,0.096 0.002,0.131 0.066,0.028 0.132,0.05 0.187,0.066 0.117,0.029 0.149,0.039 0.213,0.004 0.033,-0.02 0.081,-0.052 0.126,-0.089 C -9.488,1.332 -9.444,1.291 -9.419,1.267 -9.395,1.236 -9.39,1.221 -9.391,1.201 -9.512,1.132 -9.633,1.066 -9.728,1.005 -9.824,0.947 -9.895,0.899 -9.962,0.853 L -10,0.865 c -0.029,0.052 -0.047,0.104 -0.056,0.174 -0.007,0.068 -0.005,0.153 -0.004,0.214 m 0.027,0.573 c 0.009,0 0.008,0.022 0.043,0 0.01,-0.008 -0.006,0.009 0.029,-0.029 0.008,-10e-4 0.006,-0.009 0.037,-0.036 0.002,-0.018 0.006,-0.021 0.036,-0.046 0.012,-0.021 0.004,0.011 0.043,-0.058 0.01,-0.004 0.006,-0.025 0.006,-0.05 C -9.845,1.595 -9.863,1.61 -9.891,1.59 -9.906,1.572 -9.893,1.575 -9.983,1.563 c -0.015,0.004 0.003,0.006 -0.029,0.02 0,0.02 -0.007,-0.016 -0.038,0.101 l 0,0.055 c -0.004,0.044 0.012,0.016 0.017,0.087 m 0.106,0.714 c 0.059,0 0.078,-0.065 0.11,-0.124 0.022,-0.032 0.043,-0.073 0.053,-0.103 0.01,-0.055 0.008,-0.105 0,-0.157 -0.034,-0.041 -0.084,-0.126 -0.159,-0.071 -0.046,0.039 0.028,0.082 0.065,0.142 0.015,0.023 0.009,0.097 -0.048,0.163 -0.044,0.041 -0.066,0.043 -0.136,0.05 0.005,0.011 -0.038,0.082 0.115,0.1 M -9.674,2.011 C -9.664,2.008 -9.658,2.016 -9.65,2.003 -9.634,1.994 -9.647,2 -9.618,1.972 -9.616,1.954 -9.615,1.98 -9.591,1.912 -9.577,1.901 -9.603,1.894 -9.559,1.843 -9.558,1.826 -9.557,1.853 -9.532,1.783 -9.516,1.78 -9.535,1.748 -9.51,1.692 -9.498,1.678 -9.488,1.667 -9.492,1.612 -9.49,1.61 -9.526,1.585 -9.561,1.632 c -0.016,0.003 -0.009,0 -0.042,0.03 0,0.008 -0.011,0.005 -0.04,0.043 -0.014,0 -0.01,0 -0.042,0.029 -0.003,0.011 0.007,0.016 -0.034,0.032 -0.002,0.027 -0.002,0 -0.044,0.069 -0.003,0.013 -0.03,0.008 -0.035,0.059 -0.014,0.007 -10e-4,0.027 0.017,0.062 0.002,0.013 0.021,0.005 0.041,0.03 0.019,0 -0.014,0.002 0.066,0.025 m 0.11,0.552 c 0.017,-0.008 -0.009,0.005 0.037,-0.058 0.006,-0.005 0.013,-0.012 0.052,-0.022 0.03,-0.002 0.053,-0.005 0.108,0.019 0.019,0.011 -0.005,-0.009 0.043,0.041 0.005,0.012 -0.006,0.005 0.025,0.039 0,0.004 0.009,0.009 0.015,-0.004 0.008,-0.008 -0.007,0.008 0.028,-0.026 0.01,-0.022 0.042,-0.009 0.022,-0.096 -0.007,0 0.007,0.004 -0.02,-0.021 -0.018,-0.002 -0.03,0 -0.067,-0.03 -0.008,-0.008 -0.003,0.001 -0.051,-0.027 -0.018,0 -0.024,-0.013 -0.091,-0.021 -0.003,-0.008 -0.021,-0.014 -0.049,0.008 -0.017,0.008 0.004,-0.003 -0.031,0.027 -0.002,0.016 -0.002,-0.01 -0.026,0.056 -10e-4,0.015 -0.02,-0.005 -0.022,0.08 0.003,0.017 -0.015,0.015 0.027,0.035 M -9.075,2.25 C -9.016,2.122 -8.955,1.999 -8.927,1.924 -8.898,1.851 -8.9,1.829 -8.906,1.805 l -0.339,-0.21 c -0.034,0.02 -0.058,0.048 -0.076,0.102 -0.033,0.108 -0.056,0.283 -0.106,0.437 0.101,0.098 0.222,0.121 0.352,0.116 m 0.122,0.336 c 0.015,0 0.016,-0.004 0.023,-0.011 0.014,-0.007 0.026,0.016 0.056,-0.012 0,-0.006 0,-0.012 -10e-4,-0.018 -0.018,-0.009 -0.048,-0.021 -0.104,0.01 0.009,0.002 -0.036,0.018 0.026,0.031 M -8.531,2.421 C -8.437,2.413 -8.378,2.382 -8.309,2.297 -8.268,2.25 -8.215,2.181 -8.188,2.134 -8.161,2.087 -8.161,2.064 -8.171,2.046 L -8.647,1.912 c -0.03,0.012 -0.056,0.031 -0.082,0.067 -0.055,0.083 -0.101,0.223 -0.133,0.348 0.106,0.07 0.233,0.075 0.331,0.094 M -9.052,1.514 c 0.085,0.041 0.131,0.096 0.228,0.039 0.031,-0.045 0.032,-0.084 0.045,-0.138 0.014,-0.059 0.048,-0.122 0.025,-0.186 -0.033,-0.015 -0.098,-0.015 -0.146,0.054 -0.062,0.084 -0.115,0.049 -0.165,0.052 -0.026,0.002 -0.062,0.01 -0.082,0.021 -0.07,0.028 -0.023,0.116 0.095,0.158 m 0.027,-1.036 c -0.046,0.135 -0.091,0.275 -0.115,0.356 -0.022,0.078 -0.026,0.095 -0.027,0.113 -0.002,0.02 -0.003,0.039 10e-4,0.069 0.006,0.027 0.015,0.062 0.042,0.077 0.028,0.014 0.073,0.008 0.108,-0.012 C -8.955,1.05 -8.92,1.013 -8.93,1.002 -8.935,0.983 -8.954,0.925 -8.96,0.879 c -10e-4,-0.035 0,-0.067 0.044,-0.093 0.021,-0.025 0.091,-0.025 0.153,0.018 0.059,0.042 0.094,0.098 0.103,0.141 C -8.621,0.939 -8.583,0.932 -8.545,0.923 -8.506,0.91 -8.467,0.895 -8.46,0.875 -8.452,0.855 -8.472,0.832 -8.496,0.804 -8.572,0.734 -8.717,0.646 -8.833,0.547 -8.9,0.5 -8.968,0.456 -9.025,0.478 m -0.18,-0.607 c 0.034,0.025 0.063,0.047 0.094,0.065 0.088,-0.04 0.08,-0.105 0.106,-0.181 0.017,-0.049 0.04,-0.109 0.06,-0.163 0.02,-0.055 0.033,-0.102 0.041,-0.134 0.007,-0.034 0.007,-0.054 0.004,-0.071 -0.148,-0.03 -0.303,0.037 -0.48,0.083 -0.041,0.012 -0.078,0.025 -0.1,0.037 -0.025,0.013 -0.039,0.026 -0.047,0.042 0.039,0.104 0.201,0.198 0.322,0.322 m -0.628,-0.598 c -0.008,0 -0.008,-0.029 -0.045,-0.023 -0.013,0.005 -0.005,0.032 -0.019,0.047 0.004,0.017 -0.024,0.015 0.048,0.072 0.006,-0.006 0.021,0.018 0.025,-0.025 0.007,0.006 0.029,-0.03 -0.009,-0.071 m -0.093,0.869 c -0.065,0.201 -0.051,0.289 -0.014,0.416 0.019,0.055 0.06,0.11 0.104,0.156 0.134,0.127 0.25,0.201 0.384,0.236 0.037,0.005 0.068,-0.005 0.093,-0.021 0.025,-0.014 0.042,-0.038 0.057,-0.089 0.017,-0.056 0.03,-0.144 0.044,-0.254 0.015,-0.108 0.029,-0.24 0.038,-0.374 -0.136,-0.16 -0.271,-0.324 -0.357,-0.402 -0.083,-0.08 -0.116,-0.08 -0.15,-0.08 -0.087,0.144 -0.162,0.299 -0.199,0.412 M -8.043,1.81 C -7.964,1.667 -7.886,1.526 -7.846,1.432 -7.804,1.335 -7.799,1.289 -7.793,1.242 -7.966,1.05 -8.114,1.053 -8.278,1.098 c -0.061,0.015 -0.13,0.033 -0.197,0.055 -0.039,0.114 -0.071,0.226 -0.087,0.301 -0.021,0.129 -0.021,0.158 0.01,0.224 0.045,0.058 0.114,0.072 0.184,0.092 0.042,0.016 0.093,0.032 0.14,0.038 0.073,0.01 0.135,0 0.185,0.002 m 0.092,0.457 C -7.948,2.265 -7.947,2.262 -7.944,2.261 -7.939,2.25 -7.927,2.275 -7.92,2.236 -7.908,2.232 -7.912,2.239 -7.886,2.214 -7.867,2.211 -7.89,2.208 -7.822,2.187 -7.807,2.184 -7.789,2.2 -7.757,2.176 c 0.007,-0.007 0.022,0 0.042,-0.028 0.002,-0.006 0.012,-0.011 -0.038,-0.033 -0.013,0 -0.039,0.004 -0.055,-0.011 -0.027,-0.002 -0.024,0.011 -0.104,0.018 -0.009,0.012 0.01,-0.012 -0.033,0.032 -0.006,0.005 0.006,0.025 -0.013,0.048 -0.004,0.014 -0.021,0.009 -0.037,0.048 0.012,0.011 -0.017,0.015 0.044,0.017 M -7.416,1.924 C -7.371,1.912 -7.325,1.845 -7.293,1.783 -7.287,1.705 -7.286,1.723 -7.265,1.67 -7.251,1.637 -7.232,1.583 -7.212,1.529 -7.259,1.491 -7.308,1.464 -7.36,1.434 -7.416,1.412 -7.476,1.384 -7.513,1.372 c -0.07,-0.016 -0.057,-0.007 -0.086,0 -0.088,0.082 -0.089,0.183 -0.146,0.306 -0.021,0.058 -0.036,0.097 -0.044,0.151 -0.02,0.027 0.023,0.087 0.078,0.087 0.076,0.018 0.193,0.04 0.295,0.008 M -7.79,-0.302 c 0.04,-0.074 0.105,-0.198 0.167,-0.319 -0.068,-0.029 -0.139,-0.054 -0.212,-0.067 -0.073,-0.012 -0.15,-0.018 -0.218,-0.02 -0.1,0 -0.167,-0.018 -0.243,0.022 0.049,0.12 0.108,0.233 0.155,0.312 0.051,0.08 0.09,0.121 0.122,0.159 0.057,0.065 0.106,0.091 0.154,0.031 0.022,-0.019 0.034,-0.044 0.075,-0.118 m -0.065,0.637 c -0.103,0.121 -0.15,0.251 -0.189,0.354 -0.003,0.028 0.007,0.058 0.026,0.082 0.043,0.047 0.112,0.069 0.172,0.063 0.007,-0.067 0.011,-0.138 0.031,-0.181 0.016,-0.04 0.048,-0.055 0.079,-0.07 0.03,0.007 0.06,0.023 0.088,0.042 0.059,0.037 0.065,0.092 0.046,0.144 -0.005,0.023 -0.005,0.044 -0.002,0.065 0.066,0 0.134,0 0.174,-0.021 0.039,-0.017 0.051,-0.054 0.063,-0.088 z M -7.08,1.223 C -7.072,1.198 -7.054,1.153 -7.058,1.113 -7.078,1.053 -7.09,1.107 -7.164,1.17 -7.203,1.198 -7.302,1.188 -7.387,1.138 -7.452,1.101 -7.495,1.058 -7.54,1.075 c 0.015,0.065 0.103,0.098 0.188,0.137 0.055,0.024 0.116,0.051 0.152,0.062 0.075,0.017 0.074,0.017 0.12,-0.051 m 0.03,0.538 c 0.009,0.002 0.018,0 0.02,-0.006 0.014,-0.007 0.01,0.006 0.038,-0.024 0.015,-0.005 0.002,0.008 0.058,-0.034 0.025,0 0.017,-0.016 0.053,-0.043 C -6.878,1.637 -6.825,1.65 -6.878,1.585 -6.88,1.569 -6.916,1.569 -6.985,1.583 c 0,0.005 -0.01,0.002 -0.041,0.041 -0.011,0 -0.001,0.03 -0.017,0.046 0.008,0.024 -0.025,0.019 -0.007,0.091 m 0.292,-0.349 c 0.008,0.009 0.025,0 0.076,0.022 0.015,0 0.017,0.005 0.046,-0.002 0.002,0 0.002,-0.006 0.001,-0.006 C -6.647,1.42 -6.609,1.439 -6.679,1.394 -6.682,1.382 -6.712,1.391 -6.728,1.376 -6.749,1.375 -6.729,1.387 -6.791,1.341 -6.79,1.329 -6.813,1.376 -6.81,1.267 c 0.015,-0.008 0,-0.02 0.024,-0.081 0.015,-0.011 0,-0.019 0.025,-0.06 -0.013,-0.013 0.011,-0.011 -0.046,-0.03 0.001,0.011 -0.01,-0.011 -0.043,0.035 -0.006,0.012 -0.009,0.004 -0.029,0.07 -0.015,0.011 0,0.028 -0.023,0.066 0,0.019 -0.004,0.004 0.021,0.054 0.002,0.02 -0.005,-0.005 0.031,0.055 0.013,-0.004 -0.022,0.015 0.092,0.036 M -6.585,0.895 -6.434,0.846 C -6.453,0.767 -6.474,0.682 -6.489,0.598 -6.507,0.517 -6.523,0.434 -6.539,0.377 -6.575,0.264 -6.614,0.26 -6.661,0.245 -6.779,0.237 -6.829,0.341 -6.912,0.437 -6.966,0.511 -7.037,0.59 -7.02,0.653 c 0.035,0.034 0.081,0.073 0.122,0.078 0.07,-0.027 0.155,-0.065 0.251,0.03 0.032,0.038 0.046,0.088 0.062,0.134 m 0.145,0.448 c 0.011,-0.006 0.008,0.006 0.035,-0.022 0.014,-0.003 0.003,-0.005 0.04,-0.02 0.001,-0.015 0.005,0 0.02,-0.04 0.016,-0.002 0.053,-0.002 0.014,-0.06 -0.019,0 0.009,-0.003 -0.058,-0.023 -0.013,0 0.005,0.008 -0.03,0.014 0.002,0.017 -0.012,0.006 -0.019,0.067 -0.013,0.004 0.007,0.034 -0.018,0.065 -10e-4,0.008 -0.002,0.045 0.016,0.019 m 0.237,-0.527 0.449,0 C -5.788,0.664 -5.873,0.412 -5.911,0.346 -5.949,0.277 -5.938,0.385 -5.946,0.458 -5.956,0.583 -6.047,0.577 -6.115,0.522 -6.198,0.44 -6.212,0.338 -6.189,0.269 -6.159,0.2 -6.07,0.139 -6.001,0.163 l -0.221,-0.294 c -0.093,0.04 -0.137,0.112 -0.152,0.175 -0.008,0.036 -0.013,0.068 10e-4,0.138 0.035,0.153 0.12,0.416 0.17,0.634 m 0.198,0.305 c 0.056,0.044 0.144,0.105 0.194,0.142 0.08,0.055 0.082,0.071 0.119,0.082 C -5.659,1.313 -5.678,1.283 -5.678,1.242 -5.691,1.192 -5.696,1.143 -5.71,1.071 -5.781,0.997 -5.858,1.015 -5.938,1.002 c -0.058,0 -0.119,-0.013 -0.184,0.019 0.029,0.029 0.058,0.054 0.117,0.1 m -0.353,-1.863 c 0.002,0.005 0.031,0.008 0.034,-0.008 0.018,-0.003 0.003,0.011 0.062,-0.036 0.003,-0.006 0.022,-0.008 0.018,-0.041 l 0,-0.058 c -0.003,-0.043 0.014,-0.027 -0.04,-0.065 -0.008,0.008 -0.017,-0.006 -0.048,0.035 -0.01,0.008 0.003,0.003 -0.028,0.05 0.002,0.016 -0.014,0.022 -0.02,0.079 -0.001,0 -0.002,0 -0.003,0.002 -0.004,0.012 -0.001,0.012 0.025,0.042 m -0.148,0.38 c -0.007,0 -0.049,-0.015 -0.016,0.045 0.002,0 0.031,0.017 0.016,-0.045 m 0.473,5.489 c 0.017,0.012 0.043,0.015 0.075,-0.002 0.008,-0.008 0.009,0.014 0.031,-0.041 0.004,-0.011 0.004,-0.009 0.022,-0.037 0.006,-0.004 -0.004,0.011 -0.012,-0.025 -0.018,-0.002 -0.03,-0.045 -0.099,0.043 -0.004,0 -0.023,0.01 -0.017,0.062 M -5.636,4.239 C -5.633,4.236 -5.633,4.233 -5.632,4.233 -5.616,4.221 -5.633,4.236 -5.596,4.197 -5.587,4.192 -5.578,4.194 -5.575,4.165 -5.59,4.157 -5.598,4.146 -5.636,4.169 -5.651,4.184 -5.64,4.162 -5.669,4.209 c 0,0.012 -0.005,0.024 0.033,0.03 m 0.245,-0.821 c 0.004,-0.002 0.004,-0.004 0.005,-0.007 l 0.002,0 c 0,-0.003 0.007,-0.011 0.046,-0.05 0.009,0 0.02,-0.018 0,-0.043 -0.004,-0.004 0.01,-0.004 -0.015,-0.016 -0.017,-0.003 -0.018,0.004 -0.038,0.022 -0.017,0 -0.01,0 -0.041,0.03 0.005,0.009 -0.031,0.062 0.041,0.064 m 0.032,-0.953 c 0.009,-0.005 0.014,0.028 0.033,0.002 0.017,-0.002 0.011,0 0.044,-0.029 0.013,-0.013 0.032,-0.009 0.021,-0.086 -0.008,0 -0.022,0 -0.023,-0.012 -0.007,0 -0.015,0 -0.044,0.033 -0.012,0.011 -0.005,-0.006 -0.036,0.037 0,0.011 10e-4,0.023 -0.011,0.025 -0.006,0.01 0.007,-0.006 0.016,0.03 M -5.302,1.65 c 0.017,-0.01 0.017,0.02 0.044,-0.053 -0.012,-0.005 0.015,-0.042 -0.063,-0.009 -0.012,0.022 -0.037,0 -0.031,0.062 0.007,0.012 0.039,0.015 0.05,0 M -5.421,0.84 c 0.001,-0.006 0.007,0.006 0.006,-0.014 -0.002,0.006 -0.036,-0.027 -0.036,0.02 0.008,0 0.016,0.009 0.03,-0.006 m 0.124,3.755 C -5.314,4.591 -5.3,4.591 -5.351,4.623 c 0.008,0.017 -0.031,0.022 -0.003,0.088 0,0.005 0.013,0.015 0.017,0 0.021,0 0.028,-0.01 0.043,-0.041 0.003,-0.009 0.006,0.003 0.01,-0.015 -0.002,-0.002 -0.007,0 -0.013,-0.06 M -5.706,5.653 C -5.721,5.652 -5.708,5.652 -5.75,5.667 -5.739,5.706 -5.799,5.656 -5.764,5.76 -5.751,5.769 -5.781,5.774 -5.718,5.777 -5.715,5.774 -5.715,5.772 -5.713,5.772 -5.697,5.76 -5.7,5.757 -5.683,5.717 -5.678,5.708 -5.687,5.714 -5.706,5.653 M 0.411,0.343 C 0.352,0.442 0.259,0.577 0.155,0.699 0.054,0.824 -0.058,0.939 -0.29,1.173 -0.521,1.404 -0.875,1.748 -1.13,1.969 -1.387,2.184 -1.549,2.272 -1.667,2.335 -1.786,2.397 -1.861,2.431 -1.939,2.46 -1.96,2.602 -1.986,2.743 -2.017,2.878 -2.049,3.016 -2.083,3.143 -2.162,3.346 -2.241,3.546 -2.365,3.818 -2.482,4.098 -2.595,4.373 -2.704,4.661 -2.823,4.996 -2.943,5.333 -3.075,5.717 -3.201,6.111 -3.86,6.109 -4.518,6.106 -4.952,6.106 l -0.752,0 C -5.814,6.104 -5.83,6.099 -5.842,6.091 -5.88,6.025 -5.917,5.958 -5.949,5.888 -5.981,5.817 -6.013,5.747 -6.025,5.696 -6.04,5.592 -6.021,5.574 -5.964,5.518 c 0.08,-0.069 0.229,-0.147 0.358,-0.198 0.089,0.072 0.143,0.143 0.147,0.213 0.084,-0.108 0.069,-0.228 0.095,-0.341 0.019,-0.05 0.068,-0.1 0.112,-0.164 C -5.207,4.969 -5.168,4.9 -5.169,4.867 -5.18,4.815 -5.34,4.914 -5.45,4.986 -5.583,4.859 -5.602,4.776 -5.618,4.667 L -5.21,4.319 c 0.084,0.073 0.158,0.144 0.175,0.197 0.016,-0.08 0.033,-0.161 0.036,-0.215 C -4.998,4.249 -5.01,4.219 -5.021,4.194 -4.933,4.084 -4.853,3.968 -4.803,3.873 -4.754,3.779 -4.734,3.71 -4.709,3.643 -4.668,3.532 -4.612,3.433 -4.651,3.349 -4.664,3.314 -4.681,3.284 -4.702,3.255 -4.647,3.126 -4.557,3.074 -4.51,2.982 -4.461,2.871 -4.443,2.703 -4.392,2.557 L -4.606,2.2 C -4.534,2.069 -4.439,1.976 -4.359,1.891 -4.286,1.802 -4.265,1.718 -4.274,1.647 -4.275,1.61 -4.275,1.561 -4.275,1.519 L -4.527,1.345 C -4.495,1.248 -4.461,1.15 -4.425,1.061 -4.39,0.967 -4.353,0.885 -4.34,0.824 -4.32,0.714 -4.359,0.653 -4.396,0.581 L -4.744,0.437 c -0.013,-0.082 -0.013,-0.173 0,-0.237 0.025,-0.118 0.096,-0.166 0.099,-0.239 0.003,-0.063 -0.037,-0.135 -0.075,-0.198 -0.092,0.006 -0.185,0.006 -0.241,0.003 -0.098,-0.011 -0.112,-0.003 -0.161,-0.048 -0.068,-0.082 -0.018,-0.267 0.08,-0.421 l -0.18,-0.199 c -0.093,0.024 -0.19,0.041 -0.284,0.059 -0.096,0.016 -0.191,0.031 -0.252,0.03 -0.06,-0.008 -0.085,-0.033 -0.1,-0.065 -0.014,-0.034 -0.02,-0.072 -0.029,-0.164 -0.009,-0.09 -0.024,-0.234 -0.035,-0.375 l -0.217,-0.058 c -0.071,0.051 -0.147,0.091 -0.227,0.134 -0.079,0.037 -0.164,0.075 -0.222,0.091 -0.091,0.014 -0.131,0.008 -0.193,-0.066 -0.017,-0.03 -0.026,-0.068 -0.036,-0.108 -0.008,-0.043 -0.016,-0.087 -0.048,-0.1 -0.032,-0.017 -0.087,-0.005 -0.098,0.023 -0.01,0.029 0.022,0.072 0.049,0.12 0.059,0.103 0.067,0.241 -0.105,0.365 -0.082,0.064 -0.197,0.118 -0.314,0.151 0.171,0.016 0.339,-0.002 0.505,-0.058 0.054,0.094 0.108,0.181 0.151,0.23 0.04,0.05 0.07,0.056 0.102,0.064 l 0,-0.319 c 0.069,-0.095 0.197,-0.2 0.313,-0.241 0.086,-0.03 0.136,-0.008 0.198,0.019 0.036,0.104 0.088,0.211 0.089,0.305 -0.017,0.167 -0.195,0.252 -0.396,0.344 0.036,0.041 0.087,0.065 0.131,0.065 0.072,0.003 0.129,-0.076 0.193,-0.046 0.07,0.039 0.063,0.126 0.027,0.192 -0.034,0.082 0.082,0.194 0.154,0.311 0.095,-0.019 0.192,-0.035 0.247,-0.043 0.056,-0.007 0.072,0.003 0.087,0.015 -0.012,0.074 -0.027,0.148 -0.055,0.214 -0.025,0.068 -0.061,0.127 -0.077,0.179 -0.023,0.079 -0.028,0.14 0.048,0.215 0.101,-0.007 0.202,-0.018 0.276,-0.004 0.073,0.013 0.119,0.048 0.163,0.087 -0.034,0.095 -0.077,0.191 -0.115,0.261 -0.065,0.118 -0.145,0.171 -0.176,0.256 -0.021,0.067 0.017,0.12 0.033,0.184 0.09,-0.009 0.179,-0.022 0.255,0 0.076,0.017 0.139,0.067 0.2,0.118 -0.019,0.064 -0.05,0.129 -0.082,0.174 -0.073,0.101 -0.198,0.183 -0.284,0.199 -0.136,0.027 -0.072,0.14 -0.068,0.227 0.073,-0.017 0.103,-0.029 0.169,-0.019 0.04,0.008 0.093,0.027 0.137,0.058 0.084,0.059 0.138,0.131 0.148,0.188 -0.037,0.082 -0.082,0.155 -0.137,0.226 -0.052,0.07 -0.113,0.132 -0.16,0.162 -0.085,0.048 -0.132,0.01 -0.191,0.028 l -0.069,0.318 0.212,-0.071 c 0.111,0.084 0.205,0.211 0.234,0.305 0.03,0.093 -0.003,0.163 -0.034,0.211 C -5.18,3.596 -5.232,3.625 -5.304,3.647 -5.399,3.68 -5.528,3.622 -5.629,3.574 -5.638,3.657 -5.649,3.74 -5.663,3.793 -5.678,3.854 -5.696,3.881 -5.715,3.911 -5.633,3.878 -5.549,3.848 -5.484,3.883 -5.418,3.92 -5.369,4.021 -5.32,4.123 -5.407,4.251 -5.502,4.371 -5.566,4.437 -5.68,4.548 -5.7,4.511 -5.761,4.505 -5.81,4.482 -5.853,4.436 -5.893,4.414 -5.931,4.508 -5.966,4.603 -5.993,4.673 -6.021,4.747 -6.034,4.796 -6.048,4.847 -5.981,4.801 -5.893,4.754 -5.816,4.796 -5.702,4.895 -5.57,5.117 -5.792,5.26 -5.837,5.292 -5.897,5.328 -5.959,5.359 -6.023,5.392 -6.086,5.419 -6.132,5.42 -6.221,5.428 -6.252,5.345 -6.3,5.345 -6.358,5.353 -6.386,5.433 -6.383,5.488 -6.384,5.521 -6.384,5.547 -6.382,5.576 -6.458,5.668 -6.534,5.76 -6.57,5.81 -6.609,5.862 -6.607,5.873 -6.607,5.888 l 0.386,-0.131 c 0.087,0.047 0.099,0.099 0.123,0.166 0.012,0.042 0.024,0.097 0.032,0.151 C -6.148,6.106 -6.255,6.128 -6.332,6.04 -6.354,6.023 -6.376,6.008 -6.401,6.02 -6.427,6.029 -6.452,6.074 -6.5,6.088 -6.601,6.117 -6.759,6.084 -6.893,6.091 -6.755,5.85 -6.621,5.604 -6.491,5.357 -6.36,5.107 -6.232,4.856 -6.136,4.642 -6.04,4.428 -5.977,4.251 -5.919,4.065 -5.861,3.881 -5.81,3.69 -5.757,3.441 -5.705,3.192 -5.652,2.886 -5.632,2.673 -5.61,2.458 -5.62,2.332 -5.622,2.229 -5.619,2.033 -5.629,1.881 -5.718,1.711 -5.755,1.637 -5.794,1.567 -5.825,1.521 -5.895,1.424 -5.93,1.394 -5.984,1.369 -6.012,1.359 -6.046,1.365 -6.07,1.362 -6.095,1.359 -6.109,1.349 -6.123,1.365 -6.137,1.379 -6.152,1.42 -6.207,1.477 -6.261,1.532 -6.358,1.599 -6.586,1.748 -6.814,1.896 -7.174,2.122 -7.416,2.27 -7.66,2.413 -7.784,2.475 -7.915,2.53 -8.327,2.708 -8.744,2.78 -9.167,2.816 -9.313,2.824 -9.454,2.814 -9.584,2.812 c -0.129,0 -0.247,0.004 -0.354,-0.013 -0.209,-0.04 -0.395,-0.131 -0.583,-0.231 -0.089,-0.05 -0.178,-0.115 -0.266,-0.184 -0.086,-0.066 -0.169,-0.142 -0.276,-0.26 -0.108,-0.121 -0.238,-0.287 -0.346,-0.465 -0.106,-0.178 -0.189,-0.37 -0.23,-0.481 -0.043,-0.117 -0.043,-0.153 -0.044,-0.189 -0.024,-0.11 0.058,-0.26 0.171,-0.406 -0.131,-0.233 -0.255,-0.469 -0.329,-0.612 -0.074,-0.147 -0.093,-0.196 -0.102,-0.253 -0.016,-0.097 -0.011,-0.236 0.047,-0.355 0.026,-0.051 0.063,-0.092 0.139,-0.167 0.073,-0.072 0.182,-0.174 0.392,-0.309 0.207,-0.134 0.511,-0.299 0.827,-0.443 0.413,-0.084 0.832,-0.161 1.146,-0.211 0.314,-0.051 0.523,-0.076 0.731,-0.086 0.434,-0.001 0.876,-0.001 1.338,0.018 0.239,0.014 0.48,0.049 0.684,0.08 0.202,0.028 0.368,0.053 0.531,0.083 0.124,-0.042 0.251,-0.069 0.383,-0.079 0.267,-0.012 0.603,-0.008 0.942,0.002 0.176,0.011 0.345,0.032 0.494,0.065 0.149,0.033 0.279,0.077 0.405,0.125 0.124,0.048 0.244,0.102 0.343,0.152 0.099,0.049 0.178,0.096 0.254,0.141 0.251,-0.052 0.505,-0.099 0.747,-0.141 0.242,-0.04 0.474,-0.077 0.675,-0.09 0.203,-0.008 0.377,0.003 0.536,0.008 0.16,0 0.305,-0.008 0.454,0.014 0.15,0.021 0.303,0.068 0.449,0.117 0.146,0.05 0.285,0.1 0.383,0.141 0.183,0.082 0.241,0.129 0.349,0.239 0.157,0.162 0.279,0.415 0.286,0.643 0.017,0.14 -0.015,0.28 -0.07,0.428 -0.023,0.074 -0.05,0.147 -0.111,0.25"
         inkscape:connector-curvature="0" />
    </g>
    <g
       id="g6568"
       transform="matrix(1.3333333,0,0,-1.3333333,376.94065,536.11526)">
      <path
         id="path6566"
         style="fill:#000000;fill-opacity:1;fill-rule:nonzero;stroke:none"
         d="M 0,0 C -0.004,0.005 -0.007,-0.002 -0.005,-0.007 -0.004,-0.007 0,-0.019 0,0"
         inkscape:connector-curvature="0" />
    </g>
    <g
       id="g6572"
       transform="matrix(1.3333333,0,0,-1.3333333,375.33185,537.76699)">
      <path
         id="path6570"
         style="fill:#000000;fill-opacity:1;fill-rule:nonzero;stroke:none"
         d="m 0,0 c -0.005,0.016 -0.016,0.016 -0.012,0.037 0.004,0.006 0.02,0.018 0.038,-0.002 0.006,0 0.002,-0.011 0.022,-0.043 C 0.04,-0.01 0.034,-0.063 0,0 M -0.099,0.321 C -0.134,0.311 -0.204,0.235 -0.231,0.188 -0.238,0.156 -0.25,0.098 -0.223,0.052 -0.196,-0.01 -0.094,-0.06 -0.028,-0.133 0.057,-0.218 0.131,-0.306 0.233,-0.23 0.28,-0.176 0.28,-0.116 0.278,-0.081 0.262,0.008 0.158,0.123 0.072,0.213 0.007,0.287 -0.06,0.331 -0.099,0.321"
         inkscape:connector-curvature="0" />
    </g>
    <g
       id="g6576"
       transform="matrix(1.3333333,0,0,-1.3333333,375.67758,539.11912)">
      <path
         id="path6574"
         style="fill:#000000;fill-opacity:1;fill-rule:nonzero;stroke:none"
         d="m 0,0 c -0.022,-0.002 -0.012,-0.002 -0.047,0.033 -0.01,0.008 0.008,0.002 -0.035,0.041 0,0.012 -0.005,-0.027 -0.024,0.06 0.001,0.01 -0.005,0.012 0.016,0.029 0.006,-0.001 0.011,0.008 0.022,-0.007 0,-0.002 0,-0.002 0.001,-0.002 0,0 0.006,-0.006 0.045,-0.046 C -0.016,0.097 -0.016,0.136 0.011,0.055 0.007,0.041 0.027,0.027 0,0 M 0.276,-0.022 C 0.233,0.047 0.188,0.116 0.145,0.183 0.102,0.251 0.058,0.319 0.024,0.357 -0.046,0.432 -0.085,0.396 -0.145,0.374 -0.178,0.359 -0.213,0.337 -0.245,0.309 -0.307,0.259 -0.343,0.216 -0.347,0.175 -0.349,0.156 -0.351,0.134 -0.334,0.097 c 0.015,-0.034 0.05,-0.087 0.085,-0.138 0.034,-0.049 0.071,-0.097 0.099,-0.129 0.105,-0.083 0.157,-0.08 0.267,-0.025 0.07,0.045 0.115,0.111 0.159,0.173"
         inkscape:connector-curvature="0" />
    </g>
    <g
       id="g6580"
       transform="matrix(1.3333333,0,0,-1.3333333,371.44518,539.24219)">
      <path
         id="path6578"
         style="fill:#000000;fill-opacity:1;fill-rule:nonzero;stroke:none"
         d="M 0,0 C -0.006,0.002 -0.009,-0.004 -0.006,-0.008 -0.005,-0.011 -0.001,-0.021 0,0"
         inkscape:connector-curvature="0" />
    </g>
    <g
       id="g6584"
       transform="matrix(1.3333333,0,0,-1.3333333,370.49212,539.84446)">
      <path
         id="path6582"
         style="fill:#000000;fill-opacity:1;fill-rule:nonzero;stroke:none"
         d="m 0,0 c 0.004,-0.013 -0.007,-0.005 0.024,-0.035 0.017,-0.014 0.004,-0.011 0.095,-0.03 0.024,-0.005 0.008,0.01 0.071,0.018 0.002,0.015 0.02,-0.008 0.051,0.017 0.017,0.017 0.011,0.017 0.053,0.041 C 0.286,0.033 0.327,0.014 0.295,0.095 0.292,0.105 0.306,0.124 0.283,0.151 0.277,0.166 0.288,0.143 0.256,0.181 0.23,0.184 0.266,0.181 0.187,0.215 0.181,0.215 0.141,0.228 0.082,0.208 0.077,0.203 0.052,0.206 0.035,0.193 0.015,0.193 0.04,0.201 -0.022,0.166 -0.032,0.146 -0.064,0.17 -0.034,0.084 -0.014,0.084 -0.046,0.035 0,0"
         inkscape:connector-curvature="0" />
    </g>
    <g
       id="g6588"
       transform="matrix(1.3333333,0,0,-1.3333333,369.63145,540.00526)">
      <path
         id="path6586"
         style="fill:#000000;fill-opacity:1;fill-rule:nonzero;stroke:none"
         d="m 0,0 c -0.005,-0.042 0.014,-0.027 0.018,-0.098 0.006,-0.004 -0.003,0.01 0.017,-0.026 0.007,-0.009 0.006,-0.02 0.041,-0.055 0.003,-0.002 0.022,-0.027 0.118,0 0.016,0.016 0.007,0.008 0.042,0.04 0.011,0.019 0.012,-0.015 0.036,0.061 0.004,0.028 -0.007,0.015 -0.025,0.08 -0.017,0.006 0.001,0.04 -0.033,0.056 -0.006,0.016 0.014,0.013 -0.043,0.07 -0.007,0 0.009,0 -0.048,0.022 C 0.114,0.15 0.09,0.158 0.08,0.14 0.075,0.135 0.058,0.148 0.033,0.128 0.017,0.116 0.029,0.128 0.001,0.098 0,0.093 0,0.078 -0.009,0.075 -0.014,0.071 -0.009,0.081 0,0.053 0,0.042 0,0.017 0,0"
         inkscape:connector-curvature="0" />
    </g>
    <g
       id="g6592"
       transform="matrix(1.3333333,0,0,-1.3333333,375.77078,540.36006)">
      <path
         id="path6590"
         style="fill:#000000;fill-opacity:1;fill-rule:nonzero;stroke:none"
         d="m 0,0 c -0.012,-0.008 -0.049,-0.029 -0.076,0.016 -0.006,0.005 -0.009,-0.011 -0.03,0.06 0.003,0.017 -0.013,0.036 0.012,0.073 -0.004,0.013 0.024,0 0.028,0.019 0.006,-0.002 0.012,0.005 0.021,-0.009 0.016,-0.005 0.003,-0.01 0.039,-0.026 C 0.007,0.112 -0.002,0.112 0.013,0.049 0.018,0.027 -0.004,0.035 0,0 M 0.224,-0.066 C 0.245,-0.038 0.251,-0.008 0.25,0.022 0.221,0.085 0.185,0.143 0.141,0.203 0.062,0.303 -0.034,0.417 -0.102,0.409 L -0.386,0.208 c 0.011,-0.054 0.035,-0.103 0.085,-0.173 0.051,-0.067 0.128,-0.156 0.179,-0.2 0.105,-0.086 0.125,-0.053 0.179,-0.042 0.042,0.02 0.103,0.056 0.167,0.141"
         inkscape:connector-curvature="0" />
    </g>
    <g
       id="g6596"
       transform="matrix(1.3333333,0,0,-1.3333333,371.89572,540.52472)">
      <path
         id="path6594"
         style="fill:#000000;fill-opacity:1;fill-rule:nonzero;stroke:none"
         d="m 0,0 c 0.009,-0.004 -0.004,-0.001 0.027,-0.055 0.003,-0.011 -0.006,-0.002 0.025,-0.032 0.011,0 0.01,-0.038 0.101,-0.008 0.03,0.005 -0.008,-0.01 0.096,0.038 0.004,0.011 0.002,-0.02 0.037,0.036 C 0.291,-0.014 0.281,0.023 0.292,0.081 0.298,0.087 0.315,0.087 0.258,0.139 0.249,0.142 0.251,0.154 0.218,0.178 0.199,0.196 0.227,0.188 0.155,0.232 0.152,0.232 0.106,0.243 0.027,0.227 0.021,0.224 0.016,0.213 -0.012,0.188 -0.011,0.173 -0.05,0.178 -0.019,0.086 -0.022,0.065 -0.006,0.065 0,0"
         inkscape:connector-curvature="0" />
    </g>
    <g
       id="g6600"
       transform="matrix(1.3333333,0,0,-1.3333333,367.99598,540.63539)">
      <path
         id="path6598"
         style="fill:#000000;fill-opacity:1;fill-rule:nonzero;stroke:none"
         d="m 0,0 c 0.022,0 0.007,-0.004 0.058,0.02 0.015,0.002 0.008,0 0.042,0.034 -0.002,0.008 0.02,-0.005 0.034,0.02 0.002,0.02 -0.002,0 0.036,0.093 C 0.174,0.19 0.165,0.177 0.148,0.239 0.143,0.25 0.134,0.25 0.108,0.283 0.102,0.283 0.065,0.292 0.039,0.271 0.032,0.264 0.011,0.285 -0.021,0.256 -0.036,0.247 -0.02,0.264 -0.054,0.225 -0.067,0.204 -0.088,0.214 -0.094,0.164 -0.1,0.159 -0.109,0.164 -0.117,0.106 -0.124,0.096 -0.135,0.071 -0.112,0.006 -0.1,0.004 -0.1,-0.03 0,0"
         inkscape:connector-curvature="0" />
    </g>
    <g
       id="g6604"
       transform="matrix(1.3333333,0,0,-1.3333333,370.82345,540.50006)">
      <path
         id="path6602"
         style="fill:#000000;fill-opacity:1;fill-rule:nonzero;stroke:none"
         d="m 0,0 c -0.047,-0.046 -0.05,-0.06 -0.057,-0.098 0.002,-0.066 0.009,-0.125 0.028,-0.199 0.014,-0.04 0.038,-0.095 0.064,-0.137 0.043,-0.055 0.084,-0.082 0.127,-0.08 0.04,-0.027 0.159,0.039 0.261,0.113 0.115,0.115 0.044,0.18 0.003,0.306 C 0.4,-0.05 0.382,-0.008 0.321,0.052 0.23,0.096 0.181,0.091 0.089,0.046 0.054,0.032 0.02,0.014 0,0"
         inkscape:connector-curvature="0" />
    </g>
    <g
       id="g6608"
       transform="matrix(1.3333333,0,0,-1.3333333,380.23492,540.77472)">
      <path
         id="path6606"
         style="fill:#000000;fill-opacity:1;fill-rule:nonzero;stroke:none"
         d="M 0,0 C 0.035,0.062 0.022,0.093 -0.022,0.178 -0.096,0.268 -0.186,0.299 -0.277,0.268 -0.296,0.266 -0.309,0.264 -0.337,0.211 -0.351,0.174 -0.358,0.129 -0.295,0.071 -0.257,0.042 -0.115,-0.074 0,0"
         inkscape:connector-curvature="0" />
    </g>
    <g
       id="g6612"
       transform="matrix(1.3333333,0,0,-1.3333333,366.87678,541.20966)">
      <path
         id="path6610"
         style="fill:#000000;fill-opacity:1;fill-rule:nonzero;stroke:none"
         d="m 0,0 c 0,-0.018 -0.004,-0.01 0.016,-0.049 0.019,0 -0.01,-0.003 0.057,-0.026 0.014,0.008 0,0.003 0.05,0.026 0.014,0 -0.011,0.009 0.03,0.039 0.005,0.002 0.004,0.02 0.041,0.053 0.012,0.005 0,0.027 0.017,0.053 C 0.209,0.126 0.216,0.11 0.234,0.195 0.225,0.224 0.26,0.221 0.24,0.302 0.237,0.304 0.229,0.307 0.194,0.324 0.191,0.324 0.156,0.332 0.148,0.313 0.131,0.307 0.158,0.332 0.094,0.272 0.089,0.258 0.074,0.281 0.049,0.227 0.048,0.21 0.049,0.227 0.024,0.178 0.008,0.17 0.024,0.156 0,0.116 0.01,0.088 -0.032,0.096 0,0"
         inkscape:connector-curvature="0" />
    </g>
    <g
       id="g6616"
       transform="matrix(1.3333333,0,0,-1.3333333,368.88532,541.19592)">
      <path
         id="path6614"
         style="fill:#000000;fill-opacity:1;fill-rule:nonzero;stroke:none"
         d="m 0,0 c 0.019,0 -0.004,-0.008 0.077,-0.024 0,0.005 0.007,0 0.041,0.019 C 0.134,0.008 0.108,-0.019 0.166,0.044 0.172,0.049 0.173,0.038 0.187,0.078 0.196,0.081 0.2,0.065 0.219,0.116 0.224,0.126 0.252,0.146 0.212,0.195 0.202,0.2 0.223,0.206 0.168,0.23 0.165,0.23 0.13,0.24 0.123,0.223 0.111,0.213 0.079,0.236 0.037,0.208 0.026,0.206 0.009,0.217 -0.019,0.198 -0.03,0.187 -0.03,0.181 -0.051,0.116 -0.047,0.098 -0.064,0.078 -0.039,0.039 -0.036,0.03 -0.025,0.03 0,0"
         inkscape:connector-curvature="0" />
    </g>
    <g
       id="g6620"
       transform="matrix(1.3333333,0,0,-1.3333333,375.66132,541.47006)">
      <path
         id="path6618"
         style="fill:#000000;fill-opacity:1;fill-rule:nonzero;stroke:none"
         d="M 0,0 C -0.014,-0.008 -0.017,-0.043 -0.083,-0.003 -0.085,0.002 -0.124,0.019 -0.069,0.049 -0.05,0.044 -0.07,0.07 -0.021,0.052 -0.012,0.044 0.026,0.071 0,0 M 0.231,-0.201 C 0.292,-0.14 0.305,-0.091 0.279,-0.03 0.263,0.013 0.23,0.068 0.197,0.121 0.165,0.175 0.131,0.228 0.103,0.26 0.019,0.344 0.004,0.336 -0.06,0.338 -0.099,0.336 -0.152,0.319 -0.209,0.306 -0.266,0.294 -0.327,0.286 -0.361,0.258 -0.393,0.23 -0.402,0.181 -0.378,0.105 c 0.024,-0.073 0.08,-0.176 0.133,-0.245 0.054,-0.071 0.105,-0.107 0.163,-0.119 0.059,-0.011 0.126,0.006 0.168,0.014 0.083,0.025 0.099,0.015 0.145,0.044"
         inkscape:connector-curvature="0" />
    </g>
    <g
       id="g6624"
       transform="matrix(1.3333333,0,0,-1.3333333,368.09038,541.43752)">
      <path
         id="path6622"
         style="fill:#000000;fill-opacity:1;fill-rule:nonzero;stroke:none"
         d="m 0,0 c -0.013,0 0.021,0.016 -0.031,0.025 -0.02,-0.009 -0.021,0.03 -0.083,0.003 -0.006,-0.008 -0.023,0.005 -0.05,-0.015 -0.01,-0.005 -0.003,0.004 -0.041,-0.027 -0.001,-0.022 0,0.009 -0.037,-0.096 -0.003,-0.016 0.013,-0.047 -0.009,-0.068 -0.007,-0.014 0.009,0.022 0.016,-0.067 0.01,-0.002 -0.01,-0.013 0.029,-0.041 0.014,-0.008 -0.011,-0.008 0.051,-0.028 0.018,-0.005 -0.013,-0.021 0.083,0.011 0.023,-0.003 0.016,0.011 0.052,0.037 0.005,0.014 0.008,0 0.037,0.074 0.002,0.029 0.016,0.02 0.015,0.121 C 0.038,-0.068 0.072,-0.057 0,0"
         inkscape:connector-curvature="0" />
    </g>
    <g
       id="g6628"
       transform="matrix(1.3333333,0,0,-1.3333333,369.24332,542.47272)">
      <path
         id="path6626"
         style="fill:#000000;fill-opacity:1;fill-rule:nonzero;stroke:none"
         d="M 0,0 C 0.042,-0.007 0.106,0.101 0.167,0.17 0.143,0.271 0.16,0.368 0.024,0.485 -0.011,0.477 -0.044,0.465 -0.07,0.45 -0.096,0.435 -0.114,0.419 -0.125,0.398 -0.149,0.325 -0.199,0.167 -0.149,0.087 -0.138,0.032 -0.058,-0.024 0,0"
         inkscape:connector-curvature="0" />
    </g>
    <g
       id="g6632"
       transform="matrix(1.3333333,0,0,-1.3333333,375.32665,542.45766)">
      <path
         id="path6630"
         style="fill:#000000;fill-opacity:1;fill-rule:nonzero;stroke:none"
         d="M 0,0 C 0.003,0 0.003,-0.003 0.003,-0.007 -0.003,-0.011 0.006,0 -0.019,-0.03 -0.034,-0.029 -0.036,-0.043 -0.055,-0.003 -0.045,0.008 -0.034,0 0,0 m -0.207,-0.256 c 0.058,-0.03 0.199,-0.064 0.318,-0.033 0.058,0.018 0.107,0.06 0.137,0.109 C 0.231,-0.076 0.212,0.029 0.173,0.117 0.147,0.169 0.142,0.203 0.079,0.244 0.05,0.266 -0.06,0.276 -0.164,0.263 -0.226,0.253 -0.283,0.233 -0.315,0.216 -0.374,0.184 -0.369,0.153 -0.396,0.128 c 0.024,-0.096 0.054,-0.188 0.078,-0.241 0.047,-0.093 0.055,-0.095 0.111,-0.143"
         inkscape:connector-curvature="0" />
    </g>
    <g
       id="g6636"
       transform="matrix(1.3333333,0,0,-1.3333333,370.82412,542.76632)">
      <path
         id="path6634"
         style="fill:#000000;fill-opacity:1;fill-rule:nonzero;stroke:none"
         d="M 0,0 C 0.056,0.115 0.074,0.178 0.039,0.252 0.031,0.314 -0.069,0.407 -0.16,0.337 -0.204,0.314 -0.259,0.257 -0.29,0.208 -0.344,0.106 -0.283,0.071 -0.271,-0.004 -0.256,-0.042 -0.243,-0.084 -0.206,-0.138 -0.134,-0.205 -0.047,-0.126 0,0"
         inkscape:connector-curvature="0" />
    </g>
    <g
       id="g6640"
       transform="matrix(1.3333333,0,0,-1.3333333,380.77465,542.68886)">
      <path
         id="path6638"
         style="fill:#000000;fill-opacity:1;fill-rule:nonzero;stroke:none"
         d="M 0,0 C -0.006,-0.003 0.003,0.011 -0.018,-0.026 -0.026,-0.04 -0.011,-0.028 -0.051,-0.07 -0.06,-0.088 -0.054,-0.075 -0.088,-0.113 -0.093,-0.117 -0.113,-0.132 -0.133,-0.1 c -0.007,0.022 -0.002,0.033 0.021,0.094 0.009,0.014 -0.01,-0.014 0.035,0.036 0.008,0.013 -0.004,-0.009 0.028,0.028 0.017,0 -0.004,0.005 0.052,0.023 0.003,0 0.003,-0.002 0.004,-0.005 C 0.016,0.076 0.036,0.043 0,0 M 0.266,0.162 C 0.256,0.191 0.236,0.219 0.214,0.247 0.144,0.334 0.007,0.313 -0.088,0.284 -0.125,0.263 -0.167,0.233 -0.204,0.197 -0.236,0.159 -0.266,0.113 -0.296,0.065 -0.329,0.013 -0.358,-0.04 -0.391,-0.097 c 0.028,-0.08 0.065,-0.161 0.101,-0.216 0.058,-0.089 0.124,-0.136 0.193,-0.176 0.048,-0.022 0.077,-0.005 0.116,0.005 0.077,0.144 0.15,0.29 0.191,0.384 0.068,0.163 0.066,0.192 0.056,0.262"
         inkscape:connector-curvature="0" />
    </g>
    <g
       id="g6644"
       transform="matrix(1.3333333,0,0,-1.3333333,372.48225,542.50779)">
      <path
         id="path6642"
         style="fill:#000000;fill-opacity:1;fill-rule:nonzero;stroke:none"
         d="m 0,0 c -0.064,0.056 -0.08,0.028 -0.132,0.008 -0.04,-0.024 -0.096,-0.065 -0.103,-0.111 -0.004,-0.053 0,-0.065 0.014,-0.113 0.011,-0.033 0.028,-0.077 0.053,-0.111 0.052,-0.067 0.118,-0.092 0.153,-0.071 0.028,0.022 0.08,0.054 0.087,0.087 0.013,0.029 0.02,0.12 -0.007,0.202 C 0.05,-0.062 0.02,-0.024 0,0"
         inkscape:connector-curvature="0" />
    </g>
    <g
       id="g6648"
       transform="matrix(1.3333333,0,0,-1.3333333,381.48692,543.46419)">
      <path
         id="path6646"
         style="fill:#000000;fill-opacity:1;fill-rule:nonzero;stroke:none"
         d="m 0,0 c 0,-0.023 0.007,0 -0.026,-0.062 -0.01,0 -0.052,-0.023 -0.052,0.079 -0.008,0.008 -0.01,0.048 0.001,0.119 0.011,0.008 0.003,0.027 0.017,0.057 0.005,0.014 -0.012,0.034 0.013,0.063 0.011,0.01 -0.019,0.015 0.043,0.017 C 0,0.271 0.001,0.268 0.002,0.268 0.021,0.263 0.003,0.229 0.017,0.16 0.025,0.152 0.035,0.117 0.012,0.081 0.007,0.06 0.021,0.03 0,0 M 0.061,0.717 -0.107,0.695 C -0.158,0.562 -0.204,0.432 -0.25,0.311 -0.294,0.193 -0.337,0.086 -0.341,0.006 c -0.004,-0.076 0.028,-0.129 0.071,-0.175 0.085,-0.094 0.182,-0.17 0.265,-0.212 0.042,-0.024 0.09,-0.046 0.129,-0.043 0.04,0 0.07,0.025 0.086,0.054 0.019,0.262 0.038,0.525 0.01,0.706 C 0.196,0.52 0.127,0.614 0.061,0.717"
         inkscape:connector-curvature="0" />
    </g>
    <g
       id="g6652"
       transform="matrix(1.3333333,0,0,-1.3333333,366.54478,542.60486)">
      <path
         id="path6650"
         style="fill:#000000;fill-opacity:1;fill-rule:nonzero;stroke:none"
         d="M 0,0 C -0.007,-0.002 -0.029,-0.02 0.007,-0.04 0.015,-0.025 0.036,-0.033 0.021,0.008 0.015,0.008 0.009,0.016 0,0"
         inkscape:connector-curvature="0" />
    </g>
    <g
       id="g6656"
       transform="matrix(1.3333333,0,0,-1.3333333,374.59105,543.28059)">
      <path
         id="path6654"
         style="fill:#000000;fill-opacity:1;fill-rule:nonzero;stroke:none"
         d="m 0,0 c -0.013,0.006 -0.062,-0.032 -0.068,0.047 0.017,0.013 -0.03,0.016 0.056,0.02 0.004,0 0.004,-0.004 0.008,-0.007 C 0.001,0.047 0.037,0.047 0,0 m 0.14,0.146 c -0.118,0.113 -0.327,0.185 -0.493,0.099 0.013,-0.096 0.037,-0.193 0.059,-0.253 0.045,-0.102 0.065,-0.113 0.143,-0.162 0.04,-0.024 0.098,-0.043 0.16,-0.057 0.064,-0.013 0.129,-0.021 0.171,-0.021 0.059,0.002 0.067,0.002 0.098,0.054 C 0.261,-0.131 0.239,-0.067 0.218,-0.01 0.196,0.05 0.172,0.106 0.14,0.146"
         inkscape:connector-curvature="0" />
    </g>
    <g
       id="g6660"
       transform="matrix(1.3333333,0,0,-1.3333333,368.09692,543.83859)">
      <path
         id="path6658"
         style="fill:#000000;fill-opacity:1;fill-rule:nonzero;stroke:none"
         d="m 0,0 c -0.007,-0.005 0.01,-0.012 -0.033,-0.056 -0.003,0 0.013,-0.039 -0.062,-0.01 -0.013,-0.001 -0.02,0.043 0.002,0.087 -0.004,0.033 0.01,0.008 0.065,0.054 C -0.022,0.07 -0.032,0.105 0.014,0.08 0.033,0.07 0.021,0.062 0,0 M 0.242,0.328 C 0.229,0.344 0.214,0.352 0.198,0.359 0.168,0.378 0.06,0.367 -0.043,0.34 -0.104,0.328 -0.158,0.308 -0.197,0.287 -0.239,0.271 -0.262,0.255 -0.282,0.23 -0.348,0.135 -0.353,0.016 -0.346,-0.113 c 0.002,-0.073 -0.021,-0.133 0.047,-0.193 0.06,-0.067 0.191,-0.03 0.274,0.019 0.059,0.038 0.151,0.05 0.236,0.133 0.031,0.041 0.047,0.095 0.064,0.151 C 0.299,0.092 0.319,0.181 0.277,0.255 0.265,0.282 0.254,0.312 0.242,0.328"
         inkscape:connector-curvature="0" />
    </g>
    <g
       id="g6664"
       transform="matrix(1.3333333,0,0,-1.3333333,379.40612,544.18752)">
      <path
         id="path6662"
         style="fill:#000000;fill-opacity:1;fill-rule:nonzero;stroke:none"
         d="M 0,0 C 0.004,-0.012 0.017,0.021 0,0"
         inkscape:connector-curvature="0" />
    </g>
  </g>
</svg>
