<?xml version="1.0" encoding="UTF-8" standalone="no"?>
<!-- Created with Inkscape (http://www.inkscape.org/) -->

<svg
   xmlns:dc="http://purl.org/dc/elements/1.1/"
   xmlns:cc="http://creativecommons.org/ns#"
   xmlns:rdf="http://www.w3.org/1999/02/22-rdf-syntax-ns#"
   xmlns:svg="http://www.w3.org/2000/svg"
   xmlns="http://www.w3.org/2000/svg"
   xmlns:sodipodi="http://sodipodi.sourceforge.net/DTD/sodipodi-0.dtd"
   xmlns:inkscape="http://www.inkscape.org/namespaces/inkscape"
   width="9.2211409mm"
   height="9.2211409mm"
   viewBox="0 0 32.673334 32.673333"
   id="svg38115"
   version="1.1"
   inkscape:version="0.91 r13725"
   sodipodi:docname="skoda.svg">
  <defs
     id="defs38117" />
  <sodipodi:namedview
     id="base"
     pagecolor="#ffffff"
     bordercolor="#666666"
     borderopacity="1.0"
     inkscape:pageopacity="0.0"
     inkscape:pageshadow="2"
     inkscape:zoom="0.35"
     inkscape:cx="16.336671"
     inkscape:cy="16.336672"
     inkscape:document-units="px"
     inkscape:current-layer="layer1"
     showgrid="false"
     fit-margin-top="0"
     fit-margin-left="0"
     fit-margin-right="0"
     fit-margin-bottom="0"
     inkscape:window-width="751"
     inkscape:window-height="405"
     inkscape:window-x="608"
     inkscape:window-y="268"
     inkscape:window-maximized="0" />
  <metadata
     id="metadata38120">
    <rdf:RDF>
      <cc:Work
         rdf:about="">
        <dc:format>image/svg+xml</dc:format>
        <dc:type
           rdf:resource="http://purl.org/dc/dcmitype/StillImage" />
        <dc:title></dc:title>
      </cc:Work>
    </rdf:RDF>
  </metadata>
  <g
     inkscape:label="Layer 1"
     inkscape:groupmode="layer"
     id="layer1"
     transform="translate(-358.66331,-516.02553)">
    <g
       id="g8070"
       transform="matrix(1.3333334,0,0,-1.3333335,390.94464,532.3602)">
      <path
         id="path8068"
         style="fill:#000000;fill-opacity:1;fill-rule:nonzero;stroke:none"
         d="m 0,0 0,-0.003 c 0,-3.291 -1.343,-6.282 -3.509,-8.447 -2.165,-2.169 -5.156,-3.51 -8.451,-3.51 -3.295,0 -6.283,1.341 -8.449,3.51 -2.167,2.165 -3.511,5.156 -3.511,8.447 l 0,0.003 c 0,3.292 1.344,6.282 3.511,8.449 2.166,2.166 5.154,3.509 8.449,3.509 3.295,0 6.286,-1.343 8.451,-3.509 C -1.343,6.282 0,3.292 0,0 m -11.96,12.251 0,0 c -3.374,0 -6.436,-1.374 -8.657,-3.596 -2.22,-2.22 -3.594,-5.28 -3.594,-8.655 l 0,-0.003 c 0,-3.373 1.374,-6.435 3.592,-8.656 2.223,-2.221 5.285,-3.595 8.659,-3.595 3.375,0 6.438,1.374 8.656,3.595 2.221,2.221 3.598,5.283 3.598,8.659 0,3.375 -1.377,6.435 -3.594,8.655 -2.222,2.222 -5.285,3.596 -8.66,3.596"
         inkscape:connector-curvature="0" />
    </g>
    <g
       id="g8074"
       transform="matrix(1.3333334,0,0,-1.3333335,380.28064,519.45726)">
      <path
         id="path8072"
         style="fill:#000000;fill-opacity:1;fill-rule:nonzero;stroke:none"
         d="M 0,0 0.096,-0.042 C 0.325,-0.138 0.467,-0.257 0.533,-0.396 0.598,-0.534 0.588,-0.704 0.498,-0.907 0.413,-1.109 0.299,-1.236 0.157,-1.285 c -0.148,-0.05 -0.329,-0.026 -0.558,0.07 l -0.097,0.044 z m -0.732,-1.634 c 0.276,-0.116 0.485,-0.188 0.63,-0.216 0.142,-0.024 0.282,-0.022 0.416,0.006 0.175,0.037 0.327,0.113 0.458,0.23 0.131,0.116 0.237,0.27 0.315,0.457 0.081,0.188 0.114,0.368 0.11,0.544 -0.01,0.176 -0.06,0.342 -0.154,0.489 C 0.97,-0.008 0.874,0.098 0.75,0.186 0.627,0.275 0.4,0.389 0.069,0.529 l -0.442,0.187 -0.9,-2.123 0.443,-0.189 z"
         inkscape:connector-curvature="0" />
    </g>
    <g
       id="g8078"
       transform="matrix(1.3333334,0,0,-1.3333335,374.12051,518.68513)">
      <path
         id="path8076"
         style="fill:#000000;fill-opacity:1;fill-rule:nonzero;stroke:none"
         d="M 0,0 C 0.114,0.131 0.257,0.196 0.432,0.196 0.601,0.196 0.747,0.131 0.86,0 c 0.116,-0.127 0.173,-0.289 0.173,-0.481 0,-0.196 -0.055,-0.36 -0.17,-0.489 -0.114,-0.125 -0.258,-0.19 -0.431,-0.19 -0.178,0 -0.324,0.065 -0.434,0.19 -0.113,0.126 -0.168,0.29 -0.168,0.489 0,0.194 0.058,0.356 0.17,0.481 m -0.437,-1.338 c 0.111,-0.115 0.247,-0.2 0.395,-0.263 0.15,-0.058 0.31,-0.089 0.474,-0.089 0.162,0 0.317,0.031 0.471,0.089 0.151,0.063 0.283,0.148 0.4,0.263 0.118,0.113 0.206,0.245 0.265,0.387 0.063,0.148 0.094,0.304 0.094,0.47 0,0.165 -0.031,0.319 -0.094,0.464 C 1.507,0.131 1.421,0.259 1.303,0.374 1.188,0.485 1.057,0.574 0.903,0.635 0.752,0.695 0.594,0.728 0.432,0.728 0.268,0.728 0.108,0.695 -0.042,0.635 -0.19,0.574 -0.326,0.485 -0.437,0.374 -0.558,0.256 -0.646,0.129 -0.709,-0.017 -0.769,-0.162 -0.8,-0.316 -0.8,-0.481 c 0,-0.163 0.031,-0.319 0.091,-0.466 0.063,-0.146 0.151,-0.278 0.272,-0.391"
         inkscape:connector-curvature="0" />
    </g>
    <g
       id="g8082"
       transform="matrix(1.3333334,0,0,-1.3333335,385.50331,523.23913)">
      <path
         id="path8080"
         style="fill:#000000;fill-opacity:1;fill-rule:nonzero;stroke:none"
         d="m 0,0 c -0.031,-0.041 -0.052,-0.074 -0.065,-0.094 l -0.432,-0.669 -0.401,0.479 0.729,0.311 c 0.046,0.019 0.091,0.042 0.14,0.065 0.047,0.022 0.096,0.05 0.148,0.074 C 0.069,0.1 0.031,0.045 0,0 m -2.125,-0.162 0.401,-0.482 0.394,0.174 0.575,-0.683 -0.242,-0.356 0.4,-0.476 L 0.656,0.106 0.15,0.71 Z"
         inkscape:connector-curvature="0" />
    </g>
    <g
       id="g8086"
       transform="matrix(1.3333334,0,0,-1.3333335,363.97464,522.4546)">
      <path
         id="path8084"
         style="fill:#000000;fill-opacity:1;fill-rule:nonzero;stroke:none"
         d="M 0,0 -0.229,0.58 -0.388,0.396 -0.345,0.012 -0.729,-0.002 -0.89,-0.183 -0.285,-0.329 Z"
         inkscape:connector-curvature="0" />
    </g>
    <g
       id="g8090"
       transform="matrix(1.3333334,0,0,-1.3333335,364.06317,524.25873)">
      <path
         id="path8088"
         style="fill:#000000;fill-opacity:1;fill-rule:nonzero;stroke:none"
         d="M 0,0 C 0.129,-0.111 0.26,-0.163 0.395,-0.157 0.53,-0.149 0.695,-0.083 0.89,0.051 1.03,0.143 1.129,0.194 1.192,0.203 1.255,0.213 1.313,0.191 1.373,0.139 1.424,0.093 1.449,0.038 1.449,-0.034 1.446,-0.103 1.42,-0.17 1.365,-0.235 1.304,-0.304 1.226,-0.353 1.126,-0.388 1.027,-0.423 0.905,-0.439 0.766,-0.439 L 0.931,-0.96 c 0.17,0.016 0.317,0.053 0.446,0.118 0.127,0.064 0.241,0.155 0.349,0.276 0.176,0.203 0.258,0.413 0.252,0.631 C 1.969,0.285 1.876,0.475 1.69,0.633 1.618,0.697 1.542,0.746 1.465,0.776 1.387,0.807 1.309,0.818 1.23,0.813 1.113,0.81 0.946,0.732 0.727,0.584 L 0.701,0.567 C 0.601,0.497 0.522,0.46 0.471,0.45 0.417,0.442 0.366,0.458 0.322,0.494 0.28,0.532 0.26,0.582 0.265,0.64 c 0.006,0.061 0.031,0.117 0.08,0.173 0.047,0.058 0.11,0.103 0.182,0.141 0.072,0.035 0.155,0.06 0.247,0.072 L 0.561,1.472 C 0.442,1.443 0.335,1.395 0.231,1.332 0.132,1.268 0.041,1.187 -0.042,1.092 -0.196,0.916 -0.271,0.725 -0.261,0.522 -0.253,0.319 -0.164,0.143 0,0"
         inkscape:connector-curvature="0" />
    </g>
    <g
       id="g8094"
       transform="matrix(1.3333334,0,0,-1.3333335,369.52411,522.28993)">
      <path
         id="path8092"
         style="fill:#000000;fill-opacity:1;fill-rule:nonzero;stroke:none"
         d="M 0,0 -0.452,0.93 0.677,0.33 1.38,0.676 0.031,1.33 0.303,2.714 -0.354,2.395 -0.551,1.133 -1.01,2.072 -1.566,1.8 -0.559,-0.271 Z"
         inkscape:connector-curvature="0" />
    </g>
    <g
       id="g8098"
       transform="matrix(1.3333334,0,0,-1.3333335,386.24157,537.43646)">
      <path
         id="path8096"
         style="fill:#000000;fill-opacity:1;fill-rule:nonzero;stroke:none"
         d="m 0,0 c -0.078,0.083 -0.153,0.164 -0.234,0.246 -0.441,-0.67 -0.515,-1.45 -0.416,-2.279 -0.168,-0.203 -0.342,-0.406 -0.513,-0.609 -0.037,0.232 -0.078,0.462 -0.12,0.694 0.049,0.054 0.096,0.112 0.146,0.166 -0.063,0.48 -0.461,0.48 -0.526,0.144 -0.041,-0.095 -0.052,-0.203 0.13,-0.395 0.031,-0.28 0.065,-0.555 0.096,-0.833 -0.527,-0.442 -1.045,-0.967 -1.575,-1.406 -0.008,0.036 -0.028,0.16 -0.035,0.203 0.247,0.414 0.483,0.835 0.954,1.094 0.147,0.329 0.24,0.622 0.145,0.906 -0.644,-0.448 -1.17,-0.962 -1.53,-1.574 -0.051,-0.28 -0.101,-0.565 -0.153,-0.845 -0.197,-0.128 -0.397,-0.254 -0.596,-0.382 0.003,0.169 0.102,0.343 0.107,0.513 0.474,0.602 -0.225,0.843 -0.394,0.299 0.061,-0.355 0.061,-0.643 -0.072,-0.932 -0.695,-0.272 -1.317,-0.547 -2.014,-0.823 -0.006,0.061 0.075,0.226 0.072,0.286 0.395,0.384 0.75,0.537 1.37,0.633 0.264,0.218 0.371,0.446 0.322,0.727 -0.567,-0.1 -1.137,-0.259 -1.61,-0.585 -0.447,-0.275 -0.735,-0.644 -0.796,-1.108 -0.272,-0.024 -0.54,-0.048 -0.814,-0.073 0.172,0.189 0.342,0.376 0.513,0.562 0.092,0.044 0.183,0.09 0.273,0.131 0.118,0.521 -0.126,0.513 -0.428,0.43 -0.092,-0.101 -0.125,-0.225 -0.118,-0.358 -0.19,-0.206 -0.383,-0.414 -0.646,-0.542 -0.262,0.285 -0.453,0.491 -0.644,0.697 0.024,0.137 -0.014,0.255 -0.118,0.359 -0.3,0.084 -0.547,0.094 -0.432,-0.428 0.1,-0.096 0.192,-0.153 0.276,-0.131 0.172,-0.187 0.341,-0.374 0.512,-0.564 -0.27,0.025 -0.541,0.05 -0.81,0.074 -0.064,0.463 -0.356,0.833 -0.801,1.109 -0.473,0.327 -1.038,0.482 -1.608,0.583 -0.049,-0.28 0.054,-0.508 0.322,-0.727 0.619,-0.094 0.974,-0.25 1.372,-0.63 -0.005,-0.06 0.073,-0.229 0.07,-0.288 -0.697,0.275 -1.319,0.551 -2.015,0.824 -0.129,0.289 -0.129,0.577 -0.072,0.931 -0.172,0.544 -0.864,0.303 -0.393,-0.301 0.004,-0.171 0.104,-0.341 0.107,-0.511 -0.199,0.127 -0.399,0.255 -0.597,0.38 -0.049,0.283 -0.103,0.564 -0.155,0.847 -0.357,0.611 -0.883,1.126 -1.527,1.575 -0.092,-0.284 -0.002,-0.577 0.145,-0.908 0.471,-0.257 0.707,-0.678 0.955,-1.096 -0.009,-0.039 -0.029,-0.162 -0.037,-0.203 -0.528,0.44 -1.047,0.965 -1.574,1.408 0.031,0.277 0.064,0.557 0.095,0.836 0.183,0.188 0.173,0.297 0.134,0.392 -0.066,0.336 -0.464,0.336 -0.526,-0.144 0.047,-0.055 0.095,-0.11 0.143,-0.167 -0.04,-0.229 -0.081,-0.46 -0.119,-0.69 -0.174,0.2 -0.341,0.403 -0.514,0.609 0.097,0.828 0.025,1.606 -0.418,2.276 -0.076,-0.083 -0.155,-0.164 -0.233,-0.246 -0.158,0.06 -0.21,0.228 -0.15,0.508 -0.238,0.212 -0.388,0.135 -0.438,-0.225 0.141,-0.131 0.253,-0.28 0.203,-0.537 -0.145,0.078 -0.289,0.155 -0.429,0.237 -0.006,-0.178 -0.008,-0.359 -0.012,-0.536 -0.074,0.04 -0.149,0.091 -0.251,0.224 -0.064,0.129 -0.127,0.258 -0.192,0.384 -0.333,0.078 -0.461,-0.047 -0.38,-0.384 0.098,-0.049 0.198,-0.1 0.297,-0.153 0.134,-0.071 0.222,-0.158 0.264,-0.26 -0.161,-0.041 -0.32,-0.081 -0.478,-0.121 0.503,-0.645 1.074,-1.194 1.894,-1.395 0.159,-0.151 0.428,-0.409 0.585,-0.562 -0.111,-0.038 -0.352,0.006 -0.462,-0.034 -0.079,0.067 -0.13,0.159 -0.206,0.226 -0.335,0.024 -0.595,-0.011 -0.319,-0.465 0.125,-0.08 0.285,-0.094 0.474,-0.048 0.242,0.033 0.478,0.062 0.718,0.095 0.543,-0.464 1.17,-0.966 1.718,-1.43 -0.499,0.087 -1.089,0.284 -1.552,0.786 -0.297,0.235 -0.633,0.308 -1.026,0.191 0.367,-0.486 0.789,-0.876 1.252,-1.205 0.654,-0.358 1.281,-0.366 1.933,-0.211 0.175,-0.078 0.355,-0.155 0.535,-0.229 -0.205,-0.072 -0.411,-0.143 -0.62,-0.215 -0.142,0.08 -0.287,0.065 -0.432,-0.047 -0.117,-0.23 -0.09,-0.379 0.076,-0.453 0.133,-0.096 0.283,-0.049 0.449,0.141 0.298,0.105 0.592,0.208 0.883,0.312 0.247,-0.071 0.496,-0.144 0.741,-0.214 0.472,-0.147 0.946,-0.296 1.417,-0.441 -0.325,-0.141 -0.739,-0.138 -1.286,0.07 -0.502,0.286 -0.914,0.224 -1.288,0 0.447,-0.447 1.068,-0.716 1.86,-0.812 0.649,0.101 1.105,0.339 1.526,0.599 0.18,-0.006 0.359,-0.008 0.538,-0.014 -0.522,-0.385 -0.925,-0.83 -0.907,-1.503 0.383,0.627 0.838,1.06 1.527,1.222 0.692,-0.319 1.146,-0.752 1.528,-1.377 0.019,0.672 -0.384,1.117 -0.905,1.503 0.179,0.006 0.357,0.008 0.536,0.009 0.424,-0.257 0.876,-0.493 1.525,-0.596 0.794,0.098 1.416,0.366 1.861,0.813 -0.374,0.221 -0.785,0.286 -1.288,0 -0.548,-0.211 -0.963,-0.211 -1.288,-0.071 0.473,0.146 0.946,0.292 1.418,0.441 0.247,0.069 0.491,0.143 0.742,0.213 0.294,-0.102 0.585,-0.205 0.879,-0.309 0.169,-0.191 0.32,-0.238 0.456,-0.141 0.167,0.072 0.189,0.221 0.07,0.45 -0.146,0.115 -0.287,0.128 -0.428,0.049 -0.207,0.073 -0.415,0.143 -0.621,0.216 0.18,0.075 0.357,0.151 0.537,0.226 0.652,-0.153 1.28,-0.145 1.93,0.214 0.464,0.328 0.886,0.717 1.252,1.203 -0.389,0.118 -0.727,0.043 -1.025,-0.189 -0.463,-0.502 -1.054,-0.701 -1.548,-0.789 0.544,0.467 1.173,0.967 1.714,1.431 0.24,-0.031 0.479,-0.06 0.719,-0.093 0.191,-0.048 0.349,-0.032 0.473,0.046 0.275,0.455 0.014,0.49 -0.319,0.468 -0.078,-0.069 -0.128,-0.16 -0.203,-0.228 -0.11,0.038 -0.354,-0.004 -0.463,0.035 0.156,0.151 0.421,0.41 0.583,0.561 0.819,0.201 1.392,0.747 1.894,1.396 -0.156,0.04 -0.319,0.079 -0.477,0.117 0.04,0.105 0.129,0.19 0.264,0.264 0.096,0.049 0.201,0.103 0.299,0.153 C 1.73,0.008 1.601,0.134 1.271,0.055 1.205,-0.072 1.143,-0.2 1.078,-0.328 0.974,-0.462 0.898,-0.514 0.827,-0.555 0.825,-0.376 0.82,-0.195 0.818,-0.017 0.675,-0.095 0.531,-0.175 0.389,-0.253 0.334,0.003 0.451,0.148 0.589,0.283 0.539,0.644 0.392,0.719 0.149,0.508 0.212,0.228 0.162,0.057 0,0"
         inkscape:connector-curvature="0" />
    </g>
    <g
       id="g8102"
       transform="matrix(1.3333334,0,0,-1.3333335,376.11397,533.7294)">
      <path
         id="path8100"
         style="fill:#000000;fill-opacity:1;fill-rule:nonzero;stroke:none"
         d="M 0,0 C 0.298,0.294 0.785,0.288 1.089,-0.012 1.391,-0.316 1.396,-0.806 1.099,-1.103 0.805,-1.396 0.315,-1.393 0.012,-1.088 -0.291,-0.785 -0.294,-0.295 0,0 M -2.195,6.435 C -1.504,5.924 -1.124,5.597 -0.774,4.803 L -1.079,4.627 C -1.652,5.382 -2.331,6.161 -3.114,6.604 -3.956,7.051 -5.912,4.841 -5.67,4.739 -4.887,4.371 -3.872,3.896 -3.294,3.48 L -3.544,3.082 C -4.34,3.544 -5.611,4.178 -6.251,4.139 -6.58,4.09 -7.287,1.794 -6.931,1.705 -6.19,1.643 -4.81,0.898 -4.172,0.575 c 0.445,-0.354 1.808,-2.647 1.258,-2.971 -0.178,-0.107 -0.724,0.016 -1.281,0.292 -2.553,1.036 -2.745,-0.119 -2.267,-0.473 0.385,-0.239 0.253,-0.665 0.272,-0.771 -0.022,-0.644 0.666,-1.147 1.991,-0.246 2.713,-0.033 4.258,-0.094 6.977,-0.132 0.249,-0.797 1.966,0.011 2.52,0.67 -0.232,0.561 -2.224,1.958 -2.481,0.534 L 2.102,-2.386 C 3.643,0.896 3.177,7.088 -0.431,7.695 -0.98,7.784 -3.222,7.194 -2.195,6.435"
         inkscape:connector-curvature="0" />
    </g>
    <g
       id="g8106"
       transform="matrix(1.3333334,0,0,-1.3333335,385.52677,532.4546)">
      <path
         id="path8104"
         style="fill:#000000;fill-opacity:1;fill-rule:nonzero;stroke:none"
         d="m 0,0 0,0 c 0,-2.158 -0.879,-4.115 -2.298,-5.532 -1.417,-1.416 -3.371,-2.294 -5.525,-2.294 -2.158,0 -4.111,0.878 -5.53,2.294 -1.418,1.417 -2.294,3.374 -2.297,5.532 0,2.153 0.879,4.11 2.297,5.527 1.419,1.416 3.372,2.294 5.526,2.294 l 0.004,0 c 2.154,0 4.108,-0.878 5.525,-2.294 C -0.879,4.11 0,2.153 0,0 m -7.823,8.119 -0.004,0 C -10.063,8.118 -12.089,7.204 -13.56,5.734 -15.031,4.263 -15.944,2.235 -15.944,0 c 0,-2.237 0.913,-4.268 2.381,-5.739 1.474,-1.469 3.5,-2.381 5.74,-2.381 2.233,0 4.262,0.912 5.732,2.381 1.472,1.471 2.383,3.502 2.383,5.739 0,2.235 -0.911,4.263 -2.383,5.734 -1.47,1.472 -3.499,2.385 -5.732,2.385"
         inkscape:connector-curvature="0" />
    </g>
  </g>
</svg>
