<?xml version="1.0" encoding="UTF-8" standalone="no"?>
<!-- Created with Inkscape (http://www.inkscape.org/) -->

<svg
   xmlns:dc="http://purl.org/dc/elements/1.1/"
   xmlns:cc="http://creativecommons.org/ns#"
   xmlns:rdf="http://www.w3.org/1999/02/22-rdf-syntax-ns#"
   xmlns:svg="http://www.w3.org/2000/svg"
   xmlns="http://www.w3.org/2000/svg"
   xmlns:sodipodi="http://sodipodi.sourceforge.net/DTD/sodipodi-0.dtd"
   xmlns:inkscape="http://www.inkscape.org/namespaces/inkscape"
   width="11.953052mm"
   height="7.4788885mm"
   viewBox="0 0 42.353333 26.499999"
   id="svg38115"
   version="1.1"
   inkscape:version="0.91 r13725"
   sodipodi:docname="toyota.svg">
  <defs
     id="defs38117" />
  <sodipodi:namedview
     id="base"
     pagecolor="#ffffff"
     bordercolor="#666666"
     borderopacity="1.0"
     inkscape:pageopacity="0.0"
     inkscape:pageshadow="2"
     inkscape:zoom="7.9195959"
     inkscape:cx="21.176664"
     inkscape:cy="13.249998"
     inkscape:document-units="px"
     inkscape:current-layer="layer1"
     showgrid="false"
     fit-margin-top="0"
     fit-margin-left="0"
     fit-margin-right="0"
     fit-margin-bottom="0"
     inkscape:window-width="751"
     inkscape:window-height="405"
     inkscape:window-x="608"
     inkscape:window-y="268"
     inkscape:window-maximized="0" />
  <metadata
     id="metadata38120">
    <rdf:RDF>
      <cc:Work
         rdf:about="">
        <dc:format>image/svg+xml</dc:format>
        <dc:type
           rdf:resource="http://purl.org/dc/dcmitype/StillImage" />
        <dc:title></dc:title>
      </cc:Work>
    </rdf:RDF>
  </metadata>
  <g
     inkscape:label="Layer 1"
     inkscape:groupmode="layer"
     id="layer1"
     transform="translate(-336.84877,-515.98723)">
    <g
       id="g274"
       transform="matrix(1.3333333,0,0,-1.3333333,339.41277,529.0099)">
      <path
         id="path272"
         style="fill:#000000;fill-opacity:1;fill-rule:nonzero;stroke:none"
         d="m 0,0 c 0,-0.048 -0.005,-0.097 -0.005,-0.146 0,-4.526 5.494,-8.25 12.537,-8.699 C 5.489,-8.396 -0.006,-4.673 -0.006,-0.146 -0.006,-0.097 0,-0.048 0,0 M 3.267,3.869 C 3.905,2.207 6.292,0.822 9.669,0.177 9.664,-0.013 9.661,-0.254 9.661,-0.254 c 0,-3.256 0.772,-6.067 2.045,-7.583 -6.052,0.645 -10.542,3.808 -10.542,7.524 0,1.498 0.73,2.934 2.103,4.182 m 0.076,0.959 c 0,0.013 -0.003,0.025 -0.004,0.039 0,0.003 0,0.007 0,0.011 l 0,-0.003 0,0.033 c 0,-0.027 0.004,-0.052 0.004,-0.08 m 0.03,-0.215 0,0 C 3.369,4.625 3.367,4.637 3.365,4.65 l 0,0.002 C 3.367,4.64 3.369,4.626 3.373,4.613 M 8.34,2.678 C 8.566,2.617 8.805,2.56 9.05,2.506 8.805,2.56 8.567,2.617 8.34,2.678 m 1.752,-2.087 0,0 0.226,0.265 0,0.003 C 10.292,0.861 10.265,0.867 10.238,0.87 10.266,0.867 10.293,0.861 10.32,0.859 l 0,-0.003 -0.002,0 z M 6.041,5.288 C 6.394,6.279 8.779,7.146 11.827,7.425 10.957,6.442 10.288,4.857 9.939,2.931 7.958,3.297 6.534,3.928 6.115,4.644 6.035,4.777 5.997,4.912 5.997,5.042 c 0,0.083 0.014,0.163 0.044,0.246 m 6.04,-1.139 c -0.074,-0.212 -0.142,-0.44 -0.205,-0.681 0.063,0.241 0.131,0.469 0.205,0.681 m 4.218,-2.021 0,0 c -0.167,1.246 -0.481,2.267 -0.886,2.977 0.406,-0.709 0.719,-1.731 0.886,-2.977 m -0.027,4.227 c -0.011,0.024 -0.025,0.049 -0.039,0.074 0,0 0,0 0,-0.001 0.015,-0.025 0.028,-0.049 0.039,-0.073 m 5.605,-1.067 c 0.03,-0.082 0.044,-0.163 0.044,-0.246 0,-0.13 -0.039,-0.265 -0.116,-0.398 C 21.384,3.928 19.958,3.297 17.979,2.931 17.63,4.857 16.962,6.442 16.093,7.425 19.14,7.146 21.528,6.278 21.877,5.288 M 23.621,3.143 C 23.62,3.142 23.617,3.139 23.616,3.136 23.572,3.097 23.526,3.057 23.478,3.019 23.529,3.06 23.576,3.103 23.621,3.143 M 18.838,2.5 c 0.268,0.058 0.527,0.121 0.775,0.187 C 19.365,2.621 19.107,2.558 18.838,2.5 m -1.368,-0.242 0,0 0.075,0.091 z m 0.13,-1.399 10e-4,-0.003 -0.002,0 0,0.003 c 0.025,0.002 0.048,0.007 0.072,0.009 C 17.647,0.866 17.624,0.861 17.6,0.859 m 7.052,3.01 c 1.372,-1.248 2.103,-2.684 2.103,-4.182 0,-3.717 -4.489,-6.879 -10.544,-7.525 1.275,1.517 2.048,4.328 2.048,7.584 0,0 -0.005,0.241 -0.008,0.431 3.374,0.645 5.761,2.03 6.401,3.692 m -0.098,0.784 c 0,-10e-4 0,-0.003 -10e-4,-0.006 C 24.552,4.636 24.549,4.624 24.546,4.613 l -10e-4,0 c 0.004,0.015 0.007,0.028 0.009,0.04 m 0.025,0.214 c 0,-0.014 -0.004,-0.029 -0.005,-0.041 0.002,0.027 0.005,0.055 0.006,0.086 l 0,-0.037 0,0.003 C 24.58,4.874 24.579,4.87 24.579,4.867 M 16.42,0.709 16.421,0.712 c 0.01,-0.235 0.016,-0.472 0.016,-0.716 0,0.243 -0.008,0.48 -0.017,0.713 m -1.725,-6.688 c 1.009,0.768 1.742,3.087 1.742,5.972 0,-2.885 -0.733,-5.204 -1.742,-5.972 m 1.489,8.191 0.047,-0.036 -0.047,0.035 z m -2.226,0.376 c -0.553,0 -1.104,0.021 -1.642,0.056 0.33,1.596 0.962,2.616 1.642,2.616 0.684,0 1.313,-1.02 1.645,-2.616 -0.54,-0.035 -1.088,-0.056 -1.645,-0.056 m 0,-7.79 c -0.895,0 -1.853,2.029 -1.889,5.066 0.621,-0.046 1.254,-0.075 1.889,-0.075 0.639,0 1.27,0.029 1.89,0.075 -0.036,-3.037 -0.993,-5.066 -1.89,-5.066 m -2.223,7.413 0,0 -0.114,-0.083 z m -0.094,4.133 c 0.018,0.035 0.036,0.069 0.054,0.103 10e-4,0.001 10e-4,0.003 0.003,0.005 -0.019,-0.036 -0.039,-0.07 -0.057,-0.108 m -0.157,-6.351 0,0 c 0,-2.885 0.732,-5.204 1.74,-5.972 -1.008,0.768 -1.74,3.087 -1.74,5.972 m 2.474,-10.101 c 8.759,0 15.884,4.46 15.884,9.938 0,5.481 -7.125,9.937 -15.884,9.937 -8.756,0 -15.881,-4.456 -15.881,-9.937 0,-5.478 7.125,-9.938 15.881,-9.938"
         inkscape:connector-curvature="0" />
    </g>
  </g>
</svg>
